999
dxflib 3.26.4.0
  0
SECTION
  2
HEADER
  9
$ACADVER
  1
AC1015
  9
$HANDSEED
  5
FFFF
  9
$DIMADEC
 70
0
  9
$DIMASZ
 40
2.5
  9
$DIMATFIT
 70
0
  9
$DIMAUNIT
 70
0
  9
$DIMAZIN
 70
2
  9
$DIMBLK
  1

  9
$DIMDEC
 70
4
  9
$DIMDLI
 40
5.0
  9
$DIMDSEP
 70
46
  9
$DIMEXE
 40
1.25
  9
$DIMEXO
 40
0.625
  9
$DIMGAP
 40
0.625
  9
$DIMLFAC
 40
1.0
  9
$DIMLUNIT
 70
2
  9
$DIMSCALE
 40
1.0
  9
$DIMTAD
 70
1
  9
$DIMTIH
 70
0
  9
$DIMTSZ
 40
0.0
  9
$DIMTXT
 40
2.5
  9
$DIMZIN
 70
8
  9
$DWGCODEPAGE
  3
ANSI_1252
  9
$INSUNITS
 70
4
  9
$LTSCALE
 40
1.0
  9
$MAXACTVP
 70
64
  9
$MEASUREMENT
 70
1
  9
$MIRRTEXT
 70
0
  9
$PDMODE
 70
0
  9
$PDSIZE
 40
0.0
  0
ENDSEC
  0
SECTION
  2
TABLES
  0
TABLE
  2
VPORT
  5
8
100
AcDbSymbolTable
 70
1
  0
VPORT
  5
30
100
AcDbSymbolTableRecord
100
AcDbViewportTableRecord
  2
*Active
 70
0
 10
0.0
 20
0.0
 11
1.0
 21
1.0
 12
286.3055555555554861
 22
148.5
 13
0.0
 23
0.0
 14
10.0
 24
10.0
 15
10.0
 25
10.0
 16
0.0
 26
0.0
 36
1.0
 17
0.0
 27
0.0
 37
0.0
 40
297.0
 41
1.92798353909465
 42
50.0
 43
0.0
 44
0.0
 50
0.0
 51
0.0
 71
0
 72
100
 73
1
 74
3
 75
1
 76
1
 77
0
 78
0
281
0
 65
1
110
0.0
120
0.0
130
0.0
111
1.0
121
0.0
131
0.0
112
0.0
122
1.0
132
0.0
 79
0
146
0.0
  0
ENDTAB
  0
TABLE
  2
LTYPE
  5
5
100
AcDbSymbolTable
 70
41
  0
LTYPE
  5
16
100
AcDbSymbolTableRecord
100
AcDbLinetypeTableRecord
  2
Continuous
 70
0
  3
Solid line
 72
65
 73
0
 40
0.0
  0
LTYPE
  5
31
100
AcDbSymbolTableRecord
100
AcDbLinetypeTableRecord
  2
DIVIDE2
 70
0
  3
Divide (.5x) __..__..__..__..__..__..__..__.._
 72
65
 73
6
 40
15.875
 49
6.3499999999999996
 74
0
 49
-3.1749999999999998
 74
0
 49
0.0
 74
0
 49
-3.1749999999999998
 74
0
 49
0.0
 74
0
 49
-3.1749999999999998
 74
0
  0
LTYPE
  5
32
100
AcDbSymbolTableRecord
100
AcDbLinetypeTableRecord
  2
DIVIDE
 70
0
  3
Divide ____ . . ____ . . ____ . . ____ . . ____
 72
65
 73
6
 40
31.75
 49
12.6999999999999993
 74
0
 49
-6.3499999999999996
 74
0
 49
0.0
 74
0
 49
-6.3499999999999996
 74
0
 49
0.0
 74
0
 49
-6.3499999999999996
 74
0
  0
LTYPE
  5
33
100
AcDbSymbolTableRecord
100
AcDbLinetypeTableRecord
  2
ACAD_ISO13W100
 70
0
  3
ISO double-dash double-dot __ __ . . __ __ . . _
 72
65
 73
8
 40
36.0
 49
12.0
 74
0
 49
-3.0
 74
0
 49
12.0
 74
0
 49
-3.0
 74
0
 49
0.0
 74
0
 49
-3.0
 74
0
 49
0.0
 74
0
 49
-3.0
 74
0
  0
LTYPE
  5
15
100
AcDbSymbolTableRecord
100
AcDbLinetypeTableRecord
  2
BYLAYER
 70
0
  3

 72
65
 73
0
 40
0.0
  0
LTYPE
  5
34
100
AcDbSymbolTableRecord
100
AcDbLinetypeTableRecord
  2
CENTER
 70
0
  3
Center ____ _ ____ _ ____ _ ____ _ ____ _ ____
 72
65
 73
4
 40
50.8000000000000043
 49
31.75
 74
0
 49
-6.3499999999999996
 74
0
 49
6.3499999999999996
 74
0
 49
-6.3499999999999996
 74
0
  0
LTYPE
  5
35
100
AcDbSymbolTableRecord
100
AcDbLinetypeTableRecord
  2
PHANTOM2
 70
0
  3
Phantom (.5x) ___ _ _ ___ _ _ ___ _ _ ___ _ _
 72
65
 73
6
 40
31.7500000000000036
 49
15.875
 74
0
 49
-3.1749999999999998
 74
0
 49
3.1749999999999998
 74
0
 49
-3.1749999999999998
 74
0
 49
3.1749999999999998
 74
0
 49
-3.1749999999999998
 74
0
  0
LTYPE
  5
36
100
AcDbSymbolTableRecord
100
AcDbLinetypeTableRecord
  2
ACAD_ISO12W100
 70
0
  3
ISO dash double-dot __ . . __ . . __ . . __ . . 
 72
65
 73
6
 40
21.0
 49
12.0
 74
0
 49
-3.0
 74
0
 49
0.0
 74
0
 49
-3.0
 74
0
 49
0.0
 74
0
 49
-3.0
 74
0
  0
LTYPE
  5
37
100
AcDbSymbolTableRecord
100
AcDbLinetypeTableRecord
  2
PHANTOM
 70
0
  3
Phantom ______  __  __  ______  __  __  ______ 
 72
65
 73
6
 40
63.5000000000000071
 49
31.75
 74
0
 49
-6.3499999999999996
 74
0
 49
6.3499999999999996
 74
0
 49
-6.3499999999999996
 74
0
 49
6.3499999999999996
 74
0
 49
-6.3499999999999996
 74
0
  0
LTYPE
  5
38
100
AcDbSymbolTableRecord
100
AcDbLinetypeTableRecord
  2
DASHDOT2
 70
0
  3
Dash dot (.5x) _._._._._._._._._._._._._._._.
 72
65
 73
4
 40
12.6999999999999993
 49
6.3499999999999996
 74
0
 49
-3.1749999999999998
 74
0
 49
0.0
 74
0
 49
-3.1749999999999998
 74
0
  0
LTYPE
  5
39
100
AcDbSymbolTableRecord
100
AcDbLinetypeTableRecord
  2
HIDDEN2
 70
0
  3
Hidden (.5x) _ _ _ _ _ _ _ _ _ _ _ _ _ _ _ _ _ 
 72
65
 73
2
 40
4.7624999999999993
 49
3.1749999999999998
 74
0
 49
-1.5874999999999999
 74
0
  0
LTYPE
  5
3A
100
AcDbSymbolTableRecord
100
AcDbLinetypeTableRecord
  2
ACAD_ISO15W100
 70
0
  3
ISO double-dash triple-dot __ __ . . . __ __ . .
 72
65
 73
10
 40
39.0
 49
12.0
 74
0
 49
-3.0
 74
0
 49
12.0
 74
0
 49
-3.0
 74
0
 49
0.0
 74
0
 49
-3.0
 74
0
 49
0.0
 74
0
 49
-3.0
 74
0
 49
0.0
 74
0
 49
-3.0
 74
0
  0
LTYPE
  5
3B
100
AcDbSymbolTableRecord
100
AcDbLinetypeTableRecord
  2
DASHED
 70
0
  3
Dashed __ __ __ __ __ __ __ __ __ __ __ __ __ _
 72
65
 73
2
 40
19.0499999999999972
 49
12.6999999999999993
 74
0
 49
-6.3499999999999996
 74
0
  0
LTYPE
  5
3C
100
AcDbSymbolTableRecord
100
AcDbLinetypeTableRecord
  2
DASHED2
 70
0
  3
Dashed (.5x) _ _ _ _ _ _ _ _ _ _ _ _ _ _ _ _ _ 
 72
65
 73
2
 40
9.5249999999999986
 49
6.3499999999999996
 74
0
 49
-3.1749999999999998
 74
0
  0
LTYPE
  5
3D
100
AcDbSymbolTableRecord
100
AcDbLinetypeTableRecord
  2
DASHEDX2
 70
0
  3
Dashed (2x) ____  ____  ____  ____  ____  ___
 72
65
 73
2
 40
38.0999999999999943
 49
25.3999999999999986
 74
0
 49
-12.6999999999999993
 74
0
  0
LTYPE
  5
3E
100
AcDbSymbolTableRecord
100
AcDbLinetypeTableRecord
  2
BORDER
 70
0
  3
Border __ __ . __ __ . __ __ . __ __ . __ __ .
 72
65
 73
6
 40
44.4499999999999957
 49
12.6999999999999993
 74
0
 49
-6.3499999999999996
 74
0
 49
12.6999999999999993
 74
0
 49
-6.3499999999999996
 74
0
 49
0.0
 74
0
 49
-6.3499999999999996
 74
0
  0
LTYPE
  5
3F
100
AcDbSymbolTableRecord
100
AcDbLinetypeTableRecord
  2
ACAD_ISO11W100
 70
0
  3
ISO double-dash dot __ __ . __ __ . __ __ . __ _
 72
65
 73
6
 40
33.0
 49
12.0
 74
0
 49
-3.0
 74
0
 49
12.0
 74
0
 49
-3.0
 74
0
 49
0.0
 74
0
 49
-3.0
 74
0
  0
LTYPE
  5
40
100
AcDbSymbolTableRecord
100
AcDbLinetypeTableRecord
  2
ACAD_ISO07W100
 70
0
  3
ISO dot . . . . . . . . . . . . . . . . . . . . 
 72
65
 73
2
 40
3.0
 49
0.0
 74
0
 49
-3.0
 74
0
  0
LTYPE
  5
41
100
AcDbSymbolTableRecord
100
AcDbLinetypeTableRecord
  2
PHANTOMX2
 70
0
  3
Phantom (2x) ____________    ____    ____   _
 72
65
 73
6
 40
127.0000000000000142
 49
63.5
 74
0
 49
-12.6999999999999993
 74
0
 49
12.6999999999999993
 74
0
 49
-12.6999999999999993
 74
0
 49
12.6999999999999993
 74
0
 49
-12.6999999999999993
 74
0
  0
LTYPE
  5
42
100
AcDbSymbolTableRecord
100
AcDbLinetypeTableRecord
  2
DOT2
 70
0
  3
Dot (.5x) ........................................
 72
65
 73
2
 40
3.1749999999999998
 49
0.0
 74
0
 49
-3.1749999999999998
 74
0
  0
LTYPE
  5
43
100
AcDbSymbolTableRecord
100
AcDbLinetypeTableRecord
  2
CENTER2
 70
0
  3
Center (.5x) ___ _ ___ _ ___ _ ___ _ ___ _ ___
 72
65
 73
4
 40
28.5750000000000028
 49
19.0500000000000007
 74
0
 49
-3.1749999999999998
 74
0
 49
3.1749999999999998
 74
0
 49
-3.1749999999999998
 74
0
  0
LTYPE
  5
44
100
AcDbSymbolTableRecord
100
AcDbLinetypeTableRecord
  2
ACAD_ISO06W100
 70
0
  3
ISO long-dash triple-dot ____ ... ____ ... ____
 72
65
 73
8
 40
36.0
 49
24.0
 74
0
 49
-3.0
 74
0
 49
0.0
 74
0
 49
-3.0
 74
0
 49
0.0
 74
0
 49
-3.0
 74
0
 49
0.0
 74
0
 49
-3.0
 74
0
  0
LTYPE
  5
45
100
AcDbSymbolTableRecord
100
AcDbLinetypeTableRecord
  2
ACAD_ISO14W100
 70
0
  3
ISO dash triple-dot __ . . . __ . . . __ . . . _
 72
65
 73
8
 40
24.0
 49
12.0
 74
0
 49
-3.0
 74
0
 49
0.0
 74
0
 49
-3.0
 74
0
 49
0.0
 74
0
 49
-3.0
 74
0
 49
0.0
 74
0
 49
-3.0
 74
0
  0
LTYPE
  5
46
100
AcDbSymbolTableRecord
100
AcDbLinetypeTableRecord
  2
ACAD_ISO08W100
 70
0
  3
ISO long-dash short-dash ____ __ ____ __ ____ _
 72
65
 73
4
 40
36.0
 49
24.0
 74
0
 49
-3.0
 74
0
 49
6.0
 74
0
 49
-3.0
 74
0
  0
LTYPE
  5
47
100
AcDbSymbolTableRecord
100
AcDbLinetypeTableRecord
  2
ACAD_ISO02W100
 70
0
  3
ISO dash __ __ __ __ __ __ __ __ __ __ __ __ __
 72
65
 73
2
 40
15.0
 49
12.0
 74
0
 49
-3.0
 74
0
  0
LTYPE
  5
48
100
AcDbSymbolTableRecord
100
AcDbLinetypeTableRecord
  2
ACAD_ISO10W100
 70
0
  3
ISO dash dot __ . __ . __ . __ . __ . __ . __ . 
 72
65
 73
4
 40
18.0
 49
12.0
 74
0
 49
-3.0
 74
0
 49
0.0
 74
0
 49
-3.0
 74
0
  0
LTYPE
  5
49
100
AcDbSymbolTableRecord
100
AcDbLinetypeTableRecord
  2
ACAD_ISO09W100
 70
0
  3
ISO long-dash double-short-dash ____ __ __ ____
 72
65
 73
6
 40
45.0
 49
24.0
 74
0
 49
-3.0
 74
0
 49
6.0
 74
0
 49
-3.0
 74
0
 49
6.0
 74
0
 49
-3.0
 74
0
  0
LTYPE
  5
4A
100
AcDbSymbolTableRecord
100
AcDbLinetypeTableRecord
  2
ACAD_ISO04W100
 70
0
  3
ISO long-dash dot ____ . ____ . ____ . ____ . _
 72
65
 73
4
 40
30.0
 49
24.0
 74
0
 49
-3.0
 74
0
 49
0.0
 74
0
 49
-3.0
 74
0
  0
LTYPE
  5
4B
100
AcDbSymbolTableRecord
100
AcDbLinetypeTableRecord
  2
HIDDENX2
 70
0
  3
Hidden (2x) ____ ____ ____ ____ ____ ____ ____ 
 72
65
 73
2
 40
19.0499999999999972
 49
12.6999999999999993
 74
0
 49
-6.3499999999999996
 74
0
  0
LTYPE
  5
4C
100
AcDbSymbolTableRecord
100
AcDbLinetypeTableRecord
  2
ACAD_ISO03W100
 70
0
  3
ISO dash space __    __    __    __    __    __
 72
65
 73
2
 40
30.0
 49
12.0
 74
0
 49
-18.0
 74
0
  0
LTYPE
  5
4D
100
AcDbSymbolTableRecord
100
AcDbLinetypeTableRecord
  2
BORDER2
 70
0
  3
Border (.5x) __.__.__.__.__.__.__.__.__.__.__.
 72
65
 73
6
 40
22.2249999999999979
 49
6.3499999999999996
 74
0
 49
-3.1749999999999998
 74
0
 49
6.3499999999999996
 74
0
 49
-3.1749999999999998
 74
0
 49
0.0
 74
0
 49
-3.1749999999999998
 74
0
  0
LTYPE
  5
4E
100
AcDbSymbolTableRecord
100
AcDbLinetypeTableRecord
  2
ACAD_ISO05W100
 70
0
  3
ISO long-dash double-dot ____ .. ____ .. ____ . 
 72
65
 73
6
 40
33.0
 49
24.0
 74
0
 49
-3.0
 74
0
 49
0.0
 74
0
 49
-3.0
 74
0
 49
0.0
 74
0
 49
-3.0
 74
0
  0
LTYPE
  5
4F
100
AcDbSymbolTableRecord
100
AcDbLinetypeTableRecord
  2
CENTERX2
 70
0
  3
Center (2x) ________  __  ________  __  _____
 72
65
 73
4
 40
101.6000000000000085
 49
63.5
 74
0
 49
-12.6999999999999993
 74
0
 49
12.6999999999999993
 74
0
 49
-12.6999999999999993
 74
0
  0
LTYPE
  5
50
100
AcDbSymbolTableRecord
100
AcDbLinetypeTableRecord
  2
DASHDOT
 70
0
  3
Dash dot __ . __ . __ . __ . __ . __ . __ . __
 72
65
 73
4
 40
25.3999999999999986
 49
12.6999999999999993
 74
0
 49
-6.3499999999999996
 74
0
 49
0.0
 74
0
 49
-6.3499999999999996
 74
0
  0
LTYPE
  5
51
100
AcDbSymbolTableRecord
100
AcDbLinetypeTableRecord
  2
DASHDOTX2
 70
0
  3
Dash dot (2x) ____  .  ____  .  ____  .  ___
 72
65
 73
4
 40
50.7999999999999972
 49
25.3999999999999986
 74
0
 49
-12.6999999999999993
 74
0
 49
0.0
 74
0
 49
-12.6999999999999993
 74
0
  0
LTYPE
  5
52
100
AcDbSymbolTableRecord
100
AcDbLinetypeTableRecord
  2
HIDDEN
 70
0
  3
Hidden __ __ __ __ __ __ __ __ __ __ __ __ __ __
 72
65
 73
2
 40
9.5249999999999986
 49
6.3499999999999996
 74
0
 49
-3.1749999999999998
 74
0
  0
LTYPE
  5
53
100
AcDbSymbolTableRecord
100
AcDbLinetypeTableRecord
  2
DIVIDEX2
 70
0
  3
Divide (2x) ________  .  .  ________  .  .  _
 72
65
 73
6
 40
63.5
 49
25.3999999999999986
 74
0
 49
-12.6999999999999993
 74
0
 49
0.0
 74
0
 49
-12.6999999999999993
 74
0
 49
0.0
 74
0
 49
-12.6999999999999993
 74
0
  0
LTYPE
  5
54
100
AcDbSymbolTableRecord
100
AcDbLinetypeTableRecord
  2
DOT
 70
0
  3
Dot . . . . . . . . . . . . . . . . . . . . . . . .
 72
65
 73
2
 40
6.3499999999999996
 49
0.0
 74
0
 49
-6.3499999999999996
 74
0
  0
LTYPE
  5
55
100
AcDbSymbolTableRecord
100
AcDbLinetypeTableRecord
  2
DOTX2
 70
0
  3
Dot (2x) .  .  .  .  .  .  .  .  .  .  .  .  .  .
 72
65
 73
2
 40
12.6999999999999993
 49
0.0
 74
0
 49
-12.6999999999999993
 74
0
  0
LTYPE
  5
14
100
AcDbSymbolTableRecord
100
AcDbLinetypeTableRecord
  2
BYBLOCK
 70
0
  3

 72
65
 73
0
 40
0.0
  0
LTYPE
  5
56
100
AcDbSymbolTableRecord
100
AcDbLinetypeTableRecord
  2
BORDERX2
 70
0
  3
Border (2x) ____  ____  .  ____  ____  .  ___
 72
65
 73
6
 40
88.8999999999999915
 49
25.3999999999999986
 74
0
 49
-12.6999999999999993
 74
0
 49
25.3999999999999986
 74
0
 49
-12.6999999999999993
 74
0
 49
0.0
 74
0
 49
-12.6999999999999993
 74
0
  0
ENDTAB
  0
TABLE
  2
LAYER
  5
2
100
AcDbSymbolTable
 70
1
  0
LAYER
  5
10
100
AcDbSymbolTableRecord
100
AcDbLayerTableRecord
  2
0
 70
0
 62
7
420
16777215
  6
Continuous
370
25
390
F
  0
ENDTAB
  0
TABLE
  2
STYLE
  5
3
100
AcDbSymbolTable
 70
1
  0
STYLE
  5
57
100
AcDbSymbolTableRecord
100
AcDbTextStyleTableRecord
  2
Standard
 70
0
 40
0.0
 41
1.0
 50
0.0
 71
0
 42
2.5
  3

  4

1001
ACAD
1000
txt
1071
0
  0
ENDTAB
  0
TABLE
  2
VIEW
  5
6
100
AcDbSymbolTable
 70
0
  0
ENDTAB
  0
TABLE
  2
UCS
  5
7
100
AcDbSymbolTable
 70
0
  0
ENDTAB
  0
TABLE
  2
APPID
  5
9
100
AcDbSymbolTable
 70
1
  0
APPID
  5
12
100
AcDbSymbolTableRecord
100
AcDbRegAppTableRecord
  2
ACAD
 70
0
  0
APPID
  5
58
100
AcDbSymbolTableRecord
100
AcDbRegAppTableRecord
  2
QCAD
 70
0
  0
ENDTAB
  0
TABLE
  2
DIMSTYLE
  5
A
100
AcDbSymbolTable
 70
1
100
AcDbDimStyleTable
 71
0
  0
DIMSTYLE
105
27
100
AcDbSymbolTableRecord
100
AcDbDimStyleTableRecord
  2
Standard
 41
2.5
 42
0.625
 43
3.75
 44
1.25
 70
0
 73
0
 74
0
 77
1
 78
8
140
2.5
141
2.5
143
0.03937007874016
147
0.625
171
3
172
1
271
2
272
2
274
3
278
44
283
0
284
8
340
57
  0
ENDTAB
  0
TABLE
  2
BLOCK_RECORD
  5
1
100
AcDbSymbolTable
 70
1
  0
BLOCK_RECORD
  5
1F
100
AcDbSymbolTableRecord
100
AcDbBlockTableRecord
  2
*Model_Space
340
22
  0
BLOCK_RECORD
  5
1B
100
AcDbSymbolTableRecord
100
AcDbBlockTableRecord
  2
*Paper_Space
340
1E
  0
BLOCK_RECORD
  5
23
100
AcDbSymbolTableRecord
100
AcDbBlockTableRecord
  2
*Paper_Space0
340
26
  0
ENDTAB
  0
ENDSEC
  0
SECTION
  2
BLOCKS
  0
BLOCK
  5
20
100
AcDbEntity
  8
0
100
AcDbBlockBegin
  2
*Model_Space
 70
0
 10
0.0
 20
0.0
 30
0.0
  3
*Model_Space
  1

  0
ENDBLK
  5
21
100
AcDbEntity
  8
0
100
AcDbBlockEnd
  0
BLOCK
  5
1C
100
AcDbEntity
 67
1
  8
0
100
AcDbBlockBegin
  2
*Paper_Space
 70
0
 10
0.0
 20
0.0
 30
0.0
  3
*Paper_Space
  1

  0
ENDBLK
  5
1D
100
AcDbEntity
 67
1
  8
0
100
AcDbBlockEnd
  0
BLOCK
  5
24
100
AcDbEntity
  8
0
100
AcDbBlockBegin
  2
*Paper_Space0
 70
0
 10
0.0
 20
0.0
 30
0.0
  3
*Paper_Space0
  1

  0
ENDBLK
  5
25
100
AcDbEntity
  8
0
100
AcDbBlockEnd
  0
ENDSEC
  0
SECTION
  2
ENTITIES
  0
LINE
  5
59
100
AcDbEntity
  8
0
 62
256
370
-1
 48
1.0
  6
BYLAYER
100
AcDbLine
 10
-16.8316926478663902
 20
-28.9232852858471006
 30
0.0
 11
-16.8316926478663902
 21
-41.5540101542900402
 31
0.0
  0
SPLINE
  5
5A
100
AcDbEntity
  8
0
 62
256
370
-1
 48
1.0
  6
BYLAYER
100
AcDbSpline
 70
8
 71
3
 72
8
 73
4
 74
0
 40
-6.0
 40
-6.0
 40
-6.0
 40
-6.0
 40
-5.0
 40
-5.0
 40
-5.0
 40
-5.0
 10
-16.8316926478663902
 20
-41.5540101542900402
 30
0.0
 10
-16.8316926478663902
 20
-43.0368575155034705
 30
0.0
 10
-15.7482505774860329
 20
-44.2972158088901438
 30
0.0
 10
-14.2822049114744232
 20
-44.519806019425971
 30
0.0
  0
LWPOLYLINE
  5
5B
100
AcDbEntity
  8
0
 62
256
370
-1
 48
1.0
  6
BYLAYER
100
AcDbPolyline
 90
5
 70
0
 10
-69.5001641476655152
 20
-3.394285063290269
 10
-55.5005855176316913
 20
-3.394285063290269
 10
-55.5005855176316913
 20
-17.3942782292806868
 10
-69.5001641476655152
 20
-17.3942782292806868
 10
-69.5001641476655152
 20
-3.394285063290269
  0
LWPOLYLINE
  5
5C
100
AcDbEntity
  8
0
 62
256
370
-1
 48
1.0
  6
BYLAYER
100
AcDbPolyline
 90
5
 70
0
 10
-50.4501650237802295
 20
-3.394285063290269
 10
-50.4501650237802295
 20
-17.3942782292806868
 10
-36.450585429772957
 20
-17.3942782292806868
 10
-36.450585429772957
 20
-3.394285063290269
 10
-50.4501650237802295
 20
-3.3942850632902548
  0
LWPOLYLINE
  5
5D
100
AcDbEntity
  8
0
 62
256
370
-1
 48
1.0
  6
BYLAYER
100
AcDbPolyline
 90
5
 70
0
 10
-31.4001649359211683
 20
1.3677157050476154
 10
-31.4001649359211754
 20
-12.6322774609428734
 10
-17.4005872698614326
 20
-12.6322774609428734
 10
-17.4005872698614326
 20
1.3677157050476296
 10
-31.4001649359211754
 20
1.3677157050476296
  0
LWPOLYLINE
  5
5E
100
AcDbEntity
  8
0
 62
256
370
-1
 48
1.0
  6
BYLAYER
100
AcDbPolyline
 90
5
 70
0
 10
-12.350170652504886
 20
3.7487199452271085
 10
-12.350170652504886
 20
-10.2512809327831746
 10
1.6494147253463467
 20
-10.2512809327831746
 10
1.6494147253463467
 20
3.7487199452271227
 10
-12.350170652504886
 20
3.7487199452271227
  0
LWPOLYLINE
  5
5F
100
AcDbEntity
  8
0
 62
256
370
-1
 48
1.0
  6
BYLAYER
100
AcDbPolyline
 90
5
 70
0
 10
6.6998313633020103
 20
1.3677157050476154
 10
20.6994090293614192
 20
1.3677157050476154
 10
20.6994090293614192
 20
-12.6322774609428876
 10
6.6998313633020246
 20
-12.6322774609428876
 10
6.6998313633020103
 20
1.3677157050476154
  0
LWPOLYLINE
  5
60
100
AcDbEntity
  8
0
 62
256
370
-1
 48
1.0
  6
BYLAYER
100
AcDbPolyline
 90
5
 70
0
 10
25.7498333791086367
 20
-1.0132808644239617
 10
39.7494110451687419
 20
-1.0132808644239617
 10
39.7494110451687419
 20
-15.0132740304150758
 10
25.7498333791086367
 20
-15.0132740304150758
 10
25.7498333791086225
 20
-1.0132808644239617
  0
LWPOLYLINE
  5
61
100
AcDbEntity
  8
0
 62
256
370
-1
 48
1.0
  6
BYLAYER
100
AcDbPolyline
 90
5
 70
0
 10
25.7498333791086225
 20
4.0367202941428246
 10
39.7494110451687135
 20
4.0367202941428246
 10
39.7494110451687135
 20
18.0367173161431111
 10
25.7498333791086225
 20
18.0367173161431111
 10
25.7498333791086225
 20
4.0367202941428246
  0
LWPOLYLINE
  5
62
100
AcDbEntity
  8
0
 62
256
370
-1
 48
1.0
  6
BYLAYER
100
AcDbPolyline
 90
5
 70
0
 10
6.6998313633020246
 20
6.4177206783123069
 10
20.6994090293614192
 20
6.4177206783123069
 10
20.6994090293614192
 20
20.4177177003127071
 10
6.6998313633020246
 20
20.4177177003127071
 10
6.6998313633020246
 20
6.4177206783123069
  0
LWPOLYLINE
  5
63
100
AcDbEntity
  8
0
 62
256
370
-1
 48
1.0
  6
BYLAYER
100
AcDbPolyline
 90
5
 70
0
 10
1.6494147253463325
 20
8.7987210831379201
 10
1.6494147253463325
 20
22.7987142491283095
 10
-12.350170652504886
 20
22.7987142491283095
 10
-12.350170652504886
 20
8.7987210831379201
 10
1.6494147253463325
 20
8.7987210831379201
  0
LWPOLYLINE
  5
64
100
AcDbEntity
  8
0
 62
256
370
-1
 48
1.0
  6
BYLAYER
100
AcDbPolyline
 90
5
 70
0
 10
-17.4005872698614326
 20
6.4177206783123069
 10
-31.4001649359211683
 20
6.4177206783123069
 10
-31.4001649359211683
 20
20.4177177003127071
 10
-17.4005872698614468
 20
20.4177177003126786
 10
-17.4005872698614326
 20
6.4177206783123069
  0
LWPOLYLINE
  5
65
100
AcDbEntity
  8
0
 62
256
370
-1
 48
1.0
  6
BYLAYER
100
AcDbPolyline
 90
5
 70
0
 10
-36.4505854297729641
 20
1.6557237453275064
 10
-50.4501650237802295
 20
1.6557237453275064
 10
-50.4501650237802295
 20
15.6557169113176116
 10
-36.4505854297729641
 20
15.6557169113176116
 10
-36.4505854297729499
 20
1.6557237453275064
  0
LWPOLYLINE
  5
66
100
AcDbEntity
  8
0
 62
256
370
-1
 48
1.0
  6
BYLAYER
100
AcDbPolyline
 90
5
 70
0
 10
-55.5005855176316913
 20
1.6557237453274922
 10
-69.5001641476655152
 20
1.6557237453274922
 10
-69.5001641476655152
 20
15.6557169113176116
 10
-55.5005855176316913
 20
15.6557169113176116
 10
-55.5005855176316913
 20
1.6557237453274922
  0
LWPOLYLINE
  5
67
100
AcDbEntity
  8
0
 62
256
370
-1
 48
1.0
  6
BYLAYER
100
AcDbPolyline
 90
5
 70
0
 10
-55.5005855176316913
 20
20.7057219052379793
 10
-69.5001641476655152
 20
20.7057219052379793
 10
-69.5001641476655152
 20
34.705715071229136
 10
-55.5005855176316913
 20
34.7057150712291076
 10
-55.5005855176316913
 20
20.7057219052379793
  0
LWPOLYLINE
  5
68
100
AcDbEntity
  8
0
 62
256
370
-1
 48
1.0
  6
BYLAYER
100
AcDbPolyline
 90
5
 70
0
 10
-50.4501650237802366
 20
20.7057219052380077
 10
-36.4505854297729641
 20
20.7057219052380077
 10
-36.4505854297729499
 20
34.7057150712291076
 10
-50.4501650237802224
 20
34.7057150712291076
 10
-50.4501650237802366
 20
20.7057219052380077
  0
LWPOLYLINE
  5
69
100
AcDbEntity
  8
0
 62
256
370
-1
 48
1.0
  6
BYLAYER
100
AcDbPolyline
 90
5
 70
0
 10
-31.4001649359211754
 20
25.4677188485517121
 10
-17.4005872698614326
 20
25.4677188485517121
 10
-17.4005872698614326
 20
39.4677139425468084
 10
-31.4001649359211683
 20
39.4677139425468084
 10
-31.4001649359211754
 20
25.4677188485517121
  0
LWPOLYLINE
  5
6A
100
AcDbEntity
  8
0
 62
256
370
-1
 48
1.0
  6
BYLAYER
100
AcDbPolyline
 90
5
 70
0
 10
-12.350170652504886
 20
41.8487143267164328
 10
-12.350170652504886
 20
27.848719232721308
 10
1.6494147253463325
 20
27.848719232721308
 10
1.6494147253463325
 20
41.8487143267164328
 10
-12.350170652504886
 20
41.8487143267164328
  0
LWPOLYLINE
  5
6B
100
AcDbEntity
  8
0
 62
256
370
-1
 48
1.0
  6
BYLAYER
100
AcDbPolyline
 90
5
 70
0
 10
6.6998313633020103
 20
39.4677139425468084
 10
20.6994090293614192
 20
39.4677139425468084
 10
20.6994090293614192
 20
25.4677188485517121
 10
6.6998313633020246
 20
25.4677188485517121
 10
6.6998313633020246
 20
39.4677139425468084
  0
LWPOLYLINE
  5
6C
100
AcDbEntity
  8
0
 62
256
370
-1
 48
1.0
  6
BYLAYER
100
AcDbPolyline
 90
5
 70
0
 10
25.7498333791086367
 20
37.0867154760546924
 10
39.7494110451687277
 20
37.0867154760546924
 10
39.7494110451687277
 20
23.0867184540535817
 10
25.7498333791086367
 20
23.0867184540535817
 10
25.7498333791086367
 20
37.0867154760546924
  0
LWPOLYLINE
  5
6D
100
AcDbEntity
  8
0
 62
256
370
-1
 48
1.0
  6
BYLAYER
100
AcDbPolyline
 90
5
 70
0
 10
39.7494110451687419
 20
42.1367185316420176
 10
25.7498333791086367
 20
42.1367185316420176
 10
25.7498333791086225
 20
56.1367136256374266
 10
39.7494110451687277
 20
56.1367136256374266
 10
39.7494110451687419
 20
42.1367185316420176
  0
LWPOLYLINE
  5
6E
100
AcDbEntity
  8
0
 62
256
370
-1
 48
1.0
  6
BYLAYER
100
AcDbPolyline
 90
5
 70
0
 10
20.6994090293614192
 20
58.5177140098067099
 10
6.6998313633020246
 20
58.5177140098067099
 10
6.6998313633020246
 20
44.5177189158116136
 10
20.6994090293614192
 20
44.5177189158116136
 10
20.6994090293614192
 20
58.5177140098067099
  0
LWPOLYLINE
  5
6F
100
AcDbEntity
  8
0
 62
256
370
-1
 48
1.0
  6
BYLAYER
100
AcDbPolyline
 90
5
 70
0
 10
1.6494147253463325
 20
60.8987134351376795
 10
1.6494147253463467
 20
46.8987193051446098
 10
-12.350170652504886
 20
46.8987193051446098
 10
-12.350170652504886
 20
60.898713435137708
 10
1.6494147253463325
 20
60.8987134351376795
  0
LWPOLYLINE
  5
70
100
AcDbEntity
  8
0
 62
256
370
-1
 48
1.0
  6
BYLAYER
100
AcDbPolyline
 90
5
 70
0
 10
-17.4005872698614326
 20
58.5177140098067099
 10
-17.4005872698614326
 20
44.5177189158116136
 10
-31.4001649359211612
 20
44.5177189158116136
 10
-31.4001649359211612
 20
58.5177140098067667
 10
-17.4005872698614326
 20
58.5177140098067099
  0
LWPOLYLINE
  5
71
100
AcDbEntity
  8
0
 62
256
370
-1
 48
1.0
  6
BYLAYER
100
AcDbPolyline
 90
5
 70
0
 10
-36.4505854297729641
 20
53.7557141899781783
 10
-36.4505854297729641
 20
39.7557200599855065
 10
-50.4501650237802295
 20
39.7557200599855065
 10
-50.4501650237802295
 20
53.7557141899781783
 10
-36.4505854297729712
 20
53.7557141899782067
  0
LWPOLYLINE
  5
72
100
AcDbEntity
  8
0
 62
256
370
-1
 48
1.0
  6
BYLAYER
100
AcDbPolyline
 90
5
 70
0
 10
-55.5005855176316913
 20
53.7557141899781783
 10
-69.5001641476655152
 20
53.7557141899781783
 10
-69.5001641476655152
 20
39.7557200599854781
 10
-55.5005855176316913
 20
39.7557200599854781
 10
-55.5005855176316913
 20
53.7557141899781783
  0
LWPOLYLINE
  5
73
100
AcDbEntity
  8
0
 62
256
370
-1
 48
1.0
  6
BYLAYER
100
AcDbPolyline
 90
5
 70
0
 10
-7.5901696676655064
 20
-20.0632828390328797
 10
6.4094079983936041
 20
-20.0632828390328797
 10
6.4094079983936041
 20
-34.0632760050226437
 10
-7.5901696676655064
 20
-34.0632760050226437
 10
-7.5901696676655064
 20
-20.0632828390328797
  0
LWPOLYLINE
  5
74
100
AcDbEntity
  8
0
 62
256
370
-1
 48
1.0
  6
BYLAYER
100
AcDbPolyline
 90
5
 70
0
 10
11.4598323523344874
 20
-22.4442794085050821
 10
25.4594100183938394
 20
-22.4442794085050679
 10
25.4594100183938536
 20
-36.4442725744948604
 10
11.4598323523344874
 20
-36.4442725744948604
 10
11.4598323523345016
 20
-22.4442794085050821
  0
LWPOLYLINE
  5
75
100
AcDbEntity
  8
0
 62
256
370
-1
 48
1.0
  6
BYLAYER
100
AcDbPolyline
 90
5
 70
0
 10
37.1688984747109998
 20
-28.0747085953819351
 10
49.2928883757717244
 20
-35.0744974284116466
 10
42.2928917927768282
 20
-47.1988471629673114
 10
30.1689018917161746
 20
-40.1990583299376141
 10
37.168898474711014
 20
-28.0747085953819351
  0
LWPOLYLINE
  5
76
100
AcDbEntity
  8
0
 62
256
370
-1
 48
1.0
  6
BYLAYER
100
AcDbPolyline
 90
5
 70
0
 10
55.4972428487193099
 20
-41.9394651181618343
 10
45.5977527444827047
 20
-51.838955222398539
 10
55.4969490459009478
 20
-61.7381515238168106
 10
65.3964391501376099
 20
-51.8386614195801485
 10
55.4972428487193099
 20
-41.9394651181618343
  0
CIRCLE
  5
77
100
AcDbEntity
  8
0
 62
256
370
-1
 48
1.0
  6
BYLAYER
100
AcDbCircle
 10
54.1643643328444
 20
-69.3080718530632964
 30
0.0
 40
1.5607700217294453
  0
CIRCLE
  5
78
100
AcDbEntity
  8
0
 62
256
370
-1
 48
1.0
  6
BYLAYER
100
AcDbCircle
 10
-12.6299494100004495
 20
-40.6360131650589977
 30
0.0
 40
1.5607700217294453
  0
CIRCLE
  5
79
100
AcDbEntity
  8
0
 62
256
370
-1
 48
1.0
  6
BYLAYER
100
AcDbCircle
 10
73.6097576562414417
 20
-50.1212608876901697
 30
0.0
 40
1.5607700217294453
  0
CIRCLE
  5
7A
100
AcDbEntity
  8
0
 62
256
370
-1
 48
1.0
  6
BYLAYER
100
AcDbCircle
 10
50.7998617135639563
 20
-26.6163341816098296
 30
0.0
 40
1.5607700217294453
  0
CIRCLE
  5
7B
100
AcDbEntity
  8
0
 62
256
370
-1
 48
1.0
  6
BYLAYER
100
AcDbCircle
 10
44.959480566971223
 20
-1.7376953131734894
 30
0.0
 40
1.5607700217294453
  0
CIRCLE
  5
7C
100
AcDbEntity
  8
0
 62
256
370
-1
 48
1.0
  6
BYLAYER
100
AcDbCircle
 10
44.5745700484698659
 20
59.7955829570247062
 30
0.0
 40
1.5607700217294453
  0
CIRCLE
  5
7D
100
AcDbEntity
  8
0
 62
256
370
-1
 48
1.0
  6
BYLAYER
100
AcDbCircle
 10
16.6352982885500609
 20
69.2910037003674262
 30
0.0
 40
1.5607700217294453
  0
CIRCLE
  5
7E
100
AcDbEntity
  8
0
 62
256
370
-1
 48
1.0
  6
BYLAYER
100
AcDbCircle
 10
-8.3442375058328508
 20
70.188859110172686
 30
0.0
 40
1.5607700217294453
  0
CIRCLE
  5
7F
100
AcDbEntity
  8
0
 62
256
370
-1
 48
1.0
  6
BYLAYER
100
AcDbCircle
 10
-74.1207984850001083
 20
57.8398555654242301
 30
0.0
 40
1.5607700217294453
  0
CIRCLE
  5
80
100
AcDbEntity
  8
0
 62
256
370
-1
 48
1.0
  6
BYLAYER
100
AcDbCircle
 10
-73.7410809953467634
 20
-21.8034991664798099
 30
0.0
 40
1.5607700217294453
  0
LINE
  5
81
100
AcDbEntity
  8
0
 62
256
370
-1
 48
1.0
  6
BYLAYER
100
AcDbLine
 10
48.2636472358362312
 20
11.0315828230149009
 30
0.0
 11
48.2636472358362312
 21
60.4430888634500576
 31
0.0
  0
SPLINE
  5
82
100
AcDbEntity
  8
0
 62
256
370
-1
 48
1.0
  6
BYLAYER
100
AcDbSpline
 70
8
 71
3
 72
8
 73
4
 74
0
 40
-17.0
 40
-17.0
 40
-17.0
 40
-17.0
 40
-16.0
 40
-16.0
 40
-16.0
 40
-16.0
 10
48.2636472358362312
 20
60.4430888634500576
 30
0.0
 10
48.2636472358362312
 20
61.5438303874906438
 30
0.0
 10
47.6608087633438515
 20
62.5561665848126296
 30
0.0
 10
46.6930282041107603
 20
63.0806021784922706
 30
0.0
  0
LINE
  5
83
100
AcDbEntity
  8
0
 62
256
370
-1
 48
1.0
  6
BYLAYER
100
AcDbLine
 10
46.6930282041107603
 20
63.0806021784922706
 30
0.0
 11
45.1224091723854315
 21
63.9317130181232329
 31
0.0
  0
SPLINE
  5
84
100
AcDbEntity
  8
0
 62
256
370
-1
 48
1.0
  6
BYLAYER
100
AcDbSpline
 70
8
 71
3
 72
11
 73
7
 74
0
 40
-15.0
 40
-15.0
 40
-15.0
 40
-15.0
 40
-14.0
 40
-14.0
 40
-14.0
 40
-13.0
 40
-13.0
 40
-13.0
 40
-13.0
 10
45.1224091723854315
 20
63.9317130181232329
 30
0.0
 10
32.8513235634740397
 20
70.5816085785267688
 30
0.0
 10
17.9197629660784514
 20
73.8141416723366461
 30
0.0
 10
-0.5249337524006705
 20
73.8141416723366461
 30
0.0
 10
-20.3283761302623702
 20
73.8141416723366461
 30
0.0
 10
-44.2299318426028663
 20
69.9723434419602341
 30
0.0
 10
-73.5954089945496435
 20
62.0692943987971404
 30
0.0
  0
LINE
  5
85
100
AcDbEntity
  8
0
 62
256
370
-1
 48
1.0
  6
BYLAYER
100
AcDbLine
 10
-73.5954089945496435
 20
62.0692943987971404
 30
0.0
 11
-75.815773034793267
 21
61.4717425868805236
 31
0.0
  0
SPLINE
  5
86
100
AcDbEntity
  8
0
 62
256
370
-1
 48
1.0
  6
BYLAYER
100
AcDbSpline
 70
8
 71
3
 72
8
 73
4
 74
0
 40
-12.0
 40
-12.0
 40
-12.0
 40
-12.0
 40
-11.0
 40
-11.0
 40
-11.0
 40
-11.0
 10
-75.815773034793267
 20
61.4717425868805236
 30
0.0
 10
-77.1257552458817202
 20
61.1191957839119056
 30
0.0
 10
-78.0361370750367911
 20
59.9314169265432071
 30
0.0
 10
-78.0361370750367769
 20
58.5748246364093035
 30
0.0
  0
LINE
  5
87
100
AcDbEntity
  8
0
 62
256
370
-1
 48
1.0
  6
BYLAYER
100
AcDbLine
 10
-78.0361370750367769
 20
58.5748246364093035
 30
0.0
 11
-78.0361370750367769
 21
-22.9246563178015776
 31
0.0
  0
SPLINE
  5
88
100
AcDbEntity
  8
0
 62
256
370
-1
 48
1.0
  6
BYLAYER
100
AcDbSpline
 70
8
 71
3
 72
8
 73
4
 74
0
 40
-10.0
 40
-10.0
 40
-10.0
 40
-10.0
 40
-9.0
 40
-9.0
 40
-9.0
 40
-9.0
 10
-78.0361370750367769
 20
-22.9246563178015776
 30
0.0
 10
-78.0361370750367627
 20
-24.5815045742065479
 30
0.0
 10
-76.6929961828855653
 20
-25.9246454663572194
 30
0.0
 10
-75.0361479264811919
 20
-25.9246454663572194
 30
0.0
  0
LINE
  5
89
100
AcDbEntity
  8
0
 62
256
370
-1
 48
1.0
  6
BYLAYER
100
AcDbLine
 10
-75.0361479264811919
 20
-25.9246454663572194
 30
0.0
 11
-19.8303324676655137
 21
-25.9246454663571768
 31
0.0
  0
SPLINE
  5
8A
100
AcDbEntity
  8
0
 62
256
370
-1
 48
1.0
  6
BYLAYER
100
AcDbSpline
 70
8
 71
3
 72
8
 73
4
 74
0
 40
-8.0
 40
-8.0
 40
-8.0
 40
-8.0
 40
-7.0
 40
-7.0
 40
-7.0
 40
-7.0
 10
-19.8303324676655137
 20
-25.9246454663571768
 30
0.0
 10
-18.1742294251263132
 20
-25.9246454663571484
 30
0.0
 10
-16.8316926481754621
 20
-27.2671822433074027
 30
0.0
 10
-16.8316926481754621
 20
-28.9232852858472285
 30
0.0
  0
LINE
  5
8B
100
AcDbEntity
  8
0
 62
256
370
-1
 48
1.0
  6
BYLAYER
100
AcDbLine
 10
-16.8316926481754621
 20
-28.9232852858472285
 30
0.0
 11
-16.8316926476655055
 21
-39.343610150021803
 31
0.0
  0
SPLINE
  5
8C
100
AcDbEntity
  8
0
 62
256
370
-1
 48
1.0
  6
BYLAYER
100
AcDbSpline
 70
8
 71
3
 72
8
 73
4
 74
0
 40
-6.0
 40
-6.0
 40
-6.0
 40
-6.0
 40
-5.0
 40
-5.0
 40
-5.0
 40
-5.0
 10
77.1514030963980986
 20
-47.8993320638719382
 30
0.0
 10
78.2940670288591605
 20
-48.9294529229611754
 30
0.0
 10
78.355708291759754
 20
-50.963614598681545
 30
0.0
 10
77.185402817791271
 20
-52.1057438120110703
 30
0.0
  0
SPLINE
  5
8D
100
AcDbEntity
  8
0
 62
256
370
-1
 48
1.0
  6
BYLAYER
100
AcDbSpline
 70
8
 71
3
 72
8
 73
4
 74
0
 40
-6.0
 40
-6.0
 40
-6.0
 40
-6.0
 40
-5.0
 40
-5.0
 40
-5.0
 40
-5.0
 10
52.1213274665720974
 20
-72.9294076936979536
 30
0.0
 10
53.1514483256613062
 20
-74.0720716261590439
 30
0.0
 10
55.1856100013816899
 20
-74.1337128890596375
 30
0.0
 10
56.3277392147112153
 20
-72.9634074150911403
 30
0.0
  0
LINE
  5
8E
100
AcDbEntity
  8
0
 62
256
370
-1
 48
1.0
  6
BYLAYER
100
AcDbLine
 10
55.1700872418953736
 20
-25.9180162093692132
 30
0.0
 11
77.1514030963980986
 21
-47.8993320638719382
 31
0.0
  0
LINE
  5
8F
100
AcDbEntity
  8
0
 62
256
370
-1
 48
1.0
  6
BYLAYER
100
AcDbLine
 10
48.2740144823345361
 20
1.5116141899782036
 30
0.0
 11
48.2740144823345361
 21
-12.928442328741454
 31
0.0
  0
LINE
  5
90
100
AcDbEntity
  8
0
 62
256
370
-1
 48
1.0
  6
BYLAYER
100
AcDbLine
 10
48.2636472358362312
 20
11.0315828230149009
 30
0.0
 11
48.2740144823345361
 21
1.5116141899782036
 31
0.0
  0
LINE
  5
91
100
AcDbEntity
  8
0
 62
256
370
-1
 48
1.0
  6
BYLAYER
100
AcDbLine
 10
77.185402817791271
 20
-52.1057438120110703
 30
0.0
 11
56.3277392147112153
 21
-72.9634074150911403
 31
0.0
  0
SPLINE
  5
92
100
AcDbEntity
  8
0
 62
256
370
-1
 48
1.0
  6
BYLAYER
100
AcDbSpline
 70
8
 71
3
 72
10
 73
6
 74
0
 40
0.0
 40
0.0
 40
0.0
 40
0.0
 40
1.0
 40
2.0
 40
3.0
 40
3.0
 40
3.0
 40
3.0
 10
-14.2822049114744232
 20
-44.519806019425971
 30
0.0
 10
-0.9826384632371514
 20
-44.519806019425971
 30
0.0
 10
18.0673615367628031
 20
-47.0910154760332489
 30
0.0
 10
31.5759303978095858
 20
-53.2034131227717637
 30
0.0
 10
45.1885457688056249
 20
-65.9988564279473309
 30
0.0
 10
52.1214464335678827
 20
-72.9292874107830045
 30
0.0
  0
SPLINE
  5
93
100
AcDbEntity
  8
0
 62
256
370
-1
 48
1.0
  6
BYLAYER
100
AcDbSpline
 70
8
 71
3
 72
8
 73
4
 74
0
 40
0.0
 40
0.0
 40
0.0
 40
0.0
 40
1.0
 40
1.0
 40
1.0
 40
1.0
 10
48.2740144823345361
 20
-12.9284423287414398
 30
0.0
 10
49.8174924869408358
 20
-20.5653673056335293
 30
0.0
 10
55.1700872418953736
 20
-25.9180162093692132
 30
0.0
 10
55.1700872418953736
 20
-25.9180162093692132
 30
0.0
  0
ENDSEC
  0
SECTION
  2
OBJECTS
  0
DICTIONARY
  5
C
100
AcDbDictionary
280
0
281
1
  3
ACAD_GROUP
350
D
  3
ACAD_LAYOUT
350
1A
  3
ACAD_MLINESTYLE
350
17
  3
ACAD_PLOTSETTINGS
350
19
  3
ACAD_PLOTSTYLENAME
350
E
  3
AcDbVariableDictionary
350
94
  3
QCAD_OBJECTS
350
95
  0
DICTIONARY
  5
D
100
AcDbDictionary
280
0
281
1
  0
ACDBDICTIONARYWDFLT
  5
E
100
AcDbDictionary
281
1
  3
Normal
350
F
100
AcDbDictionaryWithDefault
340
F
  0
ACDBPLACEHOLDER
  5
F
  0
DICTIONARY
  5
17
100
AcDbDictionary
280
0
281
1
  3
Standard
350
18
  0
MLINESTYLE
  5
18
100
AcDbMlineStyle
  2
STANDARD
 70
0
  3

 62
256
 51
90.0
 52
90.0
 71
2
 49
0.5
 62
256
  6
BYLAYER
 49
-0.5
 62
256
  6
BYLAYER
  0
DICTIONARY
  5
19
100
AcDbDictionary
280
0
281
1
  0
DICTIONARY
  5
1A
100
AcDbDictionary
281
1
  3
Layout1
350
1E
  3
Layout2
350
26
  3
Model
350
22
  0
LAYOUT
  5
1E
100
AcDbPlotSettings
  1

  2
none_device
  4

  6

 40
0.0
 41
0.0
 42
0.0
 43
0.0
 44
0.0
 45
0.0
 46
0.0
 47
0.0
 48
0.0
 49
0.0
140
0.0
141
0.0
142
1.0
143
1.0
 70
688
 72
0
 73
0
 74
5
  7

 75
16
147
1.0
148
0.0
149
0.0
100
AcDbLayout
  1
Layout1
 70
1
 71
1
 10
0.0
 20
0.0
 11
420.0
 21
297.0
 12
0.0
 22
0.0
 32
0.0
 14
100000000000000000000.0
 24
100000000000000000000.0
 34
100000000000000000000.0
 15
-100000000000000000000.0
 25
-100000000000000000000.0
 35
-100000000000000000000.0
146
0.0
 13
0.0
 23
0.0
 33
0.0
 16
1.0
 26
0.0
 36
0.0
 17
0.0
 27
1.0
 37
0.0
 76
0
330
1B
  0
LAYOUT
  5
22
100
AcDbPlotSettings
  1

  2
none_device
  4

  6

 40
0.0
 41
0.0
 42
0.0
 43
0.0
 44
0.0
 45
0.0
 46
0.0
 47
0.0
 48
0.0
 49
0.0
140
0.0
141
0.0
142
1.0
143
1.0
 70
1712
 72
0
 73
0
 74
0
  7

 75
0
147
1.0
148
0.0
149
0.0
100
AcDbLayout
  1
Model
 70
1
 71
0
 10
0.0
 20
0.0
 11
12.0
 21
9.0
 12
0.0
 22
0.0
 32
0.0
 14
0.0
 24
0.0
 34
0.0
 15
0.0
 25
0.0
 35
0.0
146
0.0
 13
0.0
 23
0.0
 33
0.0
 16
1.0
 26
0.0
 36
0.0
 17
0.0
 27
1.0
 37
0.0
 76
0
330
1F
  0
LAYOUT
  5
26
100
AcDbPlotSettings
  1

  2
none_device
  4

  6

 40
0.0
 41
0.0
 42
0.0
 43
0.0
 44
0.0
 45
0.0
 46
0.0
 47
0.0
 48
0.0
 49
0.0
140
0.0
141
0.0
142
1.0
143
1.0
 70
688
 72
0
 73
0
 74
5
  7

 75
16
147
1.0
148
0.0
149
0.0
100
AcDbLayout
  1
Layout2
 70
1
 71
2
 10
0.0
 20
0.0
 11
12.0
 21
9.0
 12
0.0
 22
0.0
 32
0.0
 14
0.0
 24
0.0
 34
0.0
 15
0.0
 25
0.0
 35
0.0
146
0.0
 13
0.0
 23
0.0
 33
0.0
 16
1.0
 26
0.0
 36
0.0
 17
0.0
 27
1.0
 37
0.0
 76
0
330
23
  0
DICTIONARY
  5
94
100
AcDbDictionary
281
1
  3
DIMASSOC
350
97
  3
HIDETEXT
350
96
  0
DICTIONARYVAR
  5
96
100
DictionaryVariables
280
0
  1
2
  0
DICTIONARYVAR
  5
97
100
DictionaryVariables
280
0
  1
1
  0
DICTIONARY
  5
95
100
AcDbDictionary
281
1
  3
ColorSettings/BackgroundColor
350
98
  3
ColorSettings/ColorMode
350
99
  3
Grid/DisplayGrid00
350
9A
  3
Grid/DisplayGrid01
350
9B
  3
Grid/DisplayGrid02
350
9C
  3
Grid/DisplayGrid03
350
9D
  3
Grid/GridSpacingX00
350
9E
  3
Grid/GridSpacingX01
350
9F
  3
Grid/GridSpacingX02
350
A0
  3
Grid/GridSpacingX03
350
A1
  3
Grid/GridSpacingY00
350
A2
  3
Grid/GridSpacingY01
350
A3
  3
Grid/GridSpacingY02
350
A4
  3
Grid/GridSpacingY03
350
A5
  3
Grid/IsometricGrid00
350
A6
  3
Grid/IsometricGrid01
350
A7
  3
Grid/IsometricGrid02
350
A8
  3
Grid/IsometricGrid03
350
A9
  3
Grid/IsometricProjection00
350
AA
  3
Grid/IsometricProjection01
350
AB
  3
Grid/IsometricProjection02
350
AC
  3
Grid/IsometricProjection03
350
AD
  3
Grid/MetaGridSpacingX00
350
AE
  3
Grid/MetaGridSpacingX01
350
AF
  3
Grid/MetaGridSpacingX02
350
B0
  3
Grid/MetaGridSpacingX03
350
B1
  3
Grid/MetaGridSpacingY00
350
B2
  3
Grid/MetaGridSpacingY01
350
B3
  3
Grid/MetaGridSpacingY02
350
B4
  3
Grid/MetaGridSpacingY03
350
B5
  3
MultiPageSettings/Columns
350
B6
  3
MultiPageSettings/GlueMarginsBottom
350
B7
  3
MultiPageSettings/GlueMarginsLeft
350
B8
  3
MultiPageSettings/GlueMarginsRight
350
B9
  3
MultiPageSettings/GlueMarginsTop
350
BA
  3
MultiPageSettings/PrintCropMarks
350
BB
  3
MultiPageSettings/Rows
350
BC
  3
PageSettings/OffsetX
350
BD
  3
PageSettings/OffsetY
350
BE
  3
PageSettings/PageOrientation
350
BF
  3
PageSettings/PaperHeight
350
C0
  3
PageSettings/PaperWidth
350
C1
  3
PageSettings/Scale
350
C2
  3
PageSettings/ShowPaperBorders
350
C3
  3
PageTagSettings/EnablePageTags
350
C4
  3
PageTagSettings/TagAlignment
350
C5
  3
PageTagSettings/TagFont
350
C6
  3
PageTagSettings/TagPosition
350
C7
  3
QCADVersion
350
C8
  3
UnitSettings/PaperUnit
350
C9
  3
ViewportCenter
350
CA
  3
ViewportHeight
350
CB
  3
ViewportWidth
350
CC
  0
XRECORD
  5
98
330
95
100
AcDbXrecord
280
1
1000
White
  0
XRECORD
  5
99
330
95
100
AcDbXrecord
280
1
1000
FullColor
  0
XRECORD
  5
9A
330
95
100
AcDbXrecord
280
1
290
1
  0
XRECORD
  5
9B
330
95
100
AcDbXrecord
280
1
290
1
  0
XRECORD
  5
9C
330
95
100
AcDbXrecord
280
1
290
1
  0
XRECORD
  5
9D
330
95
100
AcDbXrecord
280
1
290
1
  0
XRECORD
  5
9E
330
95
100
AcDbXrecord
280
1
1000
auto
  0
XRECORD
  5
9F
330
95
100
AcDbXrecord
280
1
1000
auto
  0
XRECORD
  5
A0
330
95
100
AcDbXrecord
280
1
1000
auto
  0
XRECORD
  5
A1
330
95
100
AcDbXrecord
280
1
1000
auto
  0
XRECORD
  5
A2
330
95
100
AcDbXrecord
280
1
1000
auto
  0
XRECORD
  5
A3
330
95
100
AcDbXrecord
280
1
1000
auto
  0
XRECORD
  5
A4
330
95
100
AcDbXrecord
280
1
1000
auto
  0
XRECORD
  5
A5
330
95
100
AcDbXrecord
280
1
1000
auto
  0
XRECORD
  5
A6
330
95
100
AcDbXrecord
280
1
290
0
  0
XRECORD
  5
A7
330
95
100
AcDbXrecord
280
1
290
0
  0
XRECORD
  5
A8
330
95
100
AcDbXrecord
280
1
290
0
  0
XRECORD
  5
A9
330
95
100
AcDbXrecord
280
1
290
0
  0
XRECORD
  5
AA
330
95
100
AcDbXrecord
280
1
 90
65537
  0
XRECORD
  5
AB
330
95
100
AcDbXrecord
280
1
 90
65537
  0
XRECORD
  5
AC
330
95
100
AcDbXrecord
280
1
 90
65537
  0
XRECORD
  5
AD
330
95
100
AcDbXrecord
280
1
 90
65537
  0
XRECORD
  5
AE
330
95
100
AcDbXrecord
280
1
1000
auto
  0
XRECORD
  5
AF
330
95
100
AcDbXrecord
280
1
1000
auto
  0
XRECORD
  5
B0
330
95
100
AcDbXrecord
280
1
1000
auto
  0
XRECORD
  5
B1
330
95
100
AcDbXrecord
280
1
1000
auto
  0
XRECORD
  5
B2
330
95
100
AcDbXrecord
280
1
1000
auto
  0
XRECORD
  5
B3
330
95
100
AcDbXrecord
280
1
1000
auto
  0
XRECORD
  5
B4
330
95
100
AcDbXrecord
280
1
1000
auto
  0
XRECORD
  5
B5
330
95
100
AcDbXrecord
280
1
1000
auto
  0
XRECORD
  5
B6
330
95
100
AcDbXrecord
280
1
 90
1
  0
XRECORD
  5
B7
330
95
100
AcDbXrecord
280
1
 40
10.0
  0
XRECORD
  5
B8
330
95
100
AcDbXrecord
280
1
 40
10.0
  0
XRECORD
  5
B9
330
95
100
AcDbXrecord
280
1
 40
10.0
  0
XRECORD
  5
BA
330
95
100
AcDbXrecord
280
1
 40
10.0
  0
XRECORD
  5
BB
330
95
100
AcDbXrecord
280
1
290
0
  0
XRECORD
  5
BC
330
95
100
AcDbXrecord
280
1
 90
1
  0
XRECORD
  5
BD
330
95
100
AcDbXrecord
280
1
 40
0.0
  0
XRECORD
  5
BE
330
95
100
AcDbXrecord
280
1
 40
0.0
  0
XRECORD
  5
BF
330
95
100
AcDbXrecord
280
1
1000
Portrait
  0
XRECORD
  5
C0
330
95
100
AcDbXrecord
280
1
 40
297.0
  0
XRECORD
  5
C1
330
95
100
AcDbXrecord
280
1
 40
210.0
  0
XRECORD
  5
C2
330
95
100
AcDbXrecord
280
1
1000
1:1
  0
XRECORD
  5
C3
330
95
100
AcDbXrecord
280
1
290
1
  0
XRECORD
  5
C4
330
95
100
AcDbXrecord
280
1
290
0
  0
XRECORD
  5
C5
330
95
100
AcDbXrecord
280
1
1000
Inside
  0
XRECORD
  5
C6
330
95
100
AcDbXrecord
280
1
1000
Arial,10,-1,5,50,0,0,0,0,0
  0
XRECORD
  5
C7
330
95
100
AcDbXrecord
280
1
1000
TopLeft
  0
XRECORD
  5
C8
330
95
100
AcDbXrecord
280
1
1000
3.27.8.6
  0
XRECORD
  5
C9
330
95
100
AcDbXrecord
280
1
 90
4
  0
XRECORD
  5
CB
330
95
100
AcDbXrecord
280
1
 40
210.2630399999999327
  0
XRECORD
  5
CC
330
95
100
AcDbXrecord
280
1
 40
342.6416639999998779
  0
ENDSEC
  0
EOF
