<?xml version="1.0" standalone="no"?>
 <!DOCTYPE svg PUBLIC "-//W3C//DTD SVG 1.1//EN" 
 "http://www.w3.org/Graphics/SVG/1.1/DTD/svg11.dtd"> 
<svg
  xmlns:svg="http://www.w3.org/2000/svg"
  xmlns="http://www.w3.org/2000/svg"
  xmlns:xlink="http://www.w3.org/1999/xlink"
  version="1.1"
  width="29.700220cm" height="21.000720cm" viewBox="0 0 297002200 210007200">
<title>SVG Picture created as retina-right-Edge_Cuts.svg date 2022/09/03 18:03:13 </title>
  <desc>Picture generated by PCBNEW </desc>
<g style="fill:#000000; fill-opacity:1.000000;stroke:#000000; stroke-opacity:1.000000;
stroke-linecap:round; stroke-linejoin:round;"
 transform="translate(0 0) scale(1 1)">
</g>
<g style="fill:#000000; fill-opacity:0.0; 
stroke:#000000; stroke-width:0.000000; stroke-opacity:1; 
stroke-linecap:round; stroke-linejoin:round;">
</g>
<g style="fill:#000000; fill-opacity:0.0; 
stroke:#000000; stroke-width:100000.000000; stroke-opacity:1; 
stroke-linecap:round; stroke-linejoin:round;">
<path d="M124870157 121622300
L124870218 64770013
" />
<path d="M157017008 57030946
L157017008 54947353
" />
<path d="M168888481.002716 156150181.428687 A89346512.000000 89346512.000000 0.0 0 0 119809930.771339 170735421.650582" />
<path d="M122901679 123214536
L114269669 128274685
" />
<path d="M100164639 140374649
L117428754 170140231
" />
<path d="M122901688.687716 123214498.434143 A1576235.000000 1576235.000000 0.0 0 0 124870156.808184 121622300.008027" />
<path d="M237383495 66853739
L237383495 137993884
" />
<path d="M170706202 154364460
L170706202 141565629
" />
<path d="M172492154 139779692
L235597566 139780440
" />
<path d="M157017008 54947353
L167137305 54947353
" />
<path d="M126656094 62984063
L157017008 57030946
" />
<path d="M117428762.756702 170140225.150280 A1826202.000000 1826202.000000 0.0 0 0 119809930.808561 170735421.642786" />
<path d="M100760028.241577 137993392.258817 A1741140.000000 1741140.000000 0.0 0 0 100164638.988188 140374649.007036" />
<path d="M237383568.938721 66853734.084873 A1917191.000000 1917191.000000 0.0 0 0 235597573.979299 65067918.311885" />
<path d="M115162644 129762967
L114269669 128274685
" />
<path d="M167137305 57030946
L235597574 65067918
" />
<path d="M126656091.568685 62984026.489299 A1917511.000000 1917511.000000 0.0 0 0 124870218.405040 64770013.026947" />
<path d="M235597566.653540 139780449.810023 A1917591.000000 1917591.000000 0.0 0 0 237383495.165106 137993884.010940" />
<path d="M167137305 54947353
L167137305 57030946
" />
<path d="M172492153.997682 139779602.000592 A1785998.000000 1785998.000000 0.0 0 0 170706202.000542 141565644.000000" />
<path d="M168888480.648882 156150162.682542 A1850839.000000 1850839.000000 0.0 0 0 170706202.187777 154364460.006584" />
<path d="M115162636 129762967
L100760016 137993372
" />
<g >
</g>
<g >
</g>
<g >
</g>
<g >
</g>
<g >
</g>
<g >
</g>
<g >
</g>
<g >
</g>
<g >
</g>
<g >
</g>
<g >
</g>
<g >
</g>
<g >
</g>
<g >
</g>
<g >
</g>
<g >
</g>
<g >
</g>
<g >
</g>
<g >
</g>
<g >
</g>
<g >
</g>
<g >
</g>
<g >
</g>
<g >
</g>
<g >
</g>
<g >
</g>
<g >
</g>
<g >
</g>
<g >
</g>
<g >
</g>
<g >
</g>
<g >
</g>
<g >
</g>
<g >
</g>
<g >
</g>
<g >
</g>
<g >
</g>
<g >
</g>
<g >
</g>
<g >
</g>
<g >
</g>
<g >
</g>
<g >
</g>
<g >
</g>
<g >
</g>
<g >
</g>
<g >
</g>
<g >
</g>
<g >
</g>
<g >
</g>
<g >
</g>
<g >
</g>
<g >
</g>
<g >
</g>
<g >
</g>
<g >
</g>
<g >
</g>
<g >
</g>
<g >
</g>
<g >
</g>
<g >
</g>
<g >
</g>
<g >
</g>
<g >
</g>
<g >
</g>
<g >
</g>
<g >
</g>
<g >
</g>
<g >
</g>
<g >
</g>
<g >
</g>
<g >
</g>
<g >
</g>
<g >
</g>
<g >
</g>
<g >
</g>
<g >
</g>
<g >
</g>
<g >
</g>
<g >
</g>
<g >
</g>
<g >
</g>
<g >
</g>
<g >
</g>
<g >
</g>
<g >
</g>
<g >
</g>
<g >
</g>
<g >
</g>
<g >
</g>
<g >
</g>
<g >
</g>
<g >
</g>
<g >
</g>
<g >
</g>
<g >
</g>
<g >
</g>
<g >
</g>
<g >
</g>
<g >
</g>
<g >
</g>
<g >
</g>
<g >
</g>
<g >
</g>
</g> 
</svg>
