<?xml version="1.0" standalone="no"?>
 <!DOCTYPE svg PUBLIC "-//W3C//DTD SVG 1.1//EN" 
 "http://www.w3.org/Graphics/SVG/1.1/DTD/svg11.dtd"> 
<svg
  xmlns:svg="http://www.w3.org/2000/svg"
  xmlns="http://www.w3.org/2000/svg"
  xmlns:xlink="http://www.w3.org/1999/xlink"
  version="1.1"
  width="29.700220cm" height="21.000720cm" viewBox="0 0 297002200 210007200">
<title>SVG Picture created as retina-right-brd.svg date 2022/09/04 22:14:07 </title>
  <desc>Picture generated by PCBNEW </desc>
<g style="fill:#000000; fill-opacity:1.000000;stroke:#000000; stroke-opacity:1.000000;
stroke-linecap:round; stroke-linejoin:round;"
 transform="translate(0 0) scale(1 1)">
</g>
<g style="fill:#000000; fill-opacity:0.0; 
stroke:#000000; stroke-width:0.000000; stroke-opacity:1; 
stroke-linecap:round; stroke-linejoin:round;">
</g>
<g style="fill:#000000; fill-opacity:0.0; 
stroke:#000000; stroke-width:150000.000000; stroke-opacity:1; 
stroke-linecap:round; stroke-linejoin:round;">
<g transform="rotate(-30.000000 130517941.000000 165609924.000000)">
<text x="130517941.000000" y="166109924.000000"
textLength="8000001.000000" font-size="1333333.000000" lengthAdjust="spacingAndGlyphs"
text-anchor="middle" opacity="0">MX-NoLED</text>
</g>
<g class="stroked-text"><desc>MX-NoLED</desc>
<path d="M127486226 167882649
L126986226 167016624
L127632044 167468547
L127563576 166683291
L128063576 167549316
" />
<path d="M127893491 166492814
L128970841 167025506
" />
<path d="M128470841 166159481
L128393491 167358840
" />
<path d="M129110279 166505116
L129770108 166124163
" />
<path d="M130372977 166215983
L129872977 165349957
L130867849 165930268
L130367849 165064243
" />
<path d="M131403960 165620745
L131297672 165627124
L131232623 165609694
L131143765 165551025
L131000907 165303590
L130994528 165197301
L131011957 165132253
L131070627 165043394
L131194344 164971966
L131300633 164965586
L131365681 164983016
L131454540 165041685
L131597397 165289121
L131603777 165395409
L131586347 165460458
L131527678 165549316
L131403960 165620745
" />
<path d="M132476182 165001697
L132063789 165239792
L131563789 164373767
" />
<path d="M132502952 164381398
L132791627 164214731
" />
<path d="M133177250 164596935
L132764857 164835030
L132264857 163969005
L132677250 163730910
" />
<path d="M133548404 164382649
L133048404 163516624
L133254600 163397576
L133402128 163367387
L133532225 163402247
L133621084 163460916
L133757561 163602063
L133828990 163725781
L133882988 163914548
L133889368 164020836
L133854509 164150934
L133754600 164263602
L133548404 164382649
" />
</g><text x="133502457.000000" y="118451199.000000"
textLength="8195000.000000" font-size="1333333.000000" lengthAdjust="spacingAndGlyphs"
text-anchor="middle" opacity="0">MX-NoLED</text>
<g class="stroked-text"><desc>MX-NoLED</desc>
<path d="M129740552 118403579
L129740552 117403579
L130073885 118117865
L130407218 117403579
L130407218 118403579
" />
<path d="M130788171 117403579
L131454837 118403579
" />
<path d="M131454837 117403579
L130788171 118403579
" />
<path d="M131835790 118022627
L132597695 118022627
" />
<path d="M133073885 118403579
L133073885 117403579
L133645314 118403579
L133645314 117403579
" />
<path d="M134264361 118403579
L134169123 118355960
L134121504 118308341
L134073885 118213103
L134073885 117927389
L134121504 117832151
L134169123 117784532
L134264361 117736913
L134407218 117736913
L134502457 117784532
L134550076 117832151
L134597695 117927389
L134597695 118213103
L134550076 118308341
L134502457 118355960
L134407218 118403579
L134264361 118403579
" />
<path d="M135502457 118403579
L135026266 118403579
L135026266 117403579
" />
<path d="M135835790 117879770
L136169123 117879770
" />
<path d="M136311980 118403579
L135835790 118403579
L135835790 117403579
L136311980 117403579
" />
<path d="M136740552 118403579
L136740552 117403579
L136978647 117403579
L137121504 117451199
L137216742 117546437
L137264361 117641675
L137311980 117832151
L137311980 117975008
L137264361 118165484
L137216742 118260722
L137121504 118355960
L136978647 118403579
L136740552 118403579
" />
</g><g transform="rotate(-90.000000 198590236.000000 69532500.000000)">
<text x="198590236.000000" y="70032500.000000"
textLength="8195000.000000" font-size="1333333.000000" lengthAdjust="spacingAndGlyphs"
text-anchor="middle" opacity="0">MX-NoLED</text>
</g>
<g class="stroked-text"><desc>MX-NoLED</desc>
<path d="M199042616 73294404
L198042616 73294404
L198756902 72961071
L198042616 72627738
L199042616 72627738
" />
<path d="M198042616 72246785
L199042616 71580119
" />
<path d="M198042616 71580119
L199042616 72246785
" />
<path d="M198661664 71199166
L198661664 70437261
" />
<path d="M199042616 69961071
L198042616 69961071
L199042616 69389642
L198042616 69389642
" />
<path d="M199042616 68770595
L198994997 68865833
L198947378 68913452
L198852140 68961071
L198566426 68961071
L198471188 68913452
L198423569 68865833
L198375950 68770595
L198375950 68627738
L198423569 68532500
L198471188 68484880
L198566426 68437261
L198852140 68437261
L198947378 68484880
L198994997 68532500
L199042616 68627738
L199042616 68770595
" />
<path d="M199042616 67532500
L199042616 68008690
L198042616 68008690
" />
<path d="M198518807 67199166
L198518807 66865833
" />
<path d="M199042616 66722976
L199042616 67199166
L198042616 67199166
L198042616 66722976
" />
<path d="M199042616 66294404
L198042616 66294404
L198042616 66056309
L198090236 65913452
L198185474 65818214
L198280712 65770595
L198471188 65722976
L198614045 65722976
L198804521 65770595
L198899759 65818214
L198994997 65913452
L199042616 66056309
L199042616 66294404
" />
</g><g transform="rotate(-90.000000 198590236.000000 126682500.000000)">
<text x="198590236.000000" y="127182500.000000"
textLength="8195000.000000" font-size="1333333.000000" lengthAdjust="spacingAndGlyphs"
text-anchor="middle" opacity="0">MX-NoLED</text>
</g>
<g class="stroked-text"><desc>MX-NoLED</desc>
<path d="M199042616 130444404
L198042616 130444404
L198756902 130111071
L198042616 129777738
L199042616 129777738
" />
<path d="M198042616 129396785
L199042616 128730119
" />
<path d="M198042616 128730119
L199042616 129396785
" />
<path d="M198661664 128349166
L198661664 127587261
" />
<path d="M199042616 127111071
L198042616 127111071
L199042616 126539642
L198042616 126539642
" />
<path d="M199042616 125920595
L198994997 126015833
L198947378 126063452
L198852140 126111071
L198566426 126111071
L198471188 126063452
L198423569 126015833
L198375950 125920595
L198375950 125777738
L198423569 125682500
L198471188 125634880
L198566426 125587261
L198852140 125587261
L198947378 125634880
L198994997 125682500
L199042616 125777738
L199042616 125920595
" />
<path d="M199042616 124682500
L199042616 125158690
L198042616 125158690
" />
<path d="M198518807 124349166
L198518807 124015833
" />
<path d="M199042616 123872976
L199042616 124349166
L198042616 124349166
L198042616 123872976
" />
<path d="M199042616 123444404
L198042616 123444404
L198042616 123206309
L198090236 123063452
L198185474 122968214
L198280712 122920595
L198471188 122872976
L198614045 122872976
L198804521 122920595
L198899759 122968214
L198994997 123063452
L199042616 123206309
L199042616 123444404
" />
</g><g transform="rotate(-90.000000 179539906.000000 124301199.000000)">
<text x="179539906.000000" y="124801199.000000"
textLength="8195000.000000" font-size="1333333.000000" lengthAdjust="spacingAndGlyphs"
text-anchor="middle" opacity="0">MX-NoLED</text>
</g>
<g class="stroked-text"><desc>MX-NoLED</desc>
<path d="M179992286 128063103
L178992286 128063103
L179706572 127729770
L178992286 127396437
L179992286 127396437
" />
<path d="M178992286 127015484
L179992286 126348818
" />
<path d="M178992286 126348818
L179992286 127015484
" />
<path d="M179611334 125967865
L179611334 125205960
" />
<path d="M179992286 124729770
L178992286 124729770
L179992286 124158341
L178992286 124158341
" />
<path d="M179992286 123539294
L179944667 123634532
L179897048 123682151
L179801810 123729770
L179516096 123729770
L179420858 123682151
L179373239 123634532
L179325620 123539294
L179325620 123396437
L179373239 123301199
L179420858 123253579
L179516096 123205960
L179801810 123205960
L179897048 123253579
L179944667 123301199
L179992286 123396437
L179992286 123539294
" />
<path d="M179992286 122301199
L179992286 122777389
L178992286 122777389
" />
<path d="M179468477 121967865
L179468477 121634532
" />
<path d="M179992286 121491675
L179992286 121967865
L178992286 121967865
L178992286 121491675
" />
<path d="M179992286 121063103
L178992286 121063103
L178992286 120825008
L179039906 120682151
L179135144 120586913
L179230382 120539294
L179420858 120491675
L179563715 120491675
L179754191 120539294
L179849429 120586913
L179944667 120682151
L179992286 120825008
L179992286 121063103
" />
</g><text x="228752736.000000" y="101782500.000000"
textLength="8195000.000000" font-size="1333333.000000" lengthAdjust="spacingAndGlyphs"
text-anchor="middle" opacity="0">MX-NoLED</text>
<g class="stroked-text"><desc>MX-NoLED</desc>
<path d="M224990831 101734880
L224990831 100734880
L225324164 101449166
L225657497 100734880
L225657497 101734880
" />
<path d="M226038450 100734880
L226705116 101734880
" />
<path d="M226705116 100734880
L226038450 101734880
" />
<path d="M227086069 101353928
L227847974 101353928
" />
<path d="M228324164 101734880
L228324164 100734880
L228895593 101734880
L228895593 100734880
" />
<path d="M229514640 101734880
L229419402 101687261
L229371783 101639642
L229324164 101544404
L229324164 101258690
L229371783 101163452
L229419402 101115833
L229514640 101068214
L229657497 101068214
L229752736 101115833
L229800355 101163452
L229847974 101258690
L229847974 101544404
L229800355 101639642
L229752736 101687261
L229657497 101734880
L229514640 101734880
" />
<path d="M230752736 101734880
L230276545 101734880
L230276545 100734880
" />
<path d="M231086069 101211071
L231419402 101211071
" />
<path d="M231562259 101734880
L231086069 101734880
L231086069 100734880
L231562259 100734880
" />
<path d="M231990831 101734880
L231990831 100734880
L232228926 100734880
L232371783 100782500
L232467021 100877738
L232514640 100972976
L232562259 101163452
L232562259 101306309
L232514640 101496785
L232467021 101592023
L232371783 101687261
L232228926 101734880
L231990831 101734880
" />
</g><g transform="rotate(-45.000000 116367851.000000 178492723.000000)">
<text x="116367851.000000" y="178992723.000000"
textLength="8195000.000000" font-size="1333333.000000" lengthAdjust="spacingAndGlyphs"
text-anchor="middle" opacity="0">MX-NoLED</text>
</g>
<g class="stroked-text"><desc>MX-NoLED</desc>
<path d="M114027664 181472673
L113320557 180765566
L114061336 181034940
L113791962 180294161
L114499068 181001268
" />
<path d="M114061336 180024787
L115239847 180260489
" />
<path d="M114532740 179553383
L114768442 180731894
" />
<path d="M115239847 179721741
L115778595 179182993
" />
<path d="M116384686 179115650
L115677580 178408543
L116788747 178711589
L116081641 178004482
" />
<path d="M117226480 178273856
L117125465 178307528
L117058121 178307528
L116957106 178273856
L116755076 178071826
L116721404 177970810
L116721404 177903467
L116755076 177802452
L116856091 177701436
L116957106 177667765
L117024450 177667765
L117125465 177701436
L117327495 177903467
L117361167 178004482
L117361167 178071826
L117327495 178172841
L117226480 178273856
" />
<path d="M118101946 177398391
L117765228 177735108
L117058121 177028001
" />
<path d="M117967259 176792299
L118202961 176556597
" />
<path d="M118674365 176825971
L118337648 177162688
L117630541 176455582
L117967259 176118864
" />
<path d="M118977411 176522925
L118270304 175815818
L118438663 175647459
L118573350 175580116
L118708037 175580116
L118809052 175613788
L118977411 175714803
L119078426 175815818
L119179442 175984177
L119213114 176085192
L119213114 176219879
L119145770 176354566
L118977411 176522925
" />
</g><text x="152552736.000000" y="119245000.000000"
textLength="8195000.000000" font-size="1333333.000000" lengthAdjust="spacingAndGlyphs"
text-anchor="middle" opacity="0">MX-NoLED</text>
<g class="stroked-text"><desc>MX-NoLED</desc>
<path d="M148790831 119197380
L148790831 118197380
L149124164 118911666
L149457497 118197380
L149457497 119197380
" />
<path d="M149838450 118197380
L150505116 119197380
" />
<path d="M150505116 118197380
L149838450 119197380
" />
<path d="M150886069 118816428
L151647974 118816428
" />
<path d="M152124164 119197380
L152124164 118197380
L152695593 119197380
L152695593 118197380
" />
<path d="M153314640 119197380
L153219402 119149761
L153171783 119102142
L153124164 119006904
L153124164 118721190
L153171783 118625952
L153219402 118578333
L153314640 118530714
L153457497 118530714
L153552736 118578333
L153600355 118625952
L153647974 118721190
L153647974 119006904
L153600355 119102142
L153552736 119149761
L153457497 119197380
L153314640 119197380
" />
<path d="M154552736 119197380
L154076545 119197380
L154076545 118197380
" />
<path d="M154886069 118673571
L155219402 118673571
" />
<path d="M155362259 119197380
L154886069 119197380
L154886069 118197380
L155362259 118197380
" />
<path d="M155790831 119197380
L155790831 118197380
L156028926 118197380
L156171783 118245000
L156267021 118340238
L156314640 118435476
L156362259 118625952
L156362259 118768809
L156314640 118959285
L156267021 119054523
L156171783 119149761
L156028926 119197380
L155790831 119197380
" />
</g><text x="147792438.000000" y="158932430.000000"
textLength="8195000.000000" font-size="1333333.000000" lengthAdjust="spacingAndGlyphs"
text-anchor="middle" opacity="0">MX-NoLED</text>
<g class="stroked-text"><desc>MX-NoLED</desc>
<path d="M144030533 158884810
L144030533 157884810
L144363866 158599096
L144697199 157884810
L144697199 158884810
" />
<path d="M145078152 157884810
L145744818 158884810
" />
<path d="M145744818 157884810
L145078152 158884810
" />
<path d="M146125771 158503858
L146887676 158503858
" />
<path d="M147363866 158884810
L147363866 157884810
L147935295 158884810
L147935295 157884810
" />
<path d="M148554342 158884810
L148459104 158837191
L148411485 158789572
L148363866 158694334
L148363866 158408620
L148411485 158313382
L148459104 158265763
L148554342 158218144
L148697199 158218144
L148792438 158265763
L148840057 158313382
L148887676 158408620
L148887676 158694334
L148840057 158789572
L148792438 158837191
L148697199 158884810
L148554342 158884810
" />
<path d="M149792438 158884810
L149316247 158884810
L149316247 157884810
" />
<path d="M150125771 158361001
L150459104 158361001
" />
<path d="M150601961 158884810
L150125771 158884810
L150125771 157884810
L150601961 157884810
" />
<path d="M151030533 158884810
L151030533 157884810
L151268628 157884810
L151411485 157932430
L151506723 158027668
L151554342 158122906
L151601961 158313382
L151601961 158456239
L151554342 158646715
L151506723 158741953
L151411485 158837191
L151268628 158884810
L151030533 158884810
" />
</g><g transform="rotate(-90.000000 198590236.000000 107632500.000000)">
<text x="198590236.000000" y="108132500.000000"
textLength="8195000.000000" font-size="1333333.000000" lengthAdjust="spacingAndGlyphs"
text-anchor="middle" opacity="0">MX-NoLED</text>
</g>
<g class="stroked-text"><desc>MX-NoLED</desc>
<path d="M199042616 111394404
L198042616 111394404
L198756902 111061071
L198042616 110727738
L199042616 110727738
" />
<path d="M198042616 110346785
L199042616 109680119
" />
<path d="M198042616 109680119
L199042616 110346785
" />
<path d="M198661664 109299166
L198661664 108537261
" />
<path d="M199042616 108061071
L198042616 108061071
L199042616 107489642
L198042616 107489642
" />
<path d="M199042616 106870595
L198994997 106965833
L198947378 107013452
L198852140 107061071
L198566426 107061071
L198471188 107013452
L198423569 106965833
L198375950 106870595
L198375950 106727738
L198423569 106632500
L198471188 106584880
L198566426 106537261
L198852140 106537261
L198947378 106584880
L198994997 106632500
L199042616 106727738
L199042616 106870595
" />
<path d="M199042616 105632500
L199042616 106108690
L198042616 106108690
" />
<path d="M198518807 105299166
L198518807 104965833
" />
<path d="M199042616 104822976
L199042616 105299166
L198042616 105299166
L198042616 104822976
" />
<path d="M199042616 104394404
L198042616 104394404
L198042616 104156309
L198090236 104013452
L198185474 103918214
L198280712 103870595
L198471188 103822976
L198614045 103822976
L198804521 103870595
L198899759 103918214
L198994997 104013452
L199042616 104156309
L199042616 104394404
" />
</g><g transform="rotate(-90.000000 198590236.000000 88582500.000000)">
<text x="198590236.000000" y="89082500.000000"
textLength="8195000.000000" font-size="1333333.000000" lengthAdjust="spacingAndGlyphs"
text-anchor="middle" opacity="0">MX-NoLED</text>
</g>
<g class="stroked-text"><desc>MX-NoLED</desc>
<path d="M199042616 92344404
L198042616 92344404
L198756902 92011071
L198042616 91677738
L199042616 91677738
" />
<path d="M198042616 91296785
L199042616 90630119
" />
<path d="M198042616 90630119
L199042616 91296785
" />
<path d="M198661664 90249166
L198661664 89487261
" />
<path d="M199042616 89011071
L198042616 89011071
L199042616 88439642
L198042616 88439642
" />
<path d="M199042616 87820595
L198994997 87915833
L198947378 87963452
L198852140 88011071
L198566426 88011071
L198471188 87963452
L198423569 87915833
L198375950 87820595
L198375950 87677738
L198423569 87582500
L198471188 87534880
L198566426 87487261
L198852140 87487261
L198947378 87534880
L198994997 87582500
L199042616 87677738
L199042616 87820595
" />
<path d="M199042616 86582500
L199042616 87058690
L198042616 87058690
" />
<path d="M198518807 86249166
L198518807 85915833
" />
<path d="M199042616 85772976
L199042616 86249166
L198042616 86249166
L198042616 85772976
" />
<path d="M199042616 85344404
L198042616 85344404
L198042616 85106309
L198090236 84963452
L198185474 84868214
L198280712 84820595
L198471188 84772976
L198614045 84772976
L198804521 84820595
L198899759 84868214
L198994997 84963452
L199042616 85106309
L199042616 85344404
" />
</g><text x="228752736.000000" y="120832500.000000"
textLength="8195000.000000" font-size="1333333.000000" lengthAdjust="spacingAndGlyphs"
text-anchor="middle" opacity="0">MX-NoLED</text>
<g class="stroked-text"><desc>MX-NoLED</desc>
<path d="M224990831 120784880
L224990831 119784880
L225324164 120499166
L225657497 119784880
L225657497 120784880
" />
<path d="M226038450 119784880
L226705116 120784880
" />
<path d="M226705116 119784880
L226038450 120784880
" />
<path d="M227086069 120403928
L227847974 120403928
" />
<path d="M228324164 120784880
L228324164 119784880
L228895593 120784880
L228895593 119784880
" />
<path d="M229514640 120784880
L229419402 120737261
L229371783 120689642
L229324164 120594404
L229324164 120308690
L229371783 120213452
L229419402 120165833
L229514640 120118214
L229657497 120118214
L229752736 120165833
L229800355 120213452
L229847974 120308690
L229847974 120594404
L229800355 120689642
L229752736 120737261
L229657497 120784880
L229514640 120784880
" />
<path d="M230752736 120784880
L230276545 120784880
L230276545 119784880
" />
<path d="M231086069 120261071
L231419402 120261071
" />
<path d="M231562259 120784880
L231086069 120784880
L231086069 119784880
L231562259 119784880
" />
<path d="M231990831 120784880
L231990831 119784880
L232228926 119784880
L232371783 119832500
L232467021 119927738
L232514640 120022976
L232562259 120213452
L232562259 120356309
L232514640 120546785
L232467021 120642023
L232371783 120737261
L232228926 120784880
L231990831 120784880
" />
</g><text x="228752736.000000" y="139882500.000000"
textLength="8195000.000000" font-size="1333333.000000" lengthAdjust="spacingAndGlyphs"
text-anchor="middle" opacity="0">MX-NoLED</text>
<g class="stroked-text"><desc>MX-NoLED</desc>
<path d="M224990831 139834880
L224990831 138834880
L225324164 139549166
L225657497 138834880
L225657497 139834880
" />
<path d="M226038450 138834880
L226705116 139834880
" />
<path d="M226705116 138834880
L226038450 139834880
" />
<path d="M227086069 139453928
L227847974 139453928
" />
<path d="M228324164 139834880
L228324164 138834880
L228895593 139834880
L228895593 138834880
" />
<path d="M229514640 139834880
L229419402 139787261
L229371783 139739642
L229324164 139644404
L229324164 139358690
L229371783 139263452
L229419402 139215833
L229514640 139168214
L229657497 139168214
L229752736 139215833
L229800355 139263452
L229847974 139358690
L229847974 139644404
L229800355 139739642
L229752736 139787261
L229657497 139834880
L229514640 139834880
" />
<path d="M230752736 139834880
L230276545 139834880
L230276545 138834880
" />
<path d="M231086069 139311071
L231419402 139311071
" />
<path d="M231562259 139834880
L231086069 139834880
L231086069 138834880
L231562259 138834880
" />
<path d="M231990831 139834880
L231990831 138834880
L232228926 138834880
L232371783 138882500
L232467021 138977738
L232514640 139072976
L232562259 139263452
L232562259 139406309
L232514640 139596785
L232467021 139692023
L232371783 139787261
L232228926 139834880
L231990831 139834880
" />
</g><g transform="rotate(-90.000000 179539906.000000 105251199.000000)">
<text x="179539906.000000" y="105751199.000000"
textLength="8195000.000000" font-size="1333333.000000" lengthAdjust="spacingAndGlyphs"
text-anchor="middle" opacity="0">MX-NoLED</text>
</g>
<g class="stroked-text"><desc>MX-NoLED</desc>
<path d="M179992286 109013103
L178992286 109013103
L179706572 108679770
L178992286 108346437
L179992286 108346437
" />
<path d="M178992286 107965484
L179992286 107298818
" />
<path d="M178992286 107298818
L179992286 107965484
" />
<path d="M179611334 106917865
L179611334 106155960
" />
<path d="M179992286 105679770
L178992286 105679770
L179992286 105108341
L178992286 105108341
" />
<path d="M179992286 104489294
L179944667 104584532
L179897048 104632151
L179801810 104679770
L179516096 104679770
L179420858 104632151
L179373239 104584532
L179325620 104489294
L179325620 104346437
L179373239 104251199
L179420858 104203579
L179516096 104155960
L179801810 104155960
L179897048 104203579
L179944667 104251199
L179992286 104346437
L179992286 104489294
" />
<path d="M179992286 103251199
L179992286 103727389
L178992286 103727389
" />
<path d="M179468477 102917865
L179468477 102584532
" />
<path d="M179992286 102441675
L179992286 102917865
L178992286 102917865
L178992286 102441675
" />
<path d="M179992286 102013103
L178992286 102013103
L178992286 101775008
L179039906 101632151
L179135144 101536913
L179230382 101489294
L179420858 101441675
L179563715 101441675
L179754191 101489294
L179849429 101536913
L179944667 101632151
L179992286 101775008
L179992286 102013103
" />
</g><text x="166842422.000000" y="156551182.000000"
textLength="8195000.000000" font-size="1333333.000000" lengthAdjust="spacingAndGlyphs"
text-anchor="middle" opacity="0">MX-NoLED</text>
<g class="stroked-text"><desc>MX-NoLED</desc>
<path d="M163080517 156503562
L163080517 155503562
L163413850 156217848
L163747183 155503562
L163747183 156503562
" />
<path d="M164128136 155503562
L164794802 156503562
" />
<path d="M164794802 155503562
L164128136 156503562
" />
<path d="M165175755 156122610
L165937660 156122610
" />
<path d="M166413850 156503562
L166413850 155503562
L166985279 156503562
L166985279 155503562
" />
<path d="M167604326 156503562
L167509088 156455943
L167461469 156408324
L167413850 156313086
L167413850 156027372
L167461469 155932134
L167509088 155884515
L167604326 155836896
L167747183 155836896
L167842422 155884515
L167890041 155932134
L167937660 156027372
L167937660 156313086
L167890041 156408324
L167842422 156455943
L167747183 156503562
L167604326 156503562
" />
<path d="M168842422 156503562
L168366231 156503562
L168366231 155503562
" />
<path d="M169175755 155979753
L169509088 155979753
" />
<path d="M169651945 156503562
L169175755 156503562
L169175755 155503562
L169651945 155503562
" />
<path d="M170080517 156503562
L170080517 155503562
L170318612 155503562
L170461469 155551182
L170556707 155646420
L170604326 155741658
L170651945 155932134
L170651945 156074991
L170604326 156265467
L170556707 156360705
L170461469 156455943
L170318612 156503562
L170080517 156503562
" />
</g><text x="209702736.000000" y="120832500.000000"
textLength="8195000.000000" font-size="1333333.000000" lengthAdjust="spacingAndGlyphs"
text-anchor="middle" opacity="0">MX-NoLED</text>
<g class="stroked-text"><desc>MX-NoLED</desc>
<path d="M205940831 120784880
L205940831 119784880
L206274164 120499166
L206607497 119784880
L206607497 120784880
" />
<path d="M206988450 119784880
L207655116 120784880
" />
<path d="M207655116 119784880
L206988450 120784880
" />
<path d="M208036069 120403928
L208797974 120403928
" />
<path d="M209274164 120784880
L209274164 119784880
L209845593 120784880
L209845593 119784880
" />
<path d="M210464640 120784880
L210369402 120737261
L210321783 120689642
L210274164 120594404
L210274164 120308690
L210321783 120213452
L210369402 120165833
L210464640 120118214
L210607497 120118214
L210702736 120165833
L210750355 120213452
L210797974 120308690
L210797974 120594404
L210750355 120689642
L210702736 120737261
L210607497 120784880
L210464640 120784880
" />
<path d="M211702736 120784880
L211226545 120784880
L211226545 119784880
" />
<path d="M212036069 120261071
L212369402 120261071
" />
<path d="M212512259 120784880
L212036069 120784880
L212036069 119784880
L212512259 119784880
" />
<path d="M212940831 120784880
L212940831 119784880
L213178926 119784880
L213321783 119832500
L213417021 119927738
L213464640 120022976
L213512259 120213452
L213512259 120356309
L213464640 120546785
L213417021 120642023
L213321783 120737261
L213178926 120784880
L212940831 120784880
" />
</g><text x="152552736.000000" y="116070000.000000"
textLength="8195000.000000" font-size="1333333.000000" lengthAdjust="spacingAndGlyphs"
text-anchor="middle" opacity="0">MX-NoLED</text>
<g class="stroked-text"><desc>MX-NoLED</desc>
<path d="M148790831 116022380
L148790831 115022380
L149124164 115736666
L149457497 115022380
L149457497 116022380
" />
<path d="M149838450 115022380
L150505116 116022380
" />
<path d="M150505116 115022380
L149838450 116022380
" />
<path d="M150886069 115641428
L151647974 115641428
" />
<path d="M152124164 116022380
L152124164 115022380
L152695593 116022380
L152695593 115022380
" />
<path d="M153314640 116022380
L153219402 115974761
L153171783 115927142
L153124164 115831904
L153124164 115546190
L153171783 115450952
L153219402 115403333
L153314640 115355714
L153457497 115355714
L153552736 115403333
L153600355 115450952
L153647974 115546190
L153647974 115831904
L153600355 115927142
L153552736 115974761
L153457497 116022380
L153314640 116022380
" />
<path d="M154552736 116022380
L154076545 116022380
L154076545 115022380
" />
<path d="M154886069 115498571
L155219402 115498571
" />
<path d="M155362259 116022380
L154886069 116022380
L154886069 115022380
L155362259 115022380
" />
<path d="M155790831 116022380
L155790831 115022380
L156028926 115022380
L156171783 115070000
L156267021 115165238
L156314640 115260476
L156362259 115450952
L156362259 115593809
L156314640 115784285
L156267021 115879523
L156171783 115974761
L156028926 116022380
L155790831 116022380
" />
</g><text x="133502446.000000" y="80351242.000000"
textLength="8195000.000000" font-size="1333333.000000" lengthAdjust="spacingAndGlyphs"
text-anchor="middle" opacity="0">MX-NoLED</text>
<g class="stroked-text"><desc>MX-NoLED</desc>
<path d="M129740541 80303622
L129740541 79303622
L130073874 80017908
L130407207 79303622
L130407207 80303622
" />
<path d="M130788160 79303622
L131454826 80303622
" />
<path d="M131454826 79303622
L130788160 80303622
" />
<path d="M131835779 79922670
L132597684 79922670
" />
<path d="M133073874 80303622
L133073874 79303622
L133645303 80303622
L133645303 79303622
" />
<path d="M134264350 80303622
L134169112 80256003
L134121493 80208384
L134073874 80113146
L134073874 79827432
L134121493 79732194
L134169112 79684575
L134264350 79636956
L134407207 79636956
L134502446 79684575
L134550065 79732194
L134597684 79827432
L134597684 80113146
L134550065 80208384
L134502446 80256003
L134407207 80303622
L134264350 80303622
" />
<path d="M135502446 80303622
L135026255 80303622
L135026255 79303622
" />
<path d="M135835779 79779813
L136169112 79779813
" />
<path d="M136311969 80303622
L135835779 80303622
L135835779 79303622
L136311969 79303622
" />
<path d="M136740541 80303622
L136740541 79303622
L136978636 79303622
L137121493 79351242
L137216731 79446480
L137264350 79541718
L137311969 79732194
L137311969 79875051
L137264350 80065527
L137216731 80160765
L137121493 80256003
L136978636 80303622
L136740541 80303622
" />
</g><text x="209702736.000000" y="139882500.000000"
textLength="8195000.000000" font-size="1333333.000000" lengthAdjust="spacingAndGlyphs"
text-anchor="middle" opacity="0">MX-NoLED</text>
<g class="stroked-text"><desc>MX-NoLED</desc>
<path d="M205940831 139834880
L205940831 138834880
L206274164 139549166
L206607497 138834880
L206607497 139834880
" />
<path d="M206988450 138834880
L207655116 139834880
" />
<path d="M207655116 138834880
L206988450 139834880
" />
<path d="M208036069 139453928
L208797974 139453928
" />
<path d="M209274164 139834880
L209274164 138834880
L209845593 139834880
L209845593 138834880
" />
<path d="M210464640 139834880
L210369402 139787261
L210321783 139739642
L210274164 139644404
L210274164 139358690
L210321783 139263452
L210369402 139215833
L210464640 139168214
L210607497 139168214
L210702736 139215833
L210750355 139263452
L210797974 139358690
L210797974 139644404
L210750355 139739642
L210702736 139787261
L210607497 139834880
L210464640 139834880
" />
<path d="M211702736 139834880
L211226545 139834880
L211226545 138834880
" />
<path d="M212036069 139311071
L212369402 139311071
" />
<path d="M212512259 139834880
L212036069 139834880
L212036069 138834880
L212512259 138834880
" />
<path d="M212940831 139834880
L212940831 138834880
L213178926 138834880
L213321783 138882500
L213417021 138977738
L213464640 139072976
L213512259 139263452
L213512259 139406309
L213464640 139596785
L213417021 139692023
L213321783 139787261
L213178926 139834880
L212940831 139834880
" />
</g><text x="152552736.000000" y="77970000.000000"
textLength="8195000.000000" font-size="1333333.000000" lengthAdjust="spacingAndGlyphs"
text-anchor="middle" opacity="0">MX-NoLED</text>
<g class="stroked-text"><desc>MX-NoLED</desc>
<path d="M148790831 77922380
L148790831 76922380
L149124164 77636666
L149457497 76922380
L149457497 77922380
" />
<path d="M149838450 76922380
L150505116 77922380
" />
<path d="M150505116 76922380
L149838450 77922380
" />
<path d="M150886069 77541428
L151647974 77541428
" />
<path d="M152124164 77922380
L152124164 76922380
L152695593 77922380
L152695593 76922380
" />
<path d="M153314640 77922380
L153219402 77874761
L153171783 77827142
L153124164 77731904
L153124164 77446190
L153171783 77350952
L153219402 77303333
L153314640 77255714
L153457497 77255714
L153552736 77303333
L153600355 77350952
L153647974 77446190
L153647974 77731904
L153600355 77827142
L153552736 77874761
L153457497 77922380
L153314640 77922380
" />
<path d="M154552736 77922380
L154076545 77922380
L154076545 76922380
" />
<path d="M154886069 77398571
L155219402 77398571
" />
<path d="M155362259 77922380
L154886069 77922380
L154886069 76922380
L155362259 76922380
" />
<path d="M155790831 77922380
L155790831 76922380
L156028926 76922380
L156171783 76970000
L156267021 77065238
L156314640 77160476
L156362259 77350952
L156362259 77493809
L156314640 77684285
L156267021 77779523
L156171783 77874761
L156028926 77922380
L155790831 77922380
" />
</g><g transform="rotate(-90.000000 179539906.000000 67151250.000000)">
<text x="179539906.000000" y="67651250.000000"
textLength="8195000.000000" font-size="1333333.000000" lengthAdjust="spacingAndGlyphs"
text-anchor="middle" opacity="0">MX-NoLED</text>
</g>
<g class="stroked-text"><desc>MX-NoLED</desc>
<path d="M179992286 70913154
L178992286 70913154
L179706572 70579821
L178992286 70246488
L179992286 70246488
" />
<path d="M178992286 69865535
L179992286 69198869
" />
<path d="M178992286 69198869
L179992286 69865535
" />
<path d="M179611334 68817916
L179611334 68056011
" />
<path d="M179992286 67579821
L178992286 67579821
L179992286 67008392
L178992286 67008392
" />
<path d="M179992286 66389345
L179944667 66484583
L179897048 66532202
L179801810 66579821
L179516096 66579821
L179420858 66532202
L179373239 66484583
L179325620 66389345
L179325620 66246488
L179373239 66151250
L179420858 66103630
L179516096 66056011
L179801810 66056011
L179897048 66103630
L179944667 66151250
L179992286 66246488
L179992286 66389345
" />
<path d="M179992286 65151250
L179992286 65627440
L178992286 65627440
" />
<path d="M179468477 64817916
L179468477 64484583
" />
<path d="M179992286 64341726
L179992286 64817916
L178992286 64817916
L178992286 64341726
" />
<path d="M179992286 63913154
L178992286 63913154
L178992286 63675059
L179039906 63532202
L179135144 63436964
L179230382 63389345
L179420858 63341726
L179563715 63341726
L179754191 63389345
L179849429 63436964
L179944667 63532202
L179992286 63675059
L179992286 63913154
" />
</g><text x="209702736.000000" y="101782500.000000"
textLength="8195000.000000" font-size="1333333.000000" lengthAdjust="spacingAndGlyphs"
text-anchor="middle" opacity="0">MX-NoLED</text>
<g class="stroked-text"><desc>MX-NoLED</desc>
<path d="M205940831 101734880
L205940831 100734880
L206274164 101449166
L206607497 100734880
L206607497 101734880
" />
<path d="M206988450 100734880
L207655116 101734880
" />
<path d="M207655116 100734880
L206988450 101734880
" />
<path d="M208036069 101353928
L208797974 101353928
" />
<path d="M209274164 101734880
L209274164 100734880
L209845593 101734880
L209845593 100734880
" />
<path d="M210464640 101734880
L210369402 101687261
L210321783 101639642
L210274164 101544404
L210274164 101258690
L210321783 101163452
L210369402 101115833
L210464640 101068214
L210607497 101068214
L210702736 101115833
L210750355 101163452
L210797974 101258690
L210797974 101544404
L210750355 101639642
L210702736 101687261
L210607497 101734880
L210464640 101734880
" />
<path d="M211702736 101734880
L211226545 101734880
L211226545 100734880
" />
<path d="M212036069 101211071
L212369402 101211071
" />
<path d="M212512259 101734880
L212036069 101734880
L212036069 100734880
L212512259 100734880
" />
<path d="M212940831 101734880
L212940831 100734880
L213178926 100734880
L213321783 100782500
L213417021 100877738
L213464640 100972976
L213512259 101163452
L213512259 101306309
L213464640 101496785
L213417021 101592023
L213321783 101687261
L213178926 101734880
L212940831 101734880
" />
</g><g transform="rotate(-90.000000 179539906.000000 86201225.000000)">
<text x="179539906.000000" y="86701225.000000"
textLength="8195000.000000" font-size="1333333.000000" lengthAdjust="spacingAndGlyphs"
text-anchor="middle" opacity="0">MX-NoLED</text>
</g>
<g class="stroked-text"><desc>MX-NoLED</desc>
<path d="M179992286 89963129
L178992286 89963129
L179706572 89629796
L178992286 89296463
L179992286 89296463
" />
<path d="M178992286 88915510
L179992286 88248844
" />
<path d="M178992286 88248844
L179992286 88915510
" />
<path d="M179611334 87867891
L179611334 87105986
" />
<path d="M179992286 86629796
L178992286 86629796
L179992286 86058367
L178992286 86058367
" />
<path d="M179992286 85439320
L179944667 85534558
L179897048 85582177
L179801810 85629796
L179516096 85629796
L179420858 85582177
L179373239 85534558
L179325620 85439320
L179325620 85296463
L179373239 85201225
L179420858 85153605
L179516096 85105986
L179801810 85105986
L179897048 85153605
L179944667 85201225
L179992286 85296463
L179992286 85439320
" />
<path d="M179992286 84201225
L179992286 84677415
L178992286 84677415
" />
<path d="M179468477 83867891
L179468477 83534558
" />
<path d="M179992286 83391701
L179992286 83867891
L178992286 83867891
L178992286 83391701
" />
<path d="M179992286 82963129
L178992286 82963129
L178992286 82725034
L179039906 82582177
L179135144 82486939
L179230382 82439320
L179420858 82391701
L179563715 82391701
L179754191 82439320
L179849429 82486939
L179944667 82582177
L179992286 82725034
L179992286 82963129
" />
</g><text x="209702736.000000" y="82732500.000000"
textLength="8195000.000000" font-size="1333333.000000" lengthAdjust="spacingAndGlyphs"
text-anchor="middle" opacity="0">MX-NoLED</text>
<g class="stroked-text"><desc>MX-NoLED</desc>
<path d="M205940831 82684880
L205940831 81684880
L206274164 82399166
L206607497 81684880
L206607497 82684880
" />
<path d="M206988450 81684880
L207655116 82684880
" />
<path d="M207655116 81684880
L206988450 82684880
" />
<path d="M208036069 82303928
L208797974 82303928
" />
<path d="M209274164 82684880
L209274164 81684880
L209845593 82684880
L209845593 81684880
" />
<path d="M210464640 82684880
L210369402 82637261
L210321783 82589642
L210274164 82494404
L210274164 82208690
L210321783 82113452
L210369402 82065833
L210464640 82018214
L210607497 82018214
L210702736 82065833
L210750355 82113452
L210797974 82208690
L210797974 82494404
L210750355 82589642
L210702736 82637261
L210607497 82684880
L210464640 82684880
" />
<path d="M211702736 82684880
L211226545 82684880
L211226545 81684880
" />
<path d="M212036069 82161071
L212369402 82161071
" />
<path d="M212512259 82684880
L212036069 82684880
L212036069 81684880
L212512259 81684880
" />
<path d="M212940831 82684880
L212940831 81684880
L213178926 81684880
L213321783 81732500
L213417021 81827738
L213464640 81922976
L213512259 82113452
L213512259 82256309
L213464640 82446785
L213417021 82542023
L213321783 82637261
L213178926 82684880
L212940831 82684880
" />
</g><text x="133502446.000000" y="99401227.000000"
textLength="8195000.000000" font-size="1333333.000000" lengthAdjust="spacingAndGlyphs"
text-anchor="middle" opacity="0">MX-NoLED</text>
<g class="stroked-text"><desc>MX-NoLED</desc>
<path d="M129740541 99353607
L129740541 98353607
L130073874 99067893
L130407207 98353607
L130407207 99353607
" />
<path d="M130788160 98353607
L131454826 99353607
" />
<path d="M131454826 98353607
L130788160 99353607
" />
<path d="M131835779 98972655
L132597684 98972655
" />
<path d="M133073874 99353607
L133073874 98353607
L133645303 99353607
L133645303 98353607
" />
<path d="M134264350 99353607
L134169112 99305988
L134121493 99258369
L134073874 99163131
L134073874 98877417
L134121493 98782179
L134169112 98734560
L134264350 98686941
L134407207 98686941
L134502446 98734560
L134550065 98782179
L134597684 98877417
L134597684 99163131
L134550065 99258369
L134502446 99305988
L134407207 99353607
L134264350 99353607
" />
<path d="M135502446 99353607
L135026255 99353607
L135026255 98353607
" />
<path d="M135835779 98829798
L136169112 98829798
" />
<path d="M136311969 99353607
L135835779 99353607
L135835779 98353607
L136311969 98353607
" />
<path d="M136740541 99353607
L136740541 98353607
L136978636 98353607
L137121493 98401227
L137216731 98496465
L137264350 98591703
L137311969 98782179
L137311969 98925036
L137264350 99115512
L137216731 99210750
L137121493 99305988
L136978636 99353607
L136740541 99353607
" />
</g><text x="228752736.000000" y="82732500.000000"
textLength="8195000.000000" font-size="1333333.000000" lengthAdjust="spacingAndGlyphs"
text-anchor="middle" opacity="0">MX-NoLED</text>
<g class="stroked-text"><desc>MX-NoLED</desc>
<path d="M224990831 82684880
L224990831 81684880
L225324164 82399166
L225657497 81684880
L225657497 82684880
" />
<path d="M226038450 81684880
L226705116 82684880
" />
<path d="M226705116 81684880
L226038450 82684880
" />
<path d="M227086069 82303928
L227847974 82303928
" />
<path d="M228324164 82684880
L228324164 81684880
L228895593 82684880
L228895593 81684880
" />
<path d="M229514640 82684880
L229419402 82637261
L229371783 82589642
L229324164 82494404
L229324164 82208690
L229371783 82113452
L229419402 82065833
L229514640 82018214
L229657497 82018214
L229752736 82065833
L229800355 82113452
L229847974 82208690
L229847974 82494404
L229800355 82589642
L229752736 82637261
L229657497 82684880
L229514640 82684880
" />
<path d="M230752736 82684880
L230276545 82684880
L230276545 81684880
" />
<path d="M231086069 82161071
L231419402 82161071
" />
<path d="M231562259 82684880
L231086069 82684880
L231086069 81684880
L231562259 81684880
" />
<path d="M231990831 82684880
L231990831 81684880
L232228926 81684880
L232371783 81732500
L232467021 81827738
L232514640 81922976
L232562259 82113452
L232562259 82256309
L232514640 82446785
L232467021 82542023
L232371783 82637261
L232228926 82684880
L231990831 82684880
" />
</g><text x="152552736.000000" y="97020000.000000"
textLength="8195000.000000" font-size="1333333.000000" lengthAdjust="spacingAndGlyphs"
text-anchor="middle" opacity="0">MX-NoLED</text>
<g class="stroked-text"><desc>MX-NoLED</desc>
<path d="M148790831 96972380
L148790831 95972380
L149124164 96686666
L149457497 95972380
L149457497 96972380
" />
<path d="M149838450 95972380
L150505116 96972380
" />
<path d="M150505116 95972380
L149838450 96972380
" />
<path d="M150886069 96591428
L151647974 96591428
" />
<path d="M152124164 96972380
L152124164 95972380
L152695593 96972380
L152695593 95972380
" />
<path d="M153314640 96972380
L153219402 96924761
L153171783 96877142
L153124164 96781904
L153124164 96496190
L153171783 96400952
L153219402 96353333
L153314640 96305714
L153457497 96305714
L153552736 96353333
L153600355 96400952
L153647974 96496190
L153647974 96781904
L153600355 96877142
L153552736 96924761
L153457497 96972380
L153314640 96972380
" />
<path d="M154552736 96972380
L154076545 96972380
L154076545 95972380
" />
<path d="M154886069 96448571
L155219402 96448571
" />
<path d="M155362259 96972380
L154886069 96972380
L154886069 95972380
L155362259 95972380
" />
<path d="M155790831 96972380
L155790831 95972380
L156028926 95972380
L156171783 96020000
L156267021 96115238
L156314640 96210476
L156362259 96400952
L156362259 96543809
L156314640 96734285
L156267021 96829523
L156171783 96924761
L156028926 96972380
L155790831 96972380
" />
</g><text x="133502457.000000" y="121626199.000000"
textLength="8195000.000000" font-size="1333333.000000" lengthAdjust="spacingAndGlyphs"
text-anchor="middle" opacity="0">MX-NoLED</text>
<g class="stroked-text"><desc>MX-NoLED</desc>
<path d="M129740552 121578579
L129740552 120578579
L130073885 121292865
L130407218 120578579
L130407218 121578579
" />
<path d="M130788171 120578579
L131454837 121578579
" />
<path d="M131454837 120578579
L130788171 121578579
" />
<path d="M131835790 121197627
L132597695 121197627
" />
<path d="M133073885 121578579
L133073885 120578579
L133645314 121578579
L133645314 120578579
" />
<path d="M134264361 121578579
L134169123 121530960
L134121504 121483341
L134073885 121388103
L134073885 121102389
L134121504 121007151
L134169123 120959532
L134264361 120911913
L134407218 120911913
L134502457 120959532
L134550076 121007151
L134597695 121102389
L134597695 121388103
L134550076 121483341
L134502457 121530960
L134407218 121578579
L134264361 121578579
" />
<path d="M135502457 121578579
L135026266 121578579
L135026266 120578579
" />
<path d="M135835790 121054770
L136169123 121054770
" />
<path d="M136311980 121578579
L135835790 121578579
L135835790 120578579
L136311980 120578579
" />
<path d="M136740552 121578579
L136740552 120578579
L136978647 120578579
L137121504 120626199
L137216742 120721437
L137264361 120816675
L137311980 121007151
L137311980 121150008
L137264361 121340484
L137216742 121435722
L137121504 121530960
L136978647 121578579
L136740552 121578579
" />
</g><g transform="rotate(-45.000000 119314245.000000 136497809.000000)">
<text x="119314245.000000" y="136997809.000000"
textLength="18956905.000000" font-size="1333333.000000" lengthAdjust="spacingAndGlyphs"
text-anchor="middle" opacity="0">HRO-TYPE-C-31-M-12</text>
</g>
<g class="stroked-text"><desc>HRO-TYPE-C-31-M-12</desc>
<path d="M113169150 143282666
L112462043 142575560
" />
<path d="M112798761 142912277
L113202822 142508216
" />
<path d="M113573211 142878605
L112866104 142171499
" />
<path d="M114313989 142137827
L113741570 142036812
" />
<path d="M113909928 142541888
L113202822 141834781
L113472196 141565407
L113573211 141531735
L113640554 141531735
L113741570 141565407
L113842585 141666422
L113876257 141767438
L113876257 141834781
L113842585 141935796
L113573211 142205170
" />
<path d="M114044615 140992987
L114179302 140858300
L114280318 140824629
L114415005 140824629
L114583363 140925644
L114819066 141161346
L114920081 141329705
L114920081 141464392
L114886409 141565407
L114751722 141700094
L114650707 141733766
L114516020 141733766
L114347661 141632751
L114111959 141397048
L114010944 141228690
L114010944 141094003
L114044615 140992987
" />
<path d="M115088440 140824629
L115627188 140285881
" />
<path d="M115425157 139612446
L115829218 139208384
" />
<path d="M116334294 140117522
L115627188 139410415
" />
<path d="M116569997 139208384
L116906714 139545102
" />
<path d="M115963905 139073697
L116569997 139208384
L116435310 138602293
" />
<path d="M117378119 139073697
L116671012 138366591
L116940386 138097217
L117041401 138063545
L117108745 138063545
L117209760 138097217
L117310775 138198232
L117344447 138299247
L117344447 138366591
L117310775 138467606
L117041401 138736980
" />
<path d="M117714836 137996201
L117950539 137760499
" />
<path d="M118421943 138029873
L118085226 138366591
L117378119 137659484
L117714836 137322766
" />
<path d="M118455615 137457453
L118994363 136918705
" />
<path d="M119937172 136379957
L119937172 136447301
L119869828 136581988
L119802485 136649331
L119667798 136716675
L119533111 136716675
L119432096 136683003
L119263737 136581988
L119162722 136480973
L119061706 136312614
L119028035 136211599
L119028035 136076912
L119095378 135942225
L119162722 135874881
L119297409 135807538
L119364752 135807538
" />
<path d="M120038187 135874881
L120576935 135336133
" />
<path d="M120408576 134629026
L120846309 134191294
L120879981 134696370
L120980996 134595355
L121082011 134561683
L121149355 134561683
L121250370 134595355
L121418729 134763713
L121452401 134864729
L121452401 134932072
L121418729 135033087
L121216698 135235118
L121115683 135268790
L121048340 135268790
" />
<path d="M122226851 134224965
L121822790 134629026
" />
<path d="M122024820 134426996
L121317714 133719889
L121351385 133888248
L121351385 134022935
L121317714 134123950
" />
<path d="M122260523 133652545
L122799271 133113797
" />
<path d="M123405362 133046454
L122698256 132339347
L123439034 132608721
L123169660 131867943
L123876767 132575049
" />
<path d="M123944110 131968958
L124482858 131430210
" />
<path d="M125459339 130992477
L125055278 131396538
" />
<path d="M125257309 131194508
L124550202 130487401
L124583874 130655760
L124583874 130790447
L124550202 130891462
" />
<path d="M125088950 130083340
L125088950 130015996
L125122622 129914981
L125290980 129746622
L125391996 129712951
L125459339 129712951
L125560354 129746622
L125627698 129813966
L125695041 129948653
L125695041 130756775
L126132774 130319042
" />
</g><text x="162077762.000000" y="52901813.000000"
textLength="18956905.000000" font-size="1333333.000000" lengthAdjust="spacingAndGlyphs"
text-anchor="middle" opacity="0">HRO-TYPE-C-31-M-12</text>
<g class="stroked-text"><desc>HRO-TYPE-C-31-M-12</desc>
<path d="M152934904 52854193
L152934904 51854193
" />
<path d="M152934904 52330384
L153506333 52330384
" />
<path d="M153506333 52854193
L153506333 51854193
" />
<path d="M154553952 52854193
L154220619 52378003
" />
<path d="M153982523 52854193
L153982523 51854193
L154363476 51854193
L154458714 51901813
L154506333 51949432
L154553952 52044670
L154553952 52187527
L154506333 52282765
L154458714 52330384
L154363476 52378003
L153982523 52378003
" />
<path d="M155173000 51854193
L155363476 51854193
L155458714 51901813
L155553952 51997051
L155601571 52187527
L155601571 52520860
L155553952 52711336
L155458714 52806574
L155363476 52854193
L155173000 52854193
L155077762 52806574
L154982523 52711336
L154934904 52520860
L154934904 52187527
L154982523 51997051
L155077762 51901813
L155173000 51854193
" />
<path d="M156030142 52473241
L156792047 52473241
" />
<path d="M157125381 51854193
L157696809 51854193
" />
<path d="M157411095 52854193
L157411095 51854193
" />
<path d="M158220619 52378003
L158220619 52854193
" />
<path d="M157887285 51854193
L158220619 52378003
L158553952 51854193
" />
<path d="M158887285 52854193
L158887285 51854193
L159268238 51854193
L159363476 51901813
L159411095 51949432
L159458714 52044670
L159458714 52187527
L159411095 52282765
L159363476 52330384
L159268238 52378003
L158887285 52378003
" />
<path d="M159887285 52330384
L160220619 52330384
" />
<path d="M160363476 52854193
L159887285 52854193
L159887285 51854193
L160363476 51854193
" />
<path d="M160792047 52473241
L161553952 52473241
" />
<path d="M162601571 52758955
L162553952 52806574
L162411095 52854193
L162315857 52854193
L162173000 52806574
L162077762 52711336
L162030142 52616098
L161982523 52425622
L161982523 52282765
L162030142 52092289
L162077762 51997051
L162173000 51901813
L162315857 51854193
L162411095 51854193
L162553952 51901813
L162601571 51949432
" />
<path d="M163030142 52473241
L163792047 52473241
" />
<path d="M164173000 51854193
L164792047 51854193
L164458714 52235146
L164601571 52235146
L164696809 52282765
L164744428 52330384
L164792047 52425622
L164792047 52663717
L164744428 52758955
L164696809 52806574
L164601571 52854193
L164315857 52854193
L164220619 52806574
L164173000 52758955
" />
<path d="M165744428 52854193
L165173000 52854193
" />
<path d="M165458714 52854193
L165458714 51854193
L165363476 51997051
L165268238 52092289
L165173000 52139908
" />
<path d="M166173000 52473241
L166934904 52473241
" />
<path d="M167411095 52854193
L167411095 51854193
L167744428 52568479
L168077762 51854193
L168077762 52854193
" />
<path d="M168553952 52473241
L169315857 52473241
" />
<path d="M170315857 52854193
L169744428 52854193
" />
<path d="M170030142 52854193
L170030142 51854193
L169934904 51997051
L169839666 52092289
L169744428 52139908
" />
<path d="M170696809 51949432
L170744428 51901813
L170839666 51854193
L171077762 51854193
L171173000 51901813
L171220619 51949432
L171268238 52044670
L171268238 52139908
L171220619 52282765
L170649190 52854193
L171268238 52854193
" />
</g><path d="M123987013 168298025
L122987013 166565974
" />
<path d="M125719064 167298025
L123987013 168298025
" />
<path d="M130111369 150905720
L129111369 149173669
" />
<path d="M136111369 161298025
L135111369 159565974
" />
<path d="M118719064 155173669
L116987013 156173669
" />
<path d="M129111369 149173669
L127379318 150173669
" />
<path d="M116987013 156173669
L117987013 157905720
" />
<path d="M134379318 162298025
L136111369 161298025
" />
<path d="M139560583 162222239
L123062799 171747239
" />
<path d="M123062799 171747239
L113537799 155249455
" />
<path d="M113537799 155249455
L130035583 145724455
" />
<path d="M130035583 145724455
L139560583 162222239
" />
<path d="M126502457 117013699
L126502457 115013699
" />
<path d="M128502457 103013699
L126502457 103013699
" />
<path d="M126502457 103013699
L126502457 105013699
" />
<path d="M140502457 117013699
L140502457 115013699
" />
<path d="M138502457 117013699
L140502457 117013699
" />
<path d="M140502457 105013699
L140502457 103013699
" />
<path d="M128502457 117013699
L126502457 117013699
" />
<path d="M140502457 103013699
L138502457 103013699
" />
<path d="M143027457 119538699
L123977457 119538699
" />
<path d="M123977457 119538699
L123977457 100488699
" />
<path d="M123977457 100488699
L143027457 100488699
" />
<path d="M143027457 100488699
L143027457 119538699
" />
<path d="M183652736 74532500
L183652736 76532500
" />
<path d="M185652736 62532500
L183652736 62532500
" />
<path d="M197652736 64532500
L197652736 62532500
" />
<path d="M197652736 62532500
L195652736 62532500
" />
<path d="M183652736 62532500
L183652736 64532500
" />
<path d="M183652736 76532500
L185652736 76532500
" />
<path d="M197652736 76532500
L195652736 76532500
" />
<path d="M197652736 74532500
L197652736 76532500
" />
<path d="M200177736 60007500
L181127736 60007500
" />
<path d="M181127736 60007500
L181127736 79057500
" />
<path d="M181127736 79057500
L200177736 79057500
" />
<path d="M200177736 79057500
L200177736 60007500
" />
<path d="M197652736 121682500
L197652736 119682500
" />
<path d="M183652736 133682500
L185652736 133682500
" />
<path d="M183652736 119682500
L183652736 121682500
" />
<path d="M185652736 119682500
L183652736 119682500
" />
<path d="M197652736 119682500
L195652736 119682500
" />
<path d="M197652736 133682500
L195652736 133682500
" />
<path d="M197652736 131682500
L197652736 133682500
" />
<path d="M183652736 131682500
L183652736 133682500
" />
<path d="M200177736 117157500
L181127736 117157500
" />
<path d="M181127736 117157500
L181127736 136207500
" />
<path d="M181127736 136207500
L200177736 136207500
" />
<path d="M200177736 136207500
L200177736 117157500
" />
<path d="M178602406 131301199
L176602406 131301199
" />
<path d="M164602406 129301199
L164602406 131301199
" />
<path d="M164602406 117301199
L164602406 119301199
" />
<path d="M178602406 129301199
L178602406 131301199
" />
<path d="M164602406 131301199
L166602406 131301199
" />
<path d="M178602406 117301199
L176602406 117301199
" />
<path d="M178602406 119301199
L178602406 117301199
" />
<path d="M166602406 117301199
L164602406 117301199
" />
<path d="M181127406 114776199
L162077406 114776199
" />
<path d="M162077406 114776199
L162077406 133826199
" />
<path d="M162077406 133826199
L181127406 133826199
" />
<path d="M181127406 133826199
L181127406 114776199
" />
<path d="M221752736 86345000
L221752736 88345000
" />
<path d="M221752736 100345000
L221752736 98345000
" />
<path d="M233752736 100345000
L235752736 100345000
" />
<path d="M235752736 100345000
L235752736 98345000
" />
<path d="M235752736 86345000
L233752736 86345000
" />
<path d="M235752736 88345000
L235752736 86345000
" />
<path d="M223752736 86345000
L221752736 86345000
" />
<path d="M223752736 100345000
L221752736 100345000
" />
<path d="M238277736 102870000
L219227736 102870000
" />
<path d="M219227736 102870000
L219227736 83820000
" />
<path d="M219227736 83820000
L238277736 83820000
" />
<path d="M238277736 83820000
L238277736 102870000
" />
<path d="M110755191 162980568
L109340977 164394782
" />
<path d="M110755191 182779558
L109340977 181365344
" />
<path d="M112169405 164394782
L110755191 162980568
" />
<path d="M102269910 171465849
L100855696 172880063
" />
<path d="M112169405 181365344
L110755191 182779558
" />
<path d="M100855696 172880063
L102269910 174294277
" />
<path d="M120654686 172880063
L119240472 171465849
" />
<path d="M119240472 174294277
L120654686 172880063
" />
<path d="M124225575 172880063
L110755191 186350447
" />
<path d="M110755191 186350447
L97284807 172880063
" />
<path d="M97284807 172880063
L110755191 159409679
" />
<path d="M110755191 159409679
L124225575 172880063
" />
<path d="M159552736 133682500
L159552736 131682500
" />
<path d="M159552736 119682500
L159552736 121682500
" />
<path d="M145552736 131682500
L145552736 133682500
" />
<path d="M147552736 119682500
L145552736 119682500
" />
<path d="M157552736 119682500
L159552736 119682500
" />
<path d="M145552736 119682500
L145552736 121682500
" />
<path d="M145552736 133682500
L147552736 133682500
" />
<path d="M157552736 133682500
L159552736 133682500
" />
<path d="M143027736 117157500
L162077736 117157500
" />
<path d="M162077736 117157500
L162077736 136207500
" />
<path d="M162077736 136207500
L143027736 136207500
" />
<path d="M143027736 136207500
L143027736 117157500
" />
<path d="M152792438 157494930
L154792438 157494930
" />
<path d="M140792438 143494930
L140792438 145494930
" />
<path d="M154792438 143494930
L152792438 143494930
" />
<path d="M140792438 157494930
L140792438 155494930
" />
<path d="M142792438 157494930
L140792438 157494930
" />
<path d="M154792438 145494930
L154792438 143494930
" />
<path d="M142792438 143494930
L140792438 143494930
" />
<path d="M154792438 157494930
L154792438 155494930
" />
<path d="M157317438 160019930
L138267438 160019930
" />
<path d="M138267438 160019930
L138267438 140969930
" />
<path d="M138267438 140969930
L157317438 140969930
" />
<path d="M157317438 140969930
L157317438 160019930
" />
<path d="M197652736 100632500
L195652736 100632500
" />
<path d="M183652736 100632500
L183652736 102632500
" />
<path d="M183652736 114632500
L185652736 114632500
" />
<path d="M197652736 102632500
L197652736 100632500
" />
<path d="M183652736 112632500
L183652736 114632500
" />
<path d="M197652736 114632500
L195652736 114632500
" />
<path d="M185652736 100632500
L183652736 100632500
" />
<path d="M197652736 112632500
L197652736 114632500
" />
<path d="M200177736 98107500
L181127736 98107500
" />
<path d="M181127736 98107500
L181127736 117157500
" />
<path d="M181127736 117157500
L200177736 117157500
" />
<path d="M200177736 117157500
L200177736 98107500
" />
<path d="M183652736 95582500
L185652736 95582500
" />
<path d="M197652736 93582500
L197652736 95582500
" />
<path d="M185652736 81582500
L183652736 81582500
" />
<path d="M197652736 95582500
L195652736 95582500
" />
<path d="M183652736 93582500
L183652736 95582500
" />
<path d="M197652736 83582500
L197652736 81582500
" />
<path d="M197652736 81582500
L195652736 81582500
" />
<path d="M183652736 81582500
L183652736 83582500
" />
<path d="M200177736 79057500
L181127736 79057500
" />
<path d="M181127736 79057500
L181127736 98107500
" />
<path d="M181127736 98107500
L200177736 98107500
" />
<path d="M200177736 98107500
L200177736 79057500
" />
<path d="M223752736 105395000
L221752736 105395000
" />
<path d="M223752736 119395000
L221752736 119395000
" />
<path d="M221752736 105395000
L221752736 107395000
" />
<path d="M233752736 119395000
L235752736 119395000
" />
<path d="M221752736 119395000
L221752736 117395000
" />
<path d="M235752736 107395000
L235752736 105395000
" />
<path d="M235752736 119395000
L235752736 117395000
" />
<path d="M235752736 105395000
L233752736 105395000
" />
<path d="M238277736 121920000
L219227736 121920000
" />
<path d="M219227736 121920000
L219227736 102870000
" />
<path d="M219227736 102870000
L238277736 102870000
" />
<path d="M238277736 102870000
L238277736 121920000
" />
<path d="M233752736 138445000
L235752736 138445000
" />
<path d="M223752736 138445000
L221752736 138445000
" />
<path d="M235752736 138445000
L235752736 136445000
" />
<path d="M221752736 124445000
L221752736 126445000
" />
<path d="M235752736 126445000
L235752736 124445000
" />
<path d="M221752736 138445000
L221752736 136445000
" />
<path d="M235752736 124445000
L233752736 124445000
" />
<path d="M223752736 124445000
L221752736 124445000
" />
<path d="M238277736 140970000
L219227736 140970000
" />
<path d="M219227736 140970000
L219227736 121920000
" />
<path d="M219227736 121920000
L238277736 121920000
" />
<path d="M238277736 121920000
L238277736 140970000
" />
</g>
<g style="fill:#000000; fill-opacity:0.0; 
stroke:#000000; stroke-width:100000.000000; stroke-opacity:1; 
stroke-linecap:round; stroke-linejoin:round;">
<path d="M187328500 135264700
L188528500 134064700
" />
<path d="M187328500 138064700
L187328500 135264700
" />
<path d="M191328500 134064700
L192528500 135264700
" />
<path d="M191328500 139264700
L188528500 139264700
" />
<path d="M188528500 139264700
L187328500 138064700
" />
<path d="M192528500 138064700
L191328500 139264700
" />
<path d="M192528500 135264700
L192528500 138064700
" />
<path d="M188528500 134064700
L191328500 134064700
" />
<circle cx="189928500.000000" cy="136664700.000000" r="1500000.000000" /> 
</g>
<g style="fill:#000000; fill-opacity:0.0; 
stroke:#000000; stroke-width:150000.000000; stroke-opacity:1; 
stroke-linecap:round; stroke-linejoin:round;">
<path d="M166602406 98251199
L164602406 98251199
" />
<path d="M178602406 112251199
L176602406 112251199
" />
<path d="M178602406 110251199
L178602406 112251199
" />
<path d="M164602406 110251199
L164602406 112251199
" />
<path d="M164602406 112251199
L166602406 112251199
" />
<path d="M178602406 98251199
L176602406 98251199
" />
<path d="M164602406 98251199
L164602406 100251199
" />
<path d="M178602406 100251199
L178602406 98251199
" />
<path d="M181127406 95726199
L162077406 95726199
" />
<path d="M162077406 95726199
L162077406 114776199
" />
<path d="M162077406 114776199
L181127406 114776199
" />
<path d="M181127406 114776199
L181127406 95726199
" />
<path d="M159842422 141113682
L159842422 143113682
" />
<path d="M171842422 155113682
L173842422 155113682
" />
<path d="M173842422 155113682
L173842422 153113682
" />
<path d="M173842422 141113682
L171842422 141113682
" />
<path d="M161842422 141113682
L159842422 141113682
" />
<path d="M173842422 143113682
L173842422 141113682
" />
<path d="M159842422 155113682
L159842422 153113682
" />
<path d="M161842422 155113682
L159842422 155113682
" />
<path d="M176367422 157638682
L157317422 157638682
" />
<path d="M157317422 157638682
L157317422 138588682
" />
<path d="M157317422 138588682
L176367422 138588682
" />
<path d="M176367422 138588682
L176367422 157638682
" />
<path d="M204702736 119395000
L202702736 119395000
" />
<path d="M216702736 107395000
L216702736 105395000
" />
<path d="M202702736 105395000
L202702736 107395000
" />
<path d="M204702736 105395000
L202702736 105395000
" />
<path d="M216702736 119395000
L216702736 117395000
" />
<path d="M202702736 119395000
L202702736 117395000
" />
<path d="M214702736 119395000
L216702736 119395000
" />
<path d="M216702736 105395000
L214702736 105395000
" />
<path d="M219227736 121920000
L200177736 121920000
" />
<path d="M200177736 121920000
L200177736 102870000
" />
<path d="M200177736 102870000
L219227736 102870000
" />
<path d="M219227736 102870000
L219227736 121920000
" />
<path d="M147552736 100632500
L145552736 100632500
" />
<path d="M147552736 114632500
L145552736 114632500
" />
<path d="M145552736 114632500
L145552736 112632500
" />
<path d="M145552736 100632500
L145552736 102632500
" />
<path d="M157552736 114632500
L159552736 114632500
" />
<path d="M159552736 102632500
L159552736 100632500
" />
<path d="M159552736 114632500
L159552736 112632500
" />
<path d="M159552736 100632500
L157552736 100632500
" />
<path d="M162077736 117157500
L143027736 117157500
" />
<path d="M143027736 117157500
L143027736 98107500
" />
<path d="M143027736 98107500
L162077736 98107500
" />
<path d="M162077736 98107500
L162077736 117157500
" />
<path d="M138502446 78913742
L140502446 78913742
" />
<path d="M140502446 78913742
L140502446 76913742
" />
<path d="M126502446 64913742
L126502446 66913742
" />
<path d="M126502446 78913742
L126502446 76913742
" />
<path d="M128502446 64913742
L126502446 64913742
" />
<path d="M140502446 64913742
L138502446 64913742
" />
<path d="M128502446 78913742
L126502446 78913742
" />
<path d="M140502446 66913742
L140502446 64913742
" />
<path d="M143027446 81438742
L123977446 81438742
" />
<path d="M123977446 81438742
L123977446 62388742
" />
<path d="M123977446 62388742
L143027446 62388742
" />
<path d="M143027446 62388742
L143027446 81438742
" />
<path d="M204702736 138445000
L202702736 138445000
" />
<path d="M214702736 138445000
L216702736 138445000
" />
<path d="M202702736 138445000
L202702736 136445000
" />
<path d="M216702736 138445000
L216702736 136445000
" />
<path d="M216702736 124445000
L214702736 124445000
" />
<path d="M204702736 124445000
L202702736 124445000
" />
<path d="M202702736 124445000
L202702736 126445000
" />
<path d="M216702736 126445000
L216702736 124445000
" />
<path d="M219227736 140970000
L200177736 140970000
" />
<path d="M200177736 140970000
L200177736 121920000
" />
<path d="M200177736 121920000
L219227736 121920000
" />
<path d="M219227736 121920000
L219227736 140970000
" />
<path d="M159552736 64532500
L159552736 62532500
" />
<path d="M145552736 76532500
L145552736 74532500
" />
<path d="M157552736 76532500
L159552736 76532500
" />
<path d="M147552736 62532500
L145552736 62532500
" />
<path d="M145552736 62532500
L145552736 64532500
" />
<path d="M147552736 76532500
L145552736 76532500
" />
<path d="M159552736 76532500
L159552736 74532500
" />
<path d="M159552736 62532500
L157552736 62532500
" />
<path d="M162077736 79057500
L143027736 79057500
" />
<path d="M143027736 79057500
L143027736 60007500
" />
<path d="M143027736 60007500
L162077736 60007500
" />
<path d="M162077736 60007500
L162077736 79057500
" />
<path d="M178602406 62151250
L178602406 60151250
" />
<path d="M178602406 74151250
L176602406 74151250
" />
<path d="M166602406 60151250
L164602406 60151250
" />
<path d="M164602406 74151250
L166602406 74151250
" />
<path d="M178602406 60151250
L176602406 60151250
" />
<path d="M164602406 72151250
L164602406 74151250
" />
<path d="M178602406 72151250
L178602406 74151250
" />
<path d="M164602406 60151250
L164602406 62151250
" />
<path d="M181127406 57626250
L162077406 57626250
" />
<path d="M162077406 57626250
L162077406 76676250
" />
<path d="M162077406 76676250
L181127406 76676250
" />
<path d="M181127406 76676250
L181127406 57626250
" />
<path d="M202702736 86345000
L202702736 88345000
" />
<path d="M216702736 100345000
L216702736 98345000
" />
<path d="M216702736 88345000
L216702736 86345000
" />
<path d="M214702736 100345000
L216702736 100345000
" />
<path d="M204702736 100345000
L202702736 100345000
" />
<path d="M202702736 100345000
L202702736 98345000
" />
<path d="M204702736 86345000
L202702736 86345000
" />
<path d="M216702736 86345000
L214702736 86345000
" />
<path d="M219227736 102870000
L200177736 102870000
" />
<path d="M200177736 102870000
L200177736 83820000
" />
<path d="M200177736 83820000
L219227736 83820000
" />
<path d="M219227736 83820000
L219227736 102870000
" />
<path d="M164602406 93201225
L166602406 93201225
" />
<path d="M178602406 93201225
L176602406 93201225
" />
<path d="M164602406 91201225
L164602406 93201225
" />
<path d="M178602406 81201225
L178602406 79201225
" />
<path d="M166602406 79201225
L164602406 79201225
" />
<path d="M178602406 79201225
L176602406 79201225
" />
<path d="M164602406 79201225
L164602406 81201225
" />
<path d="M178602406 91201225
L178602406 93201225
" />
<path d="M181127406 76676225
L162077406 76676225
" />
<path d="M162077406 76676225
L162077406 95726225
" />
<path d="M162077406 95726225
L181127406 95726225
" />
<path d="M181127406 95726225
L181127406 76676225
" />
<path d="M214702736 81295000
L216702736 81295000
" />
<path d="M216702736 81295000
L216702736 79295000
" />
<path d="M204702736 81295000
L202702736 81295000
" />
<path d="M216702736 67295000
L214702736 67295000
" />
<path d="M202702736 67295000
L202702736 69295000
" />
<path d="M202702736 81295000
L202702736 79295000
" />
<path d="M216702736 69295000
L216702736 67295000
" />
<path d="M204702736 67295000
L202702736 67295000
" />
<path d="M219227736 83820000
L200177736 83820000
" />
<path d="M200177736 83820000
L200177736 64770000
" />
<path d="M200177736 64770000
L219227736 64770000
" />
<path d="M219227736 64770000
L219227736 83820000
" />
<path d="M128502446 97963727
L126502446 97963727
" />
<path d="M140502446 97963727
L140502446 95963727
" />
<path d="M126502446 97963727
L126502446 95963727
" />
<path d="M128502446 83963727
L126502446 83963727
" />
<path d="M126502446 83963727
L126502446 85963727
" />
<path d="M140502446 85963727
L140502446 83963727
" />
<path d="M140502446 83963727
L138502446 83963727
" />
<path d="M138502446 97963727
L140502446 97963727
" />
<path d="M143027446 100488727
L123977446 100488727
" />
<path d="M123977446 100488727
L123977446 81438727
" />
<path d="M123977446 81438727
L143027446 81438727
" />
<path d="M143027446 81438727
L143027446 100488727
" />
<path d="M235752736 69295000
L235752736 67295000
" />
<path d="M221752736 67295000
L221752736 69295000
" />
<path d="M235752736 81295000
L235752736 79295000
" />
<path d="M223752736 67295000
L221752736 67295000
" />
<path d="M223752736 81295000
L221752736 81295000
" />
<path d="M233752736 81295000
L235752736 81295000
" />
<path d="M235752736 67295000
L233752736 67295000
" />
<path d="M221752736 81295000
L221752736 79295000
" />
<path d="M238277736 83820000
L219227736 83820000
" />
<path d="M219227736 83820000
L219227736 64770000
" />
<path d="M219227736 64770000
L238277736 64770000
" />
<path d="M238277736 64770000
L238277736 83820000
" />
<path d="M159552736 95582500
L159552736 93582500
" />
<path d="M159552736 83582500
L159552736 81582500
" />
<path d="M145552736 81582500
L145552736 83582500
" />
<path d="M145552736 95582500
L145552736 93582500
" />
<path d="M147552736 95582500
L145552736 95582500
" />
<path d="M157552736 95582500
L159552736 95582500
" />
<path d="M159552736 81582500
L157552736 81582500
" />
<path d="M147552736 81582500
L145552736 81582500
" />
<path d="M162077736 98107500
L143027736 98107500
" />
<path d="M143027736 98107500
L143027736 79057500
" />
<path d="M143027736 79057500
L162077736 79057500
" />
<path d="M162077736 79057500
L162077736 98107500
" />
<path d="M126502457 134063699
L126502457 136063699
" />
<path d="M126502457 136063699
L128502457 136063699
" />
<path d="M126502457 122063699
L126502457 124063699
" />
<path d="M138502457 122063699
L140502457 122063699
" />
<path d="M128502457 122063699
L126502457 122063699
" />
<path d="M140502457 136063699
L140502457 134063699
" />
<path d="M140502457 122063699
L140502457 124063699
" />
<path d="M138502457 136063699
L140502457 136063699
" />
<path d="M123977457 119538699
L143027457 119538699
" />
<path d="M143027457 119538699
L143027457 138588699
" />
<path d="M143027457 138588699
L123977457 138588699
" />
<path d="M123977457 138588699
L123977457 119538699
" />
<path d="M123288186 134150215
L128450065 139312094
" />
<path d="M116966651 140471750
L123288186 134150215
" />
<path d="M116966651 140471750
L122128530 145633629
" />
<path d="M122128530 145633629
L128450065 139312094
" />
<path d="M166547762 53551813
L166547762 60851813
" />
<path d="M157607762 53551813
L166547762 53551813
" />
<path d="M157607762 60851813
L166547762 60851813
" />
<path d="M157607762 53551813
L157607762 60851813
" />
<g >
</g>
<g >
</g>
<g >
</g>
<g >
</g>
<g >
</g>
<g >
</g>
<g >
</g>
<g >
</g>
<g >
</g>
<g >
</g>
<g >
</g>
<g >
</g>
<g >
</g>
<g >
</g>
<g >
</g>
<g >
</g>
<g >
</g>
<g >
</g>
<g >
</g>
<g >
</g>
<g >
</g>
<g >
</g>
<g >
</g>
<g >
</g>
<g >
</g>
<g >
</g>
<g >
</g>
<g >
</g>
<g >
</g>
<g >
</g>
<g >
</g>
<g >
</g>
<g >
</g>
<g >
</g>
<g >
</g>
<g >
</g>
<g >
</g>
<g >
</g>
<g >
</g>
<g >
</g>
<g >
</g>
<g >
</g>
<g >
</g>
<g >
</g>
<g >
</g>
<g >
</g>
<g >
</g>
<g >
</g>
<g >
</g>
<g >
</g>
<g >
</g>
<g >
</g>
<g >
</g>
<g >
</g>
<g >
</g>
<g >
</g>
<g >
</g>
<g >
</g>
<g >
</g>
<g >
</g>
<g >
</g>
<g >
</g>
<g >
</g>
<g >
</g>
<g >
</g>
<g >
</g>
<g >
</g>
<g >
</g>
<g >
</g>
<g >
</g>
<g >
</g>
<g >
</g>
<g >
</g>
<g >
</g>
<g >
</g>
<g >
</g>
<g >
</g>
<g >
</g>
<g >
</g>
<g >
</g>
<g >
</g>
<g >
</g>
<g >
</g>
<g >
</g>
<g >
</g>
<g >
</g>
<g >
</g>
<g >
</g>
<g >
</g>
<g >
</g>
<g >
</g>
<g >
</g>
<g >
</g>
<g >
</g>
<g >
</g>
<g >
</g>
<g >
</g>
<g >
</g>
<g >
</g>
<g >
</g>
<g >
</g>
<g >
</g>
<g >
</g>
<g >
</g>
</g>
<g style="fill:#000000; fill-opacity:0.0; 
stroke:#000000; stroke-width:150000.000000; stroke-opacity:1; 
stroke-linecap:round; stroke-linejoin:round;">
</g>
<g style="fill:#000000; fill-opacity:0.0; 
stroke:#000000; stroke-width:50000.000000; stroke-opacity:1; 
stroke-linecap:round; stroke-linejoin:round;">
<path d="M235597454.215745 139779663.238776 A1917710.000000 1917710.000000 0.0 0 0 237383366.521059 137993704.968085" />
<path d="M98546947 171626044
L118722916 151450075
" />
<path d="M237383347 66853869
L237383367 137993704
" />
<path d="M167137607 57030986
L235597442 65067929
" />
<path d="M126656500 62984088
L157017343 57030986
" />
<path d="M124444613 135310228
L117513401 142242031
" />
<path d="M124444619.559702 135310236.908737 A1049402.000000 1049402.000000 0.0 0 0 124870574.512871 134515941.976418" />
<path d="M117513401 142242031
L119898774 144627406
" />
<path d="M167137607 54947398
L167137607 57030986
" />
<path d="M118722919.317524 151450078.316164 A6003830.000000 6003830.000000 0.0 0 0 119898774.293756 144627405.860319" />
<path d="M98546947.000000,171626044.000000 C97875605.000000,172346182.000000 97885545.000000,173465858.000000 98569567.000000,174173963.000000" />
<path d="M235597452 139779630
L177257086 139779520
" />
<path d="M175471201 141565456
L175471201 154364253
" />
<path d="M237383371.692073 66853867.354276 A1917717.000000 1917717.000000 0.0 0 0 235597442.004552 65067928.931715" />
<path d="M175471201.000000,154364253.000000 C175436697.000000,155348178.000000 174637938.000000,156132880.000000 173653555.000000,156149909.000000" />
<path d="M148241222.000000,159714522.000000 C139165452.000000,162088728.000000 130538915.000000,165646643.000000 112030254.000000,185109351.000000" />
<path d="M124870575 121622176
L124870645 64770034
" />
<path d="M109482336 185086731
L98569567 174173963
" />
<path d="M157017343 54947398
L167137607 54947398
" />
<path d="M173653555.000000,156149909.000000 C166841992.000000,156149817.000000 157316991.000000,157340316.000000 148241222.000000,159714522.000000" />
<path d="M157017343 57030986
L157017343 54947398
" />
<path d="M126656497.718969 62984053.719818 A1917377.000000 1917377.000000 0.0 0 0 124870644.657956 64770033.977265" />
<path d="M175471201.000000,141565456.000000 C175471192.000000,141091802.000000 175659343.000000,140637545.000000 175994262.000000,140302617.000000" />
<path d="M175994262.000000,140302617.000000 C176329181.000000,139967689.000000 176783433.000000,139779525.000000 177257086.000000,139779520.000000" />
<path d="M124870575 121622176
L124870575 134515942
" />
<path d="M112030254.000000,185109351.000000 C111310117.000000,185780694.000000 110190441.000000,185770753.000000 109482336.000000,185086731.000000" />
<g >
</g>
<g >
</g>
<g >
</g>
<g >
</g>
<g >
</g>
<g >
</g>
<g >
</g>
<g >
</g>
<g >
</g>
<g >
</g>
<g >
</g>
<g >
</g>
<g >
</g>
<g >
</g>
<g >
</g>
<g >
</g>
<g >
</g>
<g >
</g>
<g >
</g>
<g >
</g>
<g >
</g>
<g >
</g>
<g >
</g>
<g >
</g>
<g >
</g>
<g >
</g>
<g >
</g>
<g >
</g>
<g >
</g>
<g >
</g>
<g >
</g>
<g >
</g>
<g >
</g>
<g >
</g>
<g >
</g>
<g >
</g>
<g >
</g>
<g >
</g>
<g >
</g>
<g >
</g>
<g >
</g>
<g >
</g>
<g >
</g>
<g >
</g>
<g >
</g>
<g >
</g>
<g >
</g>
<g >
</g>
<g >
</g>
<g >
</g>
<g >
</g>
<g >
</g>
<g >
</g>
<g >
</g>
<g >
</g>
<g >
</g>
<g >
</g>
<g >
</g>
<g >
</g>
<g >
</g>
<g >
</g>
<g >
</g>
<g >
</g>
<g >
</g>
<g >
</g>
<g >
</g>
<g >
</g>
<g >
</g>
<g >
</g>
<g >
</g>
<g >
</g>
<g >
</g>
<g >
</g>
<g >
</g>
<g >
</g>
<g >
</g>
<g >
</g>
<g >
</g>
<g >
</g>
<g >
</g>
<g >
</g>
<g >
</g>
<g >
</g>
<g >
</g>
<g >
</g>
<g >
</g>
<g >
</g>
<g >
</g>
<g >
</g>
<g >
</g>
<g >
</g>
<g >
</g>
<g >
</g>
<g >
</g>
<g >
</g>
<g >
</g>
<g >
</g>
<g >
</g>
<g >
</g>
<g >
</g>
<g >
</g>
<g >
</g>
<g >
</g>
<g >
</g>
</g> 
</svg>
