M48
; DRILL file {KiCad (6.0.7)} date Tue 06 Sep 2022 03:04:48 PM +03
; FORMAT={-:-/ absolute / inch / decimal}
; #@! TF.CreationDate,2022-09-06T15:04:48+03:00
; #@! TF.GenerationSoftware,Kicad,Pcbnew,(6.0.7)
; #@! TF.FileFunction,NonPlated,1,2,NPTH
FMAT,2
INCH
; #@! TA.AperFunction,NonPlated,NPTH,ComponentDrill
T1C0.0256
; #@! TA.AperFunction,NonPlated,NPTH,ComponentDrill
T2C0.0689
; #@! TA.AperFunction,NonPlated,NPTH,ComponentDrill
T3C0.1181
; #@! TA.AperFunction,NonPlated,NPTH,ComponentDrill
T4C0.1570
%
G90
G05
T1
X6.7862Y-2.3544
X7.0138Y-2.3544
X8.2902Y-5.5064
X8.4511Y-5.6673
T2
X4.075Y-2.925
X4.075Y-3.675
X4.075Y-4.425
X4.075Y-5.175
X4.475Y-2.925
X4.475Y-3.675
X4.475Y-4.425
X4.475Y-5.175
X4.825Y-2.925
X4.825Y-3.675
X4.825Y-4.425
X4.825Y-5.175
X5.225Y-2.925
X5.225Y-3.675
X5.225Y-4.425
X5.225Y-5.175
X5.775Y-2.5375
X5.775Y-2.9375
X5.775Y-3.2875
X5.775Y-3.6875
X5.775Y-4.0375
X5.775Y-4.4375
X5.775Y-4.7875
X5.775Y-5.1875
X6.5124Y-5.8312
X6.525Y-2.4438
X6.525Y-2.8438
X6.525Y-3.1937
X6.525Y-3.5937
X6.525Y-3.9437
X6.525Y-4.3437
X6.525Y-4.6937
X6.525Y-5.0937
X6.9124Y-5.8312
X7.075Y-2.7375
X7.075Y-3.4875
X7.075Y-4.2375
X7.075Y-4.9875
X7.2624Y-5.925
X7.475Y-2.7375
X7.475Y-3.4875
X7.475Y-4.2375
X7.475Y-4.9875
X7.6624Y-5.925
X7.825Y-4.3312
X7.825Y-5.0812
X7.825Y-2.8312
X7.825Y-3.5812
X8.1267Y-6.152
X8.225Y-4.3312
X8.225Y-5.0812
X8.225Y-2.8312
X8.225Y-3.5812
X8.4731Y-6.352
X8.7792Y-6.6653
X9.062Y-6.9481
T3
X4.175Y-3.125
X4.175Y-3.875
X4.175Y-4.625
X4.175Y-5.375
X4.425Y-3.025
X4.425Y-3.775
X4.425Y-4.525
X4.425Y-5.275
X4.925Y-3.125
X4.925Y-3.875
X4.925Y-4.625
X4.925Y-5.375
X5.175Y-3.025
X5.175Y-3.775
X5.175Y-4.525
X5.175Y-5.275
X5.575Y-2.6375
X5.575Y-3.3875
X5.575Y-4.1375
X5.575Y-4.8875
X5.675Y-2.8875
X5.675Y-3.6375
X5.675Y-4.3875
X5.675Y-5.1375
X6.325Y-2.5437
X6.325Y-3.2937
X6.325Y-4.0437
X6.325Y-4.7937
X6.425Y-2.7937
X6.425Y-3.5437
X6.425Y-4.2937
X6.425Y-5.0437
X6.6124Y-6.0312
X6.8624Y-5.9312
X7.125Y-4.8875
X7.175Y-2.9375
X7.175Y-3.6875
X7.175Y-4.4375
X7.3624Y-6.125
X7.375Y-4.7875
X7.425Y-2.8375
X7.425Y-3.5875
X7.425Y-4.3375
X7.6124Y-6.025
X7.875Y-4.9812
X7.925Y-4.5312
X7.925Y-3.0312
X7.925Y-3.7812
X8.1133Y-6.3752
X8.125Y-4.8812
X8.175Y-4.4312
X8.175Y-2.9312
X8.175Y-3.6812
X8.3798Y-6.4136
X8.7084Y-6.8774
X8.9559Y-6.9835
T4
X4.275Y-2.925
X4.275Y-3.675
X4.275Y-4.425
X4.275Y-5.175
X5.025Y-2.925
X5.025Y-3.675
X5.025Y-4.425
X5.025Y-5.175
X5.775Y-2.7375
X5.775Y-3.4875
X5.775Y-4.2375
X5.775Y-4.9875
X6.525Y-2.6437
X6.525Y-3.3937
X6.525Y-4.1437
X6.525Y-4.8937
X6.7124Y-5.8312
X7.275Y-2.7375
X7.275Y-3.4875
X7.275Y-4.2375
X7.275Y-4.9875
X7.4624Y-5.925
X8.025Y-4.3312
X8.025Y-5.0812
X8.025Y-2.8312
X8.025Y-3.5812
X8.2999Y-6.252
X8.9206Y-6.8067
T0
M30
