%TF.GenerationSoftware,KiCad,Pcbnew,(6.0.7)*%
%TF.CreationDate,2022-09-06T15:04:57+03:00*%
%TF.ProjectId,retina-left,72657469-6e61-42d6-9c65-66742e6b6963,1.0*%
%TF.SameCoordinates,Original*%
%TF.FileFunction,Paste,Bot*%
%TF.FilePolarity,Positive*%
%FSLAX46Y46*%
G04 Gerber Fmt 4.6, Leading zero omitted, Abs format (unit mm)*
G04 Created by KiCad (PCBNEW (6.0.7)) date 2022-09-06 15:04:57*
%MOMM*%
%LPD*%
G01*
G04 APERTURE LIST*
G04 Aperture macros list*
%AMRoundRect*
0 Rectangle with rounded corners*
0 $1 Rounding radius*
0 $2 $3 $4 $5 $6 $7 $8 $9 X,Y pos of 4 corners*
0 Add a 4 corners polygon primitive as box body*
4,1,4,$2,$3,$4,$5,$6,$7,$8,$9,$2,$3,0*
0 Add four circle primitives for the rounded corners*
1,1,$1+$1,$2,$3*
1,1,$1+$1,$4,$5*
1,1,$1+$1,$6,$7*
1,1,$1+$1,$8,$9*
0 Add four rect primitives between the rounded corners*
20,1,$1+$1,$2,$3,$4,$5,0*
20,1,$1+$1,$4,$5,$6,$7,0*
20,1,$1+$1,$6,$7,$8,$9,0*
20,1,$1+$1,$8,$9,$2,$3,0*%
%AMRotRect*
0 Rectangle, with rotation*
0 The origin of the aperture is its center*
0 $1 length*
0 $2 width*
0 $3 Rotation angle, in degrees counterclockwise*
0 Add horizontal line*
21,1,$1,$2,0,0,$3*%
G04 Aperture macros list end*
%ADD10RotRect,2.550000X2.500000X150.000000*%
%ADD11R,2.550000X2.500000*%
%ADD12R,2.500000X2.550000*%
%ADD13RotRect,2.550000X2.500000X135.000000*%
%ADD14R,2.050000X2.500000*%
%ADD15RoundRect,0.250000X0.350000X0.450000X-0.350000X0.450000X-0.350000X-0.450000X0.350000X-0.450000X0*%
%ADD16RoundRect,0.250000X-0.441942X-0.053033X-0.053033X-0.441942X0.441942X0.053033X0.053033X0.441942X0*%
%ADD17RoundRect,0.250000X-0.097227X0.574524X-0.574524X0.097227X0.097227X-0.574524X0.574524X-0.097227X0*%
%ADD18R,0.700000X1.000000*%
%ADD19R,0.700000X0.600000*%
%ADD20RoundRect,0.250000X0.565685X0.070711X0.070711X0.565685X-0.565685X-0.070711X-0.070711X-0.565685X0*%
%ADD21R,0.650000X1.560000*%
%ADD22RoundRect,0.250001X-0.462499X-0.624999X0.462499X-0.624999X0.462499X0.624999X-0.462499X0.624999X0*%
%ADD23RoundRect,0.250000X-0.350000X0.275000X-0.350000X-0.275000X0.350000X-0.275000X0.350000X0.275000X0*%
%ADD24RoundRect,0.250000X0.450000X-0.350000X0.450000X0.350000X-0.450000X0.350000X-0.450000X-0.350000X0*%
%ADD25RoundRect,0.250000X-0.450000X0.350000X-0.450000X-0.350000X0.450000X-0.350000X0.450000X0.350000X0*%
%ADD26RotRect,1.500000X0.550000X315.000000*%
%ADD27RotRect,1.500000X0.550000X225.000000*%
%ADD28RotRect,0.600000X2.450000X315.000000*%
%ADD29RotRect,0.300000X2.450000X315.000000*%
%ADD30RoundRect,0.250000X0.574524X0.097227X0.097227X0.574524X-0.574524X-0.097227X-0.097227X-0.574524X0*%
%ADD31RoundRect,0.250000X-0.574524X-0.097227X-0.097227X-0.574524X0.574524X0.097227X0.097227X0.574524X0*%
%ADD32RoundRect,0.250000X0.070711X-0.565685X0.565685X-0.070711X-0.070711X0.565685X-0.565685X0.070711X0*%
%ADD33R,1.900000X0.800000*%
%ADD34RoundRect,0.250000X-0.350000X-0.450000X0.350000X-0.450000X0.350000X0.450000X-0.350000X0.450000X0*%
%ADD35RoundRect,0.250000X0.097227X-0.574524X0.574524X-0.097227X-0.097227X0.574524X-0.574524X0.097227X0*%
%ADD36RoundRect,0.250000X-0.070711X0.565685X-0.565685X0.070711X0.070711X-0.565685X0.565685X-0.070711X0*%
%ADD37RoundRect,0.250000X-0.475000X0.337500X-0.475000X-0.337500X0.475000X-0.337500X0.475000X0.337500X0*%
%ADD38RoundRect,0.250001X-0.768977X-0.114905X-0.114905X-0.768977X0.768977X0.114905X0.114905X0.768977X0*%
%ADD39RoundRect,0.250000X0.275000X0.350000X-0.275000X0.350000X-0.275000X-0.350000X0.275000X-0.350000X0*%
%ADD40RoundRect,0.250000X0.441942X0.053033X0.053033X0.441942X-0.441942X-0.053033X-0.053033X-0.441942X0*%
%ADD41RotRect,1.100000X1.100000X225.000000*%
%ADD42RotRect,0.700000X1.000000X135.000000*%
%ADD43RotRect,0.700000X0.600000X135.000000*%
%ADD44R,0.600000X2.450000*%
%ADD45R,0.300000X2.450000*%
%ADD46R,1.100000X1.100000*%
%ADD47RotRect,2.100000X1.800000X135.000000*%
G04 APERTURE END LIST*
D10*
%TO.C,MX23*%
X215682135Y-164542452D03*
X203217025Y-160278656D03*
%TD*%
D11*
%TO.C,MX26*%
X210920279Y-112553699D03*
X197993279Y-115093699D03*
%TD*%
D12*
%TO.C,MX9*%
X144145000Y-76617500D03*
X141605000Y-63690500D03*
%TD*%
%TO.C,MX12*%
X144145000Y-133767500D03*
X141605000Y-120840500D03*
%TD*%
%TO.C,MX17*%
X163195330Y-131386199D03*
X160655330Y-118459199D03*
%TD*%
D11*
%TO.C,MX2*%
X115670000Y-95885000D03*
X102743000Y-98425000D03*
%TD*%
D13*
%TO.C,MX28*%
X229796345Y-179695466D03*
X218859525Y-172350748D03*
%TD*%
D11*
%TO.C,MX22*%
X177700000Y-124142500D03*
X190627000Y-121602500D03*
%TD*%
%TO.C,MX18*%
X196630298Y-153034930D03*
X183703298Y-155574930D03*
%TD*%
D12*
%TO.C,MX11*%
X144145000Y-114717500D03*
X141605000Y-101790500D03*
%TD*%
%TO.C,MX10*%
X144145000Y-95667500D03*
X141605000Y-82740500D03*
%TD*%
D11*
%TO.C,MX3*%
X115670000Y-114935000D03*
X102743000Y-117475000D03*
%TD*%
%TO.C,MX4*%
X115670000Y-133985000D03*
X102743000Y-136525000D03*
%TD*%
D12*
%TO.C,MX16*%
X163195330Y-112336199D03*
X160655330Y-99409199D03*
%TD*%
D11*
%TO.C,MX13*%
X177580314Y-150653682D03*
X164653314Y-153193682D03*
%TD*%
%TO.C,MX7*%
X134720000Y-114935000D03*
X121793000Y-117475000D03*
%TD*%
%TO.C,MX21*%
X191870000Y-110172500D03*
X178943000Y-112712500D03*
%TD*%
%TO.C,MX24*%
X210920290Y-74453742D03*
X197993290Y-76993742D03*
%TD*%
%TO.C,MX8*%
X134720000Y-133985000D03*
X121793000Y-136525000D03*
%TD*%
%TO.C,MX19*%
X191870000Y-72072500D03*
X178943000Y-74612500D03*
%TD*%
D12*
%TO.C,MX14*%
X163195330Y-74236250D03*
X160655330Y-61309250D03*
%TD*%
D11*
%TO.C,MX6*%
X134720000Y-95885000D03*
X121793000Y-98425000D03*
%TD*%
D12*
%TO.C,MX15*%
X163195330Y-93286225D03*
X160655330Y-80359225D03*
%TD*%
D11*
%TO.C,MX5*%
X134720000Y-76835000D03*
X121793000Y-79375000D03*
%TD*%
%TO.C,MX25*%
X210920290Y-93503727D03*
X197993290Y-96043727D03*
%TD*%
%TO.C,MX1*%
X115670000Y-76835000D03*
X102743000Y-79375000D03*
%TD*%
%TO.C,MX20*%
X191870000Y-91122500D03*
X178943000Y-93662500D03*
%TD*%
D14*
%TO.C,MX27*%
X197000279Y-126523699D03*
D11*
X209677279Y-123983699D03*
%TD*%
D15*
%TO.C,R5*%
X171307000Y-64560450D03*
X169307000Y-64560450D03*
%TD*%
D16*
%TO.C,L3*%
X203688577Y-139509127D03*
X205314923Y-141135473D03*
%TD*%
D17*
%TO.C,C4*%
X179213073Y-132349677D03*
X177745827Y-133816923D03*
%TD*%
D18*
%TO.C,TVS1*%
X176259973Y-65601139D03*
D19*
X176259975Y-67301150D03*
X174259975Y-67301150D03*
X174259977Y-65401139D03*
%TD*%
D20*
%TO.C,R3*%
X183358507Y-129808957D03*
X181944293Y-128394743D03*
%TD*%
D21*
%TO.C,U2*%
X196212500Y-68806050D03*
X195262500Y-68806050D03*
X194312500Y-68806050D03*
X194312500Y-66106050D03*
X196212500Y-66106050D03*
%TD*%
D22*
%TO.C,F1*%
X184688150Y-63741300D03*
X187663150Y-63741300D03*
%TD*%
D17*
%TO.C,C1*%
X186318723Y-129606477D03*
X184851477Y-131073723D03*
%TD*%
D23*
%TO.C,L1*%
X118776750Y-78117050D03*
X118776750Y-80417050D03*
%TD*%
D17*
%TO.C,C3*%
X191252673Y-128253927D03*
X189785427Y-129721173D03*
%TD*%
D23*
%TO.C,L5*%
X118586250Y-116045600D03*
X118586250Y-118345600D03*
%TD*%
D24*
%TO.C,R10*%
X154628850Y-138560050D03*
X154628850Y-136560050D03*
%TD*%
D25*
%TO.C,R1*%
X180705800Y-153571700D03*
X180705800Y-155571700D03*
%TD*%
D26*
%TO.C,U1*%
X175809014Y-139806018D03*
X176374700Y-139240333D03*
X176940385Y-138674648D03*
X177506070Y-138108962D03*
X178071756Y-137543277D03*
X178637441Y-136977591D03*
X179203127Y-136411906D03*
X179768812Y-135846220D03*
X180334498Y-135280535D03*
X180900183Y-134714850D03*
X181465868Y-134149164D03*
D27*
X183870032Y-134149164D03*
X184435717Y-134714850D03*
X185001402Y-135280535D03*
X185567088Y-135846220D03*
X186132773Y-136411906D03*
X186698459Y-136977591D03*
X187264144Y-137543277D03*
X187829830Y-138108962D03*
X188395515Y-138674648D03*
X188961200Y-139240333D03*
X189526886Y-139806018D03*
D26*
X189526886Y-142210182D03*
X188961200Y-142775867D03*
X188395515Y-143341552D03*
X187829830Y-143907238D03*
X187264144Y-144472923D03*
X186698459Y-145038609D03*
X186132773Y-145604294D03*
X185567088Y-146169980D03*
X185001402Y-146735665D03*
X184435717Y-147301350D03*
X183870032Y-147867036D03*
D27*
X181465868Y-147867036D03*
X180900183Y-147301350D03*
X180334498Y-146735665D03*
X179768812Y-146169980D03*
X179203127Y-145604294D03*
X178637441Y-145038609D03*
X178071756Y-144472923D03*
X177506070Y-143907238D03*
X176940385Y-143341552D03*
X176374700Y-142775867D03*
X175809014Y-142210182D03*
%TD*%
D28*
%TO.C,USB2*%
X208959167Y-141001183D03*
X209507174Y-141549190D03*
D29*
X210002149Y-142044165D03*
X210355702Y-142397719D03*
X210709256Y-142751272D03*
X211062809Y-143104825D03*
X211416363Y-143458379D03*
X211769916Y-143811932D03*
X212123469Y-144165486D03*
X212477023Y-144519039D03*
D28*
X212971998Y-145014014D03*
X213520005Y-145562021D03*
%TD*%
D23*
%TO.C,L7*%
X195662550Y-74307050D03*
X195662550Y-76607050D03*
%TD*%
D30*
%TO.C,C5*%
X181896623Y-151209573D03*
X180429377Y-149742327D03*
%TD*%
D31*
%TO.C,C10*%
X179441277Y-130025577D03*
X180908523Y-131492823D03*
%TD*%
D32*
%TO.C,R8*%
X205337693Y-145220407D03*
X206751907Y-143806193D03*
%TD*%
D17*
%TO.C,C8*%
X192240773Y-142293777D03*
X190773527Y-143761023D03*
%TD*%
D23*
%TO.C,L4*%
X195643500Y-113035700D03*
X195643500Y-115335700D03*
%TD*%
D17*
%TO.C,C2*%
X193291023Y-130292277D03*
X191823777Y-131759523D03*
%TD*%
D31*
%TO.C,C6*%
X173095127Y-142312827D03*
X174562373Y-143780073D03*
%TD*%
D33*
%TO.C,Q1*%
X193200150Y-62124550D03*
X193200150Y-64024550D03*
X190200150Y-63074550D03*
%TD*%
D34*
%TO.C,R4*%
X178755800Y-65493900D03*
X180755800Y-65493900D03*
%TD*%
D35*
%TO.C,C7*%
X176374227Y-132426273D03*
X177841473Y-130959027D03*
%TD*%
D36*
%TO.C,R9*%
X210733357Y-147730493D03*
X209319143Y-149144707D03*
%TD*%
D24*
%TO.C,R2*%
X178553150Y-155552650D03*
X178553150Y-153552650D03*
%TD*%
D25*
%TO.C,R6*%
X171373800Y-75047600D03*
X171373800Y-77047600D03*
%TD*%
D37*
%TO.C,C9*%
X154647900Y-132541100D03*
X154647900Y-134616100D03*
%TD*%
D38*
%TO.C,F2*%
X201925929Y-141327879D03*
X204029571Y-143431521D03*
%TD*%
D39*
%TO.C,L2*%
X182258350Y-63684150D03*
X179958350Y-63684150D03*
%TD*%
D25*
%TO.C,R7*%
X173278799Y-75047601D03*
X173278799Y-77047601D03*
%TD*%
D40*
%TO.C,L6*%
X207562823Y-152908373D03*
X205936477Y-151282027D03*
%TD*%
D41*
%TO.C,TVS4*%
X207911049Y-136151001D03*
X205931151Y-138130899D03*
%TD*%
D42*
%TO.C,TVS2*%
X209511083Y-146385515D03*
D43*
X208309005Y-147587608D03*
X206894792Y-146173395D03*
X208238288Y-144829884D03*
%TD*%
D44*
%TO.C,USB1*%
X172034974Y-61746813D03*
X172809974Y-61746813D03*
D45*
X173509974Y-61746813D03*
X174009974Y-61746813D03*
X174509974Y-61746813D03*
X175009974Y-61746813D03*
X175509974Y-61746813D03*
X176009974Y-61746813D03*
X176509974Y-61746813D03*
X177009974Y-61746813D03*
D44*
X177709974Y-61746813D03*
X178484974Y-61746813D03*
%TD*%
D46*
%TO.C,TVS3*%
X182470600Y-61017150D03*
X185270600Y-61017150D03*
%TD*%
D47*
%TO.C,Y1*%
X188654732Y-134674128D03*
X186604122Y-132623518D03*
X188230468Y-130997172D03*
X190281078Y-133047782D03*
%TD*%
M02*
