%TF.GenerationSoftware,KiCad,Pcbnew,(6.0.7)*%
%TF.CreationDate,2022-09-06T15:04:58+03:00*%
%TF.ProjectId,retina-left,72657469-6e61-42d6-9c65-66742e6b6963,1.0*%
%TF.SameCoordinates,Original*%
%TF.FileFunction,Profile,NP*%
%FSLAX46Y46*%
G04 Gerber Fmt 4.6, Leading zero omitted, Abs format (unit mm)*
G04 Created by KiCad (PCBNEW (6.0.7)) date 2022-09-06 15:04:58*
%MOMM*%
%LPD*%
G01*
G04 APERTURE LIST*
%ADD10C,0.050000*%
%TA.AperFunction,Profile*%
%ADD11C,0.050000*%
%TD*%
G04 APERTURE END LIST*
D10*
X238790652Y-171626029D02*
X238851594Y-171694687D01*
X238908546Y-171765538D01*
X238961509Y-171838434D01*
X239010484Y-171913224D01*
X239055472Y-171989762D01*
X239096475Y-172067898D01*
X239133494Y-172147484D01*
X239166531Y-172228372D01*
X239195586Y-172310412D01*
X239220660Y-172393457D01*
X239241757Y-172477358D01*
X239258876Y-172561966D01*
X239272018Y-172647132D01*
X239281186Y-172732709D01*
X239286381Y-172818548D01*
X239287603Y-172904500D01*
X239284855Y-172990417D01*
X239278137Y-173076150D01*
X239267451Y-173161551D01*
X239252798Y-173246471D01*
X239234180Y-173330762D01*
X239211598Y-173414275D01*
X239185052Y-173496861D01*
X239154545Y-173578373D01*
X239120078Y-173658661D01*
X239081652Y-173737577D01*
X239039268Y-173814973D01*
X238992928Y-173890700D01*
X238942633Y-173964609D01*
X238888384Y-174036553D01*
X238830183Y-174106382D01*
X238768032Y-174173948D01*
D11*
X219824199Y-142242017D02*
X217438826Y-144627391D01*
D10*
X189096378Y-159714507D02*
X189946230Y-159941006D01*
X190795342Y-160177136D01*
X191645605Y-160425593D01*
X192498912Y-160689073D01*
X193357153Y-160970270D01*
X194222220Y-161271880D01*
X195096005Y-161596600D01*
X195980401Y-161947124D01*
X196877298Y-162326148D01*
X197788588Y-162736367D01*
X198716164Y-163180477D01*
X199661916Y-163661173D01*
X200627736Y-164181151D01*
X201615517Y-164743107D01*
X202627150Y-165349736D01*
X203664527Y-166003733D01*
X204729539Y-166707794D01*
X205824078Y-167464615D01*
X206950036Y-168276891D01*
X208109305Y-169147317D01*
X209303776Y-170078589D01*
X210535341Y-171073402D01*
X211805892Y-172134453D01*
X213117320Y-173264436D01*
X214471518Y-174466048D01*
X215870376Y-175741983D01*
X217315787Y-177094937D01*
X218809643Y-178527605D01*
X220353835Y-180042684D01*
X221950255Y-181642868D01*
X223600794Y-183330853D01*
X225307345Y-185109336D01*
D11*
X101143977Y-66853724D02*
X101143987Y-137993700D01*
X227855264Y-185086716D02*
X238768032Y-174173948D01*
X102929883Y-65067779D02*
G75*
G03*
X101143977Y-66853724I127517J-1913421D01*
G01*
X212466973Y-134515930D02*
G75*
G03*
X212892987Y-135310213I1048227J50830D01*
G01*
X217438863Y-144627408D02*
G75*
G03*
X218614684Y-151450061I5422137J-2578192D01*
G01*
X180320256Y-57030971D02*
X180320256Y-54947384D01*
X162756099Y-141565441D02*
X162756099Y-154364238D01*
X210681099Y-62984073D02*
X180320256Y-57030971D01*
X180320256Y-54947384D02*
X170199992Y-54947384D01*
D10*
X162756169Y-154364238D02*
X162761625Y-154455879D01*
X162771453Y-154546250D01*
X162785547Y-154635245D01*
X162803802Y-154722761D01*
X162826110Y-154808692D01*
X162852367Y-154892936D01*
X162882467Y-154975389D01*
X162916303Y-155055945D01*
X162953769Y-155134501D01*
X162994760Y-155210953D01*
X163039169Y-155285197D01*
X163086891Y-155357129D01*
X163137820Y-155426644D01*
X163191849Y-155493639D01*
X163248873Y-155558010D01*
X163308786Y-155619652D01*
X163371482Y-155678461D01*
X163436855Y-155734333D01*
X163504798Y-155787164D01*
X163575207Y-155836851D01*
X163647975Y-155883288D01*
X163722995Y-155926372D01*
X163800163Y-155965999D01*
X163879372Y-156002065D01*
X163960517Y-156034465D01*
X164043490Y-156063096D01*
X164128187Y-156087854D01*
X164214501Y-156108633D01*
X164302327Y-156125331D01*
X164391558Y-156137843D01*
X164482089Y-156146065D01*
X164573814Y-156149894D01*
D11*
X212892987Y-135310213D02*
X219824199Y-142242017D01*
D10*
X162232977Y-140302602D02*
X162168805Y-140241532D01*
X162101984Y-140183964D01*
X162032658Y-140129956D01*
X161960974Y-140079571D01*
X161887079Y-140032867D01*
X161811120Y-139989907D01*
X161733241Y-139950750D01*
X161653591Y-139915457D01*
X161572314Y-139884089D01*
X161489558Y-139856707D01*
X161405469Y-139833371D01*
X161320194Y-139814141D01*
X161233878Y-139799079D01*
X161146668Y-139788245D01*
X161058711Y-139781700D01*
X160970153Y-139779505D01*
D11*
X101143975Y-137993701D02*
G75*
G03*
X102929903Y-139779625I1913325J127401D01*
G01*
X102929903Y-139779625D02*
X160969997Y-139779514D01*
X170199992Y-57030971D02*
X102929883Y-65067784D01*
X212467025Y-121622161D02*
X212467025Y-134515927D01*
X212467028Y-64770015D02*
G75*
G03*
X210681099Y-62984073I-1913328J-127385D01*
G01*
D10*
X162756039Y-141565441D02*
X162753845Y-141476882D01*
X162747302Y-141388925D01*
X162736471Y-141301715D01*
X162721411Y-141215398D01*
X162702184Y-141130122D01*
X162678851Y-141046033D01*
X162651471Y-140963276D01*
X162620105Y-140881999D01*
X162584815Y-140802347D01*
X162545660Y-140724468D01*
X162502701Y-140648506D01*
X162456000Y-140574610D01*
X162405616Y-140502925D01*
X162351611Y-140433598D01*
X162294044Y-140366774D01*
X162232977Y-140302602D01*
X225307345Y-185109336D02*
X225376003Y-185170278D01*
X225446854Y-185227230D01*
X225519750Y-185280193D01*
X225594540Y-185329168D01*
X225671078Y-185374156D01*
X225749214Y-185415159D01*
X225828800Y-185452178D01*
X225909688Y-185485215D01*
X225991728Y-185514270D01*
X226074773Y-185539345D01*
X226158674Y-185560441D01*
X226243282Y-185577560D01*
X226328448Y-185590703D01*
X226414025Y-185599871D01*
X226499864Y-185605065D01*
X226585816Y-185606288D01*
X226671733Y-185603539D01*
X226757466Y-185596822D01*
X226842867Y-185586136D01*
X226927787Y-185571483D01*
X227012078Y-185552865D01*
X227095591Y-185530282D01*
X227178177Y-185503737D01*
X227259689Y-185473230D01*
X227339977Y-185438762D01*
X227418893Y-185400336D01*
X227496289Y-185357953D01*
X227572016Y-185311612D01*
X227645925Y-185261317D01*
X227717869Y-185207069D01*
X227787698Y-185148868D01*
X227855264Y-185086716D01*
X164573814Y-156149894D02*
X165139414Y-156153373D01*
X165725385Y-156163827D01*
X166330985Y-156181254D01*
X166955471Y-156205655D01*
X167598102Y-156237026D01*
X168258135Y-156275367D01*
X168934829Y-156320676D01*
X169627440Y-156372953D01*
X170335229Y-156432196D01*
X171057451Y-156498403D01*
X171793366Y-156571574D01*
X172542231Y-156651708D01*
X173303305Y-156738802D01*
X174075844Y-156832856D01*
X174859108Y-156933868D01*
X175652354Y-157041838D01*
X176454840Y-157156764D01*
X177265825Y-157278644D01*
X178084565Y-157407478D01*
X178910320Y-157543264D01*
X179742346Y-157686001D01*
X180579903Y-157835688D01*
X181422248Y-157992323D01*
X182268639Y-158155905D01*
X183118333Y-158326433D01*
X183970590Y-158503905D01*
X184824666Y-158688321D01*
X185679821Y-158879679D01*
X186535311Y-159077978D01*
X187390396Y-159283216D01*
X188244332Y-159495393D01*
X189096378Y-159714507D01*
D11*
X170199992Y-54947384D02*
X170199992Y-57030971D01*
X212467025Y-121622161D02*
X212466955Y-64770020D01*
X238790652Y-171626029D02*
X218614684Y-151450061D01*
M02*
