%TF.GenerationSoftware,KiCad,Pcbnew,(6.0.7)*%
%TF.CreationDate,2022-09-06T15:04:57+03:00*%
%TF.ProjectId,retina-left,72657469-6e61-42d6-9c65-66742e6b6963,1.0*%
%TF.SameCoordinates,Original*%
%TF.FileFunction,Legend,Bot*%
%TF.FilePolarity,Positive*%
%FSLAX46Y46*%
G04 Gerber Fmt 4.6, Leading zero omitted, Abs format (unit mm)*
G04 Created by KiCad (PCBNEW (6.0.7)) date 2022-09-06 15:04:57*
%MOMM*%
%LPD*%
G01*
G04 APERTURE LIST*
%ADD10C,0.100000*%
%ADD11C,0.250000*%
%ADD12C,0.150000*%
%ADD13C,0.152400*%
%ADD14C,0.120000*%
%ADD15C,0.050800*%
G04 APERTURE END LIST*
D10*
%TO.C,J1*%
X164527011Y-136388452D02*
X164527011Y-135988452D01*
X164393678Y-136274166D01*
X164260345Y-135988452D01*
X164260345Y-136388452D01*
X164069869Y-136388452D02*
X164069869Y-135988452D01*
X163898440Y-136369404D02*
X163841297Y-136388452D01*
X163746059Y-136388452D01*
X163707964Y-136369404D01*
X163688916Y-136350357D01*
X163669869Y-136312261D01*
X163669869Y-136274166D01*
X163688916Y-136236071D01*
X163707964Y-136217023D01*
X163746059Y-136197976D01*
X163822250Y-136178928D01*
X163860345Y-136159880D01*
X163879392Y-136140833D01*
X163898440Y-136102738D01*
X163898440Y-136064642D01*
X163879392Y-136026547D01*
X163860345Y-136007500D01*
X163822250Y-135988452D01*
X163727011Y-135988452D01*
X163669869Y-136007500D01*
X163422250Y-135988452D02*
X163346059Y-135988452D01*
X163307964Y-136007500D01*
X163269869Y-136045595D01*
X163250821Y-136121785D01*
X163250821Y-136255119D01*
X163269869Y-136331309D01*
X163307964Y-136369404D01*
X163346059Y-136388452D01*
X163422250Y-136388452D01*
X163460345Y-136369404D01*
X163498440Y-136331309D01*
X163517488Y-136255119D01*
X163517488Y-136121785D01*
X163498440Y-136045595D01*
X163460345Y-136007500D01*
X163422250Y-135988452D01*
X161879059Y-136464654D02*
X161821916Y-136483702D01*
X161726678Y-136483702D01*
X161688583Y-136464654D01*
X161669535Y-136445607D01*
X161650488Y-136407511D01*
X161650488Y-136369416D01*
X161669535Y-136331321D01*
X161688583Y-136312273D01*
X161726678Y-136293226D01*
X161802869Y-136274178D01*
X161840964Y-136255130D01*
X161860011Y-136236083D01*
X161879059Y-136197988D01*
X161879059Y-136159892D01*
X161860011Y-136121797D01*
X161840964Y-136102750D01*
X161802869Y-136083702D01*
X161707630Y-136083702D01*
X161650488Y-136102750D01*
X161250488Y-136445607D02*
X161269535Y-136464654D01*
X161326678Y-136483702D01*
X161364773Y-136483702D01*
X161421916Y-136464654D01*
X161460011Y-136426559D01*
X161479059Y-136388464D01*
X161498107Y-136312273D01*
X161498107Y-136255130D01*
X161479059Y-136178940D01*
X161460011Y-136140845D01*
X161421916Y-136102750D01*
X161364773Y-136083702D01*
X161326678Y-136083702D01*
X161269535Y-136102750D01*
X161250488Y-136121797D01*
X161079059Y-136483702D02*
X161079059Y-136083702D01*
X160850488Y-136483702D02*
X161021916Y-136255130D01*
X160850488Y-136083702D02*
X161079059Y-136312273D01*
X159246685Y-133150000D02*
X159284780Y-133130952D01*
X159341923Y-133130952D01*
X159399066Y-133150000D01*
X159437161Y-133188095D01*
X159456209Y-133226190D01*
X159475257Y-133302380D01*
X159475257Y-133359523D01*
X159456209Y-133435714D01*
X159437161Y-133473809D01*
X159399066Y-133511904D01*
X159341923Y-133530952D01*
X159303828Y-133530952D01*
X159246685Y-133511904D01*
X159227638Y-133492857D01*
X159227638Y-133359523D01*
X159303828Y-133359523D01*
X159056209Y-133530952D02*
X159056209Y-133130952D01*
X158827638Y-133530952D01*
X158827638Y-133130952D01*
X158637161Y-133530952D02*
X158637161Y-133130952D01*
X158541923Y-133130952D01*
X158484780Y-133150000D01*
X158446685Y-133188095D01*
X158427638Y-133226190D01*
X158408590Y-133302380D01*
X158408590Y-133359523D01*
X158427638Y-133435714D01*
X158446685Y-133473809D01*
X158484780Y-133511904D01*
X158541923Y-133530952D01*
X158637161Y-133530952D01*
X159383500Y-135913600D02*
X158983500Y-135913600D01*
X159059690Y-136426552D02*
X159193023Y-136236076D01*
X159288261Y-136426552D02*
X159288261Y-136026552D01*
X159135880Y-136026552D01*
X159097785Y-136045600D01*
X159078738Y-136064647D01*
X159059690Y-136102742D01*
X159059690Y-136159885D01*
X159078738Y-136197980D01*
X159097785Y-136217028D01*
X159135880Y-136236076D01*
X159288261Y-136236076D01*
X158983500Y-135913600D02*
X158602547Y-135913600D01*
X158907309Y-136407504D02*
X158850166Y-136426552D01*
X158754928Y-136426552D01*
X158716833Y-136407504D01*
X158697785Y-136388457D01*
X158678738Y-136350361D01*
X158678738Y-136312266D01*
X158697785Y-136274171D01*
X158716833Y-136255123D01*
X158754928Y-136236076D01*
X158831119Y-136217028D01*
X158869214Y-136197980D01*
X158888261Y-136178933D01*
X158907309Y-136140838D01*
X158907309Y-136102742D01*
X158888261Y-136064647D01*
X158869214Y-136045600D01*
X158831119Y-136026552D01*
X158735880Y-136026552D01*
X158678738Y-136045600D01*
X158602547Y-135913600D02*
X158297785Y-135913600D01*
X158564452Y-136026552D02*
X158335880Y-136026552D01*
X158450166Y-136426552D02*
X158450166Y-136026552D01*
X164485411Y-133130952D02*
X164352078Y-133530952D01*
X164218745Y-133130952D01*
X163856840Y-133492857D02*
X163875888Y-133511904D01*
X163933030Y-133530952D01*
X163971126Y-133530952D01*
X164028269Y-133511904D01*
X164066364Y-133473809D01*
X164085411Y-133435714D01*
X164104459Y-133359523D01*
X164104459Y-133302380D01*
X164085411Y-133226190D01*
X164066364Y-133188095D01*
X164028269Y-133150000D01*
X163971126Y-133130952D01*
X163933030Y-133130952D01*
X163875888Y-133150000D01*
X163856840Y-133169047D01*
X163456840Y-133492857D02*
X163475888Y-133511904D01*
X163533030Y-133530952D01*
X163571126Y-133530952D01*
X163628269Y-133511904D01*
X163666364Y-133473809D01*
X163685411Y-133435714D01*
X163704459Y-133359523D01*
X163704459Y-133302380D01*
X163685411Y-133226190D01*
X163666364Y-133188095D01*
X163628269Y-133150000D01*
X163571126Y-133130952D01*
X163533030Y-133130952D01*
X163475888Y-133150000D01*
X163456840Y-133169047D01*
D11*
X166492216Y-133293147D02*
X166492216Y-133769338D01*
X166777930Y-133197909D02*
X165777930Y-133531242D01*
X166777930Y-133864576D01*
X165777930Y-134055052D02*
X166777930Y-134388385D01*
X165777930Y-134721719D01*
X166777930Y-135626480D02*
X166301740Y-135293147D01*
X166777930Y-135055052D02*
X165777930Y-135055052D01*
X165777930Y-135436004D01*
X165825550Y-135531242D01*
X165873169Y-135578861D01*
X165968407Y-135626480D01*
X166111264Y-135626480D01*
X166206502Y-135578861D01*
X166254121Y-135531242D01*
X166301740Y-135436004D01*
X166301740Y-135055052D01*
X166777930Y-136055052D02*
X165777930Y-136055052D01*
X166730311Y-136483623D02*
X166777930Y-136626480D01*
X166777930Y-136864576D01*
X166730311Y-136959814D01*
X166682692Y-137007433D01*
X166587454Y-137055052D01*
X166492216Y-137055052D01*
X166396978Y-137007433D01*
X166349359Y-136959814D01*
X166301740Y-136864576D01*
X166254121Y-136674100D01*
X166206502Y-136578861D01*
X166158883Y-136531242D01*
X166063645Y-136483623D01*
X165968407Y-136483623D01*
X165873169Y-136531242D01*
X165825550Y-136578861D01*
X165777930Y-136674100D01*
X165777930Y-136912195D01*
X165825550Y-137055052D01*
X166777930Y-137483623D02*
X165777930Y-137483623D01*
X165777930Y-137864576D01*
X165825550Y-137959814D01*
X165873169Y-138007433D01*
X165968407Y-138055052D01*
X166111264Y-138055052D01*
X166206502Y-138007433D01*
X166254121Y-137959814D01*
X166301740Y-137864576D01*
X166301740Y-137483623D01*
D10*
X162008880Y-133492852D02*
X162008880Y-133092852D01*
X161875547Y-133378566D01*
X161742214Y-133092852D01*
X161742214Y-133492852D01*
X161475547Y-133092852D02*
X161399357Y-133092852D01*
X161361261Y-133111900D01*
X161323166Y-133149995D01*
X161304119Y-133226185D01*
X161304119Y-133359519D01*
X161323166Y-133435709D01*
X161361261Y-133473804D01*
X161399357Y-133492852D01*
X161475547Y-133492852D01*
X161513642Y-133473804D01*
X161551738Y-133435709D01*
X161570785Y-133359519D01*
X161570785Y-133226185D01*
X161551738Y-133149995D01*
X161513642Y-133111900D01*
X161475547Y-133092852D01*
X161151738Y-133473804D02*
X161094595Y-133492852D01*
X160999357Y-133492852D01*
X160961261Y-133473804D01*
X160942214Y-133454757D01*
X160923166Y-133416661D01*
X160923166Y-133378566D01*
X160942214Y-133340471D01*
X160961261Y-133321423D01*
X160999357Y-133302376D01*
X161075547Y-133283328D01*
X161113642Y-133264280D01*
X161132690Y-133245233D01*
X161151738Y-133207138D01*
X161151738Y-133169042D01*
X161132690Y-133130947D01*
X161113642Y-133111900D01*
X161075547Y-133092852D01*
X160980309Y-133092852D01*
X160923166Y-133111900D01*
X160751738Y-133492852D02*
X160751738Y-133092852D01*
D12*
%TO.C,R5*%
X170473666Y-63362830D02*
X170807000Y-62886640D01*
X171045095Y-63362830D02*
X171045095Y-62362830D01*
X170664142Y-62362830D01*
X170568904Y-62410450D01*
X170521285Y-62458069D01*
X170473666Y-62553307D01*
X170473666Y-62696164D01*
X170521285Y-62791402D01*
X170568904Y-62839021D01*
X170664142Y-62886640D01*
X171045095Y-62886640D01*
X169568904Y-62362830D02*
X170045095Y-62362830D01*
X170092714Y-62839021D01*
X170045095Y-62791402D01*
X169949857Y-62743783D01*
X169711761Y-62743783D01*
X169616523Y-62791402D01*
X169568904Y-62839021D01*
X169521285Y-62934259D01*
X169521285Y-63172354D01*
X169568904Y-63267592D01*
X169616523Y-63315211D01*
X169711761Y-63362830D01*
X169949857Y-63362830D01*
X170045095Y-63315211D01*
X170092714Y-63267592D01*
%TO.C,L3*%
X202242319Y-138683583D02*
X202579037Y-139020301D01*
X203286143Y-138313194D01*
X202781067Y-137808118D02*
X202343334Y-137370385D01*
X202309662Y-137875461D01*
X202208647Y-137774446D01*
X202107632Y-137740774D01*
X202040288Y-137740774D01*
X201939273Y-137774446D01*
X201770914Y-137942805D01*
X201737243Y-138043820D01*
X201737243Y-138111163D01*
X201770914Y-138212179D01*
X201972945Y-138414209D01*
X202073960Y-138447881D01*
X202141304Y-138447881D01*
%TO.C,C4*%
X176420712Y-135339639D02*
X176420712Y-135406982D01*
X176488056Y-135541669D01*
X176555400Y-135609013D01*
X176690087Y-135676356D01*
X176824774Y-135676356D01*
X176925789Y-135642685D01*
X177094148Y-135541669D01*
X177195163Y-135440654D01*
X177296178Y-135272295D01*
X177329850Y-135171280D01*
X177329850Y-135036593D01*
X177262506Y-134901906D01*
X177195163Y-134834562D01*
X177060476Y-134767219D01*
X176993132Y-134767219D01*
X176218682Y-134329486D02*
X175747277Y-134800891D01*
X176656415Y-134228471D02*
X176319697Y-134901906D01*
X175881964Y-134464173D01*
%TO.C,H5*%
X199805716Y-147848429D02*
X200512823Y-147141322D01*
X200176105Y-147478040D02*
X199772044Y-147073979D01*
X199401655Y-147444368D02*
X200108762Y-146737261D01*
X199435327Y-146063826D02*
X199772044Y-146400544D01*
X199468998Y-146770933D01*
X199468998Y-146703590D01*
X199435327Y-146602574D01*
X199266968Y-146434216D01*
X199165953Y-146400544D01*
X199098609Y-146400544D01*
X198997594Y-146434216D01*
X198829235Y-146602574D01*
X198795563Y-146703590D01*
X198795563Y-146770933D01*
X198829235Y-146871948D01*
X198997594Y-147040307D01*
X199098609Y-147073979D01*
X199165953Y-147073979D01*
D13*
%TO.C,D16*%
X155897035Y-105595964D02*
X155897035Y-104833964D01*
X155715607Y-104833964D01*
X155606750Y-104870250D01*
X155534178Y-104942821D01*
X155497892Y-105015392D01*
X155461607Y-105160535D01*
X155461607Y-105269392D01*
X155497892Y-105414535D01*
X155534178Y-105487107D01*
X155606750Y-105559678D01*
X155715607Y-105595964D01*
X155897035Y-105595964D01*
X154735892Y-105595964D02*
X155171321Y-105595964D01*
X154953607Y-105595964D02*
X154953607Y-104833964D01*
X155026178Y-104942821D01*
X155098750Y-105015392D01*
X155171321Y-105051678D01*
X154082750Y-104833964D02*
X154227892Y-104833964D01*
X154300464Y-104870250D01*
X154336750Y-104906535D01*
X154409321Y-105015392D01*
X154445607Y-105160535D01*
X154445607Y-105450821D01*
X154409321Y-105523392D01*
X154373035Y-105559678D01*
X154300464Y-105595964D01*
X154155321Y-105595964D01*
X154082750Y-105559678D01*
X154046464Y-105523392D01*
X154010178Y-105450821D01*
X154010178Y-105269392D01*
X154046464Y-105196821D01*
X154082750Y-105160535D01*
X154155321Y-105124250D01*
X154300464Y-105124250D01*
X154373035Y-105160535D01*
X154409321Y-105196821D01*
X154445607Y-105269392D01*
D12*
%TO.C,TVS1*%
X176926666Y-68260980D02*
X176355238Y-68260980D01*
X176640952Y-69260980D02*
X176640952Y-68260980D01*
X176164761Y-68260980D02*
X175831428Y-69260980D01*
X175498095Y-68260980D01*
X175212380Y-69213361D02*
X175069523Y-69260980D01*
X174831428Y-69260980D01*
X174736190Y-69213361D01*
X174688571Y-69165742D01*
X174640952Y-69070504D01*
X174640952Y-68975266D01*
X174688571Y-68880028D01*
X174736190Y-68832409D01*
X174831428Y-68784790D01*
X175021904Y-68737171D01*
X175117142Y-68689552D01*
X175164761Y-68641933D01*
X175212380Y-68546695D01*
X175212380Y-68451457D01*
X175164761Y-68356219D01*
X175117142Y-68308600D01*
X175021904Y-68260980D01*
X174783809Y-68260980D01*
X174640952Y-68308600D01*
X173688571Y-69260980D02*
X174260000Y-69260980D01*
X173974285Y-69260980D02*
X173974285Y-68260980D01*
X174069523Y-68403838D01*
X174164761Y-68499076D01*
X174260000Y-68546695D01*
D13*
%TO.C,D8*%
X128178378Y-125362564D02*
X128178378Y-124600564D01*
X127996950Y-124600564D01*
X127888092Y-124636850D01*
X127815521Y-124709421D01*
X127779235Y-124781992D01*
X127742950Y-124927135D01*
X127742950Y-125035992D01*
X127779235Y-125181135D01*
X127815521Y-125253707D01*
X127888092Y-125326278D01*
X127996950Y-125362564D01*
X128178378Y-125362564D01*
X127307521Y-124927135D02*
X127380092Y-124890850D01*
X127416378Y-124854564D01*
X127452664Y-124781992D01*
X127452664Y-124745707D01*
X127416378Y-124673135D01*
X127380092Y-124636850D01*
X127307521Y-124600564D01*
X127162378Y-124600564D01*
X127089807Y-124636850D01*
X127053521Y-124673135D01*
X127017235Y-124745707D01*
X127017235Y-124781992D01*
X127053521Y-124854564D01*
X127089807Y-124890850D01*
X127162378Y-124927135D01*
X127307521Y-124927135D01*
X127380092Y-124963421D01*
X127416378Y-124999707D01*
X127452664Y-125072278D01*
X127452664Y-125217421D01*
X127416378Y-125289992D01*
X127380092Y-125326278D01*
X127307521Y-125362564D01*
X127162378Y-125362564D01*
X127089807Y-125326278D01*
X127053521Y-125289992D01*
X127017235Y-125217421D01*
X127017235Y-125072278D01*
X127053521Y-124999707D01*
X127089807Y-124963421D01*
X127162378Y-124927135D01*
%TO.C,D17*%
X155801785Y-124626914D02*
X155801785Y-123864914D01*
X155620357Y-123864914D01*
X155511500Y-123901200D01*
X155438928Y-123973771D01*
X155402642Y-124046342D01*
X155366357Y-124191485D01*
X155366357Y-124300342D01*
X155402642Y-124445485D01*
X155438928Y-124518057D01*
X155511500Y-124590628D01*
X155620357Y-124626914D01*
X155801785Y-124626914D01*
X154640642Y-124626914D02*
X155076071Y-124626914D01*
X154858357Y-124626914D02*
X154858357Y-123864914D01*
X154930928Y-123973771D01*
X155003500Y-124046342D01*
X155076071Y-124082628D01*
X154386642Y-123864914D02*
X153878642Y-123864914D01*
X154205214Y-124626914D01*
D12*
%TO.C,R3*%
X182136632Y-126846430D02*
X182035617Y-126274010D01*
X182540693Y-126442369D02*
X181833587Y-125735262D01*
X181564212Y-126004636D01*
X181530541Y-126105651D01*
X181530541Y-126172995D01*
X181564212Y-126274010D01*
X181665228Y-126375025D01*
X181766243Y-126408697D01*
X181833587Y-126408697D01*
X181934602Y-126375025D01*
X182203976Y-126105651D01*
X181193823Y-126375025D02*
X180756090Y-126812758D01*
X181261167Y-126846430D01*
X181160151Y-126947445D01*
X181126480Y-127048461D01*
X181126480Y-127115804D01*
X181160151Y-127216819D01*
X181328510Y-127385178D01*
X181429525Y-127418850D01*
X181496869Y-127418850D01*
X181597884Y-127385178D01*
X181799915Y-127183148D01*
X181833587Y-127082132D01*
X181833587Y-127014789D01*
%TO.C,H3*%
X191604804Y-118829080D02*
X191604804Y-117829080D01*
X191604804Y-118305271D02*
X191033376Y-118305271D01*
X191033376Y-118829080D02*
X191033376Y-117829080D01*
X190652423Y-117829080D02*
X190033376Y-117829080D01*
X190366709Y-118210033D01*
X190223852Y-118210033D01*
X190128614Y-118257652D01*
X190080995Y-118305271D01*
X190033376Y-118400509D01*
X190033376Y-118638604D01*
X190080995Y-118733842D01*
X190128614Y-118781461D01*
X190223852Y-118829080D01*
X190509566Y-118829080D01*
X190604804Y-118781461D01*
X190652423Y-118733842D01*
%TO.C,U2*%
X198924404Y-66908430D02*
X198924404Y-67717954D01*
X198876785Y-67813192D01*
X198829166Y-67860811D01*
X198733928Y-67908430D01*
X198543452Y-67908430D01*
X198448214Y-67860811D01*
X198400595Y-67813192D01*
X198352976Y-67717954D01*
X198352976Y-66908430D01*
X197924404Y-67003669D02*
X197876785Y-66956050D01*
X197781547Y-66908430D01*
X197543452Y-66908430D01*
X197448214Y-66956050D01*
X197400595Y-67003669D01*
X197352976Y-67098907D01*
X197352976Y-67194145D01*
X197400595Y-67337002D01*
X197972023Y-67908430D01*
X197352976Y-67908430D01*
D13*
%TO.C,D14*%
X156030385Y-67515014D02*
X156030385Y-66753014D01*
X155848957Y-66753014D01*
X155740100Y-66789300D01*
X155667528Y-66861871D01*
X155631242Y-66934442D01*
X155594957Y-67079585D01*
X155594957Y-67188442D01*
X155631242Y-67333585D01*
X155667528Y-67406157D01*
X155740100Y-67478728D01*
X155848957Y-67515014D01*
X156030385Y-67515014D01*
X154869242Y-67515014D02*
X155304671Y-67515014D01*
X155086957Y-67515014D02*
X155086957Y-66753014D01*
X155159528Y-66861871D01*
X155232100Y-66934442D01*
X155304671Y-66970728D01*
X154216100Y-67007014D02*
X154216100Y-67515014D01*
X154397528Y-66716728D02*
X154578957Y-67261014D01*
X154107242Y-67261014D01*
D12*
%TO.C,F1*%
X186508983Y-65574871D02*
X186842316Y-65574871D01*
X186842316Y-66098680D02*
X186842316Y-65098680D01*
X186366126Y-65098680D01*
X185461364Y-66098680D02*
X186032792Y-66098680D01*
X185747078Y-66098680D02*
X185747078Y-65098680D01*
X185842316Y-65241538D01*
X185937554Y-65336776D01*
X186032792Y-65384395D01*
%TO.C,C1*%
X183659712Y-132539289D02*
X183659712Y-132606632D01*
X183727056Y-132741319D01*
X183794400Y-132808663D01*
X183929087Y-132876006D01*
X184063774Y-132876006D01*
X184164789Y-132842335D01*
X184333148Y-132741319D01*
X184434163Y-132640304D01*
X184535178Y-132471945D01*
X184568850Y-132370930D01*
X184568850Y-132236243D01*
X184501506Y-132101556D01*
X184434163Y-132034212D01*
X184299476Y-131966869D01*
X184232132Y-131966869D01*
X182918934Y-131933197D02*
X183322995Y-132337258D01*
X183120964Y-132135228D02*
X183828071Y-131428121D01*
X183794400Y-131596480D01*
X183794400Y-131731167D01*
X183828071Y-131832182D01*
D13*
%TO.C,D5*%
X128197428Y-68307814D02*
X128197428Y-67545814D01*
X128016000Y-67545814D01*
X127907142Y-67582100D01*
X127834571Y-67654671D01*
X127798285Y-67727242D01*
X127762000Y-67872385D01*
X127762000Y-67981242D01*
X127798285Y-68126385D01*
X127834571Y-68198957D01*
X127907142Y-68271528D01*
X128016000Y-68307814D01*
X128197428Y-68307814D01*
X127072571Y-67545814D02*
X127435428Y-67545814D01*
X127471714Y-67908671D01*
X127435428Y-67872385D01*
X127362857Y-67836100D01*
X127181428Y-67836100D01*
X127108857Y-67872385D01*
X127072571Y-67908671D01*
X127036285Y-67981242D01*
X127036285Y-68162671D01*
X127072571Y-68235242D01*
X127108857Y-68271528D01*
X127181428Y-68307814D01*
X127362857Y-68307814D01*
X127435428Y-68271528D01*
X127471714Y-68235242D01*
%TO.C,D26*%
X204760575Y-103950313D02*
X204760575Y-103188313D01*
X204579147Y-103188313D01*
X204470290Y-103224599D01*
X204397718Y-103297170D01*
X204361432Y-103369741D01*
X204325147Y-103514884D01*
X204325147Y-103623741D01*
X204361432Y-103768884D01*
X204397718Y-103841456D01*
X204470290Y-103914027D01*
X204579147Y-103950313D01*
X204760575Y-103950313D01*
X204034861Y-103260884D02*
X203998575Y-103224599D01*
X203926004Y-103188313D01*
X203744575Y-103188313D01*
X203672004Y-103224599D01*
X203635718Y-103260884D01*
X203599432Y-103333456D01*
X203599432Y-103406027D01*
X203635718Y-103514884D01*
X204071147Y-103950313D01*
X203599432Y-103950313D01*
X202946290Y-103188313D02*
X203091432Y-103188313D01*
X203164004Y-103224599D01*
X203200290Y-103260884D01*
X203272861Y-103369741D01*
X203309147Y-103514884D01*
X203309147Y-103805170D01*
X203272861Y-103877741D01*
X203236575Y-103914027D01*
X203164004Y-103950313D01*
X203018861Y-103950313D01*
X202946290Y-103914027D01*
X202910004Y-103877741D01*
X202873718Y-103805170D01*
X202873718Y-103623741D01*
X202910004Y-103551170D01*
X202946290Y-103514884D01*
X203018861Y-103478599D01*
X203164004Y-103478599D01*
X203236575Y-103514884D01*
X203272861Y-103551170D01*
X203309147Y-103623741D01*
D12*
%TO.C,L1*%
X118943416Y-76957180D02*
X119419607Y-76957180D01*
X119419607Y-75957180D01*
X118086273Y-76957180D02*
X118657702Y-76957180D01*
X118371988Y-76957180D02*
X118371988Y-75957180D01*
X118467226Y-76100038D01*
X118562464Y-76195276D01*
X118657702Y-76242895D01*
D13*
%TO.C,D23*%
X204597314Y-158704724D02*
X204978314Y-158044812D01*
X204821193Y-157954098D01*
X204708777Y-157931094D01*
X204609642Y-157957657D01*
X204541932Y-158002363D01*
X204437936Y-158109917D01*
X204383508Y-158204190D01*
X204342361Y-158348031D01*
X204337499Y-158429022D01*
X204364062Y-158528156D01*
X204440193Y-158614009D01*
X204597314Y-158704724D01*
X204313542Y-157744804D02*
X204300260Y-157695237D01*
X204255554Y-157627527D01*
X204098432Y-157536812D01*
X204017441Y-157531951D01*
X203967874Y-157545232D01*
X203900164Y-157589938D01*
X203863878Y-157652787D01*
X203840874Y-157765203D01*
X204000252Y-158360009D01*
X203591735Y-158124152D01*
X203752765Y-157337241D02*
X203344248Y-157101384D01*
X203419076Y-157479779D01*
X203324803Y-157425350D01*
X203243811Y-157420489D01*
X203194244Y-157433770D01*
X203126534Y-157478476D01*
X203035820Y-157635598D01*
X203030958Y-157716589D01*
X203044240Y-157766156D01*
X203088945Y-157833867D01*
X203277492Y-157942724D01*
X203358483Y-157947585D01*
X203408050Y-157934304D01*
%TO.C,D6*%
X128216478Y-87327014D02*
X128216478Y-86565014D01*
X128035050Y-86565014D01*
X127926192Y-86601300D01*
X127853621Y-86673871D01*
X127817335Y-86746442D01*
X127781050Y-86891585D01*
X127781050Y-87000442D01*
X127817335Y-87145585D01*
X127853621Y-87218157D01*
X127926192Y-87290728D01*
X128035050Y-87327014D01*
X128216478Y-87327014D01*
X127127907Y-86565014D02*
X127273050Y-86565014D01*
X127345621Y-86601300D01*
X127381907Y-86637585D01*
X127454478Y-86746442D01*
X127490764Y-86891585D01*
X127490764Y-87181871D01*
X127454478Y-87254442D01*
X127418192Y-87290728D01*
X127345621Y-87327014D01*
X127200478Y-87327014D01*
X127127907Y-87290728D01*
X127091621Y-87254442D01*
X127055335Y-87181871D01*
X127055335Y-87000442D01*
X127091621Y-86927871D01*
X127127907Y-86891585D01*
X127200478Y-86855300D01*
X127345621Y-86855300D01*
X127418192Y-86891585D01*
X127454478Y-86927871D01*
X127490764Y-87000442D01*
D12*
%TO.C,C3*%
X192232212Y-127414839D02*
X192232212Y-127482182D01*
X192299556Y-127616869D01*
X192366900Y-127684213D01*
X192501587Y-127751556D01*
X192636274Y-127751556D01*
X192737289Y-127717885D01*
X192905648Y-127616869D01*
X193006663Y-127515854D01*
X193107678Y-127347495D01*
X193141350Y-127246480D01*
X193141350Y-127111793D01*
X193074006Y-126977106D01*
X193006663Y-126909762D01*
X192871976Y-126842419D01*
X192804632Y-126842419D01*
X192636274Y-126539373D02*
X192198541Y-126101640D01*
X192164869Y-126606717D01*
X192063854Y-126505701D01*
X191962838Y-126472030D01*
X191895495Y-126472030D01*
X191794480Y-126505701D01*
X191626121Y-126674060D01*
X191592449Y-126775075D01*
X191592449Y-126842419D01*
X191626121Y-126943434D01*
X191828151Y-127145465D01*
X191929167Y-127179137D01*
X191996510Y-127179137D01*
D13*
%TO.C,D15*%
X155935135Y-86545964D02*
X155935135Y-85783964D01*
X155753707Y-85783964D01*
X155644850Y-85820250D01*
X155572278Y-85892821D01*
X155535992Y-85965392D01*
X155499707Y-86110535D01*
X155499707Y-86219392D01*
X155535992Y-86364535D01*
X155572278Y-86437107D01*
X155644850Y-86509678D01*
X155753707Y-86545964D01*
X155935135Y-86545964D01*
X154773992Y-86545964D02*
X155209421Y-86545964D01*
X154991707Y-86545964D02*
X154991707Y-85783964D01*
X155064278Y-85892821D01*
X155136850Y-85965392D01*
X155209421Y-86001678D01*
X154084564Y-85783964D02*
X154447421Y-85783964D01*
X154483707Y-86146821D01*
X154447421Y-86110535D01*
X154374850Y-86074250D01*
X154193421Y-86074250D01*
X154120850Y-86110535D01*
X154084564Y-86146821D01*
X154048278Y-86219392D01*
X154048278Y-86400821D01*
X154084564Y-86473392D01*
X154120850Y-86509678D01*
X154193421Y-86545964D01*
X154374850Y-86545964D01*
X154447421Y-86509678D01*
X154483707Y-86473392D01*
%TO.C,D3*%
X109166478Y-106331614D02*
X109166478Y-105569614D01*
X108985050Y-105569614D01*
X108876192Y-105605900D01*
X108803621Y-105678471D01*
X108767335Y-105751042D01*
X108731050Y-105896185D01*
X108731050Y-106005042D01*
X108767335Y-106150185D01*
X108803621Y-106222757D01*
X108876192Y-106295328D01*
X108985050Y-106331614D01*
X109166478Y-106331614D01*
X108477050Y-105569614D02*
X108005335Y-105569614D01*
X108259335Y-105859900D01*
X108150478Y-105859900D01*
X108077907Y-105896185D01*
X108041621Y-105932471D01*
X108005335Y-106005042D01*
X108005335Y-106186471D01*
X108041621Y-106259042D01*
X108077907Y-106295328D01*
X108150478Y-106331614D01*
X108368192Y-106331614D01*
X108440764Y-106295328D01*
X108477050Y-106259042D01*
D12*
%TO.C,L5*%
X118733866Y-114942880D02*
X119210057Y-114942880D01*
X119210057Y-113942880D01*
X117924342Y-113942880D02*
X118400533Y-113942880D01*
X118448152Y-114419071D01*
X118400533Y-114371452D01*
X118305295Y-114323833D01*
X118067200Y-114323833D01*
X117971961Y-114371452D01*
X117924342Y-114419071D01*
X117876723Y-114514309D01*
X117876723Y-114752404D01*
X117924342Y-114847642D01*
X117971961Y-114895261D01*
X118067200Y-114942880D01*
X118305295Y-114942880D01*
X118400533Y-114895261D01*
X118448152Y-114847642D01*
%TO.C,R10*%
X156814780Y-136917192D02*
X156338590Y-136583859D01*
X156814780Y-136345764D02*
X155814780Y-136345764D01*
X155814780Y-136726716D01*
X155862400Y-136821954D01*
X155910019Y-136869573D01*
X156005257Y-136917192D01*
X156148114Y-136917192D01*
X156243352Y-136869573D01*
X156290971Y-136821954D01*
X156338590Y-136726716D01*
X156338590Y-136345764D01*
X156814780Y-137869573D02*
X156814780Y-137298145D01*
X156814780Y-137583859D02*
X155814780Y-137583859D01*
X155957638Y-137488621D01*
X156052876Y-137393383D01*
X156100495Y-137298145D01*
X155814780Y-138488621D02*
X155814780Y-138583859D01*
X155862400Y-138679097D01*
X155910019Y-138726716D01*
X156005257Y-138774335D01*
X156195733Y-138821954D01*
X156433828Y-138821954D01*
X156624304Y-138774335D01*
X156719542Y-138726716D01*
X156767161Y-138679097D01*
X156814780Y-138583859D01*
X156814780Y-138488621D01*
X156767161Y-138393383D01*
X156719542Y-138345764D01*
X156624304Y-138298145D01*
X156433828Y-138250526D01*
X156195733Y-138250526D01*
X156005257Y-138298145D01*
X155910019Y-138345764D01*
X155862400Y-138393383D01*
X155814780Y-138488621D01*
%TO.C,H1*%
X115309554Y-84310480D02*
X115309554Y-83310480D01*
X115309554Y-83786671D02*
X114738126Y-83786671D01*
X114738126Y-84310480D02*
X114738126Y-83310480D01*
X113738126Y-84310480D02*
X114309554Y-84310480D01*
X114023840Y-84310480D02*
X114023840Y-83310480D01*
X114119078Y-83453338D01*
X114214316Y-83548576D01*
X114309554Y-83596195D01*
%TO.C,R1*%
X182818066Y-153671530D02*
X183151400Y-153195340D01*
X183389495Y-153671530D02*
X183389495Y-152671530D01*
X183008542Y-152671530D01*
X182913304Y-152719150D01*
X182865685Y-152766769D01*
X182818066Y-152862007D01*
X182818066Y-153004864D01*
X182865685Y-153100102D01*
X182913304Y-153147721D01*
X183008542Y-153195340D01*
X183389495Y-153195340D01*
X181865685Y-153671530D02*
X182437114Y-153671530D01*
X182151400Y-153671530D02*
X182151400Y-152671530D01*
X182246638Y-152814388D01*
X182341876Y-152909626D01*
X182437114Y-152957245D01*
D13*
%TO.C,D9*%
X136827078Y-69896264D02*
X136827078Y-69134264D01*
X136645650Y-69134264D01*
X136536792Y-69170550D01*
X136464221Y-69243121D01*
X136427935Y-69315692D01*
X136391650Y-69460835D01*
X136391650Y-69569692D01*
X136427935Y-69714835D01*
X136464221Y-69787407D01*
X136536792Y-69859978D01*
X136645650Y-69896264D01*
X136827078Y-69896264D01*
X136028792Y-69896264D02*
X135883650Y-69896264D01*
X135811078Y-69859978D01*
X135774792Y-69823692D01*
X135702221Y-69714835D01*
X135665935Y-69569692D01*
X135665935Y-69279407D01*
X135702221Y-69206835D01*
X135738507Y-69170550D01*
X135811078Y-69134264D01*
X135956221Y-69134264D01*
X136028792Y-69170550D01*
X136065078Y-69206835D01*
X136101364Y-69279407D01*
X136101364Y-69460835D01*
X136065078Y-69533407D01*
X136028792Y-69569692D01*
X135956221Y-69605978D01*
X135811078Y-69605978D01*
X135738507Y-69569692D01*
X135702221Y-69533407D01*
X135665935Y-69460835D01*
D12*
%TO.C,U1*%
X178145623Y-146607922D02*
X177573203Y-147180342D01*
X177472188Y-147214014D01*
X177404844Y-147214014D01*
X177303829Y-147180342D01*
X177169142Y-147045655D01*
X177135470Y-146944640D01*
X177135470Y-146877296D01*
X177169142Y-146776281D01*
X177741562Y-146203861D01*
X176327348Y-146203861D02*
X176731409Y-146607922D01*
X176529379Y-146405892D02*
X177236485Y-145698785D01*
X177202814Y-145867144D01*
X177202814Y-146001831D01*
X177236485Y-146102846D01*
%TO.C,USB2*%
X215399286Y-141574643D02*
X214826866Y-142147063D01*
X214725851Y-142180735D01*
X214658507Y-142180735D01*
X214557492Y-142147063D01*
X214422805Y-142012376D01*
X214389133Y-141911361D01*
X214389133Y-141844017D01*
X214422805Y-141743002D01*
X214995225Y-141170582D01*
X214018744Y-141540972D02*
X213884057Y-141473628D01*
X213715698Y-141305269D01*
X213682026Y-141204254D01*
X213682026Y-141136911D01*
X213715698Y-141035895D01*
X213783042Y-140968552D01*
X213884057Y-140934880D01*
X213951400Y-140934880D01*
X214052416Y-140968552D01*
X214220774Y-141069567D01*
X214321790Y-141103239D01*
X214389133Y-141103239D01*
X214490148Y-141069567D01*
X214557492Y-141002224D01*
X214591164Y-140901208D01*
X214591164Y-140833865D01*
X214557492Y-140732850D01*
X214389133Y-140564491D01*
X214254446Y-140497147D01*
X213412652Y-140261445D02*
X213277965Y-140194101D01*
X213210622Y-140194101D01*
X213109606Y-140227773D01*
X213008591Y-140328788D01*
X212974919Y-140429804D01*
X212974919Y-140497147D01*
X213008591Y-140598162D01*
X213277965Y-140867537D01*
X213985072Y-140160430D01*
X213749370Y-139924727D01*
X213648354Y-139891056D01*
X213581011Y-139891056D01*
X213479996Y-139924727D01*
X213412652Y-139992071D01*
X213378980Y-140093086D01*
X213378980Y-140160430D01*
X213412652Y-140261445D01*
X213648354Y-140497147D01*
X213244293Y-139554338D02*
X213244293Y-139486995D01*
X213210622Y-139385979D01*
X213042263Y-139217621D01*
X212941248Y-139183949D01*
X212873904Y-139183949D01*
X212772889Y-139217621D01*
X212705545Y-139284964D01*
X212638202Y-139419651D01*
X212638202Y-140227773D01*
X212200469Y-139790040D01*
%TO.C,L7*%
X195791116Y-73261480D02*
X196267307Y-73261480D01*
X196267307Y-72261480D01*
X195553021Y-72261480D02*
X194886354Y-72261480D01*
X195314926Y-73261480D01*
%TO.C,C5*%
X179009012Y-148807989D02*
X179009012Y-148875332D01*
X179076356Y-149010019D01*
X179143700Y-149077363D01*
X179278387Y-149144706D01*
X179413074Y-149144706D01*
X179514089Y-149111035D01*
X179682448Y-149010019D01*
X179783463Y-148909004D01*
X179884478Y-148740645D01*
X179918150Y-148639630D01*
X179918150Y-148504943D01*
X179850806Y-148370256D01*
X179783463Y-148302912D01*
X179648776Y-148235569D01*
X179581432Y-148235569D01*
X179009012Y-147528462D02*
X179345730Y-147865180D01*
X179042684Y-148235569D01*
X179042684Y-148168225D01*
X179009012Y-148067210D01*
X178840654Y-147898851D01*
X178739638Y-147865180D01*
X178672295Y-147865180D01*
X178571280Y-147898851D01*
X178402921Y-148067210D01*
X178369249Y-148168225D01*
X178369249Y-148235569D01*
X178402921Y-148336584D01*
X178571280Y-148504943D01*
X178672295Y-148538615D01*
X178739638Y-148538615D01*
%TO.C,C10*%
X178071880Y-129046956D02*
X178071880Y-129114300D01*
X178139224Y-129248987D01*
X178206567Y-129316330D01*
X178341254Y-129383674D01*
X178475941Y-129383674D01*
X178576956Y-129350002D01*
X178745315Y-129248987D01*
X178846330Y-129147972D01*
X178947346Y-128979613D01*
X178981017Y-128878598D01*
X178981017Y-128743911D01*
X178913674Y-128609224D01*
X178846330Y-128541880D01*
X178711643Y-128474537D01*
X178644300Y-128474537D01*
X177331101Y-128440865D02*
X177735162Y-128844926D01*
X177533132Y-128642895D02*
X178240239Y-127935788D01*
X178206567Y-128104147D01*
X178206567Y-128238834D01*
X178240239Y-128339849D01*
X177600475Y-127296025D02*
X177533132Y-127228682D01*
X177432117Y-127195010D01*
X177364773Y-127195010D01*
X177263758Y-127228682D01*
X177095399Y-127329697D01*
X176927040Y-127498056D01*
X176826025Y-127666414D01*
X176792353Y-127767430D01*
X176792353Y-127834773D01*
X176826025Y-127935788D01*
X176893369Y-128003132D01*
X176994384Y-128036804D01*
X177061727Y-128036804D01*
X177162743Y-128003132D01*
X177331101Y-127902117D01*
X177499460Y-127733758D01*
X177600475Y-127565399D01*
X177634147Y-127464384D01*
X177634147Y-127397040D01*
X177600475Y-127296025D01*
%TO.C,R8*%
X203956819Y-146741732D02*
X204529239Y-146640717D01*
X204360880Y-147145793D02*
X205067987Y-146438687D01*
X204798613Y-146169312D01*
X204697598Y-146135641D01*
X204630254Y-146135641D01*
X204529239Y-146169312D01*
X204428224Y-146270328D01*
X204394552Y-146371343D01*
X204394552Y-146438687D01*
X204428224Y-146539702D01*
X204697598Y-146809076D01*
X203956819Y-145933610D02*
X204057834Y-145967282D01*
X204125178Y-145967282D01*
X204226193Y-145933610D01*
X204259865Y-145899938D01*
X204293537Y-145798923D01*
X204293537Y-145731580D01*
X204259865Y-145630564D01*
X204125178Y-145495877D01*
X204024162Y-145462206D01*
X203956819Y-145462206D01*
X203855804Y-145495877D01*
X203822132Y-145529549D01*
X203788460Y-145630564D01*
X203788460Y-145697908D01*
X203822132Y-145798923D01*
X203956819Y-145933610D01*
X203990491Y-146034625D01*
X203990491Y-146101969D01*
X203956819Y-146202984D01*
X203822132Y-146337671D01*
X203721117Y-146371343D01*
X203653773Y-146371343D01*
X203552758Y-146337671D01*
X203418071Y-146202984D01*
X203384399Y-146101969D01*
X203384399Y-146034625D01*
X203418071Y-145933610D01*
X203552758Y-145798923D01*
X203653773Y-145765251D01*
X203721117Y-145765251D01*
X203822132Y-145798923D01*
%TO.C,C8*%
X192763112Y-144769389D02*
X192763112Y-144836732D01*
X192830456Y-144971419D01*
X192897800Y-145038763D01*
X193032487Y-145106106D01*
X193167174Y-145106106D01*
X193268189Y-145072435D01*
X193436548Y-144971419D01*
X193537563Y-144870404D01*
X193638578Y-144702045D01*
X193672250Y-144601030D01*
X193672250Y-144466343D01*
X193604906Y-144331656D01*
X193537563Y-144264312D01*
X193402876Y-144196969D01*
X193335532Y-144196969D01*
X192695769Y-144028610D02*
X192796784Y-144062282D01*
X192864128Y-144062282D01*
X192965143Y-144028610D01*
X192998815Y-143994938D01*
X193032487Y-143893923D01*
X193032487Y-143826580D01*
X192998815Y-143725564D01*
X192864128Y-143590877D01*
X192763112Y-143557206D01*
X192695769Y-143557206D01*
X192594754Y-143590877D01*
X192561082Y-143624549D01*
X192527410Y-143725564D01*
X192527410Y-143792908D01*
X192561082Y-143893923D01*
X192695769Y-144028610D01*
X192729441Y-144129625D01*
X192729441Y-144196969D01*
X192695769Y-144297984D01*
X192561082Y-144432671D01*
X192460067Y-144466343D01*
X192392723Y-144466343D01*
X192291708Y-144432671D01*
X192157021Y-144297984D01*
X192123349Y-144196969D01*
X192123349Y-144129625D01*
X192157021Y-144028610D01*
X192291708Y-143893923D01*
X192392723Y-143860251D01*
X192460067Y-143860251D01*
X192561082Y-143893923D01*
%TO.C,L4*%
X195791116Y-111875830D02*
X196267307Y-111875830D01*
X196267307Y-110875830D01*
X195029211Y-111209164D02*
X195029211Y-111875830D01*
X195267307Y-110828211D02*
X195505402Y-111542497D01*
X194886354Y-111542497D01*
D13*
%TO.C,D7*%
X128178378Y-106388764D02*
X128178378Y-105626764D01*
X127996950Y-105626764D01*
X127888092Y-105663050D01*
X127815521Y-105735621D01*
X127779235Y-105808192D01*
X127742950Y-105953335D01*
X127742950Y-106062192D01*
X127779235Y-106207335D01*
X127815521Y-106279907D01*
X127888092Y-106352478D01*
X127996950Y-106388764D01*
X128178378Y-106388764D01*
X127488950Y-105626764D02*
X126980950Y-105626764D01*
X127307521Y-106388764D01*
D12*
%TO.C,C2*%
X194022912Y-132958389D02*
X194022912Y-133025732D01*
X194090256Y-133160419D01*
X194157600Y-133227763D01*
X194292287Y-133295106D01*
X194426974Y-133295106D01*
X194527989Y-133261435D01*
X194696348Y-133160419D01*
X194797363Y-133059404D01*
X194898378Y-132891045D01*
X194932050Y-132790030D01*
X194932050Y-132655343D01*
X194864706Y-132520656D01*
X194797363Y-132453312D01*
X194662676Y-132385969D01*
X194595332Y-132385969D01*
X194325958Y-132116595D02*
X194325958Y-132049251D01*
X194292287Y-131948236D01*
X194123928Y-131779877D01*
X194022912Y-131746206D01*
X193955569Y-131746206D01*
X193854554Y-131779877D01*
X193787210Y-131847221D01*
X193719867Y-131981908D01*
X193719867Y-132790030D01*
X193282134Y-132352297D01*
D13*
%TO.C,D22*%
X185729335Y-116721164D02*
X185729335Y-115959164D01*
X185547907Y-115959164D01*
X185439050Y-115995450D01*
X185366478Y-116068021D01*
X185330192Y-116140592D01*
X185293907Y-116285735D01*
X185293907Y-116394592D01*
X185330192Y-116539735D01*
X185366478Y-116612307D01*
X185439050Y-116684878D01*
X185547907Y-116721164D01*
X185729335Y-116721164D01*
X185003621Y-116031735D02*
X184967335Y-115995450D01*
X184894764Y-115959164D01*
X184713335Y-115959164D01*
X184640764Y-115995450D01*
X184604478Y-116031735D01*
X184568192Y-116104307D01*
X184568192Y-116176878D01*
X184604478Y-116285735D01*
X185039907Y-116721164D01*
X184568192Y-116721164D01*
X184277907Y-116031735D02*
X184241621Y-115995450D01*
X184169050Y-115959164D01*
X183987621Y-115959164D01*
X183915050Y-115995450D01*
X183878764Y-116031735D01*
X183842478Y-116104307D01*
X183842478Y-116176878D01*
X183878764Y-116285735D01*
X184314192Y-116721164D01*
X183842478Y-116721164D01*
%TO.C,D25*%
X210913435Y-83040764D02*
X210913435Y-82278764D01*
X210732007Y-82278764D01*
X210623150Y-82315050D01*
X210550578Y-82387621D01*
X210514292Y-82460192D01*
X210478007Y-82605335D01*
X210478007Y-82714192D01*
X210514292Y-82859335D01*
X210550578Y-82931907D01*
X210623150Y-83004478D01*
X210732007Y-83040764D01*
X210913435Y-83040764D01*
X210187721Y-82351335D02*
X210151435Y-82315050D01*
X210078864Y-82278764D01*
X209897435Y-82278764D01*
X209824864Y-82315050D01*
X209788578Y-82351335D01*
X209752292Y-82423907D01*
X209752292Y-82496478D01*
X209788578Y-82605335D01*
X210224007Y-83040764D01*
X209752292Y-83040764D01*
X209062864Y-82278764D02*
X209425721Y-82278764D01*
X209462007Y-82641621D01*
X209425721Y-82605335D01*
X209353150Y-82569050D01*
X209171721Y-82569050D01*
X209099150Y-82605335D01*
X209062864Y-82641621D01*
X209026578Y-82714192D01*
X209026578Y-82895621D01*
X209062864Y-82968192D01*
X209099150Y-83004478D01*
X209171721Y-83040764D01*
X209353150Y-83040764D01*
X209425721Y-83004478D01*
X209462007Y-82968192D01*
D12*
%TO.C,C6*%
X172551062Y-144597939D02*
X172551062Y-144665282D01*
X172618406Y-144799969D01*
X172685750Y-144867313D01*
X172820437Y-144934656D01*
X172955124Y-144934656D01*
X173056139Y-144900985D01*
X173224498Y-144799969D01*
X173325513Y-144698954D01*
X173426528Y-144530595D01*
X173460200Y-144429580D01*
X173460200Y-144294893D01*
X173392856Y-144160206D01*
X173325513Y-144092862D01*
X173190826Y-144025519D01*
X173123482Y-144025519D01*
X172584734Y-143352084D02*
X172719421Y-143486771D01*
X172753093Y-143587786D01*
X172753093Y-143655130D01*
X172719421Y-143823488D01*
X172618406Y-143991847D01*
X172349032Y-144261221D01*
X172248017Y-144294893D01*
X172180673Y-144294893D01*
X172079658Y-144261221D01*
X171944971Y-144126534D01*
X171911299Y-144025519D01*
X171911299Y-143958175D01*
X171944971Y-143857160D01*
X172113330Y-143688801D01*
X172214345Y-143655130D01*
X172281688Y-143655130D01*
X172382704Y-143688801D01*
X172517391Y-143823488D01*
X172551062Y-143924504D01*
X172551062Y-143991847D01*
X172517391Y-144092862D01*
%TO.C,Q1*%
X191795388Y-61122169D02*
X191890626Y-61074550D01*
X191985864Y-60979311D01*
X192128721Y-60836454D01*
X192223959Y-60788835D01*
X192319197Y-60788835D01*
X192271578Y-61026930D02*
X192366816Y-60979311D01*
X192462054Y-60884073D01*
X192509673Y-60693597D01*
X192509673Y-60360264D01*
X192462054Y-60169788D01*
X192366816Y-60074550D01*
X192271578Y-60026930D01*
X192081102Y-60026930D01*
X191985864Y-60074550D01*
X191890626Y-60169788D01*
X191843007Y-60360264D01*
X191843007Y-60693597D01*
X191890626Y-60884073D01*
X191985864Y-60979311D01*
X192081102Y-61026930D01*
X192271578Y-61026930D01*
X190890626Y-61026930D02*
X191462054Y-61026930D01*
X191176340Y-61026930D02*
X191176340Y-60026930D01*
X191271578Y-60169788D01*
X191366816Y-60265026D01*
X191462054Y-60312645D01*
D13*
%TO.C,D11*%
X136885135Y-107977214D02*
X136885135Y-107215214D01*
X136703707Y-107215214D01*
X136594850Y-107251500D01*
X136522278Y-107324071D01*
X136485992Y-107396642D01*
X136449707Y-107541785D01*
X136449707Y-107650642D01*
X136485992Y-107795785D01*
X136522278Y-107868357D01*
X136594850Y-107940928D01*
X136703707Y-107977214D01*
X136885135Y-107977214D01*
X135723992Y-107977214D02*
X136159421Y-107977214D01*
X135941707Y-107977214D02*
X135941707Y-107215214D01*
X136014278Y-107324071D01*
X136086850Y-107396642D01*
X136159421Y-107432928D01*
X134998278Y-107977214D02*
X135433707Y-107977214D01*
X135215992Y-107977214D02*
X135215992Y-107215214D01*
X135288564Y-107324071D01*
X135361135Y-107396642D01*
X135433707Y-107432928D01*
%TO.C,D4*%
X109166478Y-125324464D02*
X109166478Y-124562464D01*
X108985050Y-124562464D01*
X108876192Y-124598750D01*
X108803621Y-124671321D01*
X108767335Y-124743892D01*
X108731050Y-124889035D01*
X108731050Y-124997892D01*
X108767335Y-125143035D01*
X108803621Y-125215607D01*
X108876192Y-125288178D01*
X108985050Y-125324464D01*
X109166478Y-125324464D01*
X108077907Y-124816464D02*
X108077907Y-125324464D01*
X108259335Y-124526178D02*
X108440764Y-125070464D01*
X107969050Y-125070464D01*
%TO.C,D12*%
X136923235Y-127027214D02*
X136923235Y-126265214D01*
X136741807Y-126265214D01*
X136632950Y-126301500D01*
X136560378Y-126374071D01*
X136524092Y-126446642D01*
X136487807Y-126591785D01*
X136487807Y-126700642D01*
X136524092Y-126845785D01*
X136560378Y-126918357D01*
X136632950Y-126990928D01*
X136741807Y-127027214D01*
X136923235Y-127027214D01*
X135762092Y-127027214D02*
X136197521Y-127027214D01*
X135979807Y-127027214D02*
X135979807Y-126265214D01*
X136052378Y-126374071D01*
X136124950Y-126446642D01*
X136197521Y-126482928D01*
X135471807Y-126337785D02*
X135435521Y-126301500D01*
X135362950Y-126265214D01*
X135181521Y-126265214D01*
X135108950Y-126301500D01*
X135072664Y-126337785D01*
X135036378Y-126410357D01*
X135036378Y-126482928D01*
X135072664Y-126591785D01*
X135508092Y-127027214D01*
X135036378Y-127027214D01*
D12*
%TO.C,R4*%
X179922466Y-67596280D02*
X180255800Y-67120090D01*
X180493895Y-67596280D02*
X180493895Y-66596280D01*
X180112942Y-66596280D01*
X180017704Y-66643900D01*
X179970085Y-66691519D01*
X179922466Y-66786757D01*
X179922466Y-66929614D01*
X179970085Y-67024852D01*
X180017704Y-67072471D01*
X180112942Y-67120090D01*
X180493895Y-67120090D01*
X179065323Y-66929614D02*
X179065323Y-67596280D01*
X179303419Y-66548661D02*
X179541514Y-67262947D01*
X178922466Y-67262947D01*
D13*
%TO.C,D18*%
X197110663Y-157009274D02*
X197491663Y-156349362D01*
X197334542Y-156258648D01*
X197222126Y-156235644D01*
X197122991Y-156262207D01*
X197055281Y-156306913D01*
X196951285Y-156414467D01*
X196896857Y-156508740D01*
X196855710Y-156652581D01*
X196850848Y-156733572D01*
X196877411Y-156832706D01*
X196953542Y-156918559D01*
X197110663Y-157009274D01*
X196105084Y-156428702D02*
X196482176Y-156646417D01*
X196293630Y-156537559D02*
X196674630Y-155877648D01*
X196683050Y-156008207D01*
X196709613Y-156107341D01*
X196754319Y-156175051D01*
X195945706Y-155833896D02*
X196026698Y-155838757D01*
X196076265Y-155825476D01*
X196143975Y-155780770D01*
X196162118Y-155749345D01*
X196166979Y-155668354D01*
X196153698Y-155618787D01*
X196108992Y-155551077D01*
X195983294Y-155478505D01*
X195902303Y-155473644D01*
X195852736Y-155486925D01*
X195785026Y-155531631D01*
X195766883Y-155563056D01*
X195762021Y-155644047D01*
X195775303Y-155693614D01*
X195820009Y-155761324D01*
X195945706Y-155833896D01*
X195990412Y-155901606D01*
X196003693Y-155951173D01*
X195998832Y-156032165D01*
X195926261Y-156157862D01*
X195858551Y-156202568D01*
X195808983Y-156215849D01*
X195727992Y-156210988D01*
X195602294Y-156138417D01*
X195557589Y-156070706D01*
X195544307Y-156021139D01*
X195549169Y-155940148D01*
X195621740Y-155814450D01*
X195689450Y-155769744D01*
X195739017Y-155756463D01*
X195820009Y-155761324D01*
D12*
%TO.C,H4*%
X115309554Y-122353330D02*
X115309554Y-121353330D01*
X115309554Y-121829521D02*
X114738126Y-121829521D01*
X114738126Y-122353330D02*
X114738126Y-121353330D01*
X113833364Y-121686664D02*
X113833364Y-122353330D01*
X114071459Y-121305711D02*
X114309554Y-122019997D01*
X113690507Y-122019997D01*
D13*
%TO.C,D24*%
X210875335Y-80583314D02*
X210875335Y-79821314D01*
X210693907Y-79821314D01*
X210585050Y-79857600D01*
X210512478Y-79930171D01*
X210476192Y-80002742D01*
X210439907Y-80147885D01*
X210439907Y-80256742D01*
X210476192Y-80401885D01*
X210512478Y-80474457D01*
X210585050Y-80547028D01*
X210693907Y-80583314D01*
X210875335Y-80583314D01*
X210149621Y-79893885D02*
X210113335Y-79857600D01*
X210040764Y-79821314D01*
X209859335Y-79821314D01*
X209786764Y-79857600D01*
X209750478Y-79893885D01*
X209714192Y-79966457D01*
X209714192Y-80039028D01*
X209750478Y-80147885D01*
X210185907Y-80583314D01*
X209714192Y-80583314D01*
X209061050Y-80075314D02*
X209061050Y-80583314D01*
X209242478Y-79785028D02*
X209423907Y-80329314D01*
X208952192Y-80329314D01*
D12*
%TO.C,C7*%
X175696812Y-130558089D02*
X175696812Y-130625432D01*
X175764156Y-130760119D01*
X175831500Y-130827463D01*
X175966187Y-130894806D01*
X176100874Y-130894806D01*
X176201889Y-130861135D01*
X176370248Y-130760119D01*
X176471263Y-130659104D01*
X176572278Y-130490745D01*
X176605950Y-130389730D01*
X176605950Y-130255043D01*
X176538606Y-130120356D01*
X176471263Y-130053012D01*
X176336576Y-129985669D01*
X176269232Y-129985669D01*
X176100874Y-129682623D02*
X175629469Y-129211219D01*
X175225408Y-130221371D01*
%TO.C,R9*%
X211176769Y-150342182D02*
X211749189Y-150241167D01*
X211580830Y-150746243D02*
X212287937Y-150039137D01*
X212018563Y-149769762D01*
X211917548Y-149736091D01*
X211850204Y-149736091D01*
X211749189Y-149769762D01*
X211648174Y-149870778D01*
X211614502Y-149971793D01*
X211614502Y-150039137D01*
X211648174Y-150140152D01*
X211917548Y-150409526D01*
X210840051Y-150005465D02*
X210705364Y-149870778D01*
X210671693Y-149769762D01*
X210671693Y-149702419D01*
X210705364Y-149534060D01*
X210806380Y-149365701D01*
X211075754Y-149096327D01*
X211176769Y-149062656D01*
X211244112Y-149062656D01*
X211345128Y-149096327D01*
X211479815Y-149231014D01*
X211513487Y-149332030D01*
X211513487Y-149399373D01*
X211479815Y-149500388D01*
X211311456Y-149668747D01*
X211210441Y-149702419D01*
X211143097Y-149702419D01*
X211042082Y-149668747D01*
X210907395Y-149534060D01*
X210873723Y-149433045D01*
X210873723Y-149365701D01*
X210907395Y-149264686D01*
%TO.C,R2*%
X176739670Y-156167080D02*
X177073004Y-155690890D01*
X177311099Y-156167080D02*
X177311099Y-155167080D01*
X176930146Y-155167080D01*
X176834908Y-155214700D01*
X176787289Y-155262319D01*
X176739670Y-155357557D01*
X176739670Y-155500414D01*
X176787289Y-155595652D01*
X176834908Y-155643271D01*
X176930146Y-155690890D01*
X177311099Y-155690890D01*
X176358718Y-155262319D02*
X176311099Y-155214700D01*
X176215861Y-155167080D01*
X175977765Y-155167080D01*
X175882527Y-155214700D01*
X175834908Y-155262319D01*
X175787289Y-155357557D01*
X175787289Y-155452795D01*
X175834908Y-155595652D01*
X176406337Y-156167080D01*
X175787289Y-156167080D01*
%TO.C,R6*%
X169597366Y-76614280D02*
X169930700Y-76138090D01*
X170168795Y-76614280D02*
X170168795Y-75614280D01*
X169787842Y-75614280D01*
X169692604Y-75661900D01*
X169644985Y-75709519D01*
X169597366Y-75804757D01*
X169597366Y-75947614D01*
X169644985Y-76042852D01*
X169692604Y-76090471D01*
X169787842Y-76138090D01*
X170168795Y-76138090D01*
X168740223Y-75614280D02*
X168930700Y-75614280D01*
X169025938Y-75661900D01*
X169073557Y-75709519D01*
X169168795Y-75852376D01*
X169216414Y-76042852D01*
X169216414Y-76423804D01*
X169168795Y-76519042D01*
X169121176Y-76566661D01*
X169025938Y-76614280D01*
X168835461Y-76614280D01*
X168740223Y-76566661D01*
X168692604Y-76519042D01*
X168644985Y-76423804D01*
X168644985Y-76185709D01*
X168692604Y-76090471D01*
X168740223Y-76042852D01*
X168835461Y-75995233D01*
X169025938Y-75995233D01*
X169121176Y-76042852D01*
X169168795Y-76090471D01*
X169216414Y-76185709D01*
%TO.C,C9*%
X156719542Y-133354783D02*
X156767161Y-133307164D01*
X156814780Y-133164307D01*
X156814780Y-133069069D01*
X156767161Y-132926211D01*
X156671923Y-132830973D01*
X156576685Y-132783354D01*
X156386209Y-132735735D01*
X156243352Y-132735735D01*
X156052876Y-132783354D01*
X155957638Y-132830973D01*
X155862400Y-132926211D01*
X155814780Y-133069069D01*
X155814780Y-133164307D01*
X155862400Y-133307164D01*
X155910019Y-133354783D01*
X156814780Y-133830973D02*
X156814780Y-134021450D01*
X156767161Y-134116688D01*
X156719542Y-134164307D01*
X156576685Y-134259545D01*
X156386209Y-134307164D01*
X156005257Y-134307164D01*
X155910019Y-134259545D01*
X155862400Y-134211926D01*
X155814780Y-134116688D01*
X155814780Y-133926211D01*
X155862400Y-133830973D01*
X155910019Y-133783354D01*
X156005257Y-133735735D01*
X156243352Y-133735735D01*
X156338590Y-133783354D01*
X156386209Y-133830973D01*
X156433828Y-133926211D01*
X156433828Y-134116688D01*
X156386209Y-134211926D01*
X156338590Y-134259545D01*
X156243352Y-134307164D01*
%TO.C,F2*%
X201911409Y-143765044D02*
X202147112Y-144000746D01*
X201776722Y-144371136D02*
X202483829Y-143664029D01*
X202147112Y-143327311D01*
X201844066Y-143158953D02*
X201844066Y-143091609D01*
X201810394Y-142990594D01*
X201642035Y-142822235D01*
X201541020Y-142788563D01*
X201473677Y-142788563D01*
X201372661Y-142822235D01*
X201305318Y-142889579D01*
X201237974Y-143024266D01*
X201237974Y-143832388D01*
X200800242Y-143394655D01*
D13*
%TO.C,D21*%
X185710285Y-101550064D02*
X185710285Y-100788064D01*
X185528857Y-100788064D01*
X185420000Y-100824350D01*
X185347428Y-100896921D01*
X185311142Y-100969492D01*
X185274857Y-101114635D01*
X185274857Y-101223492D01*
X185311142Y-101368635D01*
X185347428Y-101441207D01*
X185420000Y-101513778D01*
X185528857Y-101550064D01*
X185710285Y-101550064D01*
X184984571Y-100860635D02*
X184948285Y-100824350D01*
X184875714Y-100788064D01*
X184694285Y-100788064D01*
X184621714Y-100824350D01*
X184585428Y-100860635D01*
X184549142Y-100933207D01*
X184549142Y-101005778D01*
X184585428Y-101114635D01*
X185020857Y-101550064D01*
X184549142Y-101550064D01*
X183823428Y-101550064D02*
X184258857Y-101550064D01*
X184041142Y-101550064D02*
X184041142Y-100788064D01*
X184113714Y-100896921D01*
X184186285Y-100969492D01*
X184258857Y-101005778D01*
D12*
%TO.C,H2*%
X191642904Y-80652880D02*
X191642904Y-79652880D01*
X191642904Y-80129071D02*
X191071476Y-80129071D01*
X191071476Y-80652880D02*
X191071476Y-79652880D01*
X190642904Y-79748119D02*
X190595285Y-79700500D01*
X190500047Y-79652880D01*
X190261952Y-79652880D01*
X190166714Y-79700500D01*
X190119095Y-79748119D01*
X190071476Y-79843357D01*
X190071476Y-79938595D01*
X190119095Y-80081452D01*
X190690523Y-80652880D01*
X190071476Y-80652880D01*
%TO.C,L2*%
X180627316Y-62574430D02*
X181103507Y-62574430D01*
X181103507Y-61574430D01*
X180341602Y-61669669D02*
X180293983Y-61622050D01*
X180198745Y-61574430D01*
X179960650Y-61574430D01*
X179865411Y-61622050D01*
X179817792Y-61669669D01*
X179770173Y-61764907D01*
X179770173Y-61860145D01*
X179817792Y-62003002D01*
X180389221Y-62574430D01*
X179770173Y-62574430D01*
%TO.C,R7*%
X175388566Y-76538080D02*
X175721900Y-76061890D01*
X175959995Y-76538080D02*
X175959995Y-75538080D01*
X175579042Y-75538080D01*
X175483804Y-75585700D01*
X175436185Y-75633319D01*
X175388566Y-75728557D01*
X175388566Y-75871414D01*
X175436185Y-75966652D01*
X175483804Y-76014271D01*
X175579042Y-76061890D01*
X175959995Y-76061890D01*
X175055233Y-75538080D02*
X174388566Y-75538080D01*
X174817138Y-76538080D01*
D13*
%TO.C,D19*%
X179671435Y-78202064D02*
X179671435Y-77440064D01*
X179490007Y-77440064D01*
X179381150Y-77476350D01*
X179308578Y-77548921D01*
X179272292Y-77621492D01*
X179236007Y-77766635D01*
X179236007Y-77875492D01*
X179272292Y-78020635D01*
X179308578Y-78093207D01*
X179381150Y-78165778D01*
X179490007Y-78202064D01*
X179671435Y-78202064D01*
X178510292Y-78202064D02*
X178945721Y-78202064D01*
X178728007Y-78202064D02*
X178728007Y-77440064D01*
X178800578Y-77548921D01*
X178873150Y-77621492D01*
X178945721Y-77657778D01*
X178147435Y-78202064D02*
X178002292Y-78202064D01*
X177929721Y-78165778D01*
X177893435Y-78129492D01*
X177820864Y-78020635D01*
X177784578Y-77875492D01*
X177784578Y-77585207D01*
X177820864Y-77512635D01*
X177857150Y-77476350D01*
X177929721Y-77440064D01*
X178074864Y-77440064D01*
X178147435Y-77476350D01*
X178183721Y-77512635D01*
X178220007Y-77585207D01*
X178220007Y-77766635D01*
X178183721Y-77839207D01*
X178147435Y-77875492D01*
X178074864Y-77911778D01*
X177929721Y-77911778D01*
X177857150Y-77875492D01*
X177820864Y-77839207D01*
X177784578Y-77766635D01*
%TO.C,D10*%
X136923235Y-88927214D02*
X136923235Y-88165214D01*
X136741807Y-88165214D01*
X136632950Y-88201500D01*
X136560378Y-88274071D01*
X136524092Y-88346642D01*
X136487807Y-88491785D01*
X136487807Y-88600642D01*
X136524092Y-88745785D01*
X136560378Y-88818357D01*
X136632950Y-88890928D01*
X136741807Y-88927214D01*
X136923235Y-88927214D01*
X135762092Y-88927214D02*
X136197521Y-88927214D01*
X135979807Y-88927214D02*
X135979807Y-88165214D01*
X136052378Y-88274071D01*
X136124950Y-88346642D01*
X136197521Y-88382928D01*
X135290378Y-88165214D02*
X135217807Y-88165214D01*
X135145235Y-88201500D01*
X135108950Y-88237785D01*
X135072664Y-88310357D01*
X135036378Y-88455500D01*
X135036378Y-88636928D01*
X135072664Y-88782071D01*
X135108950Y-88854642D01*
X135145235Y-88890928D01*
X135217807Y-88927214D01*
X135290378Y-88927214D01*
X135362950Y-88890928D01*
X135399235Y-88854642D01*
X135435521Y-88782071D01*
X135471807Y-88636928D01*
X135471807Y-88455500D01*
X135435521Y-88310357D01*
X135399235Y-88237785D01*
X135362950Y-88201500D01*
X135290378Y-88165214D01*
%TO.C,D20*%
X179652385Y-80659514D02*
X179652385Y-79897514D01*
X179470957Y-79897514D01*
X179362100Y-79933800D01*
X179289528Y-80006371D01*
X179253242Y-80078942D01*
X179216957Y-80224085D01*
X179216957Y-80332942D01*
X179253242Y-80478085D01*
X179289528Y-80550657D01*
X179362100Y-80623228D01*
X179470957Y-80659514D01*
X179652385Y-80659514D01*
X178926671Y-79970085D02*
X178890385Y-79933800D01*
X178817814Y-79897514D01*
X178636385Y-79897514D01*
X178563814Y-79933800D01*
X178527528Y-79970085D01*
X178491242Y-80042657D01*
X178491242Y-80115228D01*
X178527528Y-80224085D01*
X178962957Y-80659514D01*
X178491242Y-80659514D01*
X178019528Y-79897514D02*
X177946957Y-79897514D01*
X177874385Y-79933800D01*
X177838100Y-79970085D01*
X177801814Y-80042657D01*
X177765528Y-80187800D01*
X177765528Y-80369228D01*
X177801814Y-80514371D01*
X177838100Y-80586942D01*
X177874385Y-80623228D01*
X177946957Y-80659514D01*
X178019528Y-80659514D01*
X178092100Y-80623228D01*
X178128385Y-80586942D01*
X178164671Y-80514371D01*
X178200957Y-80369228D01*
X178200957Y-80187800D01*
X178164671Y-80042657D01*
X178128385Y-79970085D01*
X178092100Y-79933800D01*
X178019528Y-79897514D01*
%TO.C,D1*%
X109109328Y-68345914D02*
X109109328Y-67583914D01*
X108927900Y-67583914D01*
X108819042Y-67620200D01*
X108746471Y-67692771D01*
X108710185Y-67765342D01*
X108673900Y-67910485D01*
X108673900Y-68019342D01*
X108710185Y-68164485D01*
X108746471Y-68237057D01*
X108819042Y-68309628D01*
X108927900Y-68345914D01*
X109109328Y-68345914D01*
X107948185Y-68345914D02*
X108383614Y-68345914D01*
X108165900Y-68345914D02*
X108165900Y-67583914D01*
X108238471Y-67692771D01*
X108311042Y-67765342D01*
X108383614Y-67801628D01*
D12*
%TO.C,L6*%
X208647160Y-154633819D02*
X208983878Y-154970537D01*
X209690984Y-154263430D01*
X208815519Y-153387964D02*
X208950206Y-153522651D01*
X208983878Y-153623667D01*
X208983878Y-153691010D01*
X208950206Y-153859369D01*
X208849191Y-154027728D01*
X208579816Y-154297102D01*
X208478801Y-154330774D01*
X208411458Y-154330774D01*
X208310442Y-154297102D01*
X208175755Y-154162415D01*
X208142084Y-154061399D01*
X208142084Y-153994056D01*
X208175755Y-153893041D01*
X208344114Y-153724682D01*
X208445129Y-153691010D01*
X208512473Y-153691010D01*
X208613488Y-153724682D01*
X208748175Y-153859369D01*
X208781847Y-153960384D01*
X208781847Y-154027728D01*
X208748175Y-154128743D01*
%TO.C,TVS4*%
X206474136Y-134184563D02*
X206070075Y-134588624D01*
X206979212Y-135093700D02*
X206272105Y-134386594D01*
X205935388Y-134723311D02*
X206406792Y-135666120D01*
X205463983Y-135194716D01*
X205935388Y-136070181D02*
X205868044Y-136204868D01*
X205699685Y-136373227D01*
X205598670Y-136406899D01*
X205531327Y-136406899D01*
X205430311Y-136373227D01*
X205362968Y-136305883D01*
X205329296Y-136204868D01*
X205329296Y-136137525D01*
X205362968Y-136036509D01*
X205463983Y-135868151D01*
X205497655Y-135767135D01*
X205497655Y-135699792D01*
X205463983Y-135598777D01*
X205396640Y-135531433D01*
X205295624Y-135497761D01*
X205228281Y-135497761D01*
X205127266Y-135531433D01*
X204958907Y-135699792D01*
X204891563Y-135834479D01*
X204487502Y-136642601D02*
X204958907Y-137114005D01*
X204386487Y-136204868D02*
X205059922Y-136541586D01*
X204622189Y-136979318D01*
D13*
%TO.C,D13*%
X170051185Y-142019564D02*
X170051185Y-141257564D01*
X169869757Y-141257564D01*
X169760900Y-141293850D01*
X169688328Y-141366421D01*
X169652042Y-141438992D01*
X169615757Y-141584135D01*
X169615757Y-141692992D01*
X169652042Y-141838135D01*
X169688328Y-141910707D01*
X169760900Y-141983278D01*
X169869757Y-142019564D01*
X170051185Y-142019564D01*
X168890042Y-142019564D02*
X169325471Y-142019564D01*
X169107757Y-142019564D02*
X169107757Y-141257564D01*
X169180328Y-141366421D01*
X169252900Y-141438992D01*
X169325471Y-141475278D01*
X168636042Y-141257564D02*
X168164328Y-141257564D01*
X168418328Y-141547850D01*
X168309471Y-141547850D01*
X168236900Y-141584135D01*
X168200614Y-141620421D01*
X168164328Y-141692992D01*
X168164328Y-141874421D01*
X168200614Y-141946992D01*
X168236900Y-141983278D01*
X168309471Y-142019564D01*
X168527185Y-142019564D01*
X168599757Y-141983278D01*
X168636042Y-141946992D01*
D12*
%TO.C,TVS2*%
X208143936Y-148790736D02*
X207739875Y-148386675D01*
X207234799Y-149295812D02*
X207941905Y-148588705D01*
X207605188Y-148251988D02*
X206662379Y-148723392D01*
X207133783Y-147780583D01*
X206258318Y-148251988D02*
X206123631Y-148184644D01*
X205955272Y-148016285D01*
X205921600Y-147915270D01*
X205921600Y-147847927D01*
X205955272Y-147746911D01*
X206022616Y-147679568D01*
X206123631Y-147645896D01*
X206190974Y-147645896D01*
X206291990Y-147679568D01*
X206460348Y-147780583D01*
X206561364Y-147814255D01*
X206628707Y-147814255D01*
X206729722Y-147780583D01*
X206797066Y-147713240D01*
X206830738Y-147612224D01*
X206830738Y-147544881D01*
X206797066Y-147443866D01*
X206628707Y-147275507D01*
X206494020Y-147208163D01*
X206190974Y-146972461D02*
X206190974Y-146905118D01*
X206157303Y-146804102D01*
X205988944Y-146635744D01*
X205887929Y-146602072D01*
X205820585Y-146602072D01*
X205719570Y-146635744D01*
X205652226Y-146703087D01*
X205584883Y-146837774D01*
X205584883Y-147645896D01*
X205147150Y-147208163D01*
D13*
%TO.C,D27*%
X204798385Y-119159564D02*
X204798385Y-118397564D01*
X204616957Y-118397564D01*
X204508100Y-118433850D01*
X204435528Y-118506421D01*
X204399242Y-118578992D01*
X204362957Y-118724135D01*
X204362957Y-118832992D01*
X204399242Y-118978135D01*
X204435528Y-119050707D01*
X204508100Y-119123278D01*
X204616957Y-119159564D01*
X204798385Y-119159564D01*
X204072671Y-118470135D02*
X204036385Y-118433850D01*
X203963814Y-118397564D01*
X203782385Y-118397564D01*
X203709814Y-118433850D01*
X203673528Y-118470135D01*
X203637242Y-118542707D01*
X203637242Y-118615278D01*
X203673528Y-118724135D01*
X204108957Y-119159564D01*
X203637242Y-119159564D01*
X203383242Y-118397564D02*
X202875242Y-118397564D01*
X203201814Y-119159564D01*
%TO.C,D2*%
X109166478Y-87307964D02*
X109166478Y-86545964D01*
X108985050Y-86545964D01*
X108876192Y-86582250D01*
X108803621Y-86654821D01*
X108767335Y-86727392D01*
X108731050Y-86872535D01*
X108731050Y-86981392D01*
X108767335Y-87126535D01*
X108803621Y-87199107D01*
X108876192Y-87271678D01*
X108985050Y-87307964D01*
X109166478Y-87307964D01*
X108440764Y-86618535D02*
X108404478Y-86582250D01*
X108331907Y-86545964D01*
X108150478Y-86545964D01*
X108077907Y-86582250D01*
X108041621Y-86618535D01*
X108005335Y-86691107D01*
X108005335Y-86763678D01*
X108041621Y-86872535D01*
X108477050Y-87307964D01*
X108005335Y-87307964D01*
D12*
%TO.C,USB1*%
X177036195Y-57383430D02*
X177036195Y-58192954D01*
X176988576Y-58288192D01*
X176940957Y-58335811D01*
X176845719Y-58383430D01*
X176655242Y-58383430D01*
X176560004Y-58335811D01*
X176512385Y-58288192D01*
X176464766Y-58192954D01*
X176464766Y-57383430D01*
X176036195Y-58335811D02*
X175893338Y-58383430D01*
X175655242Y-58383430D01*
X175560004Y-58335811D01*
X175512385Y-58288192D01*
X175464766Y-58192954D01*
X175464766Y-58097716D01*
X175512385Y-58002478D01*
X175560004Y-57954859D01*
X175655242Y-57907240D01*
X175845719Y-57859621D01*
X175940957Y-57812002D01*
X175988576Y-57764383D01*
X176036195Y-57669145D01*
X176036195Y-57573907D01*
X175988576Y-57478669D01*
X175940957Y-57431050D01*
X175845719Y-57383430D01*
X175607623Y-57383430D01*
X175464766Y-57431050D01*
X174702861Y-57859621D02*
X174560004Y-57907240D01*
X174512385Y-57954859D01*
X174464766Y-58050097D01*
X174464766Y-58192954D01*
X174512385Y-58288192D01*
X174560004Y-58335811D01*
X174655242Y-58383430D01*
X175036195Y-58383430D01*
X175036195Y-57383430D01*
X174702861Y-57383430D01*
X174607623Y-57431050D01*
X174560004Y-57478669D01*
X174512385Y-57573907D01*
X174512385Y-57669145D01*
X174560004Y-57764383D01*
X174607623Y-57812002D01*
X174702861Y-57859621D01*
X175036195Y-57859621D01*
X173512385Y-58383430D02*
X174083814Y-58383430D01*
X173798100Y-58383430D02*
X173798100Y-57383430D01*
X173893338Y-57526288D01*
X173988576Y-57621526D01*
X174083814Y-57669145D01*
%TO.C,TVS3*%
X189290116Y-60469530D02*
X188718688Y-60469530D01*
X189004402Y-61469530D02*
X189004402Y-60469530D01*
X188528211Y-60469530D02*
X188194878Y-61469530D01*
X187861545Y-60469530D01*
X187575830Y-61421911D02*
X187432973Y-61469530D01*
X187194878Y-61469530D01*
X187099640Y-61421911D01*
X187052021Y-61374292D01*
X187004402Y-61279054D01*
X187004402Y-61183816D01*
X187052021Y-61088578D01*
X187099640Y-61040959D01*
X187194878Y-60993340D01*
X187385354Y-60945721D01*
X187480592Y-60898102D01*
X187528211Y-60850483D01*
X187575830Y-60755245D01*
X187575830Y-60660007D01*
X187528211Y-60564769D01*
X187480592Y-60517150D01*
X187385354Y-60469530D01*
X187147259Y-60469530D01*
X187004402Y-60517150D01*
X186671069Y-60469530D02*
X186052021Y-60469530D01*
X186385354Y-60850483D01*
X186242497Y-60850483D01*
X186147259Y-60898102D01*
X186099640Y-60945721D01*
X186052021Y-61040959D01*
X186052021Y-61279054D01*
X186099640Y-61374292D01*
X186147259Y-61421911D01*
X186242497Y-61469530D01*
X186528211Y-61469530D01*
X186623450Y-61421911D01*
X186671069Y-61374292D01*
%TO.C,Y1*%
X191634603Y-135460581D02*
X191297885Y-135797299D01*
X192240694Y-135325894D02*
X191634603Y-135460581D01*
X191769290Y-134854490D01*
X190456092Y-134955505D02*
X190860153Y-135359566D01*
X190658122Y-135157535D02*
X191365229Y-134450429D01*
X191331557Y-134618787D01*
X191331557Y-134753474D01*
X191365229Y-134854490D01*
D13*
%TO.C,D28*%
X220811225Y-168143874D02*
X220272410Y-167605058D01*
X220144120Y-167733348D01*
X220092805Y-167835979D01*
X220092805Y-167938611D01*
X220118462Y-168015584D01*
X220195436Y-168143874D01*
X220272410Y-168220847D01*
X220400699Y-168297821D01*
X220477673Y-168323479D01*
X220580304Y-168323479D01*
X220682936Y-168272163D01*
X220811225Y-168143874D01*
X219810568Y-168169531D02*
X219759252Y-168169531D01*
X219682279Y-168195189D01*
X219553989Y-168323479D01*
X219528331Y-168400452D01*
X219528331Y-168451768D01*
X219553989Y-168528742D01*
X219605305Y-168580057D01*
X219707937Y-168631373D01*
X220323725Y-168631373D01*
X219990173Y-168964925D01*
X219374384Y-168964925D02*
X219400042Y-168887952D01*
X219400042Y-168836636D01*
X219374384Y-168759662D01*
X219348726Y-168734005D01*
X219271753Y-168708347D01*
X219220437Y-168708347D01*
X219143463Y-168734005D01*
X219040832Y-168836636D01*
X219015174Y-168913610D01*
X219015174Y-168964925D01*
X219040832Y-169041899D01*
X219066490Y-169067557D01*
X219143463Y-169093215D01*
X219194779Y-169093215D01*
X219271753Y-169067557D01*
X219374384Y-168964925D01*
X219451358Y-168939268D01*
X219502674Y-168939268D01*
X219579647Y-168964925D01*
X219682279Y-169067557D01*
X219707937Y-169144531D01*
X219707937Y-169195846D01*
X219682279Y-169272820D01*
X219579647Y-169375451D01*
X219502674Y-169401109D01*
X219451358Y-169401109D01*
X219374384Y-169375451D01*
X219271753Y-169272820D01*
X219246095Y-169195846D01*
X219246095Y-169144531D01*
X219271753Y-169067557D01*
D14*
%TO.C,J1*%
X162407600Y-133686550D02*
X160375600Y-133686550D01*
X165201600Y-135972550D02*
X165201600Y-133940550D01*
X164947600Y-133686550D02*
X162915600Y-133686550D01*
X162915600Y-138766550D02*
X164947600Y-138766550D01*
X160121600Y-138512550D02*
X160375600Y-138766550D01*
X164947600Y-136226550D02*
X165201600Y-136480550D01*
X157835600Y-133686550D02*
X157581600Y-133940550D01*
X165201600Y-136480550D02*
X165201600Y-138512550D01*
X157581600Y-133940550D02*
X157581600Y-135972550D01*
X162407600Y-138766550D02*
X162661600Y-138512550D01*
X157581600Y-136480550D02*
X157835600Y-136226550D01*
X159867600Y-138766550D02*
X160121600Y-138512550D01*
X157835600Y-138766550D02*
X159867600Y-138766550D01*
X157581600Y-136480550D02*
X157581600Y-138512550D01*
X157581600Y-135972550D02*
X157835600Y-136226550D01*
X162661600Y-133940550D02*
X162407600Y-133686550D01*
X157581600Y-138512550D02*
X157835600Y-138766550D01*
X162661600Y-138512550D02*
X162915600Y-138766550D01*
X160375600Y-133686550D02*
X160121600Y-133940550D01*
X164947600Y-138766550D02*
X165201600Y-138512550D01*
X160375600Y-138766550D02*
X162407600Y-138766550D01*
X165201600Y-135972550D02*
X164947600Y-136226550D01*
X165201600Y-133940550D02*
X164947600Y-133686550D01*
X164947600Y-138766550D02*
X165201600Y-138512550D01*
X160121600Y-133940550D02*
X159867600Y-133686550D01*
X162661600Y-133940550D02*
X162407600Y-133686550D01*
X159867600Y-133686550D02*
X157835600Y-133686550D01*
X162915600Y-133686550D02*
X162661600Y-133940550D01*
%TO.C,R5*%
X170534064Y-65295450D02*
X170079936Y-65295450D01*
X170534064Y-63825450D02*
X170079936Y-63825450D01*
%TO.C,L3*%
X203815685Y-140428195D02*
X204395855Y-141008365D01*
X204607645Y-139636235D02*
X205187815Y-140216405D01*
%TO.C,C4*%
X178144460Y-132378843D02*
X177774993Y-132748310D01*
X179183907Y-133418290D02*
X178814440Y-133787757D01*
%TO.C,D16*%
X157460330Y-108021199D02*
X157460330Y-107371199D01*
X158580330Y-107371199D02*
X156340330Y-107371199D01*
X158580330Y-103131199D02*
X158580330Y-107371199D01*
X157460330Y-102481199D02*
X157460330Y-103131199D01*
X156340330Y-107371199D02*
X156340330Y-103131199D01*
X156340330Y-103131199D02*
X158580330Y-103131199D01*
G36*
X157460330Y-105505199D02*
G01*
X156952330Y-104489199D01*
X157968330Y-104489199D01*
X157460330Y-105505199D01*
G37*
D10*
X157460330Y-105505199D02*
X156952330Y-104489199D01*
X157968330Y-104489199D01*
X157460330Y-105505199D01*
G36*
X158603330Y-106775199D02*
G01*
X156317330Y-106775199D01*
X156317330Y-106267199D01*
X158603330Y-106267199D01*
X158603330Y-106775199D01*
G37*
D15*
X158603330Y-106775199D02*
X156317330Y-106775199D01*
X156317330Y-106267199D01*
X158603330Y-106267199D01*
X158603330Y-106775199D01*
D14*
%TO.C,TVS1*%
X175909975Y-67911150D02*
X174609975Y-67911150D01*
X174609975Y-64791150D02*
X176609975Y-64791150D01*
%TO.C,D8*%
X125515000Y-124290000D02*
X125515000Y-122050000D01*
X125515000Y-122050000D02*
X129755000Y-122050000D01*
X130405000Y-123170000D02*
X129755000Y-123170000D01*
X129755000Y-122050000D02*
X129755000Y-124290000D01*
X129755000Y-124290000D02*
X125515000Y-124290000D01*
X124865000Y-123170000D02*
X125515000Y-123170000D01*
G36*
X127889000Y-123170000D02*
G01*
X126873000Y-123678000D01*
X126873000Y-122662000D01*
X127889000Y-123170000D01*
G37*
D10*
X127889000Y-123170000D02*
X126873000Y-123678000D01*
X126873000Y-122662000D01*
X127889000Y-123170000D01*
G36*
X129159000Y-124313000D02*
G01*
X128651000Y-124313000D01*
X128651000Y-122027000D01*
X129159000Y-122027000D01*
X129159000Y-124313000D01*
G37*
D15*
X129159000Y-124313000D02*
X128651000Y-124313000D01*
X128651000Y-122027000D01*
X129159000Y-122027000D01*
X129159000Y-124313000D01*
D14*
%TO.C,D17*%
X156340330Y-122181199D02*
X158580330Y-122181199D01*
X157460330Y-127071199D02*
X157460330Y-126421199D01*
X158580330Y-122181199D02*
X158580330Y-126421199D01*
X157460330Y-121531199D02*
X157460330Y-122181199D01*
X156340330Y-126421199D02*
X156340330Y-122181199D01*
X158580330Y-126421199D02*
X156340330Y-126421199D01*
G36*
X157460330Y-124555199D02*
G01*
X156952330Y-123539199D01*
X157968330Y-123539199D01*
X157460330Y-124555199D01*
G37*
D10*
X157460330Y-124555199D02*
X156952330Y-123539199D01*
X157968330Y-123539199D01*
X157460330Y-124555199D01*
G36*
X158603330Y-125825199D02*
G01*
X156317330Y-125825199D01*
X156317330Y-125317199D01*
X158603330Y-125317199D01*
X158603330Y-125825199D01*
G37*
D15*
X158603330Y-125825199D02*
X156317330Y-125825199D01*
X156317330Y-125317199D01*
X158603330Y-125317199D01*
X158603330Y-125825199D01*
D14*
%TO.C,R3*%
X183331682Y-128742685D02*
X183010565Y-128421568D01*
X182292235Y-129782132D02*
X181971118Y-129461015D01*
%TO.C,U2*%
X193652500Y-68356050D02*
X193652500Y-66556050D01*
X196872500Y-66556050D02*
X196872500Y-69006050D01*
%TO.C,D14*%
X157460330Y-69921250D02*
X157460330Y-69271250D01*
X156340330Y-65031250D02*
X158580330Y-65031250D01*
X158580330Y-65031250D02*
X158580330Y-69271250D01*
X157460330Y-64381250D02*
X157460330Y-65031250D01*
X156340330Y-69271250D02*
X156340330Y-65031250D01*
X158580330Y-69271250D02*
X156340330Y-69271250D01*
G36*
X158603330Y-68675250D02*
G01*
X156317330Y-68675250D01*
X156317330Y-68167250D01*
X158603330Y-68167250D01*
X158603330Y-68675250D01*
G37*
D15*
X158603330Y-68675250D02*
X156317330Y-68675250D01*
X156317330Y-68167250D01*
X158603330Y-68167250D01*
X158603330Y-68675250D01*
G36*
X157460330Y-67405250D02*
G01*
X156952330Y-66389250D01*
X157968330Y-66389250D01*
X157460330Y-67405250D01*
G37*
D10*
X157460330Y-67405250D02*
X156952330Y-66389250D01*
X157968330Y-66389250D01*
X157460330Y-67405250D01*
D14*
%TO.C,F1*%
X185573586Y-62831300D02*
X186777714Y-62831300D01*
X185573586Y-64651300D02*
X186777714Y-64651300D01*
%TO.C,C1*%
X185250110Y-129635643D02*
X184880643Y-130005110D01*
X186289557Y-130675090D02*
X185920090Y-131044557D01*
%TO.C,D5*%
X125515000Y-64900000D02*
X129755000Y-64900000D01*
X129755000Y-64900000D02*
X129755000Y-67140000D01*
X125515000Y-67140000D02*
X125515000Y-64900000D01*
X129755000Y-67140000D02*
X125515000Y-67140000D01*
X130405000Y-66020000D02*
X129755000Y-66020000D01*
X124865000Y-66020000D02*
X125515000Y-66020000D01*
G36*
X127889000Y-66020000D02*
G01*
X126873000Y-66528000D01*
X126873000Y-65512000D01*
X127889000Y-66020000D01*
G37*
D10*
X127889000Y-66020000D02*
X126873000Y-66528000D01*
X126873000Y-65512000D01*
X127889000Y-66020000D01*
G36*
X129159000Y-67163000D02*
G01*
X128651000Y-67163000D01*
X128651000Y-64877000D01*
X129159000Y-64877000D01*
X129159000Y-67163000D01*
G37*
D15*
X129159000Y-67163000D02*
X128651000Y-67163000D01*
X128651000Y-64877000D01*
X129159000Y-64877000D01*
X129159000Y-67163000D01*
D14*
%TO.C,D26*%
X201715290Y-102858699D02*
X201715290Y-100618699D01*
X201715290Y-100618699D02*
X205955290Y-100618699D01*
X205955290Y-102858699D02*
X201715290Y-102858699D01*
X201065290Y-101738699D02*
X201715290Y-101738699D01*
X205955290Y-100618699D02*
X205955290Y-102858699D01*
X206605290Y-101738699D02*
X205955290Y-101738699D01*
G36*
X204089290Y-101738699D02*
G01*
X203073290Y-102246699D01*
X203073290Y-101230699D01*
X204089290Y-101738699D01*
G37*
D10*
X204089290Y-101738699D02*
X203073290Y-102246699D01*
X203073290Y-101230699D01*
X204089290Y-101738699D01*
G36*
X205359290Y-102881699D02*
G01*
X204851290Y-102881699D01*
X204851290Y-100595699D01*
X205359290Y-100595699D01*
X205359290Y-102881699D01*
G37*
D15*
X205359290Y-102881699D02*
X204851290Y-102881699D01*
X204851290Y-100595699D01*
X205359290Y-100595699D01*
X205359290Y-102881699D01*
D14*
%TO.C,L1*%
X118216750Y-78856808D02*
X118216750Y-79677292D01*
X119336750Y-78856808D02*
X119336750Y-79677292D01*
%TO.C,D23*%
X203578948Y-156000826D02*
X201458948Y-159672774D01*
X202934000Y-154877910D02*
X202609000Y-155440826D01*
X199519052Y-158552774D02*
X201639052Y-154880826D01*
X200164000Y-159675690D02*
X200489000Y-159112774D01*
X201639052Y-154880826D02*
X203578948Y-156000826D01*
X201458948Y-159672774D02*
X199519052Y-158552774D01*
G36*
X203300867Y-156528477D02*
G01*
X203046867Y-156968418D01*
X201067133Y-155825418D01*
X201321133Y-155385477D01*
X203300867Y-156528477D01*
G37*
D15*
X203300867Y-156528477D02*
X203046867Y-156968418D01*
X201067133Y-155825418D01*
X201321133Y-155385477D01*
X203300867Y-156528477D01*
G36*
X201607941Y-158190711D02*
G01*
X200728059Y-157682711D01*
X201676000Y-157056830D01*
X201607941Y-158190711D01*
G37*
D10*
X201607941Y-158190711D02*
X200728059Y-157682711D01*
X201676000Y-157056830D01*
X201607941Y-158190711D01*
D14*
%TO.C,D6*%
X129755000Y-83950000D02*
X129755000Y-86190000D01*
X125515000Y-83950000D02*
X129755000Y-83950000D01*
X125515000Y-86190000D02*
X125515000Y-83950000D01*
X124865000Y-85070000D02*
X125515000Y-85070000D01*
X130405000Y-85070000D02*
X129755000Y-85070000D01*
X129755000Y-86190000D02*
X125515000Y-86190000D01*
G36*
X129159000Y-86213000D02*
G01*
X128651000Y-86213000D01*
X128651000Y-83927000D01*
X129159000Y-83927000D01*
X129159000Y-86213000D01*
G37*
D15*
X129159000Y-86213000D02*
X128651000Y-86213000D01*
X128651000Y-83927000D01*
X129159000Y-83927000D01*
X129159000Y-86213000D01*
G36*
X127889000Y-85070000D02*
G01*
X126873000Y-85578000D01*
X126873000Y-84562000D01*
X127889000Y-85070000D01*
G37*
D10*
X127889000Y-85070000D02*
X126873000Y-85578000D01*
X126873000Y-84562000D01*
X127889000Y-85070000D01*
D14*
%TO.C,C3*%
X190184060Y-128283093D02*
X189814593Y-128652560D01*
X191223507Y-129322540D02*
X190854040Y-129692007D01*
%TO.C,D15*%
X156340330Y-84081225D02*
X158580330Y-84081225D01*
X157460330Y-88971225D02*
X157460330Y-88321225D01*
X158580330Y-88321225D02*
X156340330Y-88321225D01*
X158580330Y-84081225D02*
X158580330Y-88321225D01*
X157460330Y-83431225D02*
X157460330Y-84081225D01*
X156340330Y-88321225D02*
X156340330Y-84081225D01*
G36*
X157460330Y-86455225D02*
G01*
X156952330Y-85439225D01*
X157968330Y-85439225D01*
X157460330Y-86455225D01*
G37*
D10*
X157460330Y-86455225D02*
X156952330Y-85439225D01*
X157968330Y-85439225D01*
X157460330Y-86455225D01*
G36*
X158603330Y-87725225D02*
G01*
X156317330Y-87725225D01*
X156317330Y-87217225D01*
X158603330Y-87217225D01*
X158603330Y-87725225D01*
G37*
D15*
X158603330Y-87725225D02*
X156317330Y-87725225D01*
X156317330Y-87217225D01*
X158603330Y-87217225D01*
X158603330Y-87725225D01*
D14*
%TO.C,D3*%
X106465000Y-103000000D02*
X110705000Y-103000000D01*
X110705000Y-103000000D02*
X110705000Y-105240000D01*
X106465000Y-105240000D02*
X106465000Y-103000000D01*
X111355000Y-104120000D02*
X110705000Y-104120000D01*
X110705000Y-105240000D02*
X106465000Y-105240000D01*
X105815000Y-104120000D02*
X106465000Y-104120000D01*
G36*
X108839000Y-104120000D02*
G01*
X107823000Y-104628000D01*
X107823000Y-103612000D01*
X108839000Y-104120000D01*
G37*
D10*
X108839000Y-104120000D02*
X107823000Y-104628000D01*
X107823000Y-103612000D01*
X108839000Y-104120000D01*
G36*
X110109000Y-105263000D02*
G01*
X109601000Y-105263000D01*
X109601000Y-102977000D01*
X110109000Y-102977000D01*
X110109000Y-105263000D01*
G37*
D15*
X110109000Y-105263000D02*
X109601000Y-105263000D01*
X109601000Y-102977000D01*
X110109000Y-102977000D01*
X110109000Y-105263000D01*
D14*
%TO.C,L5*%
X119146250Y-116785358D02*
X119146250Y-117605842D01*
X118026250Y-116785358D02*
X118026250Y-117605842D01*
%TO.C,R10*%
X155363850Y-137787114D02*
X155363850Y-137332986D01*
X153893850Y-137787114D02*
X153893850Y-137332986D01*
%TO.C,R1*%
X181440800Y-154344636D02*
X181440800Y-154798764D01*
X179970800Y-154344636D02*
X179970800Y-154798764D01*
%TO.C,D9*%
X138410000Y-66762500D02*
X138410000Y-67412500D01*
X137290000Y-71652500D02*
X137290000Y-67412500D01*
X137290000Y-67412500D02*
X139530000Y-67412500D01*
X139530000Y-71652500D02*
X137290000Y-71652500D01*
X139530000Y-67412500D02*
X139530000Y-71652500D01*
X138410000Y-72302500D02*
X138410000Y-71652500D01*
G36*
X139553000Y-71056500D02*
G01*
X137267000Y-71056500D01*
X137267000Y-70548500D01*
X139553000Y-70548500D01*
X139553000Y-71056500D01*
G37*
D15*
X139553000Y-71056500D02*
X137267000Y-71056500D01*
X137267000Y-70548500D01*
X139553000Y-70548500D01*
X139553000Y-71056500D01*
G36*
X138410000Y-69786500D02*
G01*
X137902000Y-68770500D01*
X138918000Y-68770500D01*
X138410000Y-69786500D01*
G37*
D10*
X138410000Y-69786500D02*
X137902000Y-68770500D01*
X138918000Y-68770500D01*
X138410000Y-69786500D01*
D12*
%TO.C,U1*%
X182667950Y-133689545D02*
X183145247Y-134166842D01*
X189986505Y-141008100D02*
X189509208Y-140530803D01*
X175755981Y-140601514D02*
X174854420Y-139699952D01*
X175349395Y-141008100D02*
X175755981Y-140601514D01*
X182667950Y-148326655D02*
X183145247Y-147849358D01*
X182667950Y-133689545D02*
X182190653Y-134166842D01*
X175349395Y-141008100D02*
X175826692Y-141485397D01*
X189986505Y-141008100D02*
X189509208Y-141485397D01*
X182667950Y-148326655D02*
X182190653Y-147849358D01*
D14*
%TO.C,L7*%
X195102550Y-75046808D02*
X195102550Y-75867292D01*
X196222550Y-75046808D02*
X196222550Y-75867292D01*
%TO.C,C5*%
X181867457Y-150140960D02*
X181497990Y-149771493D01*
X180828010Y-151180407D02*
X180458543Y-150810940D01*
%TO.C,C10*%
X179470443Y-131094190D02*
X179839910Y-131463657D01*
X180509890Y-130054743D02*
X180879357Y-130424210D01*
%TO.C,R8*%
X205364518Y-144154135D02*
X205685635Y-143833018D01*
X206403965Y-145193582D02*
X206725082Y-144872465D01*
%TO.C,C8*%
X191172160Y-142322943D02*
X190802693Y-142692410D01*
X192211607Y-143362390D02*
X191842140Y-143731857D01*
%TO.C,L4*%
X196203500Y-113775458D02*
X196203500Y-114595942D01*
X195083500Y-113775458D02*
X195083500Y-114595942D01*
%TO.C,D7*%
X130405000Y-104120000D02*
X129755000Y-104120000D01*
X129755000Y-103000000D02*
X129755000Y-105240000D01*
X125515000Y-103000000D02*
X129755000Y-103000000D01*
X125515000Y-105240000D02*
X125515000Y-103000000D01*
X124865000Y-104120000D02*
X125515000Y-104120000D01*
X129755000Y-105240000D02*
X125515000Y-105240000D01*
G36*
X129159000Y-105263000D02*
G01*
X128651000Y-105263000D01*
X128651000Y-102977000D01*
X129159000Y-102977000D01*
X129159000Y-105263000D01*
G37*
D15*
X129159000Y-105263000D02*
X128651000Y-105263000D01*
X128651000Y-102977000D01*
X129159000Y-102977000D01*
X129159000Y-105263000D01*
G36*
X127889000Y-104120000D02*
G01*
X126873000Y-104628000D01*
X126873000Y-103612000D01*
X127889000Y-104120000D01*
G37*
D10*
X127889000Y-104120000D02*
X126873000Y-104628000D01*
X126873000Y-103612000D01*
X127889000Y-104120000D01*
D14*
%TO.C,C2*%
X192222410Y-130321443D02*
X191852943Y-130690910D01*
X193261857Y-131360890D02*
X192892390Y-131730357D01*
%TO.C,D22*%
X187555000Y-118407500D02*
X186905000Y-118407500D01*
X182015000Y-118407500D02*
X182665000Y-118407500D01*
X182665000Y-119527500D02*
X182665000Y-117287500D01*
X186905000Y-117287500D02*
X186905000Y-119527500D01*
X186905000Y-119527500D02*
X182665000Y-119527500D01*
X182665000Y-117287500D02*
X186905000Y-117287500D01*
G36*
X185547000Y-118915500D02*
G01*
X184531000Y-118407500D01*
X185547000Y-117899500D01*
X185547000Y-118915500D01*
G37*
D10*
X185547000Y-118915500D02*
X184531000Y-118407500D01*
X185547000Y-117899500D01*
X185547000Y-118915500D01*
G36*
X183769000Y-119550500D02*
G01*
X183261000Y-119550500D01*
X183261000Y-117264500D01*
X183769000Y-117264500D01*
X183769000Y-119550500D01*
G37*
D15*
X183769000Y-119550500D02*
X183261000Y-119550500D01*
X183261000Y-117264500D01*
X183769000Y-117264500D01*
X183769000Y-119550500D01*
D14*
%TO.C,D25*%
X205955290Y-83808727D02*
X201715290Y-83808727D01*
X201715290Y-81568727D02*
X205955290Y-81568727D01*
X205955290Y-81568727D02*
X205955290Y-83808727D01*
X206605290Y-82688727D02*
X205955290Y-82688727D01*
X201715290Y-83808727D02*
X201715290Y-81568727D01*
X201065290Y-82688727D02*
X201715290Y-82688727D01*
G36*
X204089290Y-82688727D02*
G01*
X203073290Y-83196727D01*
X203073290Y-82180727D01*
X204089290Y-82688727D01*
G37*
D10*
X204089290Y-82688727D02*
X203073290Y-83196727D01*
X203073290Y-82180727D01*
X204089290Y-82688727D01*
G36*
X205359290Y-83831727D02*
G01*
X204851290Y-83831727D01*
X204851290Y-81545727D01*
X205359290Y-81545727D01*
X205359290Y-83831727D01*
G37*
D15*
X205359290Y-83831727D02*
X204851290Y-83831727D01*
X204851290Y-81545727D01*
X205359290Y-81545727D01*
X205359290Y-83831727D01*
D14*
%TO.C,C6*%
X174163740Y-142341993D02*
X174533207Y-142711460D01*
X173124293Y-143381440D02*
X173493760Y-143750907D01*
%TO.C,Q1*%
X190940150Y-61494550D02*
X194100150Y-61494550D01*
X190940150Y-64654550D02*
X192400150Y-64654550D01*
X190940150Y-61494550D02*
X190940150Y-62424550D01*
X190940150Y-64654550D02*
X190940150Y-63724550D01*
%TO.C,D11*%
X138410000Y-110402500D02*
X138410000Y-109752500D01*
X139530000Y-105512500D02*
X139530000Y-109752500D01*
X137290000Y-105512500D02*
X139530000Y-105512500D01*
X139530000Y-109752500D02*
X137290000Y-109752500D01*
X138410000Y-104862500D02*
X138410000Y-105512500D01*
X137290000Y-109752500D02*
X137290000Y-105512500D01*
G36*
X139553000Y-109156500D02*
G01*
X137267000Y-109156500D01*
X137267000Y-108648500D01*
X139553000Y-108648500D01*
X139553000Y-109156500D01*
G37*
D15*
X139553000Y-109156500D02*
X137267000Y-109156500D01*
X137267000Y-108648500D01*
X139553000Y-108648500D01*
X139553000Y-109156500D01*
G36*
X138410000Y-107886500D02*
G01*
X137902000Y-106870500D01*
X138918000Y-106870500D01*
X138410000Y-107886500D01*
G37*
D10*
X138410000Y-107886500D02*
X137902000Y-106870500D01*
X138918000Y-106870500D01*
X138410000Y-107886500D01*
D14*
%TO.C,D4*%
X106465000Y-122050000D02*
X110705000Y-122050000D01*
X110705000Y-122050000D02*
X110705000Y-124290000D01*
X106465000Y-124290000D02*
X106465000Y-122050000D01*
X111355000Y-123170000D02*
X110705000Y-123170000D01*
X110705000Y-124290000D02*
X106465000Y-124290000D01*
X105815000Y-123170000D02*
X106465000Y-123170000D01*
G36*
X110109000Y-124313000D02*
G01*
X109601000Y-124313000D01*
X109601000Y-122027000D01*
X110109000Y-122027000D01*
X110109000Y-124313000D01*
G37*
D15*
X110109000Y-124313000D02*
X109601000Y-124313000D01*
X109601000Y-122027000D01*
X110109000Y-122027000D01*
X110109000Y-124313000D01*
G36*
X108839000Y-123170000D02*
G01*
X107823000Y-123678000D01*
X107823000Y-122662000D01*
X108839000Y-123170000D01*
G37*
D10*
X108839000Y-123170000D02*
X107823000Y-123678000D01*
X107823000Y-122662000D01*
X108839000Y-123170000D01*
D14*
%TO.C,D12*%
X138410000Y-129452500D02*
X138410000Y-128802500D01*
X138410000Y-123912500D02*
X138410000Y-124562500D01*
X139530000Y-128802500D02*
X137290000Y-128802500D01*
X137290000Y-124562500D02*
X139530000Y-124562500D01*
X139530000Y-124562500D02*
X139530000Y-128802500D01*
X137290000Y-128802500D02*
X137290000Y-124562500D01*
G36*
X138410000Y-126936500D02*
G01*
X137902000Y-125920500D01*
X138918000Y-125920500D01*
X138410000Y-126936500D01*
G37*
D10*
X138410000Y-126936500D02*
X137902000Y-125920500D01*
X138918000Y-125920500D01*
X138410000Y-126936500D01*
G36*
X139553000Y-128206500D02*
G01*
X137267000Y-128206500D01*
X137267000Y-127698500D01*
X139553000Y-127698500D01*
X139553000Y-128206500D01*
G37*
D15*
X139553000Y-128206500D02*
X137267000Y-128206500D01*
X137267000Y-127698500D01*
X139553000Y-127698500D01*
X139553000Y-128206500D01*
D14*
%TO.C,R4*%
X179528736Y-64758900D02*
X179982864Y-64758900D01*
X179528736Y-66228900D02*
X179982864Y-66228900D01*
%TO.C,D18*%
X199020548Y-158910774D02*
X197080652Y-157790774D01*
X199200652Y-154118826D02*
X201140548Y-155238826D01*
X201140548Y-155238826D02*
X199020548Y-158910774D01*
X200495600Y-154115910D02*
X200170600Y-154678826D01*
X197080652Y-157790774D02*
X199200652Y-154118826D01*
X197725600Y-158913690D02*
X198050600Y-158350774D01*
G36*
X200862467Y-155766477D02*
G01*
X200608467Y-156206418D01*
X198628733Y-155063418D01*
X198882733Y-154623477D01*
X200862467Y-155766477D01*
G37*
D15*
X200862467Y-155766477D02*
X200608467Y-156206418D01*
X198628733Y-155063418D01*
X198882733Y-154623477D01*
X200862467Y-155766477D01*
G36*
X199169541Y-157428711D02*
G01*
X198289659Y-156920711D01*
X199237600Y-156294830D01*
X199169541Y-157428711D01*
G37*
D10*
X199169541Y-157428711D02*
X198289659Y-156920711D01*
X199237600Y-156294830D01*
X199169541Y-157428711D01*
D14*
%TO.C,D24*%
X205955290Y-79068742D02*
X205955290Y-81308742D01*
X201715290Y-79068742D02*
X205955290Y-79068742D01*
X205955290Y-81308742D02*
X201715290Y-81308742D01*
X206605290Y-80188742D02*
X205955290Y-80188742D01*
X201065290Y-80188742D02*
X201715290Y-80188742D01*
X201715290Y-81308742D02*
X201715290Y-79068742D01*
G36*
X204089290Y-80188742D02*
G01*
X203073290Y-80696742D01*
X203073290Y-79680742D01*
X204089290Y-80188742D01*
G37*
D10*
X204089290Y-80188742D02*
X203073290Y-80696742D01*
X203073290Y-79680742D01*
X204089290Y-80188742D01*
G36*
X205359290Y-81331742D02*
G01*
X204851290Y-81331742D01*
X204851290Y-79045742D01*
X205359290Y-79045742D01*
X205359290Y-81331742D01*
G37*
D15*
X205359290Y-81331742D02*
X204851290Y-81331742D01*
X204851290Y-79045742D01*
X205359290Y-79045742D01*
X205359290Y-81331742D01*
D14*
%TO.C,C7*%
X176403393Y-131357660D02*
X176772860Y-130988193D01*
X177442840Y-132397107D02*
X177812307Y-132027640D01*
%TO.C,R9*%
X210706532Y-148796765D02*
X210385415Y-149117882D01*
X209667085Y-147757318D02*
X209345968Y-148078435D01*
%TO.C,R2*%
X179288150Y-154779714D02*
X179288150Y-154325586D01*
X177818150Y-154779714D02*
X177818150Y-154325586D01*
%TO.C,R6*%
X170638800Y-75820536D02*
X170638800Y-76274664D01*
X172108800Y-75820536D02*
X172108800Y-76274664D01*
%TO.C,C9*%
X153912900Y-133317348D02*
X153912900Y-133839852D01*
X155382900Y-133317348D02*
X155382900Y-133839852D01*
%TO.C,F2*%
X201908559Y-142597444D02*
X202760006Y-143448891D01*
X203195494Y-141310509D02*
X204046941Y-142161956D01*
%TO.C,D21*%
X182665000Y-98237500D02*
X186905000Y-98237500D01*
X187555000Y-99357500D02*
X186905000Y-99357500D01*
X186905000Y-100477500D02*
X182665000Y-100477500D01*
X182015000Y-99357500D02*
X182665000Y-99357500D01*
X182665000Y-100477500D02*
X182665000Y-98237500D01*
X186905000Y-98237500D02*
X186905000Y-100477500D01*
G36*
X185039000Y-99357500D02*
G01*
X184023000Y-99865500D01*
X184023000Y-98849500D01*
X185039000Y-99357500D01*
G37*
D10*
X185039000Y-99357500D02*
X184023000Y-99865500D01*
X184023000Y-98849500D01*
X185039000Y-99357500D01*
G36*
X186309000Y-100500500D02*
G01*
X185801000Y-100500500D01*
X185801000Y-98214500D01*
X186309000Y-98214500D01*
X186309000Y-100500500D01*
G37*
D15*
X186309000Y-100500500D02*
X185801000Y-100500500D01*
X185801000Y-98214500D01*
X186309000Y-98214500D01*
X186309000Y-100500500D01*
D14*
%TO.C,L2*%
X181518592Y-64244150D02*
X180698108Y-64244150D01*
X181518592Y-63124150D02*
X180698108Y-63124150D01*
%TO.C,R7*%
X174013799Y-75820537D02*
X174013799Y-76274665D01*
X172543799Y-75820537D02*
X172543799Y-76274665D01*
%TO.C,D19*%
X186905000Y-78927500D02*
X182665000Y-78927500D01*
X182665000Y-76687500D02*
X186905000Y-76687500D01*
X182015000Y-77807500D02*
X182665000Y-77807500D01*
X186905000Y-76687500D02*
X186905000Y-78927500D01*
X187555000Y-77807500D02*
X186905000Y-77807500D01*
X182665000Y-78927500D02*
X182665000Y-76687500D01*
G36*
X186309000Y-78950500D02*
G01*
X185801000Y-78950500D01*
X185801000Y-76664500D01*
X186309000Y-76664500D01*
X186309000Y-78950500D01*
G37*
D15*
X186309000Y-78950500D02*
X185801000Y-78950500D01*
X185801000Y-76664500D01*
X186309000Y-76664500D01*
X186309000Y-78950500D01*
G36*
X185039000Y-77807500D02*
G01*
X184023000Y-78315500D01*
X184023000Y-77299500D01*
X185039000Y-77807500D01*
G37*
D10*
X185039000Y-77807500D02*
X184023000Y-78315500D01*
X184023000Y-77299500D01*
X185039000Y-77807500D01*
D14*
%TO.C,D10*%
X139530000Y-90702500D02*
X137290000Y-90702500D01*
X138410000Y-91352500D02*
X138410000Y-90702500D01*
X138410000Y-85812500D02*
X138410000Y-86462500D01*
X137290000Y-90702500D02*
X137290000Y-86462500D01*
X137290000Y-86462500D02*
X139530000Y-86462500D01*
X139530000Y-86462500D02*
X139530000Y-90702500D01*
G36*
X138410000Y-88836500D02*
G01*
X137902000Y-87820500D01*
X138918000Y-87820500D01*
X138410000Y-88836500D01*
G37*
D10*
X138410000Y-88836500D02*
X137902000Y-87820500D01*
X138918000Y-87820500D01*
X138410000Y-88836500D01*
G36*
X139553000Y-90106500D02*
G01*
X137267000Y-90106500D01*
X137267000Y-89598500D01*
X139553000Y-89598500D01*
X139553000Y-90106500D01*
G37*
D15*
X139553000Y-90106500D02*
X137267000Y-90106500D01*
X137267000Y-89598500D01*
X139553000Y-89598500D01*
X139553000Y-90106500D01*
D14*
%TO.C,D20*%
X187555000Y-80307500D02*
X186905000Y-80307500D01*
X186905000Y-79187500D02*
X186905000Y-81427500D01*
X182665000Y-81427500D02*
X182665000Y-79187500D01*
X182015000Y-80307500D02*
X182665000Y-80307500D01*
X186905000Y-81427500D02*
X182665000Y-81427500D01*
X182665000Y-79187500D02*
X186905000Y-79187500D01*
G36*
X186309000Y-81450500D02*
G01*
X185801000Y-81450500D01*
X185801000Y-79164500D01*
X186309000Y-79164500D01*
X186309000Y-81450500D01*
G37*
D15*
X186309000Y-81450500D02*
X185801000Y-81450500D01*
X185801000Y-79164500D01*
X186309000Y-79164500D01*
X186309000Y-81450500D01*
G36*
X185039000Y-80307500D02*
G01*
X184023000Y-80815500D01*
X184023000Y-79799500D01*
X185039000Y-80307500D01*
G37*
D10*
X185039000Y-80307500D02*
X184023000Y-80815500D01*
X184023000Y-79799500D01*
X185039000Y-80307500D01*
D14*
%TO.C,D1*%
X110705000Y-67140000D02*
X106465000Y-67140000D01*
X111355000Y-66020000D02*
X110705000Y-66020000D01*
X106465000Y-67140000D02*
X106465000Y-64900000D01*
X110705000Y-64900000D02*
X110705000Y-67140000D01*
X105815000Y-66020000D02*
X106465000Y-66020000D01*
X106465000Y-64900000D02*
X110705000Y-64900000D01*
G36*
X110109000Y-67163000D02*
G01*
X109601000Y-67163000D01*
X109601000Y-64877000D01*
X110109000Y-64877000D01*
X110109000Y-67163000D01*
G37*
D15*
X110109000Y-67163000D02*
X109601000Y-67163000D01*
X109601000Y-64877000D01*
X110109000Y-64877000D01*
X110109000Y-67163000D01*
G36*
X108839000Y-66020000D02*
G01*
X107823000Y-66528000D01*
X107823000Y-65512000D01*
X108839000Y-66020000D01*
G37*
D10*
X108839000Y-66020000D02*
X107823000Y-66528000D01*
X107823000Y-65512000D01*
X108839000Y-66020000D01*
D14*
%TO.C,L6*%
X206643755Y-152781265D02*
X206063585Y-152201095D01*
X207435715Y-151989305D02*
X206855545Y-151409135D01*
%TO.C,TVS4*%
X207769628Y-134878208D02*
X205047267Y-137600569D01*
X209183842Y-136292422D02*
X206461481Y-139014783D01*
X207769628Y-134878208D02*
X209183842Y-136292422D01*
%TO.C,D13*%
X170883750Y-139769850D02*
X170233750Y-139769850D01*
X165993750Y-138649850D02*
X170233750Y-138649850D01*
X165343750Y-139769850D02*
X165993750Y-139769850D01*
X170233750Y-138649850D02*
X170233750Y-140889850D01*
X165993750Y-140889850D02*
X165993750Y-138649850D01*
X170233750Y-140889850D02*
X165993750Y-140889850D01*
G36*
X168367750Y-139769850D02*
G01*
X167351750Y-140277850D01*
X167351750Y-139261850D01*
X168367750Y-139769850D01*
G37*
D10*
X168367750Y-139769850D02*
X167351750Y-140277850D01*
X167351750Y-139261850D01*
X168367750Y-139769850D01*
G36*
X169637750Y-140912850D02*
G01*
X169129750Y-140912850D01*
X169129750Y-138626850D01*
X169637750Y-138626850D01*
X169637750Y-140912850D01*
G37*
D15*
X169637750Y-140912850D02*
X169129750Y-140912850D01*
X169129750Y-138626850D01*
X169637750Y-138626850D01*
X169637750Y-140912850D01*
D14*
%TO.C,TVS2*%
X207630183Y-147771456D02*
X206710944Y-146852217D01*
X208917117Y-144646044D02*
X210331331Y-146060258D01*
%TO.C,D27*%
X205955290Y-121908699D02*
X201715290Y-121908699D01*
X201715290Y-121908699D02*
X201715290Y-119668699D01*
X201065290Y-120788699D02*
X201715290Y-120788699D01*
X206605290Y-120788699D02*
X205955290Y-120788699D01*
X201715290Y-119668699D02*
X205955290Y-119668699D01*
X205955290Y-119668699D02*
X205955290Y-121908699D01*
G36*
X202819290Y-121931699D02*
G01*
X202311290Y-121931699D01*
X202311290Y-119645699D01*
X202819290Y-119645699D01*
X202819290Y-121931699D01*
G37*
D15*
X202819290Y-121931699D02*
X202311290Y-121931699D01*
X202311290Y-119645699D01*
X202819290Y-119645699D01*
X202819290Y-121931699D01*
G36*
X204597290Y-121296699D02*
G01*
X203581290Y-120788699D01*
X204597290Y-120280699D01*
X204597290Y-121296699D01*
G37*
D10*
X204597290Y-121296699D02*
X203581290Y-120788699D01*
X204597290Y-120280699D01*
X204597290Y-121296699D01*
D14*
%TO.C,D2*%
X106465000Y-86190000D02*
X106465000Y-83950000D01*
X111355000Y-85070000D02*
X110705000Y-85070000D01*
X110705000Y-83950000D02*
X110705000Y-86190000D01*
X105815000Y-85070000D02*
X106465000Y-85070000D01*
X110705000Y-86190000D02*
X106465000Y-86190000D01*
X106465000Y-83950000D02*
X110705000Y-83950000D01*
G36*
X108839000Y-85070000D02*
G01*
X107823000Y-85578000D01*
X107823000Y-84562000D01*
X108839000Y-85070000D01*
G37*
D10*
X108839000Y-85070000D02*
X107823000Y-85578000D01*
X107823000Y-84562000D01*
X108839000Y-85070000D01*
G36*
X110109000Y-86213000D02*
G01*
X109601000Y-86213000D01*
X109601000Y-83927000D01*
X110109000Y-83927000D01*
X110109000Y-86213000D01*
G37*
D15*
X110109000Y-86213000D02*
X109601000Y-86213000D01*
X109601000Y-83927000D01*
X110109000Y-83927000D01*
X110109000Y-86213000D01*
D14*
%TO.C,TVS3*%
X181670600Y-62017150D02*
X181670600Y-60017150D01*
X181670600Y-62017150D02*
X185520600Y-62017150D01*
X181670600Y-60017150D02*
X185520600Y-60017150D01*
%TO.C,Y1*%
X188760798Y-136335829D02*
X184942421Y-132517452D01*
X191942779Y-133153848D02*
X188760798Y-136335829D01*
%TO.C,D28*%
X216621014Y-169179586D02*
X217080634Y-168719966D01*
X217872593Y-169511926D02*
X216288674Y-167928007D01*
X220538386Y-165262214D02*
X220078766Y-165721834D01*
X216288674Y-167928007D02*
X219286807Y-164929874D01*
X220870726Y-166513793D02*
X217872593Y-169511926D01*
X219286807Y-164929874D02*
X220870726Y-166513793D01*
G36*
X220465554Y-166951492D02*
G01*
X220106344Y-167310703D01*
X218489897Y-165694256D01*
X218849108Y-165335046D01*
X220465554Y-166951492D01*
G37*
D15*
X220465554Y-166951492D02*
X220106344Y-167310703D01*
X218489897Y-165694256D01*
X218849108Y-165335046D01*
X220465554Y-166951492D01*
G36*
X218400095Y-168118926D02*
G01*
X217681674Y-167400505D01*
X218759305Y-167041295D01*
X218400095Y-168118926D01*
G37*
D10*
X218400095Y-168118926D02*
X217681674Y-167400505D01*
X218759305Y-167041295D01*
X218400095Y-168118926D01*
%TD*%
M02*
