M48
; DRILL file {KiCad (6.0.7)} date Tue 06 Sep 2022 03:04:48 PM +03
; FORMAT={-:-/ absolute / inch / decimal}
; #@! TF.CreationDate,2022-09-06T15:04:48+03:00
; #@! TF.GenerationSoftware,Kicad,Pcbnew,(6.0.7)
; #@! TF.FileFunction,Plated,1,2,PTH
FMAT,2
INCH
; #@! TA.AperFunction,Plated,PTH,ViaDrill
T1C0.0118
; #@! TA.AperFunction,Plated,PTH,ViaDrill
T2C0.0157
; #@! TA.AperFunction,Plated,PTH,ComponentDrill
T3C0.0157
; #@! TA.AperFunction,Plated,PTH,ViaDrill
T4C0.0197
; #@! TA.AperFunction,Plated,PTH,ComponentDrill
T5C0.0236
; #@! TA.AperFunction,Plated,PTH,ComponentDrill
T6C0.0300
; #@! TA.AperFunction,Plated,PTH,ComponentDrill
T7C0.0315
; #@! TA.AperFunction,Plated,PTH,ComponentDrill
T8C0.0866
%
G90
G05
T1
X4.0432Y-5.0175
X4.0598Y-2.775
X4.314Y-5.3738
X4.3327Y-2.7578
X4.3575Y-3.5242
X4.3792Y-5.022
X4.3913Y-4.272
X4.629Y-2.5642
X4.7325Y-4.0057
X4.7355Y-5.0617
X4.755Y-2.877
X4.7558Y-4.3133
X4.8636Y-3.2409
X5.0077Y-4.7858
X5.0145Y-4.0035
X5.0505Y-3.4882
X5.0715Y-5.0272
X5.1735Y-4.269
X5.1892Y-2.7795
X5.2095Y-3.2422
X5.2793Y-2.472
X5.3842Y-2.6932
X5.4143Y-4.9695
X5.4398Y-4.2038
X5.478Y-4.5622
X5.49Y-3.8453
X5.5162Y-3.1012
X5.9265Y-4.551
X5.9318Y-3.3893
X5.937Y-3.0547
X5.9415Y-2.9257
X5.9595Y-3.8962
X5.976Y-4.2067
X5.9917Y-2.3782
X5.9925Y-5.1277
X5.997Y-5.0295
X6.0195Y-5.3505
X6.02Y-5.391
X6.0202Y-5.4547
X6.0376Y-4.4497
X6.0483Y-5.0847
X6.0614Y-3.6787
X6.093Y-2.8927
X6.1658Y-5.2177
X6.1658Y-5.3085
X6.198Y-4.515
X6.207Y-2.9415
X6.21Y-4.1625
X6.2413Y-5.2167
X6.258Y-3.7643
X6.2639Y-5.1846
X6.2685Y-4.9043
X6.2831Y-5.1502
X6.2925Y-5.112
X6.2932Y-5.0175
X6.3037Y-5.4315
X6.5198Y-5.4037
X6.5302Y-5.7142
X6.5347Y-5.5162
X6.537Y-5.3693
X6.543Y-5.2417
X6.5542Y-5.5815
X6.5648Y-2.3032
X6.5661Y-5.2203
X6.5864Y-5.5818
X6.5902Y-5.892
X6.5912Y-5.2013
X6.6168Y-5.183
X6.63Y-3.033
X6.6795Y-3.177
X6.684Y-3.3157
X6.6913Y-4.6862
X6.6937Y-4.8098
X6.7078Y-3.9253
X6.7098Y-4.0899
X6.7237Y-5.4592
X6.7328Y-2.4817
X6.8475Y-5.8133
X6.8565Y-2.5372
X6.8602Y-6.0255
X6.8662Y-3.9255
X6.8662Y-4.0875
X6.8675Y-2.358
X6.8679Y-5.6127
X6.8693Y-3.315
X6.8738Y-3.1785
X6.8745Y-4.6777
X6.8745Y-4.8128
X6.8902Y-2.3348
X6.9Y-2.6647
X6.9082Y-3.0255
X6.9129Y-2.3573
X6.936Y-2.3348
X6.984Y-2.5823
X6.9952Y-2.6633
X7.0165Y-5.846
X7.0814Y-5.9887
X7.0974Y-5.5044
X7.1087Y-5.443
X7.11Y-2.4427
X7.1204Y-5.703
X7.1478Y-5.3445
X7.1572Y-4.7955
X7.1572Y-6.1815
X7.1658Y-5.4236
X7.1674Y-5.8442
X7.1887Y-5.2553
X7.1906Y-5.924
X7.2052Y-5.526
X7.2269Y-5.3901
X7.2307Y-5.598
X7.2458Y-5.1892
X7.2525Y-5.3685
X7.2683Y-5.4668
X7.2772Y-5.6392
X7.2817Y-5.5425
X7.2855Y-3.3337
X7.2856Y-3.1754
X7.29Y-4.08
X7.2915Y-3.0412
X7.3237Y-4.8697
X7.3305Y-5.5897
X7.3326Y-5.9554
X7.3687Y-4.6972
X7.3777Y-5.7833
X7.3927Y-2.583
X7.3935Y-2.667
X7.407Y-5.0482
X7.4257Y-5.7877
X7.4662Y-5.8215
X7.4707Y-4.482
X7.486Y-5.5744
X7.5097Y-6.1815
X7.5105Y-6.252
X7.524Y-6.0713
X7.5577Y-3.3862
X7.5607Y-2.9737
X7.566Y-4.2585
X7.5728Y-3.816
X7.5765Y-4.167
X7.5787Y-5.4525
X7.5832Y-5.8957
X7.5862Y-5.3332
X7.653Y-5.7255
X7.6552Y-5.043
X7.656Y-2.769
X7.6597Y-4.8758
X7.6875Y-2.6482
X7.7062Y-5.5665
X7.7062Y-5.8305
X7.7092Y-5.7968
X7.71Y-2.8388
X7.7312Y-3.969
X7.7355Y-4.1167
X7.7707Y-4.731
X7.7843Y-3.2572
X7.7873Y-3.1485
X7.7895Y-6.1807
X7.8154Y-5.892
X7.8495Y-3.3765
X7.8502Y-5.5005
X7.9095Y-2.751
X7.9342Y-5.7705
X7.938Y-4.8833
X7.9402Y-3.375
X7.9447Y-4.4295
X7.9688Y-5.3857
X8.0032Y-4.9657
X8.007Y-4.6567
X8.0145Y-3.1567
X8.0152Y-3.255
X8.0318Y-6.4597
X8.0355Y-3.0517
X8.0497Y-4.1565
X8.0602Y-4.5488
X8.067Y-5.6025
X8.0723Y-4.7655
X8.1218Y-4.6117
X8.127Y-5.883
X8.1345Y-5.5072
X8.1728Y-5.7825
X8.196Y-5.0085
X8.1982Y-6.117
X8.244Y-4.6013
X8.2515Y-3.3217
X8.2515Y-5.4007
X8.2658Y-3.1898
X8.268Y-4.0492
X8.3377Y-4.755
X8.338Y-3.2163
X8.34Y-4.0432
X8.3482Y-5.5629
X8.3632Y-5.8065
X8.3677Y-6.654
X8.3805Y-5.8485
X8.3808Y-5.5626
X8.3809Y-5.5945
X8.4115Y-6.0059
X8.4131Y-5.595
X8.4384Y-6.0224
X8.4412Y-6.1886
X8.5005Y-5.8252
X8.646Y-6.3549
X8.7405Y-6.2077
X8.8087Y-6.9585
X8.8193Y-6.5317
X8.9224Y-7.1613
X9.0737Y-6.8362
X9.1747Y-6.6487
X9.2602Y-6.8535
T2
X7.131Y-5.1128
X7.242Y-4.881
T3
X4.585Y-3.3
X4.585Y-4.8
X4.6041Y-3.2541
X4.6041Y-3.3459
X4.6041Y-4.7541
X4.6041Y-4.8459
X4.65Y-3.235
X4.65Y-3.365
X4.65Y-4.735
X4.65Y-4.865
X4.6959Y-3.2541
X4.6959Y-3.3459
X4.6959Y-4.7541
X4.6959Y-4.8459
X4.715Y-3.3
X4.715Y-4.8
X7.585Y-3.1594
X7.585Y-4.6594
X7.6041Y-3.1134
X7.6041Y-3.2053
X7.6041Y-4.6134
X7.6041Y-4.7053
X7.65Y-3.0944
X7.65Y-3.2243
X7.65Y-4.5944
X7.65Y-4.7243
X7.6959Y-3.1134
X7.6959Y-3.2053
X7.6959Y-4.6134
X7.6959Y-4.7053
X7.715Y-3.1594
X7.715Y-4.6594
X7.8888Y-5.8883
X7.9078Y-5.8423
X7.9078Y-5.9342
X7.9537Y-5.8233
X7.9537Y-5.9532
X7.9997Y-5.8423
X7.9997Y-5.9342
X8.0187Y-5.8883
T4
X6.8033Y-2.5035
X6.8107Y-2.574
X6.8917Y-5.4345
X6.9975Y-2.5035
X7.0154Y-5.3235
X7.1565Y-5.2103
X7.6359Y-4.4406
X7.6883Y-2.538
X8.1045Y-5.6152
X8.19Y-5.6295
X8.3048Y-5.304
X8.3265Y-5.7668
X8.334Y-5.8545
T6
X6.254Y-5.3107
X6.254Y-5.4108
X6.354Y-5.3157
X6.354Y-5.4158
X6.454Y-5.3107
X6.454Y-5.4108
T7
X4.125Y-2.5992
X4.125Y-3.3492
X4.125Y-4.0992
X4.125Y-4.8492
X4.425Y-2.5992
X4.425Y-3.3492
X4.425Y-4.0992
X4.425Y-4.8492
X4.875Y-2.5992
X4.875Y-3.3492
X4.875Y-4.0992
X4.875Y-4.8492
X5.175Y-2.5992
X5.175Y-3.3492
X5.175Y-4.0992
X5.175Y-4.8492
X5.4492Y-2.5875
X5.4492Y-2.8875
X5.4492Y-3.3375
X5.4492Y-3.6375
X5.4492Y-4.0875
X5.4492Y-4.3875
X5.4492Y-4.8375
X5.4492Y-5.1375
X6.1992Y-2.4937
X6.1992Y-2.7937
X6.1992Y-3.2437
X6.1992Y-3.5437
X6.1992Y-3.9937
X6.1992Y-4.2937
X6.1992Y-4.7437
X6.1992Y-5.0437
X6.4687Y-5.5027
X6.7687Y-5.5027
X7.125Y-3.0633
X7.125Y-3.1617
X7.125Y-3.9117
X7.125Y-4.6617
X7.425Y-3.0633
X7.425Y-3.1617
X7.425Y-3.9117
X7.425Y-4.6617
X7.764Y-6.2919
X7.86Y-6.3219
X7.875Y-3.157
X7.875Y-3.2555
X7.875Y-4.0055
X7.875Y-4.7555
X7.914Y-6.0321
X8.01Y-6.0621
X8.175Y-3.157
X8.175Y-3.2555
X8.175Y-4.0055
X8.175Y-4.7555
X8.4994Y-6.6896
X8.7116Y-6.4774
T8
X4.65Y-3.3
X4.65Y-4.8
X7.65Y-3.1594
X7.65Y-4.6594
X7.9537Y-5.8883
T5
G00X6.7299Y-2.1989
M15
G01X6.7299Y-2.2225
M16
G05
G00X6.7299Y-2.3536
M15
G01X6.7299Y-2.3969
M16
G05
G00X7.0701Y-2.1989
M15
G01X7.0701Y-2.2225
M16
G05
G00X7.0701Y-2.3536
M15
G01X7.0701Y-2.3969
M16
G05
G00X8.251Y-5.466
M15
G01X8.2203Y-5.4967
M16
G05
G00X8.3604Y-5.3566
M15
G01X8.3437Y-5.3733
M16
G05
G00X8.4915Y-5.7066
M15
G01X8.4609Y-5.7372
M16
G05
G00X8.6009Y-5.5972
M15
G01X8.5842Y-5.6139
M16
G05
T0
M30
