%TF.GenerationSoftware,KiCad,Pcbnew,(6.0.7)*%
%TF.CreationDate,2022-09-06T15:05:26+03:00*%
%TF.ProjectId,retina-right,72657469-6e61-42d7-9269-6768742e6b69,1.0*%
%TF.SameCoordinates,Original*%
%TF.FileFunction,Legend,Bot*%
%TF.FilePolarity,Positive*%
%FSLAX46Y46*%
G04 Gerber Fmt 4.6, Leading zero omitted, Abs format (unit mm)*
G04 Created by KiCad (PCBNEW (6.0.7)) date 2022-09-06 15:05:26*
%MOMM*%
%LPD*%
G01*
G04 APERTURE LIST*
%ADD10C,0.150000*%
%ADD11C,0.250000*%
%ADD12C,0.152400*%
%ADD13C,0.120000*%
%ADD14C,0.100000*%
%ADD15C,0.050800*%
G04 APERTURE END LIST*
D10*
%TO.C,Q1*%
X148132788Y-62002919D02*
X148228026Y-61955300D01*
X148323264Y-61860061D01*
X148466121Y-61717204D01*
X148561359Y-61669585D01*
X148656597Y-61669585D01*
X148608978Y-61907680D02*
X148704216Y-61860061D01*
X148799454Y-61764823D01*
X148847073Y-61574347D01*
X148847073Y-61241014D01*
X148799454Y-61050538D01*
X148704216Y-60955300D01*
X148608978Y-60907680D01*
X148418502Y-60907680D01*
X148323264Y-60955300D01*
X148228026Y-61050538D01*
X148180407Y-61241014D01*
X148180407Y-61574347D01*
X148228026Y-61764823D01*
X148323264Y-61860061D01*
X148418502Y-61907680D01*
X148608978Y-61907680D01*
X147228026Y-61907680D02*
X147799454Y-61907680D01*
X147513740Y-61907680D02*
X147513740Y-60907680D01*
X147608978Y-61050538D01*
X147704216Y-61145776D01*
X147799454Y-61193395D01*
%TO.C,J1*%
X180415021Y-136040778D02*
X180415021Y-135440778D01*
X180215021Y-135869350D01*
X180015021Y-135440778D01*
X180015021Y-136040778D01*
X179729307Y-136040778D02*
X179729307Y-135440778D01*
X179472164Y-136012207D02*
X179386450Y-136040778D01*
X179243592Y-136040778D01*
X179186450Y-136012207D01*
X179157878Y-135983635D01*
X179129307Y-135926492D01*
X179129307Y-135869350D01*
X179157878Y-135812207D01*
X179186450Y-135783635D01*
X179243592Y-135755064D01*
X179357878Y-135726492D01*
X179415021Y-135697921D01*
X179443592Y-135669350D01*
X179472164Y-135612207D01*
X179472164Y-135555064D01*
X179443592Y-135497921D01*
X179415021Y-135469350D01*
X179357878Y-135440778D01*
X179215021Y-135440778D01*
X179129307Y-135469350D01*
X178757878Y-135440778D02*
X178643592Y-135440778D01*
X178586450Y-135469350D01*
X178529307Y-135526492D01*
X178500735Y-135640778D01*
X178500735Y-135840778D01*
X178529307Y-135955064D01*
X178586450Y-136012207D01*
X178643592Y-136040778D01*
X178757878Y-136040778D01*
X178815021Y-136012207D01*
X178872164Y-135955064D01*
X178900735Y-135840778D01*
X178900735Y-135640778D01*
X178872164Y-135526492D01*
X178815021Y-135469350D01*
X178757878Y-135440778D01*
X177871892Y-136126507D02*
X177786178Y-136155078D01*
X177643321Y-136155078D01*
X177586178Y-136126507D01*
X177557607Y-136097935D01*
X177529035Y-136040792D01*
X177529035Y-135983650D01*
X177557607Y-135926507D01*
X177586178Y-135897935D01*
X177643321Y-135869364D01*
X177757607Y-135840792D01*
X177814750Y-135812221D01*
X177843321Y-135783650D01*
X177871892Y-135726507D01*
X177871892Y-135669364D01*
X177843321Y-135612221D01*
X177814750Y-135583650D01*
X177757607Y-135555078D01*
X177614750Y-135555078D01*
X177529035Y-135583650D01*
X176929035Y-136097935D02*
X176957607Y-136126507D01*
X177043321Y-136155078D01*
X177100464Y-136155078D01*
X177186178Y-136126507D01*
X177243321Y-136069364D01*
X177271892Y-136012221D01*
X177300464Y-135897935D01*
X177300464Y-135812221D01*
X177271892Y-135697935D01*
X177243321Y-135640792D01*
X177186178Y-135583650D01*
X177100464Y-135555078D01*
X177043321Y-135555078D01*
X176957607Y-135583650D01*
X176929035Y-135612221D01*
X176671892Y-136155078D02*
X176671892Y-135555078D01*
X176329035Y-136155078D02*
X176586178Y-135812221D01*
X176329035Y-135555078D02*
X176671892Y-135897935D01*
X174895857Y-132383250D02*
X174953000Y-132354678D01*
X175038714Y-132354678D01*
X175124428Y-132383250D01*
X175181571Y-132440392D01*
X175210142Y-132497535D01*
X175238714Y-132611821D01*
X175238714Y-132697535D01*
X175210142Y-132811821D01*
X175181571Y-132868964D01*
X175124428Y-132926107D01*
X175038714Y-132954678D01*
X174981571Y-132954678D01*
X174895857Y-132926107D01*
X174867285Y-132897535D01*
X174867285Y-132697535D01*
X174981571Y-132697535D01*
X174610142Y-132954678D02*
X174610142Y-132354678D01*
X174267285Y-132954678D01*
X174267285Y-132354678D01*
X173981571Y-132954678D02*
X173981571Y-132354678D01*
X173838714Y-132354678D01*
X173753000Y-132383250D01*
X173695857Y-132440392D01*
X173667285Y-132497535D01*
X173638714Y-132611821D01*
X173638714Y-132697535D01*
X173667285Y-132811821D01*
X173695857Y-132868964D01*
X173753000Y-132926107D01*
X173838714Y-132954678D01*
X173981571Y-132954678D01*
X175366821Y-135328500D02*
X174766821Y-135328500D01*
X174881107Y-136097928D02*
X175081107Y-135812214D01*
X175223964Y-136097928D02*
X175223964Y-135497928D01*
X174995392Y-135497928D01*
X174938250Y-135526500D01*
X174909678Y-135555071D01*
X174881107Y-135612214D01*
X174881107Y-135697928D01*
X174909678Y-135755071D01*
X174938250Y-135783642D01*
X174995392Y-135812214D01*
X175223964Y-135812214D01*
X174766821Y-135328500D02*
X174195392Y-135328500D01*
X174652535Y-136069357D02*
X174566821Y-136097928D01*
X174423964Y-136097928D01*
X174366821Y-136069357D01*
X174338250Y-136040785D01*
X174309678Y-135983642D01*
X174309678Y-135926500D01*
X174338250Y-135869357D01*
X174366821Y-135840785D01*
X174423964Y-135812214D01*
X174538250Y-135783642D01*
X174595392Y-135755071D01*
X174623964Y-135726500D01*
X174652535Y-135669357D01*
X174652535Y-135612214D01*
X174623964Y-135555071D01*
X174595392Y-135526500D01*
X174538250Y-135497928D01*
X174395392Y-135497928D01*
X174309678Y-135526500D01*
X174195392Y-135328500D02*
X173738250Y-135328500D01*
X174138250Y-135497928D02*
X173795392Y-135497928D01*
X173966821Y-136097928D02*
X173966821Y-135497928D01*
X180363157Y-132354678D02*
X180163157Y-132954678D01*
X179963157Y-132354678D01*
X179420300Y-132897535D02*
X179448871Y-132926107D01*
X179534585Y-132954678D01*
X179591728Y-132954678D01*
X179677442Y-132926107D01*
X179734585Y-132868964D01*
X179763157Y-132811821D01*
X179791728Y-132697535D01*
X179791728Y-132611821D01*
X179763157Y-132497535D01*
X179734585Y-132440392D01*
X179677442Y-132383250D01*
X179591728Y-132354678D01*
X179534585Y-132354678D01*
X179448871Y-132383250D01*
X179420300Y-132411821D01*
X178820300Y-132897535D02*
X178848871Y-132926107D01*
X178934585Y-132954678D01*
X178991728Y-132954678D01*
X179077442Y-132926107D01*
X179134585Y-132868964D01*
X179163157Y-132811821D01*
X179191728Y-132697535D01*
X179191728Y-132611821D01*
X179163157Y-132497535D01*
X179134585Y-132440392D01*
X179077442Y-132383250D01*
X178991728Y-132354678D01*
X178934585Y-132354678D01*
X178848871Y-132383250D01*
X178820300Y-132411821D01*
D11*
X172645366Y-133616997D02*
X172645366Y-134093188D01*
X172931080Y-133521759D02*
X171931080Y-133855092D01*
X172931080Y-134188426D01*
X171931080Y-134378902D02*
X172931080Y-134712235D01*
X171931080Y-135045569D01*
X172931080Y-135950330D02*
X172454890Y-135616997D01*
X172931080Y-135378902D02*
X171931080Y-135378902D01*
X171931080Y-135759854D01*
X171978700Y-135855092D01*
X172026319Y-135902711D01*
X172121557Y-135950330D01*
X172264414Y-135950330D01*
X172359652Y-135902711D01*
X172407271Y-135855092D01*
X172454890Y-135759854D01*
X172454890Y-135378902D01*
X172931080Y-136378902D02*
X171931080Y-136378902D01*
X172883461Y-136807473D02*
X172931080Y-136950330D01*
X172931080Y-137188426D01*
X172883461Y-137283664D01*
X172835842Y-137331283D01*
X172740604Y-137378902D01*
X172645366Y-137378902D01*
X172550128Y-137331283D01*
X172502509Y-137283664D01*
X172454890Y-137188426D01*
X172407271Y-136997950D01*
X172359652Y-136902711D01*
X172312033Y-136855092D01*
X172216795Y-136807473D01*
X172121557Y-136807473D01*
X172026319Y-136855092D01*
X171978700Y-136902711D01*
X171931080Y-136997950D01*
X171931080Y-137236045D01*
X171978700Y-137378902D01*
X172931080Y-137807473D02*
X171931080Y-137807473D01*
X171931080Y-138188426D01*
X171978700Y-138283664D01*
X172026319Y-138331283D01*
X172121557Y-138378902D01*
X172264414Y-138378902D01*
X172359652Y-138331283D01*
X172407271Y-138283664D01*
X172454890Y-138188426D01*
X172454890Y-137807473D01*
D10*
X177877142Y-132973728D02*
X177877142Y-132373728D01*
X177677142Y-132802300D01*
X177477142Y-132373728D01*
X177477142Y-132973728D01*
X177077142Y-132373728D02*
X176962857Y-132373728D01*
X176905714Y-132402300D01*
X176848571Y-132459442D01*
X176820000Y-132573728D01*
X176820000Y-132773728D01*
X176848571Y-132888014D01*
X176905714Y-132945157D01*
X176962857Y-132973728D01*
X177077142Y-132973728D01*
X177134285Y-132945157D01*
X177191428Y-132888014D01*
X177220000Y-132773728D01*
X177220000Y-132573728D01*
X177191428Y-132459442D01*
X177134285Y-132402300D01*
X177077142Y-132373728D01*
X176591428Y-132945157D02*
X176505714Y-132973728D01*
X176362857Y-132973728D01*
X176305714Y-132945157D01*
X176277142Y-132916585D01*
X176248571Y-132859442D01*
X176248571Y-132802300D01*
X176277142Y-132745157D01*
X176305714Y-132716585D01*
X176362857Y-132688014D01*
X176477142Y-132659442D01*
X176534285Y-132630871D01*
X176562857Y-132602300D01*
X176591428Y-132545157D01*
X176591428Y-132488014D01*
X176562857Y-132430871D01*
X176534285Y-132402300D01*
X176477142Y-132373728D01*
X176334285Y-132373728D01*
X176248571Y-132402300D01*
X175991428Y-132973728D02*
X175991428Y-132373728D01*
%TO.C,R5*%
X159596116Y-67051180D02*
X159929450Y-66574990D01*
X160167545Y-67051180D02*
X160167545Y-66051180D01*
X159786592Y-66051180D01*
X159691354Y-66098800D01*
X159643735Y-66146419D01*
X159596116Y-66241657D01*
X159596116Y-66384514D01*
X159643735Y-66479752D01*
X159691354Y-66527371D01*
X159786592Y-66574990D01*
X160167545Y-66574990D01*
X158691354Y-66051180D02*
X159167545Y-66051180D01*
X159215164Y-66527371D01*
X159167545Y-66479752D01*
X159072307Y-66432133D01*
X158834211Y-66432133D01*
X158738973Y-66479752D01*
X158691354Y-66527371D01*
X158643735Y-66622609D01*
X158643735Y-66860704D01*
X158691354Y-66955942D01*
X158738973Y-67003561D01*
X158834211Y-67051180D01*
X159072307Y-67051180D01*
X159167545Y-67003561D01*
X159215164Y-66955942D01*
%TO.C,L3*%
X134854532Y-137971630D02*
X135191250Y-137634912D01*
X134484143Y-136927806D01*
X133979067Y-137432882D02*
X133541334Y-137870615D01*
X134046410Y-137904287D01*
X133945395Y-138005302D01*
X133911723Y-138106317D01*
X133911723Y-138173661D01*
X133945395Y-138274676D01*
X134113754Y-138443035D01*
X134214769Y-138476706D01*
X134282112Y-138476706D01*
X134383128Y-138443035D01*
X134585158Y-138241004D01*
X134618830Y-138139989D01*
X134618830Y-138072645D01*
%TO.C,C4*%
X164676639Y-132055937D02*
X164743982Y-132055937D01*
X164878669Y-131988593D01*
X164946013Y-131921250D01*
X165013356Y-131786562D01*
X165013356Y-131651875D01*
X164979685Y-131550860D01*
X164878669Y-131382501D01*
X164777654Y-131281486D01*
X164609295Y-131180471D01*
X164508280Y-131146799D01*
X164373593Y-131146799D01*
X164238906Y-131214143D01*
X164171562Y-131281486D01*
X164104219Y-131416173D01*
X164104219Y-131483517D01*
X163666486Y-132257967D02*
X164137891Y-132729372D01*
X163565471Y-131820234D02*
X164238906Y-132156952D01*
X163801173Y-132594685D01*
%TO.C,H5*%
X136970879Y-145723183D02*
X136263772Y-145016076D01*
X136600490Y-145352794D02*
X136196429Y-145756855D01*
X136566818Y-146127244D02*
X135859711Y-145420137D01*
X135186276Y-146093572D02*
X135522994Y-145756855D01*
X135893383Y-146059901D01*
X135826040Y-146059901D01*
X135725024Y-146093572D01*
X135556666Y-146261931D01*
X135522994Y-146362946D01*
X135522994Y-146430290D01*
X135556666Y-146531305D01*
X135725024Y-146699664D01*
X135826040Y-146733336D01*
X135893383Y-146733336D01*
X135994398Y-146699664D01*
X136162757Y-146531305D01*
X136196429Y-146430290D01*
X136196429Y-146362946D01*
D12*
%TO.C,D16*%
X183309985Y-105595964D02*
X183309985Y-104833964D01*
X183128557Y-104833964D01*
X183019700Y-104870250D01*
X182947128Y-104942821D01*
X182910842Y-105015392D01*
X182874557Y-105160535D01*
X182874557Y-105269392D01*
X182910842Y-105414535D01*
X182947128Y-105487107D01*
X183019700Y-105559678D01*
X183128557Y-105595964D01*
X183309985Y-105595964D01*
X182148842Y-105595964D02*
X182584271Y-105595964D01*
X182366557Y-105595964D02*
X182366557Y-104833964D01*
X182439128Y-104942821D01*
X182511700Y-105015392D01*
X182584271Y-105051678D01*
X181495700Y-104833964D02*
X181640842Y-104833964D01*
X181713414Y-104870250D01*
X181749700Y-104906535D01*
X181822271Y-105015392D01*
X181858557Y-105160535D01*
X181858557Y-105450821D01*
X181822271Y-105523392D01*
X181785985Y-105559678D01*
X181713414Y-105595964D01*
X181568271Y-105595964D01*
X181495700Y-105559678D01*
X181459414Y-105523392D01*
X181423128Y-105450821D01*
X181423128Y-105269392D01*
X181459414Y-105196821D01*
X181495700Y-105160535D01*
X181568271Y-105124250D01*
X181713414Y-105124250D01*
X181785985Y-105160535D01*
X181822271Y-105196821D01*
X181858557Y-105269392D01*
D10*
%TO.C,TVS1*%
X163705966Y-67841880D02*
X163134538Y-67841880D01*
X163420252Y-68841880D02*
X163420252Y-67841880D01*
X162944061Y-67841880D02*
X162610728Y-68841880D01*
X162277395Y-67841880D01*
X161991680Y-68794261D02*
X161848823Y-68841880D01*
X161610728Y-68841880D01*
X161515490Y-68794261D01*
X161467871Y-68746642D01*
X161420252Y-68651404D01*
X161420252Y-68556166D01*
X161467871Y-68460928D01*
X161515490Y-68413309D01*
X161610728Y-68365690D01*
X161801204Y-68318071D01*
X161896442Y-68270452D01*
X161944061Y-68222833D01*
X161991680Y-68127595D01*
X161991680Y-68032357D01*
X161944061Y-67937119D01*
X161896442Y-67889500D01*
X161801204Y-67841880D01*
X161563109Y-67841880D01*
X161420252Y-67889500D01*
X160467871Y-68841880D02*
X161039300Y-68841880D01*
X160753585Y-68841880D02*
X160753585Y-67841880D01*
X160848823Y-67984738D01*
X160944061Y-68079976D01*
X161039300Y-68127595D01*
D12*
%TO.C,D8*%
X210246114Y-125362564D02*
X210246114Y-124600564D01*
X210064686Y-124600564D01*
X209955828Y-124636850D01*
X209883257Y-124709421D01*
X209846971Y-124781992D01*
X209810686Y-124927135D01*
X209810686Y-125035992D01*
X209846971Y-125181135D01*
X209883257Y-125253707D01*
X209955828Y-125326278D01*
X210064686Y-125362564D01*
X210246114Y-125362564D01*
X209375257Y-124927135D02*
X209447828Y-124890850D01*
X209484114Y-124854564D01*
X209520400Y-124781992D01*
X209520400Y-124745707D01*
X209484114Y-124673135D01*
X209447828Y-124636850D01*
X209375257Y-124600564D01*
X209230114Y-124600564D01*
X209157543Y-124636850D01*
X209121257Y-124673135D01*
X209084971Y-124745707D01*
X209084971Y-124781992D01*
X209121257Y-124854564D01*
X209157543Y-124890850D01*
X209230114Y-124927135D01*
X209375257Y-124927135D01*
X209447828Y-124963421D01*
X209484114Y-124999707D01*
X209520400Y-125072278D01*
X209520400Y-125217421D01*
X209484114Y-125289992D01*
X209447828Y-125326278D01*
X209375257Y-125362564D01*
X209230114Y-125362564D01*
X209157543Y-125326278D01*
X209121257Y-125289992D01*
X209084971Y-125217421D01*
X209084971Y-125072278D01*
X209121257Y-124999707D01*
X209157543Y-124963421D01*
X209230114Y-124927135D01*
%TO.C,D17*%
X183424285Y-124645913D02*
X183424285Y-123883913D01*
X183242857Y-123883913D01*
X183134000Y-123920199D01*
X183061428Y-123992770D01*
X183025142Y-124065341D01*
X182988857Y-124210484D01*
X182988857Y-124319341D01*
X183025142Y-124464484D01*
X183061428Y-124537056D01*
X183134000Y-124609627D01*
X183242857Y-124645913D01*
X183424285Y-124645913D01*
X182263142Y-124645913D02*
X182698571Y-124645913D01*
X182480857Y-124645913D02*
X182480857Y-123883913D01*
X182553428Y-123992770D01*
X182626000Y-124065341D01*
X182698571Y-124101627D01*
X182009142Y-123883913D02*
X181501142Y-123883913D01*
X181827714Y-124645913D01*
D10*
%TO.C,R3*%
X167222982Y-133799680D02*
X167121967Y-133227260D01*
X167627043Y-133395619D02*
X166919937Y-132688512D01*
X166650562Y-132957886D01*
X166616891Y-133058901D01*
X166616891Y-133126245D01*
X166650562Y-133227260D01*
X166751578Y-133328275D01*
X166852593Y-133361947D01*
X166919937Y-133361947D01*
X167020952Y-133328275D01*
X167290326Y-133058901D01*
X166280173Y-133328275D02*
X165842440Y-133766008D01*
X166347517Y-133799680D01*
X166246501Y-133900695D01*
X166212830Y-134001711D01*
X166212830Y-134069054D01*
X166246501Y-134170069D01*
X166414860Y-134338428D01*
X166515875Y-134372100D01*
X166583219Y-134372100D01*
X166684234Y-134338428D01*
X166886265Y-134136398D01*
X166919937Y-134035382D01*
X166919937Y-133968039D01*
%TO.C,H3*%
X147294504Y-118810030D02*
X147294504Y-117810030D01*
X147294504Y-118286221D02*
X146723076Y-118286221D01*
X146723076Y-118810030D02*
X146723076Y-117810030D01*
X146342123Y-117810030D02*
X145723076Y-117810030D01*
X146056409Y-118190983D01*
X145913552Y-118190983D01*
X145818314Y-118238602D01*
X145770695Y-118286221D01*
X145723076Y-118381459D01*
X145723076Y-118619554D01*
X145770695Y-118714792D01*
X145818314Y-118762411D01*
X145913552Y-118810030D01*
X146199266Y-118810030D01*
X146294504Y-118762411D01*
X146342123Y-118714792D01*
D12*
%TO.C,D14*%
X183271885Y-67457864D02*
X183271885Y-66695864D01*
X183090457Y-66695864D01*
X182981600Y-66732150D01*
X182909028Y-66804721D01*
X182872742Y-66877292D01*
X182836457Y-67022435D01*
X182836457Y-67131292D01*
X182872742Y-67276435D01*
X182909028Y-67349007D01*
X182981600Y-67421578D01*
X183090457Y-67457864D01*
X183271885Y-67457864D01*
X182110742Y-67457864D02*
X182546171Y-67457864D01*
X182328457Y-67457864D02*
X182328457Y-66695864D01*
X182401028Y-66804721D01*
X182473600Y-66877292D01*
X182546171Y-66913578D01*
X181457600Y-66949864D02*
X181457600Y-67457864D01*
X181639028Y-66659578D02*
X181820457Y-67203864D01*
X181348742Y-67203864D01*
D10*
%TO.C,F1*%
X155476533Y-67594171D02*
X155809866Y-67594171D01*
X155809866Y-68117980D02*
X155809866Y-67117980D01*
X155333676Y-67117980D01*
X154428914Y-68117980D02*
X155000342Y-68117980D01*
X154714628Y-68117980D02*
X154714628Y-67117980D01*
X154809866Y-67260838D01*
X154905104Y-67356076D01*
X155000342Y-67403695D01*
%TO.C,C1*%
X152408439Y-129674687D02*
X152475782Y-129674687D01*
X152610469Y-129607343D01*
X152677813Y-129540000D01*
X152745156Y-129405312D01*
X152745156Y-129270625D01*
X152711485Y-129169610D01*
X152610469Y-129001251D01*
X152509454Y-128900236D01*
X152341095Y-128799221D01*
X152240080Y-128765549D01*
X152105393Y-128765549D01*
X151970706Y-128832893D01*
X151903362Y-128900236D01*
X151836019Y-129034923D01*
X151836019Y-129102267D01*
X151802347Y-130415465D02*
X152206408Y-130011404D01*
X152004378Y-130213435D02*
X151297271Y-129506328D01*
X151465630Y-129540000D01*
X151600317Y-129540000D01*
X151701332Y-129506328D01*
D12*
%TO.C,D5*%
X210265164Y-68307814D02*
X210265164Y-67545814D01*
X210083736Y-67545814D01*
X209974878Y-67582100D01*
X209902307Y-67654671D01*
X209866021Y-67727242D01*
X209829736Y-67872385D01*
X209829736Y-67981242D01*
X209866021Y-68126385D01*
X209902307Y-68198957D01*
X209974878Y-68271528D01*
X210083736Y-68307814D01*
X210265164Y-68307814D01*
X209140307Y-67545814D02*
X209503164Y-67545814D01*
X209539450Y-67908671D01*
X209503164Y-67872385D01*
X209430593Y-67836100D01*
X209249164Y-67836100D01*
X209176593Y-67872385D01*
X209140307Y-67908671D01*
X209104021Y-67981242D01*
X209104021Y-68162671D01*
X209140307Y-68235242D01*
X209176593Y-68271528D01*
X209249164Y-68307814D01*
X209430593Y-68307814D01*
X209503164Y-68271528D01*
X209539450Y-68235242D01*
%TO.C,D26*%
X134427731Y-103950313D02*
X134427731Y-103188313D01*
X134246303Y-103188313D01*
X134137446Y-103224599D01*
X134064874Y-103297170D01*
X134028588Y-103369741D01*
X133992303Y-103514884D01*
X133992303Y-103623741D01*
X134028588Y-103768884D01*
X134064874Y-103841456D01*
X134137446Y-103914027D01*
X134246303Y-103950313D01*
X134427731Y-103950313D01*
X133702017Y-103260884D02*
X133665731Y-103224599D01*
X133593160Y-103188313D01*
X133411731Y-103188313D01*
X133339160Y-103224599D01*
X133302874Y-103260884D01*
X133266588Y-103333456D01*
X133266588Y-103406027D01*
X133302874Y-103514884D01*
X133738303Y-103950313D01*
X133266588Y-103950313D01*
X132613446Y-103188313D02*
X132758588Y-103188313D01*
X132831160Y-103224599D01*
X132867446Y-103260884D01*
X132940017Y-103369741D01*
X132976303Y-103514884D01*
X132976303Y-103805170D01*
X132940017Y-103877741D01*
X132903731Y-103914027D01*
X132831160Y-103950313D01*
X132686017Y-103950313D01*
X132613446Y-103914027D01*
X132577160Y-103877741D01*
X132540874Y-103805170D01*
X132540874Y-103623741D01*
X132577160Y-103551170D01*
X132613446Y-103514884D01*
X132686017Y-103478599D01*
X132831160Y-103478599D01*
X132903731Y-103514884D01*
X132940017Y-103551170D01*
X132976303Y-103623741D01*
D10*
%TO.C,L1*%
X219756016Y-76099930D02*
X220232207Y-76099930D01*
X220232207Y-75099930D01*
X218898873Y-76099930D02*
X219470302Y-76099930D01*
X219184588Y-76099930D02*
X219184588Y-75099930D01*
X219279826Y-75242788D01*
X219375064Y-75338026D01*
X219470302Y-75385645D01*
D12*
%TO.C,D23*%
X141524578Y-157912788D02*
X141143578Y-157252877D01*
X140986456Y-157343591D01*
X140910326Y-157429444D01*
X140883763Y-157528578D01*
X140888624Y-157609570D01*
X140929771Y-157753410D01*
X140984200Y-157847683D01*
X141088195Y-157955238D01*
X141155906Y-157999943D01*
X141255040Y-158026506D01*
X141367456Y-158003502D01*
X141524578Y-157912788D01*
X140551376Y-157678582D02*
X140501809Y-157665301D01*
X140420818Y-157670162D01*
X140263696Y-157760877D01*
X140218990Y-157828587D01*
X140205708Y-157878154D01*
X140210570Y-157959145D01*
X140246856Y-158021994D01*
X140332708Y-158098124D01*
X140927515Y-158257502D01*
X140518998Y-158493359D01*
X139918028Y-157960448D02*
X139509511Y-158196305D01*
X139874625Y-158320700D01*
X139780352Y-158375129D01*
X139735646Y-158442839D01*
X139722364Y-158492406D01*
X139727226Y-158573397D01*
X139817940Y-158730519D01*
X139885650Y-158775225D01*
X139935217Y-158788506D01*
X140016209Y-158783645D01*
X140204755Y-158674788D01*
X140249461Y-158607078D01*
X140262742Y-158557511D01*
%TO.C,D6*%
X210321978Y-87365114D02*
X210321978Y-86603114D01*
X210140550Y-86603114D01*
X210031692Y-86639400D01*
X209959121Y-86711971D01*
X209922835Y-86784542D01*
X209886550Y-86929685D01*
X209886550Y-87038542D01*
X209922835Y-87183685D01*
X209959121Y-87256257D01*
X210031692Y-87328828D01*
X210140550Y-87365114D01*
X210321978Y-87365114D01*
X209233407Y-86603114D02*
X209378550Y-86603114D01*
X209451121Y-86639400D01*
X209487407Y-86675685D01*
X209559978Y-86784542D01*
X209596264Y-86929685D01*
X209596264Y-87219971D01*
X209559978Y-87292542D01*
X209523692Y-87328828D01*
X209451121Y-87365114D01*
X209305978Y-87365114D01*
X209233407Y-87328828D01*
X209197121Y-87292542D01*
X209160835Y-87219971D01*
X209160835Y-87038542D01*
X209197121Y-86965971D01*
X209233407Y-86929685D01*
X209305978Y-86893400D01*
X209451121Y-86893400D01*
X209523692Y-86929685D01*
X209559978Y-86965971D01*
X209596264Y-87038542D01*
D10*
%TO.C,C10*%
X144934656Y-127223419D02*
X145002000Y-127223419D01*
X145136687Y-127156075D01*
X145204030Y-127088732D01*
X145271374Y-126954045D01*
X145271374Y-126819358D01*
X145237702Y-126718343D01*
X145136687Y-126549984D01*
X145035672Y-126448969D01*
X144867313Y-126347953D01*
X144766298Y-126314282D01*
X144631611Y-126314282D01*
X144496924Y-126381625D01*
X144429580Y-126448969D01*
X144362237Y-126583656D01*
X144362237Y-126650999D01*
X144328565Y-127964198D02*
X144732626Y-127560137D01*
X144530595Y-127762167D02*
X143823488Y-127055060D01*
X143991847Y-127088732D01*
X144126534Y-127088732D01*
X144227550Y-127055060D01*
X143183725Y-127694824D02*
X143116382Y-127762167D01*
X143082710Y-127863182D01*
X143082710Y-127930526D01*
X143116382Y-128031541D01*
X143217397Y-128199900D01*
X143385756Y-128368259D01*
X143554114Y-128469274D01*
X143655130Y-128502946D01*
X143722473Y-128502946D01*
X143823488Y-128469274D01*
X143890832Y-128401930D01*
X143924504Y-128300915D01*
X143924504Y-128233572D01*
X143890832Y-128132556D01*
X143789817Y-127964198D01*
X143621458Y-127795839D01*
X143453099Y-127694824D01*
X143352084Y-127661152D01*
X143284740Y-127661152D01*
X143183725Y-127694824D01*
%TO.C,C3*%
X169743939Y-138647237D02*
X169811282Y-138647237D01*
X169945969Y-138579893D01*
X170013313Y-138512550D01*
X170080656Y-138377862D01*
X170080656Y-138243175D01*
X170046985Y-138142160D01*
X169945969Y-137973801D01*
X169844954Y-137872786D01*
X169676595Y-137771771D01*
X169575580Y-137738099D01*
X169440893Y-137738099D01*
X169306206Y-137805443D01*
X169238862Y-137872786D01*
X169171519Y-138007473D01*
X169171519Y-138074817D01*
X168868473Y-138243175D02*
X168430740Y-138680908D01*
X168935817Y-138714580D01*
X168834801Y-138815595D01*
X168801130Y-138916611D01*
X168801130Y-138983954D01*
X168834801Y-139084969D01*
X169003160Y-139253328D01*
X169104175Y-139287000D01*
X169171519Y-139287000D01*
X169272534Y-139253328D01*
X169474565Y-139051298D01*
X169508237Y-138950282D01*
X169508237Y-138882939D01*
D12*
%TO.C,D15*%
X183424285Y-86565014D02*
X183424285Y-85803014D01*
X183242857Y-85803014D01*
X183134000Y-85839300D01*
X183061428Y-85911871D01*
X183025142Y-85984442D01*
X182988857Y-86129585D01*
X182988857Y-86238442D01*
X183025142Y-86383585D01*
X183061428Y-86456157D01*
X183134000Y-86528728D01*
X183242857Y-86565014D01*
X183424285Y-86565014D01*
X182263142Y-86565014D02*
X182698571Y-86565014D01*
X182480857Y-86565014D02*
X182480857Y-85803014D01*
X182553428Y-85911871D01*
X182626000Y-85984442D01*
X182698571Y-86020728D01*
X181573714Y-85803014D02*
X181936571Y-85803014D01*
X181972857Y-86165871D01*
X181936571Y-86129585D01*
X181864000Y-86093300D01*
X181682571Y-86093300D01*
X181610000Y-86129585D01*
X181573714Y-86165871D01*
X181537428Y-86238442D01*
X181537428Y-86419871D01*
X181573714Y-86492442D01*
X181610000Y-86528728D01*
X181682571Y-86565014D01*
X181864000Y-86565014D01*
X181936571Y-86528728D01*
X181972857Y-86492442D01*
%TO.C,D3*%
X229334214Y-106331614D02*
X229334214Y-105569614D01*
X229152786Y-105569614D01*
X229043928Y-105605900D01*
X228971357Y-105678471D01*
X228935071Y-105751042D01*
X228898786Y-105896185D01*
X228898786Y-106005042D01*
X228935071Y-106150185D01*
X228971357Y-106222757D01*
X229043928Y-106295328D01*
X229152786Y-106331614D01*
X229334214Y-106331614D01*
X228644786Y-105569614D02*
X228173071Y-105569614D01*
X228427071Y-105859900D01*
X228318214Y-105859900D01*
X228245643Y-105896185D01*
X228209357Y-105932471D01*
X228173071Y-106005042D01*
X228173071Y-106186471D01*
X228209357Y-106259042D01*
X228245643Y-106295328D01*
X228318214Y-106331614D01*
X228535928Y-106331614D01*
X228608500Y-106295328D01*
X228644786Y-106259042D01*
D10*
%TO.C,L5*%
X219584566Y-114695230D02*
X220060757Y-114695230D01*
X220060757Y-113695230D01*
X218775042Y-113695230D02*
X219251233Y-113695230D01*
X219298852Y-114171421D01*
X219251233Y-114123802D01*
X219155995Y-114076183D01*
X218917900Y-114076183D01*
X218822661Y-114123802D01*
X218775042Y-114171421D01*
X218727423Y-114266659D01*
X218727423Y-114504754D01*
X218775042Y-114599992D01*
X218822661Y-114647611D01*
X218917900Y-114695230D01*
X219155995Y-114695230D01*
X219251233Y-114647611D01*
X219298852Y-114599992D01*
%TO.C,R10*%
X186685157Y-137879080D02*
X187018490Y-137402890D01*
X187256585Y-137879080D02*
X187256585Y-136879080D01*
X186875633Y-136879080D01*
X186780395Y-136926700D01*
X186732776Y-136974319D01*
X186685157Y-137069557D01*
X186685157Y-137212414D01*
X186732776Y-137307652D01*
X186780395Y-137355271D01*
X186875633Y-137402890D01*
X187256585Y-137402890D01*
X185732776Y-137879080D02*
X186304204Y-137879080D01*
X186018490Y-137879080D02*
X186018490Y-136879080D01*
X186113728Y-137021938D01*
X186208966Y-137117176D01*
X186304204Y-137164795D01*
X185113728Y-136879080D02*
X185018490Y-136879080D01*
X184923252Y-136926700D01*
X184875633Y-136974319D01*
X184828014Y-137069557D01*
X184780395Y-137260033D01*
X184780395Y-137498128D01*
X184828014Y-137688604D01*
X184875633Y-137783842D01*
X184923252Y-137831461D01*
X185018490Y-137879080D01*
X185113728Y-137879080D01*
X185208966Y-137831461D01*
X185256585Y-137783842D01*
X185304204Y-137688604D01*
X185351823Y-137498128D01*
X185351823Y-137260033D01*
X185304204Y-137069557D01*
X185256585Y-136974319D01*
X185208966Y-136926700D01*
X185113728Y-136879080D01*
%TO.C,H1*%
X223456404Y-84291430D02*
X223456404Y-83291430D01*
X223456404Y-83767621D02*
X222884976Y-83767621D01*
X222884976Y-84291430D02*
X222884976Y-83291430D01*
X221884976Y-84291430D02*
X222456404Y-84291430D01*
X222170690Y-84291430D02*
X222170690Y-83291430D01*
X222265928Y-83434288D01*
X222361166Y-83529526D01*
X222456404Y-83577145D01*
%TO.C,R1*%
X143636582Y-135857080D02*
X143535567Y-135284660D01*
X144040643Y-135453019D02*
X143333537Y-134745912D01*
X143064162Y-135015286D01*
X143030491Y-135116301D01*
X143030491Y-135183645D01*
X143064162Y-135284660D01*
X143165178Y-135385675D01*
X143266193Y-135419347D01*
X143333537Y-135419347D01*
X143434552Y-135385675D01*
X143703926Y-135116301D01*
X142963147Y-136530515D02*
X143367208Y-136126454D01*
X143165178Y-136328485D02*
X142458071Y-135621378D01*
X142626430Y-135655050D01*
X142761117Y-135655050D01*
X142862132Y-135621378D01*
D12*
%TO.C,D9*%
X201616128Y-69877214D02*
X201616128Y-69115214D01*
X201434700Y-69115214D01*
X201325842Y-69151500D01*
X201253271Y-69224071D01*
X201216985Y-69296642D01*
X201180700Y-69441785D01*
X201180700Y-69550642D01*
X201216985Y-69695785D01*
X201253271Y-69768357D01*
X201325842Y-69840928D01*
X201434700Y-69877214D01*
X201616128Y-69877214D01*
X200817842Y-69877214D02*
X200672700Y-69877214D01*
X200600128Y-69840928D01*
X200563842Y-69804642D01*
X200491271Y-69695785D01*
X200454985Y-69550642D01*
X200454985Y-69260357D01*
X200491271Y-69187785D01*
X200527557Y-69151500D01*
X200600128Y-69115214D01*
X200745271Y-69115214D01*
X200817842Y-69151500D01*
X200854128Y-69187785D01*
X200890414Y-69260357D01*
X200890414Y-69441785D01*
X200854128Y-69514357D01*
X200817842Y-69550642D01*
X200745271Y-69586928D01*
X200600128Y-69586928D01*
X200527557Y-69550642D01*
X200491271Y-69514357D01*
X200454985Y-69441785D01*
D10*
%TO.C,U1*%
X157675972Y-144235026D02*
X158248392Y-144807446D01*
X158282064Y-144908461D01*
X158282064Y-144975805D01*
X158248392Y-145076820D01*
X158113705Y-145211507D01*
X158012690Y-145245179D01*
X157945346Y-145245179D01*
X157844331Y-145211507D01*
X157271911Y-144639087D01*
X157271911Y-146053301D02*
X157675972Y-145649240D01*
X157473942Y-145851270D02*
X156766835Y-145144164D01*
X156935194Y-145177835D01*
X157069881Y-145177835D01*
X157170896Y-145144164D01*
%TO.C,USB2*%
X124247693Y-138782255D02*
X124820113Y-139354675D01*
X124853785Y-139455690D01*
X124853785Y-139523034D01*
X124820113Y-139624049D01*
X124685426Y-139758736D01*
X124584411Y-139792408D01*
X124517067Y-139792408D01*
X124416052Y-139758736D01*
X123843632Y-139186316D01*
X124214022Y-140162797D02*
X124146678Y-140297484D01*
X123978319Y-140465843D01*
X123877304Y-140499515D01*
X123809961Y-140499515D01*
X123708945Y-140465843D01*
X123641602Y-140398500D01*
X123607930Y-140297484D01*
X123607930Y-140230141D01*
X123641602Y-140129125D01*
X123742617Y-139960767D01*
X123776289Y-139859751D01*
X123776289Y-139792408D01*
X123742617Y-139691393D01*
X123675274Y-139624049D01*
X123574258Y-139590377D01*
X123506915Y-139590377D01*
X123405900Y-139624049D01*
X123237541Y-139792408D01*
X123170197Y-139927095D01*
X122934495Y-140768889D02*
X122867151Y-140903576D01*
X122867151Y-140970919D01*
X122900823Y-141071935D01*
X123001838Y-141172950D01*
X123102854Y-141206622D01*
X123170197Y-141206622D01*
X123271212Y-141172950D01*
X123540587Y-140903576D01*
X122833480Y-140196469D01*
X122597777Y-140432171D01*
X122564106Y-140533187D01*
X122564106Y-140600530D01*
X122597777Y-140701545D01*
X122665121Y-140768889D01*
X122766136Y-140802561D01*
X122833480Y-140802561D01*
X122934495Y-140768889D01*
X123170197Y-140533187D01*
X122227388Y-140937248D02*
X122160045Y-140937248D01*
X122059029Y-140970919D01*
X121890671Y-141139278D01*
X121856999Y-141240293D01*
X121856999Y-141307637D01*
X121890671Y-141408652D01*
X121958014Y-141475996D01*
X122092701Y-141543339D01*
X122900823Y-141543339D01*
X122463090Y-141981072D01*
%TO.C,L7*%
X143175016Y-73109080D02*
X143651207Y-73109080D01*
X143651207Y-72109080D01*
X142936921Y-72109080D02*
X142270254Y-72109080D01*
X142698826Y-73109080D01*
%TO.C,U2*%
X142017654Y-68070480D02*
X142017654Y-68880004D01*
X141970035Y-68975242D01*
X141922416Y-69022861D01*
X141827178Y-69070480D01*
X141636702Y-69070480D01*
X141541464Y-69022861D01*
X141493845Y-68975242D01*
X141446226Y-68880004D01*
X141446226Y-68070480D01*
X141017654Y-68165719D02*
X140970035Y-68118100D01*
X140874797Y-68070480D01*
X140636702Y-68070480D01*
X140541464Y-68118100D01*
X140493845Y-68165719D01*
X140446226Y-68260957D01*
X140446226Y-68356195D01*
X140493845Y-68499052D01*
X141065273Y-69070480D01*
X140446226Y-69070480D01*
%TO.C,C5*%
X145417089Y-133332287D02*
X145484432Y-133332287D01*
X145619119Y-133264943D01*
X145686463Y-133197600D01*
X145753806Y-133062912D01*
X145753806Y-132928225D01*
X145720135Y-132827210D01*
X145619119Y-132658851D01*
X145518104Y-132557836D01*
X145349745Y-132456821D01*
X145248730Y-132423149D01*
X145114043Y-132423149D01*
X144979356Y-132490493D01*
X144912012Y-132557836D01*
X144844669Y-132692523D01*
X144844669Y-132759867D01*
X144137562Y-133332287D02*
X144474280Y-132995569D01*
X144844669Y-133298615D01*
X144777325Y-133298615D01*
X144676310Y-133332287D01*
X144507951Y-133500645D01*
X144474280Y-133601661D01*
X144474280Y-133669004D01*
X144507951Y-133770019D01*
X144676310Y-133938378D01*
X144777325Y-133972050D01*
X144844669Y-133972050D01*
X144945684Y-133938378D01*
X145114043Y-133770019D01*
X145147715Y-133669004D01*
X145147715Y-133601661D01*
%TO.C,C8*%
X151267939Y-147734087D02*
X151335282Y-147734087D01*
X151469969Y-147666743D01*
X151537313Y-147599400D01*
X151604656Y-147464712D01*
X151604656Y-147330025D01*
X151570985Y-147229010D01*
X151469969Y-147060651D01*
X151368954Y-146959636D01*
X151200595Y-146858621D01*
X151099580Y-146824949D01*
X150964893Y-146824949D01*
X150830206Y-146892293D01*
X150762862Y-146959636D01*
X150695519Y-147094323D01*
X150695519Y-147161667D01*
X150527160Y-147801430D02*
X150560832Y-147700415D01*
X150560832Y-147633071D01*
X150527160Y-147532056D01*
X150493488Y-147498384D01*
X150392473Y-147464712D01*
X150325130Y-147464712D01*
X150224114Y-147498384D01*
X150089427Y-147633071D01*
X150055756Y-147734087D01*
X150055756Y-147801430D01*
X150089427Y-147902445D01*
X150123099Y-147936117D01*
X150224114Y-147969789D01*
X150291458Y-147969789D01*
X150392473Y-147936117D01*
X150527160Y-147801430D01*
X150628175Y-147767758D01*
X150695519Y-147767758D01*
X150796534Y-147801430D01*
X150931221Y-147936117D01*
X150964893Y-148037132D01*
X150964893Y-148104476D01*
X150931221Y-148205491D01*
X150796534Y-148340178D01*
X150695519Y-148373850D01*
X150628175Y-148373850D01*
X150527160Y-148340178D01*
X150392473Y-148205491D01*
X150358801Y-148104476D01*
X150358801Y-148037132D01*
X150392473Y-147936117D01*
%TO.C,L4*%
X143213116Y-111551980D02*
X143689307Y-111551980D01*
X143689307Y-110551980D01*
X142451211Y-110885314D02*
X142451211Y-111551980D01*
X142689307Y-110504361D02*
X142927402Y-111218647D01*
X142308354Y-111218647D01*
D12*
%TO.C,D7*%
X210246114Y-106388764D02*
X210246114Y-105626764D01*
X210064686Y-105626764D01*
X209955828Y-105663050D01*
X209883257Y-105735621D01*
X209846971Y-105808192D01*
X209810686Y-105953335D01*
X209810686Y-106062192D01*
X209846971Y-106207335D01*
X209883257Y-106279907D01*
X209955828Y-106352478D01*
X210064686Y-106388764D01*
X210246114Y-106388764D01*
X209556686Y-105626764D02*
X209048686Y-105626764D01*
X209375257Y-106388764D01*
D10*
%TO.C,C2*%
X161307289Y-146572037D02*
X161374632Y-146572037D01*
X161509319Y-146504693D01*
X161576663Y-146437350D01*
X161644006Y-146302662D01*
X161644006Y-146167975D01*
X161610335Y-146066960D01*
X161509319Y-145898601D01*
X161408304Y-145797586D01*
X161239945Y-145696571D01*
X161138930Y-145662899D01*
X161004243Y-145662899D01*
X160869556Y-145730243D01*
X160802212Y-145797586D01*
X160734869Y-145932273D01*
X160734869Y-145999617D01*
X160465495Y-146268991D02*
X160398151Y-146268991D01*
X160297136Y-146302662D01*
X160128777Y-146471021D01*
X160095106Y-146572037D01*
X160095106Y-146639380D01*
X160128777Y-146740395D01*
X160196121Y-146807739D01*
X160330808Y-146875082D01*
X161138930Y-146875082D01*
X160701197Y-147312815D01*
D12*
%TO.C,D22*%
X153477685Y-116740214D02*
X153477685Y-115978214D01*
X153296257Y-115978214D01*
X153187400Y-116014500D01*
X153114828Y-116087071D01*
X153078542Y-116159642D01*
X153042257Y-116304785D01*
X153042257Y-116413642D01*
X153078542Y-116558785D01*
X153114828Y-116631357D01*
X153187400Y-116703928D01*
X153296257Y-116740214D01*
X153477685Y-116740214D01*
X152751971Y-116050785D02*
X152715685Y-116014500D01*
X152643114Y-115978214D01*
X152461685Y-115978214D01*
X152389114Y-116014500D01*
X152352828Y-116050785D01*
X152316542Y-116123357D01*
X152316542Y-116195928D01*
X152352828Y-116304785D01*
X152788257Y-116740214D01*
X152316542Y-116740214D01*
X152026257Y-116050785D02*
X151989971Y-116014500D01*
X151917400Y-115978214D01*
X151735971Y-115978214D01*
X151663400Y-116014500D01*
X151627114Y-116050785D01*
X151590828Y-116123357D01*
X151590828Y-116195928D01*
X151627114Y-116304785D01*
X152062542Y-116740214D01*
X151590828Y-116740214D01*
%TO.C,D25*%
X140428435Y-83002664D02*
X140428435Y-82240664D01*
X140247007Y-82240664D01*
X140138150Y-82276950D01*
X140065578Y-82349521D01*
X140029292Y-82422092D01*
X139993007Y-82567235D01*
X139993007Y-82676092D01*
X140029292Y-82821235D01*
X140065578Y-82893807D01*
X140138150Y-82966378D01*
X140247007Y-83002664D01*
X140428435Y-83002664D01*
X139702721Y-82313235D02*
X139666435Y-82276950D01*
X139593864Y-82240664D01*
X139412435Y-82240664D01*
X139339864Y-82276950D01*
X139303578Y-82313235D01*
X139267292Y-82385807D01*
X139267292Y-82458378D01*
X139303578Y-82567235D01*
X139739007Y-83002664D01*
X139267292Y-83002664D01*
X138577864Y-82240664D02*
X138940721Y-82240664D01*
X138977007Y-82603521D01*
X138940721Y-82567235D01*
X138868150Y-82530950D01*
X138686721Y-82530950D01*
X138614150Y-82567235D01*
X138577864Y-82603521D01*
X138541578Y-82676092D01*
X138541578Y-82857521D01*
X138577864Y-82930092D01*
X138614150Y-82966378D01*
X138686721Y-83002664D01*
X138868150Y-83002664D01*
X138940721Y-82966378D01*
X138977007Y-82930092D01*
D10*
%TO.C,C6*%
X167269940Y-136380287D02*
X167337283Y-136380287D01*
X167471970Y-136312943D01*
X167539314Y-136245600D01*
X167606657Y-136110912D01*
X167606657Y-135976225D01*
X167572986Y-135875210D01*
X167471970Y-135706851D01*
X167370955Y-135605836D01*
X167202596Y-135504821D01*
X167101581Y-135471149D01*
X166966894Y-135471149D01*
X166832207Y-135538493D01*
X166764863Y-135605836D01*
X166697520Y-135740523D01*
X166697520Y-135807867D01*
X166024085Y-136346615D02*
X166158772Y-136211928D01*
X166259787Y-136178256D01*
X166327131Y-136178256D01*
X166495489Y-136211928D01*
X166663848Y-136312943D01*
X166933222Y-136582317D01*
X166966894Y-136683332D01*
X166966894Y-136750676D01*
X166933222Y-136851691D01*
X166798535Y-136986378D01*
X166697520Y-137020050D01*
X166630176Y-137020050D01*
X166529161Y-136986378D01*
X166360802Y-136818019D01*
X166327131Y-136717004D01*
X166327131Y-136649661D01*
X166360802Y-136548645D01*
X166495489Y-136413958D01*
X166596505Y-136380287D01*
X166663848Y-136380287D01*
X166764863Y-136413958D01*
D12*
%TO.C,D11*%
X202264735Y-107996264D02*
X202264735Y-107234264D01*
X202083307Y-107234264D01*
X201974450Y-107270550D01*
X201901878Y-107343121D01*
X201865592Y-107415692D01*
X201829307Y-107560835D01*
X201829307Y-107669692D01*
X201865592Y-107814835D01*
X201901878Y-107887407D01*
X201974450Y-107959978D01*
X202083307Y-107996264D01*
X202264735Y-107996264D01*
X201103592Y-107996264D02*
X201539021Y-107996264D01*
X201321307Y-107996264D02*
X201321307Y-107234264D01*
X201393878Y-107343121D01*
X201466450Y-107415692D01*
X201539021Y-107451978D01*
X200377878Y-107996264D02*
X200813307Y-107996264D01*
X200595592Y-107996264D02*
X200595592Y-107234264D01*
X200668164Y-107343121D01*
X200740735Y-107415692D01*
X200813307Y-107451978D01*
%TO.C,D4*%
X229334214Y-125324464D02*
X229334214Y-124562464D01*
X229152786Y-124562464D01*
X229043928Y-124598750D01*
X228971357Y-124671321D01*
X228935071Y-124743892D01*
X228898786Y-124889035D01*
X228898786Y-124997892D01*
X228935071Y-125143035D01*
X228971357Y-125215607D01*
X229043928Y-125288178D01*
X229152786Y-125324464D01*
X229334214Y-125324464D01*
X228245643Y-124816464D02*
X228245643Y-125324464D01*
X228427071Y-124526178D02*
X228608500Y-125070464D01*
X228136786Y-125070464D01*
%TO.C,D12*%
X202359985Y-127046264D02*
X202359985Y-126284264D01*
X202178557Y-126284264D01*
X202069700Y-126320550D01*
X201997128Y-126393121D01*
X201960842Y-126465692D01*
X201924557Y-126610835D01*
X201924557Y-126719692D01*
X201960842Y-126864835D01*
X201997128Y-126937407D01*
X202069700Y-127009978D01*
X202178557Y-127046264D01*
X202359985Y-127046264D01*
X201198842Y-127046264D02*
X201634271Y-127046264D01*
X201416557Y-127046264D02*
X201416557Y-126284264D01*
X201489128Y-126393121D01*
X201561700Y-126465692D01*
X201634271Y-126501978D01*
X200908557Y-126356835D02*
X200872271Y-126320550D01*
X200799700Y-126284264D01*
X200618271Y-126284264D01*
X200545700Y-126320550D01*
X200509414Y-126356835D01*
X200473128Y-126429407D01*
X200473128Y-126501978D01*
X200509414Y-126610835D01*
X200944842Y-127046264D01*
X200473128Y-127046264D01*
D10*
%TO.C,R4*%
X169609030Y-64660483D02*
X169132840Y-64327150D01*
X169609030Y-64089054D02*
X168609030Y-64089054D01*
X168609030Y-64470007D01*
X168656650Y-64565245D01*
X168704269Y-64612864D01*
X168799507Y-64660483D01*
X168942364Y-64660483D01*
X169037602Y-64612864D01*
X169085221Y-64565245D01*
X169132840Y-64470007D01*
X169132840Y-64089054D01*
X168942364Y-65517626D02*
X169609030Y-65517626D01*
X168561411Y-65279530D02*
X169275697Y-65041435D01*
X169275697Y-65660483D01*
D12*
%TO.C,D18*%
X142542985Y-152744714D02*
X142542985Y-151982714D01*
X142361557Y-151982714D01*
X142252700Y-152019000D01*
X142180128Y-152091571D01*
X142143842Y-152164142D01*
X142107557Y-152309285D01*
X142107557Y-152418142D01*
X142143842Y-152563285D01*
X142180128Y-152635857D01*
X142252700Y-152708428D01*
X142361557Y-152744714D01*
X142542985Y-152744714D01*
X141381842Y-152744714D02*
X141817271Y-152744714D01*
X141599557Y-152744714D02*
X141599557Y-151982714D01*
X141672128Y-152091571D01*
X141744700Y-152164142D01*
X141817271Y-152200428D01*
X140946414Y-152309285D02*
X141018985Y-152273000D01*
X141055271Y-152236714D01*
X141091557Y-152164142D01*
X141091557Y-152127857D01*
X141055271Y-152055285D01*
X141018985Y-152019000D01*
X140946414Y-151982714D01*
X140801271Y-151982714D01*
X140728700Y-152019000D01*
X140692414Y-152055285D01*
X140656128Y-152127857D01*
X140656128Y-152164142D01*
X140692414Y-152236714D01*
X140728700Y-152273000D01*
X140801271Y-152309285D01*
X140946414Y-152309285D01*
X141018985Y-152345571D01*
X141055271Y-152381857D01*
X141091557Y-152454428D01*
X141091557Y-152599571D01*
X141055271Y-152672142D01*
X141018985Y-152708428D01*
X140946414Y-152744714D01*
X140801271Y-152744714D01*
X140728700Y-152708428D01*
X140692414Y-152672142D01*
X140656128Y-152599571D01*
X140656128Y-152454428D01*
X140692414Y-152381857D01*
X140728700Y-152345571D01*
X140801271Y-152309285D01*
D10*
%TO.C,H4*%
X223532604Y-122372380D02*
X223532604Y-121372380D01*
X223532604Y-121848571D02*
X222961176Y-121848571D01*
X222961176Y-122372380D02*
X222961176Y-121372380D01*
X222056414Y-121705714D02*
X222056414Y-122372380D01*
X222294509Y-121324761D02*
X222532604Y-122039047D01*
X221913557Y-122039047D01*
D12*
%TO.C,D24*%
X140409385Y-80564264D02*
X140409385Y-79802264D01*
X140227957Y-79802264D01*
X140119100Y-79838550D01*
X140046528Y-79911121D01*
X140010242Y-79983692D01*
X139973957Y-80128835D01*
X139973957Y-80237692D01*
X140010242Y-80382835D01*
X140046528Y-80455407D01*
X140119100Y-80527978D01*
X140227957Y-80564264D01*
X140409385Y-80564264D01*
X139683671Y-79874835D02*
X139647385Y-79838550D01*
X139574814Y-79802264D01*
X139393385Y-79802264D01*
X139320814Y-79838550D01*
X139284528Y-79874835D01*
X139248242Y-79947407D01*
X139248242Y-80019978D01*
X139284528Y-80128835D01*
X139719957Y-80564264D01*
X139248242Y-80564264D01*
X138595100Y-80056264D02*
X138595100Y-80564264D01*
X138776528Y-79765978D02*
X138957957Y-80310264D01*
X138486242Y-80310264D01*
D10*
%TO.C,C7*%
X146483889Y-131674937D02*
X146551232Y-131674937D01*
X146685919Y-131607593D01*
X146753263Y-131540250D01*
X146820606Y-131405562D01*
X146820606Y-131270875D01*
X146786935Y-131169860D01*
X146685919Y-131001501D01*
X146584904Y-130900486D01*
X146416545Y-130799471D01*
X146315530Y-130765799D01*
X146180843Y-130765799D01*
X146046156Y-130833143D01*
X145978812Y-130900486D01*
X145911469Y-131035173D01*
X145911469Y-131102517D01*
X145608423Y-131270875D02*
X145137019Y-131742280D01*
X146147171Y-132146341D01*
%TO.C,R2*%
X144648732Y-141057730D02*
X144547717Y-140485310D01*
X145052793Y-140653669D02*
X144345687Y-139946562D01*
X144076312Y-140215936D01*
X144042641Y-140316951D01*
X144042641Y-140384295D01*
X144076312Y-140485310D01*
X144177328Y-140586325D01*
X144278343Y-140619997D01*
X144345687Y-140619997D01*
X144446702Y-140586325D01*
X144716076Y-140316951D01*
X143739595Y-140687341D02*
X143672251Y-140687341D01*
X143571236Y-140721012D01*
X143402877Y-140889371D01*
X143369206Y-140990387D01*
X143369206Y-141057730D01*
X143402877Y-141158745D01*
X143470221Y-141226089D01*
X143604908Y-141293432D01*
X144413030Y-141293432D01*
X143975297Y-141731165D01*
%TO.C,R6*%
X163215616Y-76442830D02*
X163548950Y-75966640D01*
X163787045Y-76442830D02*
X163787045Y-75442830D01*
X163406092Y-75442830D01*
X163310854Y-75490450D01*
X163263235Y-75538069D01*
X163215616Y-75633307D01*
X163215616Y-75776164D01*
X163263235Y-75871402D01*
X163310854Y-75919021D01*
X163406092Y-75966640D01*
X163787045Y-75966640D01*
X162358473Y-75442830D02*
X162548950Y-75442830D01*
X162644188Y-75490450D01*
X162691807Y-75538069D01*
X162787045Y-75680926D01*
X162834664Y-75871402D01*
X162834664Y-76252354D01*
X162787045Y-76347592D01*
X162739426Y-76395211D01*
X162644188Y-76442830D01*
X162453711Y-76442830D01*
X162358473Y-76395211D01*
X162310854Y-76347592D01*
X162263235Y-76252354D01*
X162263235Y-76014259D01*
X162310854Y-75919021D01*
X162358473Y-75871402D01*
X162453711Y-75823783D01*
X162644188Y-75823783D01*
X162739426Y-75871402D01*
X162787045Y-75919021D01*
X162834664Y-76014259D01*
%TO.C,C9*%
X185751766Y-133802392D02*
X185799385Y-133850011D01*
X185942242Y-133897630D01*
X186037480Y-133897630D01*
X186180338Y-133850011D01*
X186275576Y-133754773D01*
X186323195Y-133659535D01*
X186370814Y-133469059D01*
X186370814Y-133326202D01*
X186323195Y-133135726D01*
X186275576Y-133040488D01*
X186180338Y-132945250D01*
X186037480Y-132897630D01*
X185942242Y-132897630D01*
X185799385Y-132945250D01*
X185751766Y-132992869D01*
X185275576Y-133897630D02*
X185085100Y-133897630D01*
X184989861Y-133850011D01*
X184942242Y-133802392D01*
X184847004Y-133659535D01*
X184799385Y-133469059D01*
X184799385Y-133088107D01*
X184847004Y-132992869D01*
X184894623Y-132945250D01*
X184989861Y-132897630D01*
X185180338Y-132897630D01*
X185275576Y-132945250D01*
X185323195Y-132992869D01*
X185370814Y-133088107D01*
X185370814Y-133326202D01*
X185323195Y-133421440D01*
X185275576Y-133469059D01*
X185180338Y-133516678D01*
X184989861Y-133516678D01*
X184894623Y-133469059D01*
X184847004Y-133421440D01*
X184799385Y-133326202D01*
%TO.C,F2*%
X135859294Y-142131590D02*
X136094996Y-141895887D01*
X136465386Y-142266277D02*
X135758279Y-141559170D01*
X135421561Y-141895887D01*
X135253203Y-142198933D02*
X135185859Y-142198933D01*
X135084844Y-142232605D01*
X134916485Y-142400964D01*
X134882813Y-142501979D01*
X134882813Y-142569322D01*
X134916485Y-142670338D01*
X134983829Y-142737681D01*
X135118516Y-142805025D01*
X135926638Y-142805025D01*
X135488905Y-143242757D01*
D12*
%TO.C,D21*%
X153478021Y-101550064D02*
X153478021Y-100788064D01*
X153296593Y-100788064D01*
X153187736Y-100824350D01*
X153115164Y-100896921D01*
X153078878Y-100969492D01*
X153042593Y-101114635D01*
X153042593Y-101223492D01*
X153078878Y-101368635D01*
X153115164Y-101441207D01*
X153187736Y-101513778D01*
X153296593Y-101550064D01*
X153478021Y-101550064D01*
X152752307Y-100860635D02*
X152716021Y-100824350D01*
X152643450Y-100788064D01*
X152462021Y-100788064D01*
X152389450Y-100824350D01*
X152353164Y-100860635D01*
X152316878Y-100933207D01*
X152316878Y-101005778D01*
X152353164Y-101114635D01*
X152788593Y-101550064D01*
X152316878Y-101550064D01*
X151591164Y-101550064D02*
X152026593Y-101550064D01*
X151808878Y-101550064D02*
X151808878Y-100788064D01*
X151881450Y-100896921D01*
X151954021Y-100969492D01*
X152026593Y-101005778D01*
D10*
%TO.C,H2*%
X147294504Y-80710030D02*
X147294504Y-79710030D01*
X147294504Y-80186221D02*
X146723076Y-80186221D01*
X146723076Y-80710030D02*
X146723076Y-79710030D01*
X146294504Y-79805269D02*
X146246885Y-79757650D01*
X146151647Y-79710030D01*
X145913552Y-79710030D01*
X145818314Y-79757650D01*
X145770695Y-79805269D01*
X145723076Y-79900507D01*
X145723076Y-79995745D01*
X145770695Y-80138602D01*
X146342123Y-80710030D01*
X145723076Y-80710030D01*
%TO.C,L2*%
X153538216Y-63984130D02*
X154014407Y-63984130D01*
X154014407Y-62984130D01*
X153252502Y-63079369D02*
X153204883Y-63031750D01*
X153109645Y-62984130D01*
X152871550Y-62984130D01*
X152776311Y-63031750D01*
X152728692Y-63079369D01*
X152681073Y-63174607D01*
X152681073Y-63269845D01*
X152728692Y-63412702D01*
X153300121Y-63984130D01*
X152681073Y-63984130D01*
%TO.C,R7*%
X169025866Y-76423780D02*
X169359200Y-75947590D01*
X169597295Y-76423780D02*
X169597295Y-75423780D01*
X169216342Y-75423780D01*
X169121104Y-75471400D01*
X169073485Y-75519019D01*
X169025866Y-75614257D01*
X169025866Y-75757114D01*
X169073485Y-75852352D01*
X169121104Y-75899971D01*
X169216342Y-75947590D01*
X169597295Y-75947590D01*
X168692533Y-75423780D02*
X168025866Y-75423780D01*
X168454438Y-76423780D01*
D12*
%TO.C,D19*%
X159573685Y-78163964D02*
X159573685Y-77401964D01*
X159392257Y-77401964D01*
X159283400Y-77438250D01*
X159210828Y-77510821D01*
X159174542Y-77583392D01*
X159138257Y-77728535D01*
X159138257Y-77837392D01*
X159174542Y-77982535D01*
X159210828Y-78055107D01*
X159283400Y-78127678D01*
X159392257Y-78163964D01*
X159573685Y-78163964D01*
X158412542Y-78163964D02*
X158847971Y-78163964D01*
X158630257Y-78163964D02*
X158630257Y-77401964D01*
X158702828Y-77510821D01*
X158775400Y-77583392D01*
X158847971Y-77619678D01*
X158049685Y-78163964D02*
X157904542Y-78163964D01*
X157831971Y-78127678D01*
X157795685Y-78091392D01*
X157723114Y-77982535D01*
X157686828Y-77837392D01*
X157686828Y-77547107D01*
X157723114Y-77474535D01*
X157759400Y-77438250D01*
X157831971Y-77401964D01*
X157977114Y-77401964D01*
X158049685Y-77438250D01*
X158085971Y-77474535D01*
X158122257Y-77547107D01*
X158122257Y-77728535D01*
X158085971Y-77801107D01*
X158049685Y-77837392D01*
X157977114Y-77873678D01*
X157831971Y-77873678D01*
X157759400Y-77837392D01*
X157723114Y-77801107D01*
X157686828Y-77728535D01*
%TO.C,D10*%
X202398085Y-88851014D02*
X202398085Y-88089014D01*
X202216657Y-88089014D01*
X202107800Y-88125300D01*
X202035228Y-88197871D01*
X201998942Y-88270442D01*
X201962657Y-88415585D01*
X201962657Y-88524442D01*
X201998942Y-88669585D01*
X202035228Y-88742157D01*
X202107800Y-88814728D01*
X202216657Y-88851014D01*
X202398085Y-88851014D01*
X201236942Y-88851014D02*
X201672371Y-88851014D01*
X201454657Y-88851014D02*
X201454657Y-88089014D01*
X201527228Y-88197871D01*
X201599800Y-88270442D01*
X201672371Y-88306728D01*
X200765228Y-88089014D02*
X200692657Y-88089014D01*
X200620085Y-88125300D01*
X200583800Y-88161585D01*
X200547514Y-88234157D01*
X200511228Y-88379300D01*
X200511228Y-88560728D01*
X200547514Y-88705871D01*
X200583800Y-88778442D01*
X200620085Y-88814728D01*
X200692657Y-88851014D01*
X200765228Y-88851014D01*
X200837800Y-88814728D01*
X200874085Y-88778442D01*
X200910371Y-88705871D01*
X200946657Y-88560728D01*
X200946657Y-88379300D01*
X200910371Y-88234157D01*
X200874085Y-88161585D01*
X200837800Y-88125300D01*
X200765228Y-88089014D01*
%TO.C,D20*%
X159554635Y-80488064D02*
X159554635Y-79726064D01*
X159373207Y-79726064D01*
X159264350Y-79762350D01*
X159191778Y-79834921D01*
X159155492Y-79907492D01*
X159119207Y-80052635D01*
X159119207Y-80161492D01*
X159155492Y-80306635D01*
X159191778Y-80379207D01*
X159264350Y-80451778D01*
X159373207Y-80488064D01*
X159554635Y-80488064D01*
X158828921Y-79798635D02*
X158792635Y-79762350D01*
X158720064Y-79726064D01*
X158538635Y-79726064D01*
X158466064Y-79762350D01*
X158429778Y-79798635D01*
X158393492Y-79871207D01*
X158393492Y-79943778D01*
X158429778Y-80052635D01*
X158865207Y-80488064D01*
X158393492Y-80488064D01*
X157921778Y-79726064D02*
X157849207Y-79726064D01*
X157776635Y-79762350D01*
X157740350Y-79798635D01*
X157704064Y-79871207D01*
X157667778Y-80016350D01*
X157667778Y-80197778D01*
X157704064Y-80342921D01*
X157740350Y-80415492D01*
X157776635Y-80451778D01*
X157849207Y-80488064D01*
X157921778Y-80488064D01*
X157994350Y-80451778D01*
X158030635Y-80415492D01*
X158066921Y-80342921D01*
X158103207Y-80197778D01*
X158103207Y-80016350D01*
X158066921Y-79871207D01*
X158030635Y-79798635D01*
X157994350Y-79762350D01*
X157921778Y-79726064D01*
%TO.C,D1*%
X229277064Y-68345914D02*
X229277064Y-67583914D01*
X229095636Y-67583914D01*
X228986778Y-67620200D01*
X228914207Y-67692771D01*
X228877921Y-67765342D01*
X228841636Y-67910485D01*
X228841636Y-68019342D01*
X228877921Y-68164485D01*
X228914207Y-68237057D01*
X228986778Y-68309628D01*
X229095636Y-68345914D01*
X229277064Y-68345914D01*
X228115921Y-68345914D02*
X228551350Y-68345914D01*
X228333636Y-68345914D02*
X228333636Y-67583914D01*
X228406207Y-67692771D01*
X228478778Y-67765342D01*
X228551350Y-67801628D01*
D10*
%TO.C,L6*%
X129425282Y-153040180D02*
X129762000Y-152703462D01*
X129054893Y-151996356D01*
X128179427Y-152871821D02*
X128314114Y-152737134D01*
X128415130Y-152703462D01*
X128482473Y-152703462D01*
X128650832Y-152737134D01*
X128819191Y-152838150D01*
X129088565Y-153107524D01*
X129122237Y-153208539D01*
X129122237Y-153275882D01*
X129088565Y-153376898D01*
X128953878Y-153511585D01*
X128852862Y-153545256D01*
X128785519Y-153545256D01*
X128684504Y-153511585D01*
X128516145Y-153343226D01*
X128482473Y-153242211D01*
X128482473Y-153174867D01*
X128516145Y-153073852D01*
X128650832Y-152939165D01*
X128751847Y-152905493D01*
X128819191Y-152905493D01*
X128920206Y-152939165D01*
%TO.C,TVS4*%
X133284036Y-133060613D02*
X132879975Y-133464674D01*
X133789112Y-133969750D02*
X133082005Y-133262644D01*
X132745288Y-133599361D02*
X133216692Y-134542170D01*
X132273883Y-134070766D01*
X132745288Y-134946231D02*
X132677944Y-135080918D01*
X132509585Y-135249277D01*
X132408570Y-135282949D01*
X132341227Y-135282949D01*
X132240211Y-135249277D01*
X132172868Y-135181933D01*
X132139196Y-135080918D01*
X132139196Y-135013575D01*
X132172868Y-134912559D01*
X132273883Y-134744201D01*
X132307555Y-134643185D01*
X132307555Y-134575842D01*
X132273883Y-134474827D01*
X132206540Y-134407483D01*
X132105524Y-134373811D01*
X132038181Y-134373811D01*
X131937166Y-134407483D01*
X131768807Y-134575842D01*
X131701463Y-134710529D01*
X131297402Y-135518651D02*
X131768807Y-135990055D01*
X131196387Y-135080918D02*
X131869822Y-135417636D01*
X131432089Y-135855368D01*
D12*
%TO.C,D13*%
X161328785Y-151315964D02*
X161328785Y-150553964D01*
X161147357Y-150553964D01*
X161038500Y-150590250D01*
X160965928Y-150662821D01*
X160929642Y-150735392D01*
X160893357Y-150880535D01*
X160893357Y-150989392D01*
X160929642Y-151134535D01*
X160965928Y-151207107D01*
X161038500Y-151279678D01*
X161147357Y-151315964D01*
X161328785Y-151315964D01*
X160167642Y-151315964D02*
X160603071Y-151315964D01*
X160385357Y-151315964D02*
X160385357Y-150553964D01*
X160457928Y-150662821D01*
X160530500Y-150735392D01*
X160603071Y-150771678D01*
X159913642Y-150553964D02*
X159441928Y-150553964D01*
X159695928Y-150844250D01*
X159587071Y-150844250D01*
X159514500Y-150880535D01*
X159478214Y-150916821D01*
X159441928Y-150989392D01*
X159441928Y-151170821D01*
X159478214Y-151243392D01*
X159514500Y-151279678D01*
X159587071Y-151315964D01*
X159804785Y-151315964D01*
X159877357Y-151279678D01*
X159913642Y-151243392D01*
D10*
%TO.C,TVS2*%
X131282336Y-146127463D02*
X130878275Y-146531524D01*
X131787412Y-147036600D02*
X131080305Y-146329494D01*
X130743588Y-146666211D02*
X131214992Y-147609020D01*
X130272183Y-147137616D01*
X130743588Y-148013081D02*
X130676244Y-148147768D01*
X130507885Y-148316127D01*
X130406870Y-148349799D01*
X130339527Y-148349799D01*
X130238511Y-148316127D01*
X130171168Y-148248783D01*
X130137496Y-148147768D01*
X130137496Y-148080425D01*
X130171168Y-147979409D01*
X130272183Y-147811051D01*
X130305855Y-147710035D01*
X130305855Y-147642692D01*
X130272183Y-147541677D01*
X130204840Y-147474333D01*
X130103824Y-147440661D01*
X130036481Y-147440661D01*
X129935466Y-147474333D01*
X129767107Y-147642692D01*
X129699763Y-147777379D01*
X129464061Y-148080425D02*
X129396718Y-148080425D01*
X129295702Y-148114096D01*
X129127344Y-148282455D01*
X129093672Y-148383470D01*
X129093672Y-148450814D01*
X129127344Y-148551829D01*
X129194687Y-148619173D01*
X129329374Y-148686516D01*
X130137496Y-148686516D01*
X129699763Y-149124249D01*
D12*
%TO.C,D27*%
X135418285Y-119273864D02*
X135418285Y-118511864D01*
X135236857Y-118511864D01*
X135128000Y-118548150D01*
X135055428Y-118620721D01*
X135019142Y-118693292D01*
X134982857Y-118838435D01*
X134982857Y-118947292D01*
X135019142Y-119092435D01*
X135055428Y-119165007D01*
X135128000Y-119237578D01*
X135236857Y-119273864D01*
X135418285Y-119273864D01*
X134692571Y-118584435D02*
X134656285Y-118548150D01*
X134583714Y-118511864D01*
X134402285Y-118511864D01*
X134329714Y-118548150D01*
X134293428Y-118584435D01*
X134257142Y-118657007D01*
X134257142Y-118729578D01*
X134293428Y-118838435D01*
X134728857Y-119273864D01*
X134257142Y-119273864D01*
X134003142Y-118511864D02*
X133495142Y-118511864D01*
X133821714Y-119273864D01*
%TO.C,D2*%
X229295778Y-87327014D02*
X229295778Y-86565014D01*
X229114350Y-86565014D01*
X229005492Y-86601300D01*
X228932921Y-86673871D01*
X228896635Y-86746442D01*
X228860350Y-86891585D01*
X228860350Y-87000442D01*
X228896635Y-87145585D01*
X228932921Y-87218157D01*
X229005492Y-87290728D01*
X229114350Y-87327014D01*
X229295778Y-87327014D01*
X228570064Y-86637585D02*
X228533778Y-86601300D01*
X228461207Y-86565014D01*
X228279778Y-86565014D01*
X228207207Y-86601300D01*
X228170921Y-86637585D01*
X228134635Y-86710157D01*
X228134635Y-86782728D01*
X228170921Y-86891585D01*
X228606350Y-87327014D01*
X228134635Y-87327014D01*
D10*
%TO.C,USB1*%
X163777395Y-63155580D02*
X163777395Y-63965104D01*
X163729776Y-64060342D01*
X163682157Y-64107961D01*
X163586919Y-64155580D01*
X163396442Y-64155580D01*
X163301204Y-64107961D01*
X163253585Y-64060342D01*
X163205966Y-63965104D01*
X163205966Y-63155580D01*
X162777395Y-64107961D02*
X162634538Y-64155580D01*
X162396442Y-64155580D01*
X162301204Y-64107961D01*
X162253585Y-64060342D01*
X162205966Y-63965104D01*
X162205966Y-63869866D01*
X162253585Y-63774628D01*
X162301204Y-63727009D01*
X162396442Y-63679390D01*
X162586919Y-63631771D01*
X162682157Y-63584152D01*
X162729776Y-63536533D01*
X162777395Y-63441295D01*
X162777395Y-63346057D01*
X162729776Y-63250819D01*
X162682157Y-63203200D01*
X162586919Y-63155580D01*
X162348823Y-63155580D01*
X162205966Y-63203200D01*
X161444061Y-63631771D02*
X161301204Y-63679390D01*
X161253585Y-63727009D01*
X161205966Y-63822247D01*
X161205966Y-63965104D01*
X161253585Y-64060342D01*
X161301204Y-64107961D01*
X161396442Y-64155580D01*
X161777395Y-64155580D01*
X161777395Y-63155580D01*
X161444061Y-63155580D01*
X161348823Y-63203200D01*
X161301204Y-63250819D01*
X161253585Y-63346057D01*
X161253585Y-63441295D01*
X161301204Y-63536533D01*
X161348823Y-63584152D01*
X161444061Y-63631771D01*
X161777395Y-63631771D01*
X160253585Y-64155580D02*
X160825014Y-64155580D01*
X160539300Y-64155580D02*
X160539300Y-63155580D01*
X160634538Y-63298438D01*
X160729776Y-63393676D01*
X160825014Y-63441295D01*
%TO.C,TVS3*%
X155209666Y-58964580D02*
X154638238Y-58964580D01*
X154923952Y-59964580D02*
X154923952Y-58964580D01*
X154447761Y-58964580D02*
X154114428Y-59964580D01*
X153781095Y-58964580D01*
X153495380Y-59916961D02*
X153352523Y-59964580D01*
X153114428Y-59964580D01*
X153019190Y-59916961D01*
X152971571Y-59869342D01*
X152923952Y-59774104D01*
X152923952Y-59678866D01*
X152971571Y-59583628D01*
X153019190Y-59536009D01*
X153114428Y-59488390D01*
X153304904Y-59440771D01*
X153400142Y-59393152D01*
X153447761Y-59345533D01*
X153495380Y-59250295D01*
X153495380Y-59155057D01*
X153447761Y-59059819D01*
X153400142Y-59012200D01*
X153304904Y-58964580D01*
X153066809Y-58964580D01*
X152923952Y-59012200D01*
X152590619Y-58964580D02*
X151971571Y-58964580D01*
X152304904Y-59345533D01*
X152162047Y-59345533D01*
X152066809Y-59393152D01*
X152019190Y-59440771D01*
X151971571Y-59536009D01*
X151971571Y-59774104D01*
X152019190Y-59869342D01*
X152066809Y-59916961D01*
X152162047Y-59964580D01*
X152447761Y-59964580D01*
X152543000Y-59916961D01*
X152590619Y-59869342D01*
%TO.C,Y1*%
X162647431Y-140578346D02*
X162984149Y-140915064D01*
X162512744Y-139972255D02*
X162647431Y-140578346D01*
X162041340Y-140443659D01*
X162142355Y-141756857D02*
X162546416Y-141352796D01*
X162344385Y-141554827D02*
X161637279Y-140847720D01*
X161805637Y-140881392D01*
X161940324Y-140881392D01*
X162041340Y-140847720D01*
D12*
%TO.C,D28*%
X120431424Y-165593075D02*
X120970239Y-166131891D01*
X121098529Y-166003601D01*
X121149844Y-165900970D01*
X121149844Y-165798338D01*
X121124187Y-165721365D01*
X121047213Y-165593075D01*
X120970239Y-165516102D01*
X120841950Y-165439128D01*
X120764976Y-165413470D01*
X120662345Y-165413470D01*
X120559713Y-165464786D01*
X120431424Y-165593075D01*
X121432081Y-165567418D02*
X121483397Y-165567418D01*
X121560370Y-165541760D01*
X121688660Y-165413470D01*
X121714318Y-165336497D01*
X121714318Y-165285181D01*
X121688660Y-165208207D01*
X121637344Y-165156892D01*
X121534712Y-165105576D01*
X120918924Y-165105576D01*
X121252476Y-164772024D01*
X121868265Y-164772024D02*
X121842607Y-164848997D01*
X121842607Y-164900313D01*
X121868265Y-164977287D01*
X121893923Y-165002944D01*
X121970896Y-165028602D01*
X122022212Y-165028602D01*
X122099186Y-165002944D01*
X122201817Y-164900313D01*
X122227475Y-164823339D01*
X122227475Y-164772024D01*
X122201817Y-164695050D01*
X122176159Y-164669392D01*
X122099186Y-164643734D01*
X122047870Y-164643734D01*
X121970896Y-164669392D01*
X121868265Y-164772024D01*
X121791291Y-164797681D01*
X121739975Y-164797681D01*
X121663002Y-164772024D01*
X121560370Y-164669392D01*
X121534712Y-164592418D01*
X121534712Y-164541103D01*
X121560370Y-164464129D01*
X121663002Y-164361498D01*
X121739975Y-164335840D01*
X121791291Y-164335840D01*
X121868265Y-164361498D01*
X121970896Y-164464129D01*
X121996554Y-164541103D01*
X121996554Y-164592418D01*
X121970896Y-164669392D01*
D13*
%TO.C,Q1*%
X148797550Y-65702300D02*
X148797550Y-64772300D01*
X148797550Y-62542300D02*
X147337550Y-62542300D01*
X148797550Y-62542300D02*
X148797550Y-63472300D01*
X148797550Y-65702300D02*
X145637550Y-65702300D01*
%TO.C,J1*%
X178085750Y-133248400D02*
X176053750Y-133248400D01*
X180879750Y-135534400D02*
X180879750Y-133502400D01*
X180625750Y-133248400D02*
X178593750Y-133248400D01*
X178593750Y-138328400D02*
X180625750Y-138328400D01*
X175799750Y-138074400D02*
X176053750Y-138328400D01*
X180625750Y-135788400D02*
X180879750Y-136042400D01*
X173513750Y-133248400D02*
X173259750Y-133502400D01*
X180879750Y-136042400D02*
X180879750Y-138074400D01*
X173259750Y-133502400D02*
X173259750Y-135534400D01*
X178085750Y-138328400D02*
X178339750Y-138074400D01*
X173259750Y-136042400D02*
X173513750Y-135788400D01*
X175545750Y-138328400D02*
X175799750Y-138074400D01*
X173513750Y-138328400D02*
X175545750Y-138328400D01*
X173259750Y-136042400D02*
X173259750Y-138074400D01*
X173259750Y-135534400D02*
X173513750Y-135788400D01*
X178339750Y-133502400D02*
X178085750Y-133248400D01*
X173259750Y-138074400D02*
X173513750Y-138328400D01*
X178339750Y-138074400D02*
X178593750Y-138328400D01*
X176053750Y-133248400D02*
X175799750Y-133502400D01*
X180625750Y-138328400D02*
X180879750Y-138074400D01*
X176053750Y-138328400D02*
X178085750Y-138328400D01*
X180879750Y-135534400D02*
X180625750Y-135788400D01*
X180879750Y-133502400D02*
X180625750Y-133248400D01*
X180625750Y-138328400D02*
X180879750Y-138074400D01*
X175799750Y-133502400D02*
X175545750Y-133248400D01*
X178339750Y-133502400D02*
X178085750Y-133248400D01*
X175545750Y-133248400D02*
X173513750Y-133248400D01*
X178593750Y-133248400D02*
X178339750Y-133502400D01*
%TO.C,R5*%
X158240400Y-66276486D02*
X158240400Y-66730614D01*
X156770400Y-66276486D02*
X156770400Y-66730614D01*
%TO.C,L3*%
X132196355Y-139121885D02*
X131616185Y-139702055D01*
X132988315Y-139913845D02*
X132408145Y-140494015D01*
%TO.C,C4*%
X163391457Y-132843560D02*
X163021990Y-132474093D01*
X162352010Y-133883007D02*
X161982543Y-133513540D01*
%TO.C,D16*%
X179877406Y-102481199D02*
X179877406Y-103131199D01*
X178757406Y-103131199D02*
X180997406Y-103131199D01*
X178757406Y-107371199D02*
X178757406Y-103131199D01*
X179877406Y-108021199D02*
X179877406Y-107371199D01*
X180997406Y-103131199D02*
X180997406Y-107371199D01*
X180997406Y-107371199D02*
X178757406Y-107371199D01*
G36*
X180385406Y-106013199D02*
G01*
X179369406Y-106013199D01*
X179877406Y-104997199D01*
X180385406Y-106013199D01*
G37*
D14*
X180385406Y-106013199D02*
X179369406Y-106013199D01*
X179877406Y-104997199D01*
X180385406Y-106013199D01*
G36*
X181020406Y-104235199D02*
G01*
X178734406Y-104235199D01*
X178734406Y-103727199D01*
X181020406Y-103727199D01*
X181020406Y-104235199D01*
G37*
D15*
X181020406Y-104235199D02*
X178734406Y-104235199D01*
X178734406Y-103727199D01*
X181020406Y-103727199D01*
X181020406Y-104235199D01*
D13*
%TO.C,TVS1*%
X162727400Y-67530150D02*
X161427400Y-67530150D01*
X161427400Y-64410150D02*
X163427400Y-64410150D01*
%TO.C,D8*%
X207582736Y-124290000D02*
X207582736Y-122050000D01*
X207582736Y-122050000D02*
X211822736Y-122050000D01*
X212472736Y-123170000D02*
X211822736Y-123170000D01*
X211822736Y-122050000D02*
X211822736Y-124290000D01*
X211822736Y-124290000D02*
X207582736Y-124290000D01*
X206932736Y-123170000D02*
X207582736Y-123170000D01*
G36*
X209956736Y-123170000D02*
G01*
X208940736Y-123678000D01*
X208940736Y-122662000D01*
X209956736Y-123170000D01*
G37*
D14*
X209956736Y-123170000D02*
X208940736Y-123678000D01*
X208940736Y-122662000D01*
X209956736Y-123170000D01*
G36*
X211226736Y-124313000D02*
G01*
X210718736Y-124313000D01*
X210718736Y-122027000D01*
X211226736Y-122027000D01*
X211226736Y-124313000D01*
G37*
D15*
X211226736Y-124313000D02*
X210718736Y-124313000D01*
X210718736Y-122027000D01*
X211226736Y-122027000D01*
X211226736Y-124313000D01*
D13*
%TO.C,D17*%
X180997406Y-126421199D02*
X178757406Y-126421199D01*
X179877406Y-121531199D02*
X179877406Y-122181199D01*
X178757406Y-126421199D02*
X178757406Y-122181199D01*
X179877406Y-127071199D02*
X179877406Y-126421199D01*
X180997406Y-122181199D02*
X180997406Y-126421199D01*
X178757406Y-122181199D02*
X180997406Y-122181199D01*
G36*
X180385406Y-125063199D02*
G01*
X179369406Y-125063199D01*
X179877406Y-124047199D01*
X180385406Y-125063199D01*
G37*
D14*
X180385406Y-125063199D02*
X179369406Y-125063199D01*
X179877406Y-124047199D01*
X180385406Y-125063199D01*
G36*
X181020406Y-123285199D02*
G01*
X178734406Y-123285199D01*
X178734406Y-122777199D01*
X181020406Y-122777199D01*
X181020406Y-123285199D01*
G37*
D15*
X181020406Y-123285199D02*
X178734406Y-123285199D01*
X178734406Y-122777199D01*
X181020406Y-122777199D01*
X181020406Y-123285199D01*
D13*
%TO.C,R3*%
X164406785Y-134841418D02*
X164085668Y-135162535D01*
X165446232Y-135880865D02*
X165125115Y-136201982D01*
%TO.C,D14*%
X179877406Y-64381250D02*
X179877406Y-65031250D01*
X180997406Y-69271250D02*
X178757406Y-69271250D01*
X178757406Y-69271250D02*
X178757406Y-65031250D01*
X179877406Y-69921250D02*
X179877406Y-69271250D01*
X180997406Y-65031250D02*
X180997406Y-69271250D01*
X178757406Y-65031250D02*
X180997406Y-65031250D01*
G36*
X181020406Y-66135250D02*
G01*
X178734406Y-66135250D01*
X178734406Y-65627250D01*
X181020406Y-65627250D01*
X181020406Y-66135250D01*
G37*
D15*
X181020406Y-66135250D02*
X178734406Y-66135250D01*
X178734406Y-65627250D01*
X181020406Y-65627250D01*
X181020406Y-66135250D01*
G36*
X180385406Y-67913250D02*
G01*
X179369406Y-67913250D01*
X179877406Y-66897250D01*
X180385406Y-67913250D01*
G37*
D14*
X180385406Y-67913250D02*
X179369406Y-67913250D01*
X179877406Y-66897250D01*
X180385406Y-67913250D01*
D13*
%TO.C,F1*%
X154221264Y-66708700D02*
X153017136Y-66708700D01*
X154221264Y-64888700D02*
X153017136Y-64888700D01*
%TO.C,C1*%
X149915590Y-131520807D02*
X150285057Y-131151340D01*
X148876143Y-130481360D02*
X149245610Y-130111893D01*
%TO.C,D5*%
X207582736Y-64900000D02*
X211822736Y-64900000D01*
X211822736Y-64900000D02*
X211822736Y-67140000D01*
X207582736Y-67140000D02*
X207582736Y-64900000D01*
X211822736Y-67140000D02*
X207582736Y-67140000D01*
X212472736Y-66020000D02*
X211822736Y-66020000D01*
X206932736Y-66020000D02*
X207582736Y-66020000D01*
G36*
X209956736Y-66020000D02*
G01*
X208940736Y-66528000D01*
X208940736Y-65512000D01*
X209956736Y-66020000D01*
G37*
D14*
X209956736Y-66020000D02*
X208940736Y-66528000D01*
X208940736Y-65512000D01*
X209956736Y-66020000D01*
G36*
X211226736Y-67163000D02*
G01*
X210718736Y-67163000D01*
X210718736Y-64877000D01*
X211226736Y-64877000D01*
X211226736Y-67163000D01*
G37*
D15*
X211226736Y-67163000D02*
X210718736Y-67163000D01*
X210718736Y-64877000D01*
X211226736Y-64877000D01*
X211226736Y-67163000D01*
D13*
%TO.C,D26*%
X131382446Y-102858699D02*
X131382446Y-100618699D01*
X131382446Y-100618699D02*
X135622446Y-100618699D01*
X135622446Y-102858699D02*
X131382446Y-102858699D01*
X130732446Y-101738699D02*
X131382446Y-101738699D01*
X135622446Y-100618699D02*
X135622446Y-102858699D01*
X136272446Y-101738699D02*
X135622446Y-101738699D01*
G36*
X133756446Y-101738699D02*
G01*
X132740446Y-102246699D01*
X132740446Y-101230699D01*
X133756446Y-101738699D01*
G37*
D14*
X133756446Y-101738699D02*
X132740446Y-102246699D01*
X132740446Y-101230699D01*
X133756446Y-101738699D01*
G36*
X135026446Y-102881699D02*
G01*
X134518446Y-102881699D01*
X134518446Y-100595699D01*
X135026446Y-100595699D01*
X135026446Y-102881699D01*
G37*
D15*
X135026446Y-102881699D02*
X134518446Y-102881699D01*
X134518446Y-100595699D01*
X135026446Y-100595699D01*
X135026446Y-102881699D01*
D13*
%TO.C,L1*%
X219010300Y-78209108D02*
X219010300Y-79029592D01*
X220130300Y-78209108D02*
X220130300Y-79029592D01*
%TO.C,D23*%
X136841348Y-154518876D02*
X138961348Y-158190824D01*
X135546400Y-154515960D02*
X135871400Y-155078876D01*
X137021452Y-159310824D02*
X134901452Y-155638876D01*
X138316400Y-159313740D02*
X137991400Y-158750824D01*
X134901452Y-155638876D02*
X136841348Y-154518876D01*
X138961348Y-158190824D02*
X137021452Y-159310824D01*
G36*
X137413267Y-155463468D02*
G01*
X135433533Y-156606468D01*
X135179533Y-156166527D01*
X137159267Y-155023527D01*
X137413267Y-155463468D01*
G37*
D15*
X137413267Y-155463468D02*
X135433533Y-156606468D01*
X135179533Y-156166527D01*
X137159267Y-155023527D01*
X137413267Y-155463468D01*
G36*
X137752341Y-157320761D02*
G01*
X136872459Y-157828761D01*
X136804400Y-156694880D01*
X137752341Y-157320761D01*
G37*
D14*
X137752341Y-157320761D02*
X136872459Y-157828761D01*
X136804400Y-156694880D01*
X137752341Y-157320761D01*
D13*
%TO.C,D6*%
X211822736Y-83950000D02*
X211822736Y-86190000D01*
X207582736Y-83950000D02*
X211822736Y-83950000D01*
X207582736Y-86190000D02*
X207582736Y-83950000D01*
X206932736Y-85070000D02*
X207582736Y-85070000D01*
X212472736Y-85070000D02*
X211822736Y-85070000D01*
X211822736Y-86190000D02*
X207582736Y-86190000D01*
G36*
X211226736Y-86213000D02*
G01*
X210718736Y-86213000D01*
X210718736Y-83927000D01*
X211226736Y-83927000D01*
X211226736Y-86213000D01*
G37*
D15*
X211226736Y-86213000D02*
X210718736Y-86213000D01*
X210718736Y-83927000D01*
X211226736Y-83927000D01*
X211226736Y-86213000D01*
G36*
X209956736Y-85070000D02*
G01*
X208940736Y-85578000D01*
X208940736Y-84562000D01*
X209956736Y-85070000D01*
G37*
D14*
X209956736Y-85070000D02*
X208940736Y-85578000D01*
X208940736Y-84562000D01*
X209956736Y-85070000D01*
D13*
%TO.C,C10*%
X144742293Y-128290610D02*
X145111760Y-127921143D01*
X145781740Y-129330057D02*
X146151207Y-128960590D01*
%TO.C,C3*%
X167223793Y-140219140D02*
X167593260Y-140588607D01*
X168263240Y-139179693D02*
X168632707Y-139549160D01*
%TO.C,D15*%
X180997406Y-88321225D02*
X178757406Y-88321225D01*
X179877406Y-83431225D02*
X179877406Y-84081225D01*
X178757406Y-84081225D02*
X180997406Y-84081225D01*
X178757406Y-88321225D02*
X178757406Y-84081225D01*
X179877406Y-88971225D02*
X179877406Y-88321225D01*
X180997406Y-84081225D02*
X180997406Y-88321225D01*
G36*
X180385406Y-86963225D02*
G01*
X179369406Y-86963225D01*
X179877406Y-85947225D01*
X180385406Y-86963225D01*
G37*
D14*
X180385406Y-86963225D02*
X179369406Y-86963225D01*
X179877406Y-85947225D01*
X180385406Y-86963225D01*
G36*
X181020406Y-85185225D02*
G01*
X178734406Y-85185225D01*
X178734406Y-84677225D01*
X181020406Y-84677225D01*
X181020406Y-85185225D01*
G37*
D15*
X181020406Y-85185225D02*
X178734406Y-85185225D01*
X178734406Y-84677225D01*
X181020406Y-84677225D01*
X181020406Y-85185225D01*
D13*
%TO.C,D3*%
X226632736Y-103000000D02*
X230872736Y-103000000D01*
X230872736Y-103000000D02*
X230872736Y-105240000D01*
X226632736Y-105240000D02*
X226632736Y-103000000D01*
X231522736Y-104120000D02*
X230872736Y-104120000D01*
X230872736Y-105240000D02*
X226632736Y-105240000D01*
X225982736Y-104120000D02*
X226632736Y-104120000D01*
G36*
X229006736Y-104120000D02*
G01*
X227990736Y-104628000D01*
X227990736Y-103612000D01*
X229006736Y-104120000D01*
G37*
D14*
X229006736Y-104120000D02*
X227990736Y-104628000D01*
X227990736Y-103612000D01*
X229006736Y-104120000D01*
G36*
X230276736Y-105263000D02*
G01*
X229768736Y-105263000D01*
X229768736Y-102977000D01*
X230276736Y-102977000D01*
X230276736Y-105263000D01*
G37*
D15*
X230276736Y-105263000D02*
X229768736Y-105263000D01*
X229768736Y-102977000D01*
X230276736Y-102977000D01*
X230276736Y-105263000D01*
D13*
%TO.C,L5*%
X219977900Y-116594858D02*
X219977900Y-117415342D01*
X218857900Y-116594858D02*
X218857900Y-117415342D01*
%TO.C,R10*%
X184262700Y-137672814D02*
X184262700Y-137218686D01*
X182792700Y-137672814D02*
X182792700Y-137218686D01*
%TO.C,R1*%
X145081782Y-137157215D02*
X144760665Y-137478332D01*
X144042335Y-136117768D02*
X143721218Y-136438885D01*
%TO.C,D9*%
X198927736Y-72302500D02*
X198927736Y-71652500D01*
X200047736Y-67412500D02*
X200047736Y-71652500D01*
X200047736Y-71652500D02*
X197807736Y-71652500D01*
X197807736Y-67412500D02*
X200047736Y-67412500D01*
X197807736Y-71652500D02*
X197807736Y-67412500D01*
X198927736Y-66762500D02*
X198927736Y-67412500D01*
G36*
X200070736Y-68516500D02*
G01*
X197784736Y-68516500D01*
X197784736Y-68008500D01*
X200070736Y-68008500D01*
X200070736Y-68516500D01*
G37*
D15*
X200070736Y-68516500D02*
X197784736Y-68516500D01*
X197784736Y-68008500D01*
X200070736Y-68008500D01*
X200070736Y-68516500D01*
G36*
X199435736Y-70294500D02*
G01*
X198419736Y-70294500D01*
X198927736Y-69278500D01*
X199435736Y-70294500D01*
G37*
D14*
X199435736Y-70294500D02*
X198419736Y-70294500D01*
X198927736Y-69278500D01*
X199435736Y-70294500D01*
D10*
%TO.C,U1*%
X161892755Y-137426700D02*
X161415458Y-137903997D01*
X154574200Y-144745255D02*
X155051497Y-144267958D01*
X154980786Y-130514731D02*
X155882348Y-129613170D01*
X154574200Y-130108145D02*
X154980786Y-130514731D01*
X147255645Y-137426700D02*
X147732942Y-137903997D01*
X161892755Y-137426700D02*
X161415458Y-136949403D01*
X154574200Y-130108145D02*
X154096903Y-130585442D01*
X154574200Y-144745255D02*
X154096903Y-144267958D01*
X147255645Y-137426700D02*
X147732942Y-136949403D01*
D13*
%TO.C,L7*%
X142467400Y-75027758D02*
X142467400Y-75848242D01*
X143587400Y-75027758D02*
X143587400Y-75848242D01*
%TO.C,U2*%
X142598500Y-69499050D02*
X142598500Y-67699050D01*
X145818500Y-67699050D02*
X145818500Y-70149050D01*
%TO.C,C5*%
X146676360Y-133407543D02*
X146306893Y-133777010D01*
X147715807Y-134446990D02*
X147346340Y-134816457D01*
%TO.C,C8*%
X153126007Y-145816610D02*
X152756540Y-145447143D01*
X152086560Y-146856057D02*
X151717093Y-146486590D01*
%TO.C,L4*%
X143606450Y-113394458D02*
X143606450Y-114214942D01*
X142486450Y-113394458D02*
X142486450Y-114214942D01*
%TO.C,D7*%
X212472736Y-104120000D02*
X211822736Y-104120000D01*
X211822736Y-103000000D02*
X211822736Y-105240000D01*
X207582736Y-103000000D02*
X211822736Y-103000000D01*
X207582736Y-105240000D02*
X207582736Y-103000000D01*
X206932736Y-104120000D02*
X207582736Y-104120000D01*
X211822736Y-105240000D02*
X207582736Y-105240000D01*
G36*
X211226736Y-105263000D02*
G01*
X210718736Y-105263000D01*
X210718736Y-102977000D01*
X211226736Y-102977000D01*
X211226736Y-105263000D01*
G37*
D15*
X211226736Y-105263000D02*
X210718736Y-105263000D01*
X210718736Y-102977000D01*
X211226736Y-102977000D01*
X211226736Y-105263000D01*
G36*
X209956736Y-104120000D02*
G01*
X208940736Y-104628000D01*
X208940736Y-103612000D01*
X209956736Y-104120000D01*
G37*
D14*
X209956736Y-104120000D02*
X208940736Y-104628000D01*
X208940736Y-103612000D01*
X209956736Y-104120000D01*
D13*
%TO.C,C2*%
X163146307Y-144806960D02*
X162776840Y-144437493D01*
X162106860Y-145846407D02*
X161737393Y-145476940D01*
%TO.C,D22*%
X155322736Y-118407500D02*
X154672736Y-118407500D01*
X149782736Y-118407500D02*
X150432736Y-118407500D01*
X150432736Y-119527500D02*
X150432736Y-117287500D01*
X154672736Y-117287500D02*
X154672736Y-119527500D01*
X154672736Y-119527500D02*
X150432736Y-119527500D01*
X150432736Y-117287500D02*
X154672736Y-117287500D01*
G36*
X153314736Y-118915500D02*
G01*
X152298736Y-118407500D01*
X153314736Y-117899500D01*
X153314736Y-118915500D01*
G37*
D14*
X153314736Y-118915500D02*
X152298736Y-118407500D01*
X153314736Y-117899500D01*
X153314736Y-118915500D01*
G36*
X151536736Y-119550500D02*
G01*
X151028736Y-119550500D01*
X151028736Y-117264500D01*
X151536736Y-117264500D01*
X151536736Y-119550500D01*
G37*
D15*
X151536736Y-119550500D02*
X151028736Y-119550500D01*
X151028736Y-117264500D01*
X151536736Y-117264500D01*
X151536736Y-119550500D01*
D13*
%TO.C,D25*%
X135622446Y-83808727D02*
X131382446Y-83808727D01*
X131382446Y-81568727D02*
X135622446Y-81568727D01*
X135622446Y-81568727D02*
X135622446Y-83808727D01*
X136272446Y-82688727D02*
X135622446Y-82688727D01*
X131382446Y-83808727D02*
X131382446Y-81568727D01*
X130732446Y-82688727D02*
X131382446Y-82688727D01*
G36*
X133756446Y-82688727D02*
G01*
X132740446Y-83196727D01*
X132740446Y-82180727D01*
X133756446Y-82688727D01*
G37*
D14*
X133756446Y-82688727D02*
X132740446Y-83196727D01*
X132740446Y-82180727D01*
X133756446Y-82688727D01*
G36*
X135026446Y-83831727D02*
G01*
X134518446Y-83831727D01*
X134518446Y-81545727D01*
X135026446Y-81545727D01*
X135026446Y-83831727D01*
G37*
D15*
X135026446Y-83831727D02*
X134518446Y-83831727D01*
X134518446Y-81545727D01*
X135026446Y-81545727D01*
X135026446Y-83831727D01*
D13*
%TO.C,C6*%
X165318007Y-138733240D02*
X164948540Y-139102707D01*
X164278560Y-137693793D02*
X163909093Y-138063260D01*
%TO.C,D11*%
X198927736Y-104862500D02*
X198927736Y-105512500D01*
X197807736Y-109752500D02*
X197807736Y-105512500D01*
X200047736Y-109752500D02*
X197807736Y-109752500D01*
X197807736Y-105512500D02*
X200047736Y-105512500D01*
X198927736Y-110402500D02*
X198927736Y-109752500D01*
X200047736Y-105512500D02*
X200047736Y-109752500D01*
G36*
X200070736Y-106616500D02*
G01*
X197784736Y-106616500D01*
X197784736Y-106108500D01*
X200070736Y-106108500D01*
X200070736Y-106616500D01*
G37*
D15*
X200070736Y-106616500D02*
X197784736Y-106616500D01*
X197784736Y-106108500D01*
X200070736Y-106108500D01*
X200070736Y-106616500D01*
G36*
X199435736Y-108394500D02*
G01*
X198419736Y-108394500D01*
X198927736Y-107378500D01*
X199435736Y-108394500D01*
G37*
D14*
X199435736Y-108394500D02*
X198419736Y-108394500D01*
X198927736Y-107378500D01*
X199435736Y-108394500D01*
D13*
%TO.C,D4*%
X226632736Y-122050000D02*
X230872736Y-122050000D01*
X230872736Y-122050000D02*
X230872736Y-124290000D01*
X226632736Y-124290000D02*
X226632736Y-122050000D01*
X231522736Y-123170000D02*
X230872736Y-123170000D01*
X230872736Y-124290000D02*
X226632736Y-124290000D01*
X225982736Y-123170000D02*
X226632736Y-123170000D01*
G36*
X230276736Y-124313000D02*
G01*
X229768736Y-124313000D01*
X229768736Y-122027000D01*
X230276736Y-122027000D01*
X230276736Y-124313000D01*
G37*
D15*
X230276736Y-124313000D02*
X229768736Y-124313000D01*
X229768736Y-122027000D01*
X230276736Y-122027000D01*
X230276736Y-124313000D01*
G36*
X229006736Y-123170000D02*
G01*
X227990736Y-123678000D01*
X227990736Y-122662000D01*
X229006736Y-123170000D01*
G37*
D14*
X229006736Y-123170000D02*
X227990736Y-123678000D01*
X227990736Y-122662000D01*
X229006736Y-123170000D01*
D13*
%TO.C,D12*%
X198927736Y-123912500D02*
X198927736Y-124562500D01*
X198927736Y-129452500D02*
X198927736Y-128802500D01*
X197807736Y-124562500D02*
X200047736Y-124562500D01*
X200047736Y-128802500D02*
X197807736Y-128802500D01*
X197807736Y-128802500D02*
X197807736Y-124562500D01*
X200047736Y-124562500D02*
X200047736Y-128802500D01*
G36*
X199435736Y-127444500D02*
G01*
X198419736Y-127444500D01*
X198927736Y-126428500D01*
X199435736Y-127444500D01*
G37*
D14*
X199435736Y-127444500D02*
X198419736Y-127444500D01*
X198927736Y-126428500D01*
X199435736Y-127444500D01*
G36*
X200070736Y-125666500D02*
G01*
X197784736Y-125666500D01*
X197784736Y-125158500D01*
X200070736Y-125158500D01*
X200070736Y-125666500D01*
G37*
D15*
X200070736Y-125666500D02*
X197784736Y-125666500D01*
X197784736Y-125158500D01*
X200070736Y-125158500D01*
X200070736Y-125666500D01*
D13*
%TO.C,R4*%
X166771650Y-65054214D02*
X166771650Y-64600086D01*
X168241650Y-65054214D02*
X168241650Y-64600086D01*
%TO.C,D18*%
X140261200Y-153453200D02*
X138021200Y-153453200D01*
X138021200Y-149213200D02*
X140261200Y-149213200D01*
X140261200Y-149213200D02*
X140261200Y-153453200D01*
X139141200Y-148563200D02*
X139141200Y-149213200D01*
X138021200Y-153453200D02*
X138021200Y-149213200D01*
X139141200Y-154103200D02*
X139141200Y-153453200D01*
G36*
X140284200Y-150317200D02*
G01*
X137998200Y-150317200D01*
X137998200Y-149809200D01*
X140284200Y-149809200D01*
X140284200Y-150317200D01*
G37*
D15*
X140284200Y-150317200D02*
X137998200Y-150317200D01*
X137998200Y-149809200D01*
X140284200Y-149809200D01*
X140284200Y-150317200D01*
G36*
X139649200Y-152095200D02*
G01*
X138633200Y-152095200D01*
X139141200Y-151079200D01*
X139649200Y-152095200D01*
G37*
D14*
X139649200Y-152095200D02*
X138633200Y-152095200D01*
X139141200Y-151079200D01*
X139649200Y-152095200D01*
D13*
%TO.C,D24*%
X135622446Y-79068742D02*
X135622446Y-81308742D01*
X131382446Y-79068742D02*
X135622446Y-79068742D01*
X135622446Y-81308742D02*
X131382446Y-81308742D01*
X136272446Y-80188742D02*
X135622446Y-80188742D01*
X130732446Y-80188742D02*
X131382446Y-80188742D01*
X131382446Y-81308742D02*
X131382446Y-79068742D01*
G36*
X133756446Y-80188742D02*
G01*
X132740446Y-80696742D01*
X132740446Y-79680742D01*
X133756446Y-80188742D01*
G37*
D14*
X133756446Y-80188742D02*
X132740446Y-80696742D01*
X132740446Y-79680742D01*
X133756446Y-80188742D01*
G36*
X135026446Y-81331742D02*
G01*
X134518446Y-81331742D01*
X134518446Y-79045742D01*
X135026446Y-79045742D01*
X135026446Y-81331742D01*
G37*
D15*
X135026446Y-81331742D02*
X134518446Y-81331742D01*
X134518446Y-79045742D01*
X135026446Y-79045742D01*
X135026446Y-81331742D01*
D13*
%TO.C,C7*%
X148856307Y-129722590D02*
X148486840Y-130092057D01*
X147816860Y-128683143D02*
X147447393Y-129052610D01*
%TO.C,R2*%
X146415282Y-139048735D02*
X146094165Y-138727618D01*
X145375835Y-140088182D02*
X145054718Y-139767065D01*
%TO.C,R6*%
X164238000Y-75229986D02*
X164238000Y-75684114D01*
X165708000Y-75229986D02*
X165708000Y-75684114D01*
%TO.C,C9*%
X182773650Y-133203048D02*
X182773650Y-133725552D01*
X184243650Y-133203048D02*
X184243650Y-133725552D01*
%TO.C,F2*%
X134180006Y-140034159D02*
X133328559Y-140885606D01*
X135466941Y-141321094D02*
X134615494Y-142172541D01*
%TO.C,D21*%
X150432736Y-98237500D02*
X154672736Y-98237500D01*
X155322736Y-99357500D02*
X154672736Y-99357500D01*
X154672736Y-100477500D02*
X150432736Y-100477500D01*
X149782736Y-99357500D02*
X150432736Y-99357500D01*
X150432736Y-100477500D02*
X150432736Y-98237500D01*
X154672736Y-98237500D02*
X154672736Y-100477500D01*
G36*
X152806736Y-99357500D02*
G01*
X151790736Y-99865500D01*
X151790736Y-98849500D01*
X152806736Y-99357500D01*
G37*
D14*
X152806736Y-99357500D02*
X151790736Y-99865500D01*
X151790736Y-98849500D01*
X152806736Y-99357500D01*
G36*
X154076736Y-100500500D02*
G01*
X153568736Y-100500500D01*
X153568736Y-98214500D01*
X154076736Y-98214500D01*
X154076736Y-100500500D01*
G37*
D15*
X154076736Y-100500500D02*
X153568736Y-100500500D01*
X153568736Y-98214500D01*
X154076736Y-98214500D01*
X154076736Y-100500500D01*
D13*
%TO.C,L2*%
X155780708Y-62971750D02*
X156601192Y-62971750D01*
X155780708Y-64091750D02*
X156601192Y-64091750D01*
%TO.C,R7*%
X167651100Y-75229986D02*
X167651100Y-75684114D01*
X166181100Y-75229986D02*
X166181100Y-75684114D01*
%TO.C,D19*%
X154672736Y-78927500D02*
X150432736Y-78927500D01*
X150432736Y-76687500D02*
X154672736Y-76687500D01*
X149782736Y-77807500D02*
X150432736Y-77807500D01*
X154672736Y-76687500D02*
X154672736Y-78927500D01*
X155322736Y-77807500D02*
X154672736Y-77807500D01*
X150432736Y-78927500D02*
X150432736Y-76687500D01*
G36*
X154076736Y-78950500D02*
G01*
X153568736Y-78950500D01*
X153568736Y-76664500D01*
X154076736Y-76664500D01*
X154076736Y-78950500D01*
G37*
D15*
X154076736Y-78950500D02*
X153568736Y-78950500D01*
X153568736Y-76664500D01*
X154076736Y-76664500D01*
X154076736Y-78950500D01*
G36*
X152806736Y-77807500D02*
G01*
X151790736Y-78315500D01*
X151790736Y-77299500D01*
X152806736Y-77807500D01*
G37*
D14*
X152806736Y-77807500D02*
X151790736Y-78315500D01*
X151790736Y-77299500D01*
X152806736Y-77807500D01*
D13*
%TO.C,D10*%
X197807736Y-86462500D02*
X200047736Y-86462500D01*
X198927736Y-85812500D02*
X198927736Y-86462500D01*
X198927736Y-91352500D02*
X198927736Y-90702500D01*
X200047736Y-86462500D02*
X200047736Y-90702500D01*
X200047736Y-90702500D02*
X197807736Y-90702500D01*
X197807736Y-90702500D02*
X197807736Y-86462500D01*
G36*
X199435736Y-89344500D02*
G01*
X198419736Y-89344500D01*
X198927736Y-88328500D01*
X199435736Y-89344500D01*
G37*
D14*
X199435736Y-89344500D02*
X198419736Y-89344500D01*
X198927736Y-88328500D01*
X199435736Y-89344500D01*
G36*
X200070736Y-87566500D02*
G01*
X197784736Y-87566500D01*
X197784736Y-87058500D01*
X200070736Y-87058500D01*
X200070736Y-87566500D01*
G37*
D15*
X200070736Y-87566500D02*
X197784736Y-87566500D01*
X197784736Y-87058500D01*
X200070736Y-87058500D01*
X200070736Y-87566500D01*
D13*
%TO.C,D20*%
X155322736Y-80307500D02*
X154672736Y-80307500D01*
X154672736Y-79187500D02*
X154672736Y-81427500D01*
X150432736Y-81427500D02*
X150432736Y-79187500D01*
X149782736Y-80307500D02*
X150432736Y-80307500D01*
X154672736Y-81427500D02*
X150432736Y-81427500D01*
X150432736Y-79187500D02*
X154672736Y-79187500D01*
G36*
X154076736Y-81450500D02*
G01*
X153568736Y-81450500D01*
X153568736Y-79164500D01*
X154076736Y-79164500D01*
X154076736Y-81450500D01*
G37*
D15*
X154076736Y-81450500D02*
X153568736Y-81450500D01*
X153568736Y-79164500D01*
X154076736Y-79164500D01*
X154076736Y-81450500D01*
G36*
X152806736Y-80307500D02*
G01*
X151790736Y-80815500D01*
X151790736Y-79799500D01*
X152806736Y-80307500D01*
G37*
D14*
X152806736Y-80307500D02*
X151790736Y-80815500D01*
X151790736Y-79799500D01*
X152806736Y-80307500D01*
D13*
%TO.C,D1*%
X230872736Y-67140000D02*
X226632736Y-67140000D01*
X231522736Y-66020000D02*
X230872736Y-66020000D01*
X226632736Y-67140000D02*
X226632736Y-64900000D01*
X230872736Y-64900000D02*
X230872736Y-67140000D01*
X225982736Y-66020000D02*
X226632736Y-66020000D01*
X226632736Y-64900000D02*
X230872736Y-64900000D01*
G36*
X230276736Y-67163000D02*
G01*
X229768736Y-67163000D01*
X229768736Y-64877000D01*
X230276736Y-64877000D01*
X230276736Y-67163000D01*
G37*
D15*
X230276736Y-67163000D02*
X229768736Y-67163000D01*
X229768736Y-64877000D01*
X230276736Y-64877000D01*
X230276736Y-67163000D01*
G36*
X229006736Y-66020000D02*
G01*
X227990736Y-66528000D01*
X227990736Y-65512000D01*
X229006736Y-66020000D01*
G37*
D14*
X229006736Y-66020000D02*
X227990736Y-66528000D01*
X227990736Y-65512000D01*
X229006736Y-66020000D01*
D13*
%TO.C,L6*%
X130579345Y-150723335D02*
X131159515Y-151303505D01*
X129787385Y-151515295D02*
X130367555Y-152095465D01*
%TO.C,TVS4*%
X127944008Y-135778072D02*
X130666369Y-138500433D01*
X129358222Y-134363858D02*
X132080583Y-137086219D01*
X127944008Y-135778072D02*
X129358222Y-134363858D01*
%TO.C,D13*%
X157965100Y-149172800D02*
X157965100Y-149822800D01*
X156845100Y-154062800D02*
X156845100Y-149822800D01*
X157965100Y-154712800D02*
X157965100Y-154062800D01*
X156845100Y-149822800D02*
X159085100Y-149822800D01*
X159085100Y-154062800D02*
X156845100Y-154062800D01*
X159085100Y-149822800D02*
X159085100Y-154062800D01*
G36*
X158473100Y-152704800D02*
G01*
X157457100Y-152704800D01*
X157965100Y-151688800D01*
X158473100Y-152704800D01*
G37*
D14*
X158473100Y-152704800D02*
X157457100Y-152704800D01*
X157965100Y-151688800D01*
X158473100Y-152704800D01*
G36*
X159108100Y-150926800D02*
G01*
X156822100Y-150926800D01*
X156822100Y-150418800D01*
X159108100Y-150418800D01*
X159108100Y-150926800D01*
G37*
D15*
X159108100Y-150926800D02*
X156822100Y-150926800D01*
X156822100Y-150418800D01*
X159108100Y-150418800D01*
X159108100Y-150926800D01*
D13*
%TO.C,TVS2*%
X130302606Y-146585517D02*
X129383367Y-147504756D01*
X127177194Y-145298583D02*
X128591408Y-143884369D01*
%TO.C,D27*%
X132382451Y-119668709D02*
X136622451Y-119668709D01*
X136622451Y-119668709D02*
X136622451Y-121908709D01*
X137272451Y-120788709D02*
X136622451Y-120788709D01*
X131732451Y-120788709D02*
X132382451Y-120788709D01*
X136622451Y-121908709D02*
X132382451Y-121908709D01*
X132382451Y-121908709D02*
X132382451Y-119668709D01*
G36*
X136026451Y-121931709D02*
G01*
X135518451Y-121931709D01*
X135518451Y-119645709D01*
X136026451Y-119645709D01*
X136026451Y-121931709D01*
G37*
D15*
X136026451Y-121931709D02*
X135518451Y-121931709D01*
X135518451Y-119645709D01*
X136026451Y-119645709D01*
X136026451Y-121931709D01*
G36*
X134756451Y-120788709D02*
G01*
X133740451Y-121296709D01*
X133740451Y-120280709D01*
X134756451Y-120788709D01*
G37*
D14*
X134756451Y-120788709D02*
X133740451Y-121296709D01*
X133740451Y-120280709D01*
X134756451Y-120788709D01*
D13*
%TO.C,D2*%
X226632736Y-86190000D02*
X226632736Y-83950000D01*
X231522736Y-85070000D02*
X230872736Y-85070000D01*
X230872736Y-83950000D02*
X230872736Y-86190000D01*
X225982736Y-85070000D02*
X226632736Y-85070000D01*
X230872736Y-86190000D02*
X226632736Y-86190000D01*
X226632736Y-83950000D02*
X230872736Y-83950000D01*
G36*
X229006736Y-85070000D02*
G01*
X227990736Y-85578000D01*
X227990736Y-84562000D01*
X229006736Y-85070000D01*
G37*
D14*
X229006736Y-85070000D02*
X227990736Y-85578000D01*
X227990736Y-84562000D01*
X229006736Y-85070000D01*
G36*
X230276736Y-86213000D02*
G01*
X229768736Y-86213000D01*
X229768736Y-83927000D01*
X230276736Y-83927000D01*
X230276736Y-86213000D01*
G37*
D15*
X230276736Y-86213000D02*
X229768736Y-86213000D01*
X229768736Y-83927000D01*
X230276736Y-83927000D01*
X230276736Y-86213000D01*
D13*
%TO.C,TVS3*%
X155743000Y-60245750D02*
X155743000Y-62245750D01*
X155743000Y-60245750D02*
X151893000Y-60245750D01*
X155743000Y-62245750D02*
X151893000Y-62245750D01*
%TO.C,Y1*%
X161665821Y-142812198D02*
X165484198Y-138993821D01*
X164847802Y-145994179D02*
X161665821Y-142812198D01*
%TO.C,D28*%
X122030836Y-169408186D02*
X121571216Y-168948566D01*
X122363176Y-168156607D02*
X120779257Y-169740526D01*
X118113464Y-165490814D02*
X118573084Y-165950434D01*
X120779257Y-169740526D02*
X117781124Y-166742393D01*
X119365043Y-165158474D02*
X122363176Y-168156607D01*
X117781124Y-166742393D02*
X119365043Y-165158474D01*
G36*
X120161953Y-165922856D02*
G01*
X118545506Y-167539303D01*
X118186296Y-167180092D01*
X119802742Y-165563646D01*
X120161953Y-165922856D01*
G37*
D15*
X120161953Y-165922856D02*
X118545506Y-167539303D01*
X118186296Y-167180092D01*
X119802742Y-165563646D01*
X120161953Y-165922856D01*
G36*
X120970176Y-167629105D02*
G01*
X120251755Y-168347526D01*
X119892545Y-167269895D01*
X120970176Y-167629105D01*
G37*
D14*
X120970176Y-167629105D02*
X120251755Y-168347526D01*
X119892545Y-167269895D01*
X120970176Y-167629105D01*
%TD*%
M02*
