M48
; DRILL file {KiCad (6.0.7)} date Tue 06 Sep 2022 03:05:22 PM +03
; FORMAT={-:-/ absolute / inch / decimal}
; #@! TF.CreationDate,2022-09-06T15:05:22+03:00
; #@! TF.GenerationSoftware,Kicad,Pcbnew,(6.0.7)
; #@! TF.FileFunction,Plated,1,2,PTH
FMAT,2
INCH
; #@! TA.AperFunction,Plated,PTH,ViaDrill
T1C0.0118
; #@! TA.AperFunction,Plated,PTH,ViaDrill
T2C0.0157
; #@! TA.AperFunction,Plated,PTH,ComponentDrill
T3C0.0157
; #@! TA.AperFunction,Plated,PTH,ViaDrill
T4C0.0197
; #@! TA.AperFunction,Plated,PTH,ComponentDrill
T5C0.0236
; #@! TA.AperFunction,Plated,PTH,ComponentDrill
T6C0.0300
; #@! TA.AperFunction,Plated,PTH,ComponentDrill
T7C0.0315
; #@! TA.AperFunction,Plated,PTH,ComponentDrill
T8C0.0866
%
G90
G05
T1
X4.0764Y-6.7748
X4.326Y-6.5468
X4.494Y-6.3637
X4.5435Y-6.9075
X4.5705Y-6.6082
X4.7452Y-6.0953
X4.7685Y-6.4223
X4.8727Y-5.5993
X4.9013Y-5.8237
X4.9043Y-5.5673
X4.9044Y-5.5993
X4.9371Y-5.5678
X4.9528Y-4.6633
X4.9567Y-4.1227
X4.9575Y-5.1458
X5.0032Y-5.3647
X5.0566Y-6.1243
X5.115Y-5.511
X5.1329Y-6.3745
X5.2477Y-6.1208
X5.2635Y-4.5953
X5.2837Y-3.0143
X5.2882Y-3.4185
X5.2916Y-3.7976
X5.3077Y-5.2043
X5.31Y-6.426
X5.325Y-3.9015
X5.3535Y-4.7047
X5.3678Y-4.1707
X5.3984Y-5.3556
X5.4683Y-3.9202
X5.481Y-4.0785
X5.4908Y-5.6085
X5.5312Y-5.358
X5.5965Y-2.8117
X5.6122Y-3.3682
X5.6241Y-6.2364
X5.625Y-5.217
X5.6303Y-4.3237
X5.6318Y-3.9532
X5.6775Y-2.5537
X5.6775Y-2.6932
X5.7233Y-4.8045
X5.7492Y-5.5692
X5.7563Y-5.2485
X5.769Y-2.6122
X5.7862Y-5.3797
X5.7885Y-5.802
X5.8019Y-4.7563
X5.802Y-3.3232
X5.8215Y-5.5838
X5.853Y-6.1155
X5.8621Y-5.5905
X5.8913Y-5.6197
X5.9175Y-2.4606
X5.919Y-5.334
X5.9205Y-5.3775
X5.9273Y-5.6498
X5.94Y-3.3232
X5.9421Y-5.3126
X5.9647Y-5.2897
X5.9888Y-5.4683
X5.9916Y-5.2701
X6.054Y-5.238
X6.0638Y-5.7248
X6.0847Y-5.1225
X6.0915Y-5.4817
X6.1005Y-2.9407
X6.1035Y-5.514
X6.1125Y-5.394
X6.1436Y-5.9314
X6.1627Y-2.4255
X6.1676Y-5.4109
X6.1852Y-5.5222
X6.1899Y-5.4332
X6.2286Y-5.31
X6.249Y-5.334
X6.2594Y-5.4111
X6.2723Y-5.7698
X6.2986Y-5.3753
X6.3031Y-5.6318
X6.311Y-5.4042
X6.3457Y-2.3422
X6.3682Y-2.3646
X6.3788Y-5.3863
X6.3818Y-2.634
X6.3907Y-2.3419
X6.3975Y-5.4525
X6.3981Y-5.3361
X6.4136Y-2.3655
X6.4192Y-2.94
X6.4305Y-3.0862
X6.4335Y-5.4112
X6.4387Y-3.189
X6.444Y-4.6418
X6.4455Y-5.8734
X6.447Y-4.5682
X6.4508Y-3.8445
X6.4515Y-3.9383
X6.468Y-5.775
X6.4717Y-2.5361
X6.5385Y-2.5905
X6.5759Y-5.6759
X6.5782Y-5.4173
X6.5925Y-2.4413
X6.5962Y-5.3904
X6.5977Y-2.775
X6.6031Y-5.9811
X6.6202Y-4.5637
X6.6202Y-4.6418
X6.6225Y-3.8475
X6.624Y-3.936
X6.6427Y-3.096
X6.6465Y-3.1793
X6.6555Y-2.8373
X6.6904Y-5.5614
X6.6907Y-2.319
X6.7741Y-5.6872
X6.8055Y-4.5008
X6.81Y-3.744
X6.8107Y-2.9888
X6.8265Y-5.4783
X6.8806Y-5.7698
X6.9Y-2.988
X6.9082Y-4.4992
X6.9173Y-3.7455
X6.942Y-4.1558
X6.9915Y-2.4555
X7.2713Y-3.9585
X7.281Y-2.8447
X7.2855Y-5.451
X7.2877Y-3.6008
X7.2877Y-4.3148
X7.3418Y-4.773
X7.3462Y-5.1578
X7.3935Y-4.9155
X7.4093Y-2.4
X7.5375Y-3.0848
X7.5495Y-4.5968
X7.5523Y-3.828
X7.6717Y-3.8302
X7.6745Y-4.5964
X7.6792Y-3.0848
X7.797Y-4.7603
X7.977Y-2.5402
X8.01Y-4.9822
X8.1328Y-3.4492
X8.2005Y-3.354
X8.466Y-4.26
X8.4742Y-4.6725
X8.4795Y-3.2175
X8.4795Y-3.5362
X8.5275Y-5.0491
X8.5597Y-4.6297
X8.5695Y-3.1725
X8.5747Y-3.5377
X8.589Y-5.3617
X8.601Y-4.254
X8.6122Y-2.5583
X8.9962Y-3.4884
X9.006Y-4.2345
X9.0165Y-4.9845
X9.0285Y-2.76
X9.1425Y-5.3812
X9.2835Y-5.1098
X9.3202Y-4.1587
X9.321Y-4.9185
X9.3217Y-3.4275
T2
X4.983Y-5.7893
X5.1922Y-5.6288
X5.8597Y-5.123
T3
X5.2623Y-5.8883
X5.2813Y-5.8423
X5.2813Y-5.9342
X5.3273Y-5.8233
X5.3273Y-5.9532
X5.3732Y-5.8423
X5.3732Y-5.9342
X5.3922Y-5.8883
X5.5661Y-3.1594
X5.5661Y-4.6594
X5.5851Y-3.1134
X5.5851Y-3.2053
X5.5851Y-4.6134
X5.5851Y-4.7053
X5.631Y-3.0944
X5.631Y-3.2243
X5.631Y-4.5944
X5.631Y-4.7243
X5.6769Y-3.1134
X5.6769Y-3.2053
X5.6769Y-4.6134
X5.6769Y-4.7053
X5.696Y-3.1594
X5.696Y-4.6594
X8.5661Y-3.3
X8.5661Y-4.8
X8.5851Y-3.2541
X8.5851Y-3.3459
X8.5851Y-4.7541
X8.5851Y-4.8459
X8.631Y-3.235
X8.631Y-3.365
X8.631Y-4.735
X8.631Y-4.865
X8.6769Y-3.2541
X8.6769Y-3.3459
X8.6769Y-4.7541
X8.6769Y-4.8459
X8.696Y-3.3
X8.696Y-4.8
T4
X4.9463Y-5.7585
X5.0812Y-5.6205
X5.3777Y-4.5474
X5.5318Y-4.5501
X5.5425Y-2.8117
X5.5785Y-3.048
X5.7094Y-4.518
X5.7524Y-4.9603
X5.8072Y-2.6258
X6.1951Y-5.124
X6.285Y-2.5012
X6.3045Y-5.232
X6.3075Y-2.5867
X6.4792Y-2.5035
X8.2717Y-2.577
T6
X6.8712Y-5.2935
X6.8712Y-5.3935
X6.9712Y-5.2985
X6.9712Y-5.3985
X7.0713Y-5.2935
X7.0713Y-5.3935
T7
X4.6212Y-6.4864
X4.8333Y-6.6986
X5.106Y-3.157
X5.106Y-3.2555
X5.106Y-4.0055
X5.1454Y-4.7555
X5.316Y-6.0478
X5.406Y-3.157
X5.406Y-3.2555
X5.406Y-4.0055
X5.4454Y-4.7555
X5.466Y-6.3077
X5.478Y-5.808
X5.478Y-6.108
X5.856Y-3.0633
X5.856Y-3.1617
X5.856Y-3.9117
X5.856Y-4.6617
X6.156Y-3.0633
X6.156Y-3.1617
X6.156Y-3.9117
X6.156Y-4.6617
X6.2191Y-5.832
X6.2191Y-6.132
X7.0818Y-2.4937
X7.0818Y-2.7937
X7.0818Y-3.2437
X7.0818Y-3.5437
X7.0818Y-3.9937
X7.0818Y-4.2937
X7.0818Y-4.7437
X7.0818Y-5.0437
X7.8318Y-2.5875
X7.8318Y-2.8875
X7.8318Y-3.3375
X7.8318Y-3.6375
X7.8318Y-4.0875
X7.8318Y-4.3875
X7.8318Y-4.8375
X7.8318Y-5.1375
X8.106Y-2.5992
X8.106Y-3.3492
X8.106Y-4.0992
X8.106Y-4.8492
X8.406Y-2.5992
X8.406Y-3.3492
X8.406Y-4.0992
X8.406Y-4.8492
X8.856Y-2.5992
X8.856Y-3.3492
X8.856Y-4.0992
X8.856Y-4.8492
X9.156Y-2.5992
X9.156Y-3.3492
X9.156Y-4.0992
X9.156Y-4.8492
T8
X5.3273Y-5.8883
X5.631Y-3.1594
X5.631Y-4.6594
X8.631Y-3.3
X8.631Y-4.8
T5
G00X4.6801Y-5.5972
M15
G01X4.6968Y-5.6139
M16
G05
G00X4.7895Y-5.7066
M15
G01X4.8201Y-5.7372
M16
G05
G00X4.9206Y-5.3566
M15
G01X4.9374Y-5.3733
M16
G05
G00X5.0301Y-5.466
M15
G01X5.0607Y-5.4967
M16
G05
G00X6.2109Y-2.1989
M15
G01X6.2109Y-2.2225
M16
G05
G00X6.2109Y-2.3536
M15
G01X6.2109Y-2.3969
M16
G05
G00X6.5511Y-2.1989
M15
G01X6.5511Y-2.2225
M16
G05
G00X6.5511Y-2.3536
M15
G01X6.5511Y-2.3969
M16
G05
T0
M30
