M48
; DRILL file {KiCad (6.0.7)} date Tue 06 Sep 2022 03:05:22 PM +03
; FORMAT={-:-/ absolute / inch / decimal}
; #@! TF.CreationDate,2022-09-06T15:05:22+03:00
; #@! TF.GenerationSoftware,Kicad,Pcbnew,(6.0.7)
; #@! TF.FileFunction,NonPlated,1,2,NPTH
FMAT,2
INCH
; #@! TA.AperFunction,NonPlated,NPTH,ComponentDrill
T1C0.0256
; #@! TA.AperFunction,NonPlated,NPTH,ComponentDrill
T2C0.0689
; #@! TA.AperFunction,NonPlated,NPTH,ComponentDrill
T3C0.1181
; #@! TA.AperFunction,NonPlated,NPTH,ComponentDrill
T4C0.1570
%
G90
G05
T1
X4.8299Y-5.6673
X4.9908Y-5.5064
X6.2672Y-2.3544
X6.4948Y-2.3544
T2
X4.219Y-6.9477
X4.5019Y-6.6649
X4.809Y-6.3494
X5.056Y-2.8312
X5.056Y-3.5812
X5.056Y-4.3312
X5.056Y-5.0812
X5.1555Y-6.1494
X5.456Y-2.8312
X5.456Y-3.5812
X5.456Y-4.3312
X5.456Y-5.0812
X5.6186Y-5.925
X5.806Y-2.7375
X5.806Y-3.4875
X5.806Y-4.2375
X5.806Y-4.9875
X6.0186Y-5.925
X6.206Y-2.7375
X6.206Y-3.4875
X6.206Y-4.2375
X6.206Y-4.9875
X6.3686Y-5.8312
X6.756Y-2.4438
X6.756Y-2.8438
X6.756Y-3.1937
X6.756Y-3.5937
X6.756Y-3.9437
X6.756Y-4.3437
X6.756Y-4.6937
X6.756Y-5.0937
X6.7686Y-5.8312
X7.506Y-2.5375
X7.506Y-2.9375
X7.506Y-3.2875
X7.506Y-3.6875
X7.506Y-4.0375
X7.506Y-4.4375
X7.506Y-4.7875
X7.506Y-5.1875
X8.056Y-2.925
X8.056Y-3.675
X8.056Y-4.425
X8.056Y-5.175
X8.456Y-2.925
X8.456Y-3.675
X8.456Y-4.425
X8.456Y-5.175
X8.806Y-2.925
X8.806Y-3.675
X8.806Y-4.425
X8.806Y-5.175
X9.206Y-2.925
X9.206Y-3.675
X9.206Y-4.425
X9.206Y-5.175
T3
X4.4312Y-7.0184
X4.5372Y-6.7709
X4.9956Y-6.4726
X5.106Y-4.9812
X5.156Y-3.0312
X5.156Y-3.7812
X5.156Y-4.5312
X5.1622Y-6.261
X5.356Y-4.8812
X5.406Y-2.9312
X5.406Y-3.6812
X5.406Y-4.4312
X5.7186Y-6.125
X5.856Y-4.8875
X5.906Y-2.9375
X5.906Y-3.6875
X5.906Y-4.4375
X5.9686Y-6.025
X6.106Y-4.7875
X6.156Y-2.8375
X6.156Y-3.5875
X6.156Y-4.3375
X6.4686Y-6.0312
X6.7186Y-5.9312
X6.856Y-2.4937
X6.856Y-3.2437
X6.856Y-3.9937
X6.856Y-4.7437
X6.956Y-2.7437
X6.956Y-3.4937
X6.956Y-4.2437
X6.956Y-4.9937
X7.606Y-2.5875
X7.606Y-3.3375
X7.606Y-4.0875
X7.606Y-4.8375
X7.706Y-2.8375
X7.706Y-3.5875
X7.706Y-4.3375
X7.706Y-5.0875
X8.156Y-3.125
X8.156Y-3.875
X8.156Y-4.625
X8.156Y-5.375
X8.406Y-3.025
X8.406Y-3.775
X8.406Y-4.525
X8.406Y-5.275
X8.906Y-3.125
X8.906Y-3.875
X8.906Y-4.625
X8.906Y-5.375
X9.156Y-3.025
X9.156Y-3.775
X9.156Y-4.525
X9.156Y-5.275
T4
X4.3604Y-6.8063
X4.9823Y-6.2494
X5.256Y-2.8312
X5.256Y-3.5812
X5.256Y-4.3312
X5.256Y-5.0812
X5.8186Y-5.925
X6.006Y-2.7375
X6.006Y-3.4875
X6.006Y-4.2375
X6.006Y-4.9875
X6.5686Y-5.8312
X6.756Y-2.6437
X6.756Y-3.3937
X6.756Y-4.1437
X6.756Y-4.8937
X7.506Y-2.7375
X7.506Y-3.4875
X7.506Y-4.2375
X7.506Y-4.9875
X8.256Y-2.925
X8.256Y-3.675
X8.256Y-4.425
X8.256Y-5.175
X9.006Y-2.925
X9.006Y-3.675
X9.006Y-4.425
X9.006Y-5.175
T0
M30
